<svg width="223" height="187" viewBox="0 0 223 187" fill="none" xmlns="http://www.w3.org/2000/svg">
<line x1="33.6943" y1="126.216" x2="90.0632" y2="0.795022" stroke="#252321"/>
<circle cx="62.3351" cy="63.0058" r="52.1412" fill="#995C38"/>
<path d="M93.58 89.5132C93.8212 89.3789 93.9079 89.0744 93.7735 88.8331L91.5839 84.9018C91.4495 84.6605 91.145 84.5739 90.9038 84.7082C90.6625 84.8426 90.5759 85.1471 90.7102 85.3884L92.6566 88.8829L89.162 90.8292C88.9208 90.9636 88.8341 91.2681 88.9685 91.5093C89.1029 91.7506 89.4074 91.8372 89.6486 91.7029L93.58 89.5132ZM18.7853 33.636C13.8292 32.2199 9.88557 31.6216 6.95544 31.7303C4.04965 31.8382 1.99905 32.6506 1.05574 34.2228C0.109642 35.7997 0.41262 37.9123 1.64513 40.2804C2.88816 42.6686 5.13942 45.4487 8.3523 48.4843C21.2028 60.626 49.8229 77.2143 93.1998 89.5573L93.4735 88.5955C50.1833 76.2772 21.7304 59.7487 9.03908 47.7575C5.86649 44.7599 3.70297 42.0682 2.53218 39.8187C1.35087 37.549 1.24098 35.8578 1.91324 34.7373C2.58828 33.6122 4.18726 32.8337 6.99252 32.7296C9.77345 32.6264 13.6024 33.1951 18.5106 34.5975L18.7853 33.636Z" fill="#252321"/>
<line x1="180.395" y1="96.3737" x2="209.94" y2="30.6371" stroke="#252321"/>
<circle cx="195.624" cy="63.3411" r="27.3287" fill="#573B2B"/>
<path d="M212.116 77.4423C212.357 77.3079 212.444 77.0034 212.309 76.7622L210.12 72.8308C209.985 72.5895 209.681 72.5029 209.439 72.6373C209.198 72.7716 209.112 73.0761 209.246 73.3174L211.192 76.8119L207.698 78.7582C207.456 78.8926 207.37 79.1971 207.504 79.4384C207.639 79.6796 207.943 79.7662 208.184 79.6319L212.116 77.4423ZM172.863 47.7187C170.254 46.9733 168.16 46.6526 166.589 46.7109C165.042 46.7683 163.86 47.2022 163.301 48.1327C162.74 49.0678 162.945 50.2753 163.603 51.5399C164.272 52.8247 165.473 54.3028 167.166 55.9029C173.939 62.3025 188.98 71.0112 211.736 77.4864L212.009 76.5245C189.34 70.074 174.467 61.4252 167.853 55.176C166.2 53.614 165.087 52.2242 164.49 51.0782C163.883 49.912 163.872 49.1258 164.159 48.6472C164.449 48.1639 165.179 47.7639 166.626 47.7103C168.048 47.6575 170.027 47.9485 172.588 48.6803L172.863 47.7187Z" fill="#252321"/>
<path d="M40.2784 160H47.642V158.489H42.0341V154.926H47.1932V153.42H42.0341V149.875H47.5739V148.364H40.2784V160ZM52.8024 160.193C54.2456 160.193 55.0581 159.46 55.382 158.807H55.4502V160H57.1093V154.205C57.1093 151.665 55.1093 151.159 53.7229 151.159C52.1434 151.159 50.6888 151.795 50.1206 153.386L51.7172 153.75C51.9672 153.131 52.6036 152.534 53.7456 152.534C54.8422 152.534 55.4047 153.108 55.4047 154.097V154.136C55.4047 154.756 54.7684 154.744 53.2002 154.926C51.5468 155.119 49.8536 155.551 49.8536 157.534C49.8536 159.25 51.1434 160.193 52.8024 160.193ZM53.1718 158.83C52.2115 158.83 51.5184 158.398 51.5184 157.557C51.5184 156.648 52.3252 156.324 53.3081 156.193C53.8593 156.119 55.1661 155.972 55.4104 155.727V156.852C55.4104 157.886 54.5865 158.83 53.1718 158.83ZM59.852 160H61.5509V154.67C61.5509 153.528 62.4316 152.705 63.6361 152.705C63.9884 152.705 64.3861 152.767 64.5225 152.807V151.182C64.352 151.159 64.0168 151.142 63.8009 151.142C62.7782 151.142 61.9032 151.722 61.585 152.659H61.4941V151.273H59.852V160ZM71.0622 151.273H69.2724V149.182H67.5735V151.273H66.2951V152.636H67.5735V157.79C67.5678 159.375 68.7781 160.142 70.119 160.114C70.6588 160.108 71.0224 160.006 71.2213 159.932L70.9144 158.528C70.8008 158.551 70.5906 158.602 70.3178 158.602C69.7667 158.602 69.2724 158.42 69.2724 157.438V152.636H71.0622V151.273ZM75.3078 154.818C75.3078 153.426 76.1885 152.631 77.3987 152.631C78.5691 152.631 79.268 153.375 79.268 154.653V160H80.9669V154.449C80.9669 152.273 79.7737 151.159 77.9782 151.159C76.6203 151.159 75.8021 151.75 75.393 152.693H75.2851V148.364H73.6089V160H75.3078V154.818Z" fill="#252321"/>
<path d="M46.3395 184H52.0838V182.871H48.1548V182.807L49.8892 180.991C51.4872 179.376 51.9432 178.605 51.9432 177.629C51.9432 176.227 50.8011 175.153 49.1562 175.153C47.5241 175.153 46.331 176.21 46.331 177.804H47.5881C47.5838 176.866 48.1889 176.253 49.1307 176.253C50.017 176.253 50.6903 176.798 50.6903 177.668C50.6903 178.439 50.2301 178.993 49.2926 179.986L46.3395 183.045V184ZM56.7372 184.119C58.5185 184.119 59.8267 183.054 59.8224 181.605C59.8267 180.501 59.1577 179.709 57.9986 179.53V179.462C58.9105 179.227 59.5028 178.511 59.4986 177.531C59.5028 176.249 58.4503 175.153 56.7713 175.153C55.169 175.153 53.8821 176.121 53.8395 177.54L55.1136 177.54C55.1435 176.739 55.8977 176.253 56.7543 176.253C57.6449 176.253 58.2287 176.794 58.2244 177.599C58.2287 178.443 57.5511 178.997 56.5838 178.997H55.8466V180.071H56.5838C57.794 180.071 58.4929 180.685 58.4929 181.563C58.4929 182.411 57.7557 182.986 56.7287 182.986C55.7827 182.986 55.0455 182.5 54.9943 181.724L53.6562 181.724C53.7116 183.148 54.973 184.119 56.7372 184.119ZM62.0202 184.081C62.4847 184.081 62.8725 183.702 62.8725 183.229C62.8725 182.764 62.4847 182.381 62.0202 182.381C61.5515 182.381 61.168 182.764 61.168 183.229C61.168 183.702 61.5515 184.081 62.0202 184.081ZM67.3022 184.119C69.0579 184.119 70.3107 182.879 70.3065 181.179C70.3107 179.491 69.1346 178.264 67.5451 178.264C66.8974 178.264 66.2965 178.511 65.9556 178.844H65.9045L66.1815 176.402H69.8846V175.273H65.0863L64.5962 179.67L65.8022 179.849C66.1303 179.555 66.7184 179.355 67.2468 179.355C68.2823 179.364 69.0323 180.139 69.0323 181.205C69.0323 182.253 68.3036 183.011 67.3022 183.011C66.4585 183.011 65.7894 182.474 65.7212 181.724H64.4428C64.494 183.114 65.6999 184.119 67.3022 184.119ZM73.7592 179.219C74.8672 179.219 75.7663 178.32 75.7663 177.212C75.7663 176.104 74.8672 175.209 73.7592 175.209C72.6555 175.209 71.7564 176.104 71.7564 177.212C71.7564 178.32 72.6555 179.219 73.7592 179.219ZM73.7592 178.247C73.1882 178.247 72.728 177.783 72.728 177.212C72.728 176.641 73.1882 176.18 73.7592 176.18C74.3345 176.18 74.7947 176.641 74.7947 177.212C74.7947 177.783 74.3345 178.247 73.7592 178.247Z" fill="#252321"/>
<path d="M179.278 148.364V160H180.949V151.574H181.057L184.489 159.983H185.875L189.307 151.58H189.415V160H191.085V148.364H188.955L185.25 157.409H185.114L181.409 148.364H179.278ZM196.521 160.193C197.964 160.193 198.777 159.46 199.101 158.807H199.169V160H200.828V154.205C200.828 151.665 198.828 151.159 197.442 151.159C195.862 151.159 194.408 151.795 193.839 153.386L195.436 153.75C195.686 153.131 196.322 152.534 197.464 152.534C198.561 152.534 199.123 153.108 199.123 154.097V154.136C199.123 154.756 198.487 154.744 196.919 154.926C195.266 155.119 193.572 155.551 193.572 157.534C193.572 159.25 194.862 160.193 196.521 160.193ZM196.891 158.83C195.93 158.83 195.237 158.398 195.237 157.557C195.237 156.648 196.044 156.324 197.027 156.193C197.578 156.119 198.885 155.972 199.129 155.727V156.852C199.129 157.886 198.305 158.83 196.891 158.83ZM203.571 160H205.27V154.67C205.27 153.528 206.15 152.705 207.355 152.705C207.707 152.705 208.105 152.767 208.241 152.807V151.182C208.071 151.159 207.736 151.142 207.52 151.142C206.497 151.142 205.622 151.722 205.304 152.659H205.213V151.273H203.571V160ZM216.731 153.403C216.379 152.045 215.316 151.159 213.43 151.159C211.458 151.159 210.061 152.199 210.061 153.744C210.061 154.983 210.811 155.807 212.447 156.17L213.924 156.494C214.765 156.682 215.157 157.057 215.157 157.602C215.157 158.278 214.436 158.807 213.322 158.807C212.305 158.807 211.652 158.369 211.447 157.511L209.805 157.761C210.089 159.307 211.373 160.176 213.333 160.176C215.441 160.176 216.902 159.057 216.902 157.477C216.902 156.244 216.118 155.483 214.515 155.114L213.129 154.795C212.169 154.568 211.754 154.244 211.76 153.653C211.754 152.983 212.481 152.506 213.447 152.506C214.504 152.506 214.993 153.091 215.191 153.676L216.731 153.403Z" fill="#252321"/>
<path d="M188.339 184H194.084V182.871H190.155V182.807L191.889 180.991C193.487 179.376 193.943 178.605 193.943 177.629C193.943 176.227 192.801 175.153 191.156 175.153C189.524 175.153 188.331 176.21 188.331 177.804H189.588C189.584 176.866 190.189 176.253 191.131 176.253C192.017 176.253 192.69 176.798 192.69 177.668C192.69 178.439 192.23 178.993 191.293 179.986L188.339 183.045V184ZM198.58 184.119C200.335 184.119 201.588 182.879 201.584 181.179C201.588 179.491 200.412 178.264 198.822 178.264C198.175 178.264 197.574 178.511 197.233 178.844H197.182L197.459 176.402H201.162V175.273H196.364L195.874 179.67L197.08 179.849C197.408 179.555 197.996 179.355 198.524 179.355C199.56 179.364 200.31 180.139 200.31 181.205C200.31 182.253 199.581 183.011 198.58 183.011C197.736 183.011 197.067 182.474 196.999 181.724L195.72 181.724C195.771 183.114 196.977 184.119 198.58 184.119ZM205.037 179.219C206.145 179.219 207.044 178.32 207.044 177.212C207.044 176.104 206.145 175.209 205.037 175.209C203.933 175.209 203.034 176.104 203.034 177.212C203.034 178.32 203.933 179.219 205.037 179.219ZM205.037 178.247C204.466 178.247 204.005 177.783 204.005 177.212C204.005 176.641 204.466 176.18 205.037 176.18C205.612 176.18 206.072 176.641 206.072 177.212C206.072 177.783 205.612 178.247 205.037 178.247Z" fill="#252321"/>
</svg>
