<svg width="269" height="215" viewBox="0 0 269 215" fill="none" xmlns="http://www.w3.org/2000/svg">
<line x1="127.5" y1="13.4817" x2="127.5" y2="145.716" stroke="#252321"/>
<line x1="136.5" y1="13.0019" x2="136" y2="146.002" stroke="#252321"/>
<line x1="94" y1="145.216" x2="169.95" y2="145.216" stroke="#252321"/>
<line x1="50.7305" y1="25.1933" x2="212.788" y2="1.36132" stroke="#252321"/>
<circle cx="50.4641" cy="86.3801" r="27.4641" fill="#995C38"/>
<mask id="path-6-inside-1" fill="white">
<path fill-rule="evenodd" clip-rule="evenodd" d="M23.0021 86.0413C23.0007 86.1541 23 86.2671 23 86.3803C23 101.548 35.2961 113.844 50.4641 113.844C65.632 113.844 77.9281 101.548 77.9281 86.3803C77.9281 86.2671 77.9274 86.1541 77.9261 86.0413H23.0021Z"/>
</mask>
<path d="M23.0021 86.0413V85.0413H22.0141L22.0021 86.0292L23.0021 86.0413ZM77.9261 86.0413L78.926 86.0292L78.914 85.0413H77.9261V86.0413ZM24 86.3803C24 86.2712 24.0007 86.1622 24.002 86.0534L22.0021 86.0292C22.0007 86.1461 22 86.2631 22 86.3803H24ZM50.4641 112.844C35.8484 112.844 24 100.996 24 86.3803H22C22 102.101 34.7438 114.844 50.4641 114.844V112.844ZM76.9281 86.3803C76.9281 100.996 65.0798 112.844 50.4641 112.844V114.844C66.1843 114.844 78.9281 102.101 78.9281 86.3803H76.9281ZM76.9261 86.0534C76.9275 86.1622 76.9281 86.2712 76.9281 86.3803H78.9281C78.9281 86.2631 78.9274 86.1461 78.926 86.0292L76.9261 86.0534ZM77.9261 85.0413H23.0021V87.0413H77.9261V85.0413Z" fill="#252321" mask="url(#path-6-inside-1)"/>
<line x1="77.4722" y1="86.246" x2="50.3472" y2="25.8929" stroke="#252321"/>
<line x1="23.2213" y1="86.5162" x2="50.3463" y2="25.4849" stroke="#252321"/>
<mask id="path-10-inside-2" fill="white">
<path fill-rule="evenodd" clip-rule="evenodd" d="M185.074 62.3069C185.072 62.4197 185.072 62.5328 185.072 62.6459C185.072 77.8139 197.368 90.11 212.536 90.11C227.704 90.11 240 77.8139 240 62.6459C240 62.5328 239.999 62.4197 239.998 62.3069H185.074Z"/>
</mask>
<path d="M185.074 62.3069V61.3069H184.086L184.074 62.2948L185.074 62.3069ZM239.998 62.3069L240.998 62.2948L240.986 61.3069H239.998V62.3069ZM186.072 62.6459C186.072 62.5368 186.072 62.4278 186.074 62.319L184.074 62.2948C184.072 62.4117 184.072 62.5287 184.072 62.6459H186.072ZM212.536 89.11C197.92 89.11 186.072 77.2616 186.072 62.6459H184.072C184.072 78.3662 196.816 91.11 212.536 91.11V89.11ZM239 62.6459C239 77.2616 227.152 89.11 212.536 89.11V91.11C228.256 91.11 241 78.3662 241 62.6459H239ZM238.998 62.319C238.999 62.4278 239 62.5368 239 62.6459H241C241 62.5287 240.999 62.4117 240.998 62.2948L238.998 62.319ZM239.998 61.3069H185.074V63.3069H239.998V61.3069Z" fill="#252321" mask="url(#path-10-inside-2)"/>
<circle cx="212.875" cy="76.5472" r="12.8844" fill="#252321"/>
<path d="M249.403 58.2727H248.12L245.942 59.696V60.9574L248.03 59.5938H248.081V67H249.403V58.2727ZM255.104 57.8636H253.966L251.154 68.3125H252.292L255.104 57.8636ZM259.481 58.2727H258.198L256.02 59.696V60.9574L258.108 59.5938H258.16V67H259.481V58.2727ZM264.88 67.1449C266.895 67.1449 268.076 65.5 268.076 62.6406C268.076 59.8026 266.878 58.1534 264.88 58.1534C262.877 58.1534 261.684 59.7983 261.68 62.6406C261.68 65.4957 262.86 67.1406 264.88 67.1449ZM264.88 66.0071C263.699 66.0071 262.988 64.8224 262.988 62.6406C262.992 60.4673 263.704 59.2699 264.88 59.2699C266.052 59.2699 266.768 60.4673 266.768 62.6406C266.768 64.8224 266.056 66.0071 264.88 66.0071Z" fill="#252321"/>
<path d="M88.1506 83.2727H86.8679L84.6903 84.696V85.9574L86.7784 84.5938H86.8295V92H88.1506V83.2727Z" fill="#252321"/>
<line x1="239.543" y1="63.1879" x2="212.418" y2="2.15668" stroke="#252321"/>
<line x1="185.293" y1="62.7818" x2="212.418" y2="1.75054" stroke="#252321"/>
<path d="M35.9588 174H41.4815V172.866H37.2756L37.2756 170.195H41.1449V169.065H37.2756L37.2756 166.406H41.4304V165.273H35.9588L35.9588 174ZM44.9918 174.145C46.0742 174.145 46.6836 173.595 46.9265 173.105H46.9776V174H48.2219L48.2219 169.653C48.2219 167.749 46.7219 167.369 45.6822 167.369C44.4975 167.369 43.4066 167.847 42.9805 169.04L44.1779 169.313C44.3654 168.848 44.8427 168.401 45.6992 168.401C46.5217 168.401 46.9435 168.831 46.9435 169.572V169.602C46.9435 170.067 46.4663 170.058 45.2901 170.195C44.0501 170.339 42.7802 170.663 42.7802 172.151C42.7802 173.438 43.7475 174.145 44.9918 174.145ZM45.2688 173.122C44.5487 173.122 44.0288 172.798 44.0288 172.168C44.0288 171.486 44.6339 171.243 45.3711 171.145C45.7844 171.089 46.7646 170.979 46.9478 170.795V171.639C46.9478 172.415 46.3299 173.122 45.2688 173.122ZM49.919 174H51.1932L51.1932 170.003C51.1932 169.146 51.8537 168.528 52.7571 168.528C53.0213 168.528 53.3196 168.575 53.4219 168.605V167.386C53.294 167.369 53.0426 167.357 52.8807 167.357C52.1136 167.357 51.4574 167.791 51.2187 168.494H51.1506V167.455H49.919L49.919 174ZM57.9666 167.455H56.6243L56.6243 165.886H55.3501L55.3501 167.455H54.3913V168.477H55.3501V172.342C55.3459 173.531 56.2536 174.107 57.2592 174.085C57.6641 174.081 57.9368 174.004 58.0859 173.949L57.8558 172.896C57.7706 172.913 57.6129 172.952 57.4084 172.952C56.995 172.952 56.6243 172.815 56.6243 172.078V168.477H57.9666V167.455ZM60.7908 170.114C60.7908 169.07 61.4513 168.473 62.359 168.473C63.2369 168.473 63.761 169.031 63.761 169.99L63.761 174H65.0352L65.0352 169.837C65.0352 168.205 64.1403 167.369 62.7937 167.369C61.7752 167.369 61.1616 167.813 60.8548 168.52H60.7738L60.7738 165.273L59.5167 165.273L59.5167 174H60.7908L60.7908 170.114Z" fill="#252321"/>
<path d="M3.72017 193.119C5.47585 193.119 6.72869 191.879 6.72443 190.179C6.72869 188.491 5.55256 187.264 3.96307 187.264C3.31534 187.264 2.71449 187.511 2.37358 187.844H2.32244L2.59943 185.402H6.30256L6.30256 184.273H1.50426L1.0142 188.67L2.22017 188.849C2.5483 188.555 3.13636 188.355 3.66477 188.355C4.70028 188.364 5.45028 189.139 5.45028 190.205C5.45028 191.253 4.72159 192.011 3.72017 192.011C2.87642 192.011 2.20739 191.474 2.1392 190.724H0.860795C0.911932 192.114 2.1179 193.119 3.72017 193.119ZM11.1829 184.153C9.3505 184.136 8.15305 185.453 8.15305 187.107C8.15732 188.773 9.36328 189.974 10.8761 189.974C11.8008 189.974 12.5934 189.523 13.0408 188.79H13.109C13.1048 190.797 12.3505 191.969 11.0721 191.969C10.2369 191.969 9.69993 191.457 9.52947 190.712L8.22976 190.712C8.42152 192.122 9.51243 193.119 11.0721 193.119C13.1005 193.119 14.3704 191.376 14.3704 188.321C14.3661 185.134 12.7383 184.166 11.1829 184.153ZM11.1871 185.261C12.1971 185.261 12.9428 186.118 12.9428 187.077C12.9471 188.048 12.1587 188.901 11.1616 188.901C10.1602 188.901 9.43572 188.099 9.43146 187.089C9.43146 186.075 10.1857 185.261 11.1871 185.261ZM15.9695 193H17.3459L21.1428 185.44V184.273H15.3729L15.3729 185.402H19.7791V185.466L15.9695 193ZM22.6246 193L28.369 193L28.369 191.871H24.44V191.807L26.1744 189.991C27.7724 188.376 28.2283 187.605 28.2283 186.629C28.2283 185.227 27.0863 184.153 25.4414 184.153C23.8093 184.153 22.6161 185.21 22.6161 186.804H23.8732C23.869 185.866 24.4741 185.253 25.4158 185.253C26.3022 185.253 26.9755 185.798 26.9755 186.668C26.9755 187.439 26.5153 187.993 25.5778 188.986L22.6246 192.045L22.6246 193ZM38.0817 188.053C37.8175 187.034 37.0206 186.369 35.6058 186.369C34.1271 186.369 33.0788 187.149 33.0788 188.308C33.0788 189.237 33.6413 189.855 34.8686 190.128L35.9766 190.371C36.6072 190.511 36.9013 190.793 36.9013 191.202C36.9013 191.709 36.3601 192.105 35.5249 192.105C34.7621 192.105 34.272 191.777 34.1186 191.134L32.8871 191.321C33.1001 192.48 34.0632 193.132 35.5334 193.132C37.1143 193.132 38.2095 192.293 38.2095 191.108C38.2095 190.183 37.6214 189.612 36.4197 189.335L35.38 189.097C34.6598 188.926 34.3487 188.683 34.353 188.24C34.3487 187.737 34.8942 187.379 35.6186 187.379C36.4112 187.379 36.7777 187.818 36.9268 188.257L38.0817 188.053ZM42.4315 193.132C43.859 193.132 44.869 192.429 45.1587 191.364L43.9528 191.146C43.7227 191.764 43.1687 192.08 42.4442 192.08C41.3533 192.08 40.6204 191.372 40.5863 190.111L45.2397 190.111V189.659C45.2397 187.294 43.8249 186.369 42.342 186.369C40.5181 186.369 39.3164 187.759 39.3164 189.77C39.3164 191.803 40.5011 193.132 42.4315 193.132ZM40.5906 189.156C40.6417 188.227 41.315 187.422 42.3505 187.422C43.3391 187.422 43.9869 188.155 43.9911 189.156L40.5906 189.156ZM47.5067 186.455H46.109L48.1204 189.727L46.0835 193H47.4812L48.9513 190.554L50.4258 193H51.8192L49.761 189.727L51.8022 186.455H50.4087L48.9513 189.003L47.5067 186.455ZM56.1658 186.455H54.8235V184.886H53.5494V186.455H52.5906L52.5906 187.477H53.5494V191.342C53.5451 192.531 54.4528 193.107 55.4585 193.085C55.8633 193.081 56.136 193.004 56.2852 192.949L56.055 191.896C55.9698 191.913 55.8121 191.952 55.6076 191.952C55.1942 191.952 54.8235 191.815 54.8235 191.078V187.477H56.1658L56.1658 186.455ZM57.5753 193H58.8494L58.8494 186.455L57.5753 186.455L57.5753 193ZM58.2187 185.445C58.6577 185.445 59.0241 185.104 59.0241 184.686C59.0241 184.268 58.6577 183.923 58.2187 183.923C57.7756 183.923 57.4134 184.268 57.4134 184.686C57.4134 185.104 57.7756 185.445 58.2187 185.445ZM61.8377 184.273H60.5636L60.5636 193H61.8377L61.8377 184.273ZM64.826 184.273H63.5518L63.5518 193H64.826L64.826 184.273ZM66.5401 193H67.8143V186.455H66.5401V193ZM67.1836 185.445C67.6225 185.445 67.989 185.104 67.989 184.686C67.989 184.268 67.6225 183.923 67.1836 183.923C66.7404 183.923 66.3782 184.268 66.3782 184.686C66.3782 185.104 66.7404 185.445 67.1836 185.445ZM72.2855 193.132C74.1307 193.132 75.3366 191.781 75.3366 189.757C75.3366 187.72 74.1307 186.369 72.2855 186.369C70.4403 186.369 69.2344 187.72 69.2344 189.757C69.2344 191.781 70.4403 193.132 72.2855 193.132ZM72.2898 192.063C71.0838 192.063 70.5213 191.01 70.5213 189.753C70.5213 188.5 71.0838 187.435 72.2898 187.435C73.4872 187.435 74.0497 188.5 74.0497 189.753C74.0497 191.01 73.4872 192.063 72.2898 192.063ZM78.033 189.114C78.033 188.07 78.6722 187.473 79.5586 187.473C80.4237 187.473 80.9478 188.04 80.9478 188.99V193H82.2219V188.837C82.2219 187.217 81.3313 186.369 79.9933 186.369C79.0089 186.369 78.3654 186.825 78.0629 187.52H77.9819V186.455H76.7589V193H78.033V189.114ZM87.1065 193H88.3807V190.678L89.0156 190.043L91.2401 193H92.804L89.9744 189.263L92.625 186.455H91.0994L88.4915 189.224H88.3807L88.3807 184.273H87.1065L87.1065 193ZM96.261 195.591C97.9272 195.591 99.2141 194.828 99.2141 193.145V186.455H97.9656V187.516H97.8718C97.646 187.111 97.1942 186.369 95.9755 186.369C94.3945 186.369 93.2312 187.618 93.2312 189.702C93.2312 191.79 94.4201 192.902 95.967 192.902C97.1687 192.902 97.6332 192.224 97.8633 191.807H97.9442V193.094C97.9442 194.121 97.2411 194.564 96.2738 194.564C95.2127 194.564 94.7994 194.031 94.5735 193.656L93.4783 194.108C93.8235 194.909 94.6971 195.591 96.261 195.591ZM96.2482 191.845C95.1104 191.845 94.5181 190.972 94.5181 189.685C94.5181 188.428 95.0977 187.452 96.2482 187.452C97.3604 187.452 97.957 188.359 97.957 189.685C97.957 191.036 97.3477 191.845 96.2482 191.845Z" fill="#252321"/>
<path d="M6.72017 212.119C8.47585 212.119 9.72869 210.879 9.72443 209.179C9.72869 207.491 8.55256 206.264 6.96307 206.264C6.31534 206.264 5.71449 206.511 5.37358 206.844H5.32244L5.59943 204.402H9.30256L9.30256 203.273H4.50426L4.0142 207.67L5.22017 207.849C5.5483 207.555 6.13636 207.355 6.66477 207.355C7.70028 207.364 8.45028 208.139 8.45028 209.205C8.45028 210.253 7.72159 211.011 6.72017 211.011C5.87642 211.011 5.20739 210.474 5.1392 209.724H3.8608C3.91193 211.114 5.1179 212.119 6.72017 212.119ZM11.8327 212.081C12.2972 212.081 12.685 211.702 12.685 211.229C12.685 210.764 12.2972 210.381 11.8327 210.381C11.364 210.381 10.9805 210.764 10.9805 211.229C10.9805 211.702 11.364 212.081 11.8327 212.081ZM17.1712 203.153C15.3388 203.136 14.1413 204.453 14.1413 206.107C14.1456 207.773 15.3516 208.974 16.8643 208.974C17.7891 208.974 18.5817 208.523 19.0291 207.79H19.0973C19.093 209.797 18.3388 210.969 17.0604 210.969C16.2251 210.969 15.6882 210.457 15.5178 209.712H14.218C14.4098 211.122 15.5007 212.119 17.0604 212.119C19.0888 212.119 20.3587 210.376 20.3587 207.321C20.3544 204.134 18.7266 203.166 17.1712 203.153ZM17.1754 204.261C18.1854 204.261 18.9311 205.118 18.9311 206.077C18.9354 207.048 18.147 207.901 17.1499 207.901C16.1484 207.901 15.424 207.099 15.4197 206.089C15.4197 205.075 16.174 204.261 17.1754 204.261ZM21.9577 212H23.3342L27.131 204.44V203.273H21.3612V204.402H25.7674V204.466L21.9577 212ZM28.6129 212H34.3572L34.3572 210.871H30.4283V210.807L32.1626 208.991C33.7607 207.376 34.2166 206.605 34.2166 205.629C34.2166 204.227 33.0746 203.153 31.4297 203.153C29.7976 203.153 28.6044 204.21 28.6044 205.804H29.8615C29.8572 204.866 30.4624 204.253 31.4041 204.253C32.2905 204.253 32.9638 204.798 32.9638 205.668C32.9638 206.439 32.5036 206.993 31.5661 207.986L28.6129 211.045L28.6129 212ZM35.9723 212H41.7166V210.871H37.7876V210.807L39.522 208.991C41.12 207.376 41.576 206.605 41.576 205.629C41.576 204.227 40.4339 203.153 38.7891 203.153C37.157 203.153 35.9638 204.21 35.9638 205.804H37.2209C37.2166 204.866 37.8217 204.253 38.7635 204.253C39.6499 204.253 40.3232 204.798 40.3232 205.668C40.3232 206.439 39.8629 206.993 38.9254 207.986L35.9723 211.045V212ZM51.7106 210.551L52.516 209.746L50.4705 207.7L52.516 205.655L51.7106 204.845L49.6651 206.891L47.6154 204.845L46.81 205.655L48.8555 207.7L46.81 209.746L47.6154 210.551L49.6651 208.506L51.7106 210.551ZM60.9865 203.273L59.7038 203.273L57.5263 204.696V205.957L59.6143 204.594H59.6655L59.6655 212L60.9865 212L60.9865 203.273ZM66.3857 212.145C68.4013 212.145 69.5817 210.5 69.5817 207.641C69.5817 204.803 68.3842 203.153 66.3857 203.153C64.3828 203.153 63.1896 204.798 63.1854 207.641C63.1854 210.496 64.3658 212.141 66.3857 212.145ZM66.3857 211.007C65.2053 211.007 64.4936 209.822 64.4936 207.641C64.4979 205.467 65.2095 204.27 66.3857 204.27C67.5575 204.27 68.2734 205.467 68.2734 207.641C68.2734 209.822 67.5618 211.007 66.3857 211.007ZM70.8249 207.636H74.8391V206.78H72.342V206.741L73.3306 205.906C74.2937 205.139 74.7156 204.636 74.7156 203.92C74.7156 203.021 73.9315 202.335 72.7596 202.335C71.5962 202.335 70.7695 202.987 70.7695 203.997H71.7795C71.7795 203.49 72.163 203.166 72.7425 203.166C73.288 203.166 73.7099 203.46 73.7099 203.938C73.7099 204.364 73.4031 204.662 72.8491 205.143L70.8249 206.878V207.636ZM75.6051 206.69L78.3793 206.69V207.636H79.3892V206.69H80.1094V205.855H79.3892L79.3892 202.403H78.0639L75.6051 205.872V206.69ZM78.3835 205.855L76.679 205.855V205.817L78.3452 203.554H78.3835L78.3835 205.855ZM84.5401 212H85.8143V209.678L86.4492 209.043L88.6737 212H90.2376L87.408 208.263L90.0586 205.455H88.533L85.9251 208.224H85.8143L85.8143 203.273H84.5401L84.5401 212ZM93.6946 214.591C95.3608 214.591 96.6477 213.828 96.6477 212.145V205.455H95.3991V206.516H95.3054C95.0795 206.111 94.6278 205.369 93.4091 205.369C91.8281 205.369 90.6648 206.618 90.6648 208.702C90.6648 210.79 91.8537 211.902 93.4006 211.902C94.6023 211.902 95.0668 211.224 95.2969 210.807H95.3778V212.094C95.3778 213.121 94.6747 213.564 93.7074 213.564C92.6463 213.564 92.233 213.031 92.0071 212.656L90.9119 213.108C91.2571 213.909 92.1307 214.591 93.6946 214.591ZM93.6818 210.845C92.544 210.845 91.9517 209.972 91.9517 208.685C91.9517 207.428 92.5312 206.452 93.6818 206.452C94.794 206.452 95.3906 207.359 95.3906 208.685C95.3906 210.036 94.7812 210.845 93.6818 210.845Z" fill="#68432E"/>
<path d="M198.959 165.273L198.959 174H200.212L200.212 167.68H200.293L202.866 173.987H203.906L206.48 167.685L206.561 167.685L206.561 174L207.814 174L207.814 165.273L206.216 165.273L203.437 172.057H203.335L200.557 165.273H198.959ZM211.531 174.145C212.613 174.145 213.223 173.595 213.466 173.105H213.517V174H214.761L214.761 169.653C214.761 167.749 213.261 167.369 212.221 167.369C211.037 167.369 209.946 167.847 209.52 169.04L210.717 169.313C210.904 168.848 211.382 168.401 212.238 168.401C213.061 168.401 213.483 168.831 213.483 169.572V169.602C213.483 170.067 213.005 170.058 211.829 170.195C210.589 170.339 209.319 170.663 209.319 172.151C209.319 173.438 210.287 174.145 211.531 174.145ZM211.808 173.122C211.088 173.122 210.568 172.798 210.568 172.168C210.568 171.486 211.173 171.243 211.91 171.145C212.324 171.089 213.304 170.979 213.487 170.795L213.487 171.639C213.487 172.415 212.869 173.122 211.808 173.122ZM216.458 174H217.732L217.732 170.003C217.732 169.146 218.393 168.528 219.296 168.528C219.56 168.528 219.859 168.575 219.961 168.605V167.386C219.833 167.369 219.582 167.357 219.42 167.357C218.653 167.357 217.996 167.791 217.758 168.494H217.69V167.455H216.458L216.458 174ZM225.968 169.053C225.704 168.034 224.907 167.369 223.493 167.369C222.014 167.369 220.966 168.149 220.966 169.308C220.966 170.237 221.528 170.855 222.755 171.128L223.863 171.371C224.494 171.511 224.788 171.793 224.788 172.202C224.788 172.709 224.247 173.105 223.412 173.105C222.649 173.105 222.159 172.777 222.005 172.134L220.774 172.321C220.987 173.48 221.95 174.132 223.42 174.132C225.001 174.132 226.096 173.293 226.096 172.108C226.096 171.183 225.508 170.612 224.306 170.335L223.267 170.097C222.547 169.926 222.235 169.683 222.24 169.24C222.235 168.737 222.781 168.379 223.505 168.379C224.298 168.379 224.664 168.818 224.814 169.257L225.968 169.053Z" fill="#252321"/>
<path d="M169.386 193.119C171.21 193.136 172.42 191.824 172.416 190.149C172.42 188.479 171.206 187.281 169.693 187.281C168.773 187.281 167.976 187.724 167.528 188.462H167.464C167.469 186.48 168.219 185.304 169.497 185.304C170.337 185.304 170.865 185.815 171.044 186.54H172.344C172.143 185.159 171.057 184.153 169.497 184.153C167.469 184.153 166.203 185.896 166.203 188.93C166.199 192.143 167.835 193.107 169.386 193.119ZM169.382 192.011C168.368 192.011 167.626 191.159 167.626 190.179C167.631 189.203 168.406 188.351 169.412 188.351C170.409 188.351 171.142 189.156 171.138 190.166C171.142 191.197 170.379 192.011 169.382 192.011ZM173.785 191.295L177.923 191.295V193H179.18V191.295H180.335V190.179H179.18L179.18 184.273H177.556L173.785 190.23V191.295ZM177.931 190.179H175.166V190.111L177.863 185.841H177.931L177.931 190.179ZM181.82 193H187.564V191.871H183.635V191.807L185.37 189.991C186.968 188.376 187.424 187.605 187.424 186.629C187.424 185.227 186.282 184.153 184.637 184.153C183.005 184.153 181.811 185.21 181.811 186.804H183.069C183.064 185.866 183.669 185.253 184.611 185.253C185.498 185.253 186.171 185.798 186.171 186.668C186.171 187.439 185.711 187.993 184.773 188.986L181.82 192.045V193ZM197.277 188.053C197.013 187.034 196.216 186.369 194.801 186.369C193.322 186.369 192.274 187.149 192.274 188.308C192.274 189.237 192.837 189.855 194.064 190.128L195.172 190.371C195.803 190.511 196.097 190.793 196.097 191.202C196.097 191.709 195.555 192.105 194.72 192.105C193.957 192.105 193.467 191.777 193.314 191.134L192.082 191.321C192.295 192.48 193.259 193.132 194.729 193.132C196.31 193.132 197.405 192.293 197.405 191.108C197.405 190.183 196.817 189.612 195.615 189.335L194.575 189.097C193.855 188.926 193.544 188.683 193.548 188.24C193.544 187.737 194.089 187.379 194.814 187.379C195.607 187.379 195.973 187.818 196.122 188.257L197.277 188.053ZM201.627 193.132C203.054 193.132 204.064 192.429 204.354 191.364L203.148 191.146C202.918 191.764 202.364 192.08 201.64 192.08C200.549 192.08 199.816 191.372 199.782 190.111H204.435V189.659C204.435 187.294 203.02 186.369 201.537 186.369C199.713 186.369 198.512 187.759 198.512 189.77C198.512 191.803 199.696 193.132 201.627 193.132ZM199.786 189.156C199.837 188.227 200.51 187.422 201.546 187.422C202.534 187.422 203.182 188.155 203.186 189.156H199.786ZM206.702 186.455H205.304L207.316 189.727L205.279 193H206.676L208.147 190.554L209.621 193H211.015L208.956 189.727L210.998 186.455H209.604L208.147 189.003L206.702 186.455ZM215.361 186.455H214.019V184.886H212.745V186.455H211.786V187.477H212.745V191.342C212.74 192.531 213.648 193.107 214.654 193.085C215.059 193.081 215.331 193.004 215.48 192.949L215.25 191.896C215.165 191.913 215.007 191.952 214.803 191.952C214.39 191.952 214.019 191.815 214.019 191.078V187.477H215.361V186.455ZM216.771 193H218.045L218.045 186.455H216.771L216.771 193ZM217.414 185.445C217.853 185.445 218.219 185.104 218.219 184.686C218.219 184.268 217.853 183.923 217.414 183.923C216.971 183.923 216.609 184.268 216.609 184.686C216.609 185.104 216.971 185.445 217.414 185.445ZM221.033 184.273H219.759L219.759 193H221.033L221.033 184.273ZM224.021 184.273L222.747 184.273L222.747 193L224.021 193L224.021 184.273ZM225.735 193H227.01L227.01 186.455H225.735L225.735 193ZM226.379 185.445C226.818 185.445 227.184 185.104 227.184 184.686C227.184 184.268 226.818 183.923 226.379 183.923C225.936 183.923 225.574 184.268 225.574 184.686C225.574 185.104 225.936 185.445 226.379 185.445ZM231.481 193.132C233.326 193.132 234.532 191.781 234.532 189.757C234.532 187.72 233.326 186.369 231.481 186.369C229.636 186.369 228.43 187.72 228.43 189.757C228.43 191.781 229.636 193.132 231.481 193.132ZM231.485 192.063C230.279 192.063 229.717 191.01 229.717 189.753C229.717 188.5 230.279 187.435 231.485 187.435C232.683 187.435 233.245 188.5 233.245 189.753C233.245 191.01 232.683 192.063 231.485 192.063ZM237.228 189.114C237.228 188.07 237.868 187.473 238.754 187.473C239.619 187.473 240.143 188.04 240.143 188.99V193L241.417 193V188.837C241.417 187.217 240.527 186.369 239.189 186.369C238.204 186.369 237.561 186.825 237.258 187.52H237.177V186.455H235.954V193H237.228V189.114ZM246.302 193H247.576V190.678L248.211 190.043L250.435 193H251.999L249.17 189.263L251.82 186.455H250.295L247.687 189.224H247.576V184.273H246.302V193ZM255.456 195.591C257.123 195.591 258.409 194.828 258.409 193.145V186.455H257.161V187.516H257.067C256.841 187.111 256.39 186.369 255.171 186.369C253.59 186.369 252.426 187.618 252.426 189.702C252.426 191.79 253.615 192.902 255.162 192.902C256.364 192.902 256.828 192.224 257.059 191.807H257.14V193.094C257.14 194.121 256.436 194.564 255.469 194.564C254.408 194.564 253.995 194.031 253.769 193.656L252.674 194.108C253.019 194.909 253.892 195.591 255.456 195.591ZM255.444 191.845C254.306 191.845 253.713 190.972 253.713 189.685C253.713 188.428 254.293 187.452 255.444 187.452C256.556 187.452 257.152 188.359 257.152 189.685C257.152 191.036 256.543 191.845 255.444 191.845Z" fill="#252321"/>
<path d="M168.886 212.119C170.71 212.136 171.92 210.824 171.916 209.149C171.92 207.479 170.706 206.281 169.193 206.281C168.273 206.281 167.476 206.724 167.028 207.462H166.964C166.969 205.48 167.719 204.304 168.997 204.304C169.837 204.304 170.365 204.815 170.544 205.54H171.844C171.643 204.159 170.557 203.153 168.997 203.153C166.969 203.153 165.703 204.896 165.703 207.93C165.699 211.143 167.335 212.107 168.886 212.119ZM168.882 211.011C167.868 211.011 167.126 210.159 167.126 209.179C167.131 208.203 167.906 207.351 168.912 207.351C169.909 207.351 170.642 208.156 170.638 209.166C170.642 210.197 169.879 211.011 168.882 211.011ZM173.938 212.081C174.403 212.081 174.79 211.702 174.79 211.229C174.79 210.764 174.403 210.381 173.938 210.381C173.469 210.381 173.086 210.764 173.086 211.229C173.086 211.702 173.469 212.081 173.938 212.081ZM176.297 210.295H180.435V212H181.692V210.295H182.847L182.847 209.179H181.692V203.273H180.068L176.297 209.23V210.295ZM180.443 209.179H177.678V209.111L180.375 204.841H180.443L180.443 209.179ZM187.526 203.273H186.243L184.065 204.696V205.957L186.153 204.594H186.205L186.205 212H187.526L187.526 203.273ZM192.933 212.119C194.757 212.136 195.967 210.824 195.963 209.149C195.967 207.479 194.753 206.281 193.24 206.281C192.32 206.281 191.523 206.724 191.075 207.462H191.011C191.016 205.48 191.766 204.304 193.044 204.304C193.884 204.304 194.412 204.815 194.591 205.54H195.891C195.69 204.159 194.604 203.153 193.044 203.153C191.016 203.153 189.75 204.896 189.75 207.93C189.746 211.143 191.382 212.107 192.933 212.119ZM192.929 211.011C191.915 211.011 191.173 210.159 191.173 209.179C191.178 208.203 191.953 207.351 192.959 207.351C193.956 207.351 194.689 208.156 194.685 209.166C194.689 210.197 193.926 211.011 192.929 211.011ZM200.417 203.153C198.585 203.136 197.387 204.453 197.387 206.107C197.392 207.773 198.598 208.974 200.11 208.974C201.035 208.974 201.828 208.523 202.275 207.79H202.343C202.339 209.797 201.585 210.969 200.306 210.969C199.471 210.969 198.934 210.457 198.764 209.712H197.464C197.656 211.122 198.747 212.119 200.306 212.119C202.335 212.119 203.605 210.376 203.605 207.321C203.6 204.134 201.973 203.166 200.417 203.153ZM200.422 204.261C201.431 204.261 202.177 205.118 202.177 206.077C202.181 207.048 201.393 207.901 200.396 207.901C199.395 207.901 198.67 207.099 198.666 206.089C198.666 205.075 199.42 204.261 200.422 204.261ZM213.523 210.551L214.328 209.746L212.283 207.7L214.328 205.655L213.523 204.845L211.478 206.891L209.428 204.845L208.623 205.655L210.668 207.7L208.623 209.746L209.428 210.551L211.478 208.506L213.523 210.551ZM222.799 203.273H221.516L219.339 204.696V205.957L221.427 204.594H221.478L221.478 212L222.799 212L222.799 203.273ZM228.198 212.145C230.214 212.145 231.394 210.5 231.394 207.641C231.394 204.803 230.197 203.153 228.198 203.153C226.195 203.153 225.002 204.798 224.998 207.641C224.998 210.496 226.178 212.141 228.198 212.145ZM228.198 211.007C227.018 211.007 226.306 209.822 226.306 207.641C226.31 205.467 227.022 204.27 228.198 204.27C229.37 204.27 230.086 205.467 230.086 207.641C230.086 209.822 229.374 211.007 228.198 211.007ZM232.637 207.636H236.652V206.78H234.154V206.741L235.143 205.906C236.106 205.139 236.528 204.636 236.528 203.92C236.528 203.021 235.744 202.335 234.572 202.335C233.409 202.335 232.582 202.987 232.582 203.997H233.592C233.592 203.49 233.975 203.166 234.555 203.166C235.1 203.166 235.522 203.46 235.522 203.938C235.522 204.364 235.216 204.662 234.662 205.143L232.637 206.878V207.636ZM239.724 207.705C240.981 207.705 241.88 207.057 241.88 206.17C241.88 205.531 241.416 205.054 240.581 204.947V204.909C241.19 204.815 241.672 204.415 241.672 203.801C241.672 202.966 240.887 202.335 239.745 202.335C238.616 202.335 237.734 202.957 237.717 203.865H238.727C238.744 203.443 239.191 203.166 239.741 203.166C240.278 203.166 240.645 203.456 240.645 203.861C240.645 204.291 240.206 204.577 239.609 204.577H239.127V205.352H239.609C240.333 205.352 240.789 205.663 240.789 206.094C240.789 206.537 240.338 206.831 239.724 206.831C239.136 206.831 238.689 206.567 238.672 206.153H237.598C237.619 207.07 238.51 207.705 239.724 207.705ZM246.376 212H247.65V209.678L248.285 209.043L250.51 212H252.074L249.244 208.263L251.895 205.455H250.369L247.761 208.224H247.65V203.273H246.376V212ZM255.531 214.591C257.197 214.591 258.484 213.828 258.484 212.145V205.455H257.235V206.516H257.141C256.915 206.111 256.464 205.369 255.245 205.369C253.664 205.369 252.501 206.618 252.501 208.702C252.501 210.79 253.69 211.902 255.237 211.902C256.438 211.902 256.903 211.224 257.133 210.807H257.214V212.094C257.214 213.121 256.511 213.564 255.543 213.564C254.482 213.564 254.069 213.031 253.843 212.656L252.748 213.108C253.093 213.909 253.967 214.591 255.531 214.591ZM255.518 210.845C254.38 210.845 253.788 209.972 253.788 208.685C253.788 207.428 254.367 206.452 255.518 206.452C256.63 206.452 257.227 207.359 257.227 208.685C257.227 210.036 256.617 210.845 255.518 210.845Z" fill="#68432E"/>
</svg>
