<svg width="224" height="194" viewBox="0 0 224 194" fill="none" xmlns="http://www.w3.org/2000/svg">
<line x1="33.6943" y1="126.216" x2="90.0632" y2="0.795052" stroke="#EFDDD2"/>
<circle cx="62.3351" cy="63.0058" r="52.1412" fill="#D6936D"/>
<path d="M93.58 89.5132C93.8212 89.3789 93.9079 89.0744 93.7735 88.8331L91.5839 84.9018C91.4495 84.6605 91.145 84.5739 90.9038 84.7082C90.6625 84.8426 90.5759 85.1471 90.7102 85.3884L92.6566 88.8829L89.162 90.8292C88.9208 90.9636 88.8341 91.2681 88.9685 91.5093C89.1029 91.7506 89.4073 91.8372 89.6486 91.7029L93.58 89.5132ZM18.7853 33.636C13.8292 32.2199 9.88557 31.6216 6.95544 31.7303C4.04965 31.8382 1.99905 32.6506 1.05574 34.2228C0.109642 35.7997 0.41262 37.9123 1.64513 40.2804C2.88816 42.6686 5.13942 45.4487 8.3523 48.4843C21.2028 60.626 49.8229 77.2143 93.1998 89.5573L93.4735 88.5955C50.1833 76.2771 21.7304 59.7487 9.03908 47.7575C5.86649 44.7599 3.70297 42.0682 2.53218 39.8187C1.35087 37.549 1.24098 35.8578 1.91324 34.7373C2.58828 33.6122 4.18726 32.8337 6.99252 32.7296C9.77345 32.6264 13.6024 33.1951 18.5106 34.5975L18.7853 33.636Z" fill="#EFDDD2"/>
<line x1="180.395" y1="96.3737" x2="209.94" y2="30.6371" stroke="#EFDDD2"/>
<circle cx="195.624" cy="63.341" r="27.3287" fill="#E1B398"/>
<path d="M212.116 77.4423C212.357 77.3079 212.444 77.0034 212.309 76.7622L210.12 72.8308C209.985 72.5896 209.681 72.5029 209.439 72.6373C209.198 72.7716 209.112 73.0761 209.246 73.3174L211.192 76.8119L207.698 78.7582C207.456 78.8926 207.37 79.1971 207.504 79.4384C207.639 79.6796 207.943 79.7662 208.184 79.6319L212.116 77.4423ZM172.863 47.7187C170.254 46.9733 168.16 46.6526 166.589 46.7109C165.042 46.7683 163.86 47.2022 163.301 48.1327C162.74 49.0678 162.945 50.2753 163.603 51.5399C164.272 52.8247 165.473 54.3028 167.166 55.9029C173.939 62.3025 188.98 71.0112 211.736 77.4864L212.009 76.5245C189.34 70.074 174.467 61.4252 167.853 55.176C166.2 53.614 165.087 52.2242 164.49 51.0782C163.883 49.912 163.872 49.1258 164.159 48.6472C164.449 48.1639 165.179 47.7639 166.626 47.7103C168.048 47.6575 170.027 47.9485 172.588 48.6803L172.863 47.7187Z" fill="#EFDDD2"/>
<path d="M36.7784 164H44.142V162.489H38.5341V158.926H43.6932V157.42H38.5341V153.875H44.0739V152.364H36.7784V164ZM49.3024 164.193C50.7456 164.193 51.5581 163.46 51.882 162.807H51.9502V164H53.6093V158.205C53.6093 155.665 51.6093 155.159 50.2229 155.159C48.6434 155.159 47.1888 155.795 46.6206 157.386L48.2172 157.75C48.4672 157.131 49.1036 156.534 50.2456 156.534C51.3422 156.534 51.9047 157.108 51.9047 158.097V158.136C51.9047 158.756 51.2684 158.744 49.7002 158.926C48.0468 159.119 46.3536 159.551 46.3536 161.534C46.3536 163.25 47.6434 164.193 49.3024 164.193ZM49.6718 162.83C48.7115 162.83 48.0184 162.398 48.0184 161.557C48.0184 160.648 48.8252 160.324 49.8081 160.193C50.3593 160.119 51.6661 159.972 51.9104 159.727V160.852C51.9104 161.886 51.0865 162.83 49.6718 162.83ZM56.352 164H58.0509V158.67C58.0509 157.528 58.9316 156.705 60.1361 156.705C60.4884 156.705 60.8861 156.767 61.0225 156.807V155.182C60.852 155.159 60.5168 155.142 60.3009 155.142C59.2782 155.142 58.4032 155.722 58.085 156.659H57.9941V155.273H56.352V164ZM67.5622 155.273H65.7724V153.182H64.0735V155.273H62.7951V156.636H64.0735V161.79C64.0678 163.375 65.2781 164.142 66.619 164.114C67.1588 164.108 67.5224 164.006 67.7213 163.932L67.4144 162.528C67.3008 162.551 67.0906 162.602 66.8178 162.602C66.2667 162.602 65.7724 162.42 65.7724 161.438V156.636H67.5622V155.273ZM71.8078 158.818C71.8078 157.426 72.6885 156.631 73.8987 156.631C75.0691 156.631 75.768 157.375 75.768 158.653V164H77.4669V158.449C77.4669 156.273 76.2737 155.159 74.4782 155.159C73.1203 155.159 72.3021 155.75 71.893 156.693H71.7851V152.364H70.1089V164H71.8078V158.818Z" fill="#EFDDD2"/>
<path d="M32.8395 191H38.5838V189.871H34.6548V189.807L36.3892 187.991C37.9872 186.376 38.4432 185.605 38.4432 184.629C38.4432 183.227 37.3011 182.153 35.6562 182.153C34.0241 182.153 32.831 183.21 32.831 184.804H34.0881C34.0838 183.866 34.6889 183.253 35.6307 183.253C36.517 183.253 37.1903 183.798 37.1903 184.668C37.1903 185.439 36.7301 185.993 35.7926 186.986L32.8395 190.045V191ZM39.8281 189.295L43.9659 189.295L43.9659 191H45.223L45.223 189.295H46.3778V188.179H45.223L45.223 182.273H43.5994L39.8281 188.23V189.295ZM43.9744 188.179H41.2088V188.111L43.9062 183.841H43.9744L43.9744 188.179ZM52.3299 187.114C52.3299 186.07 52.9904 185.473 53.8981 185.473C54.7759 185.473 55.3001 186.031 55.3001 186.99L55.3001 191L56.5742 191L56.5742 186.837C56.5742 185.205 55.6793 184.369 54.3327 184.369C53.3143 184.369 52.7006 184.813 52.3938 185.52H52.3129L52.3129 182.273H51.0558L51.0558 191H52.3299L52.3299 187.114ZM61.0316 191.132C62.8768 191.132 64.0827 189.781 64.0827 187.757C64.0827 185.72 62.8768 184.369 61.0316 184.369C59.1864 184.369 57.9805 185.72 57.9805 187.757C57.9805 189.781 59.1864 191.132 61.0316 191.132ZM61.0359 190.063C59.8299 190.063 59.2674 189.01 59.2674 187.753C59.2674 186.5 59.8299 185.435 61.0359 185.435C62.2333 185.435 62.7958 186.5 62.7958 187.753C62.7958 189.01 62.2333 190.063 61.0359 190.063ZM69.6513 188.286C69.6555 189.398 68.8288 189.926 68.1129 189.926C67.3246 189.926 66.7791 189.355 66.7791 188.464L66.7791 184.455H65.505L65.505 188.618C65.505 190.241 66.3956 191.085 67.6527 191.085C68.6371 191.085 69.3061 190.565 69.6087 189.866H69.6768V191H70.9297L70.9297 184.455H69.6513L69.6513 188.286ZM72.6417 191H73.9158L73.9158 187.003C73.9158 186.146 74.5763 185.528 75.4798 185.528C75.744 185.528 76.0423 185.575 76.1445 185.605L76.1445 184.386C76.0167 184.369 75.7653 184.357 75.6033 184.357C74.8363 184.357 74.18 184.791 73.9414 185.494H73.8732L73.8732 184.455L72.6417 184.455L72.6417 191ZM82.152 186.053C81.8878 185.034 81.0909 184.369 79.6761 184.369C78.1974 184.369 77.1491 185.149 77.1491 186.308C77.1491 187.237 77.7116 187.855 78.9389 188.128L80.0469 188.371C80.6776 188.511 80.9716 188.793 80.9716 189.202C80.9716 189.709 80.4304 190.105 79.5952 190.105C78.8324 190.105 78.3423 189.777 78.1889 189.134L76.9574 189.321C77.1705 190.48 78.1335 191.132 79.6037 191.132C81.1847 191.132 82.2798 190.293 82.2798 189.108C82.2798 188.183 81.6918 187.612 80.4901 187.335L79.4503 187.097C78.7301 186.926 78.419 186.683 78.4233 186.24C78.419 185.737 78.9645 185.379 79.6889 185.379C80.4815 185.379 80.848 185.818 80.9972 186.257L82.152 186.053Z" fill="#EFDDD2"/>
<path d="M174.778 152.364V164H176.449V155.574H176.557L179.989 163.983H181.375L184.807 155.58H184.915V164H186.585V152.364H184.455L180.75 161.409H180.614L176.909 152.364H174.778ZM192.021 164.193C193.464 164.193 194.277 163.46 194.601 162.807H194.669V164H196.328V158.205C196.328 155.665 194.328 155.159 192.942 155.159C191.362 155.159 189.908 155.795 189.339 157.386L190.936 157.75C191.186 157.131 191.822 156.534 192.964 156.534C194.061 156.534 194.623 157.108 194.623 158.097V158.136C194.623 158.756 193.987 158.744 192.419 158.926C190.766 159.119 189.072 159.551 189.072 161.534C189.072 163.25 190.362 164.193 192.021 164.193ZM192.391 162.83C191.43 162.83 190.737 162.398 190.737 161.557C190.737 160.648 191.544 160.324 192.527 160.193C193.078 160.119 194.385 159.972 194.629 159.727V160.852C194.629 161.886 193.805 162.83 192.391 162.83ZM199.071 164H200.77V158.67C200.77 157.528 201.65 156.705 202.855 156.705C203.207 156.705 203.605 156.767 203.741 156.807V155.182C203.571 155.159 203.236 155.142 203.02 155.142C201.997 155.142 201.122 155.722 200.804 156.659H200.713V155.273H199.071V164ZM212.231 157.403C211.879 156.045 210.816 155.159 208.93 155.159C206.958 155.159 205.561 156.199 205.561 157.744C205.561 158.983 206.311 159.807 207.947 160.17L209.424 160.494C210.265 160.682 210.657 161.057 210.657 161.602C210.657 162.278 209.936 162.807 208.822 162.807C207.805 162.807 207.152 162.369 206.947 161.511L205.305 161.761C205.589 163.307 206.873 164.176 208.833 164.176C210.941 164.176 212.402 163.057 212.402 161.477C212.402 160.244 211.618 159.483 210.015 159.114L208.629 158.795C207.669 158.568 207.254 158.244 207.26 157.653C207.254 156.983 207.981 156.506 208.947 156.506C210.004 156.506 210.493 157.091 210.691 157.676L212.231 157.403Z" fill="#EFDDD2"/>
<path d="M163.839 191H169.584V189.871H165.655V189.807L167.389 187.991C168.987 186.376 169.443 185.605 169.443 184.629C169.443 183.227 168.301 182.153 166.656 182.153C165.024 182.153 163.831 183.21 163.831 184.804H165.088C165.084 183.866 165.689 183.253 166.631 183.253C167.517 183.253 168.19 183.798 168.19 184.668C168.19 185.439 167.73 185.993 166.793 186.986L163.839 190.045V191ZM170.828 189.295L174.966 189.295V191H176.223V189.295H177.378V188.179H176.223L176.223 182.273H174.599L170.828 188.23V189.295ZM174.974 188.179H172.209V188.111L174.906 183.841H174.974L174.974 188.179ZM179.391 191.081C179.856 191.081 180.244 190.702 180.244 190.229C180.244 189.764 179.856 189.381 179.391 189.381C178.923 189.381 178.539 189.764 178.539 190.229C178.539 190.702 178.923 191.081 179.391 191.081ZM182.005 191H183.381L187.178 183.44V182.273H181.408V183.402H185.814V183.466L182.005 191ZM193.127 187.114C193.127 186.07 193.787 185.473 194.695 185.473C195.573 185.473 196.097 186.031 196.097 186.99L196.097 191H197.371L197.371 186.837C197.371 185.205 196.476 184.369 195.13 184.369C194.111 184.369 193.498 184.813 193.191 185.52H193.11V182.273H191.853L191.853 191H193.127L193.127 187.114ZM201.828 191.132C203.674 191.132 204.88 189.781 204.88 187.757C204.88 185.72 203.674 184.369 201.828 184.369C199.983 184.369 198.777 185.72 198.777 187.757C198.777 189.781 199.983 191.132 201.828 191.132ZM201.833 190.063C200.627 190.063 200.064 189.01 200.064 187.753C200.064 186.5 200.627 185.435 201.833 185.435C203.03 185.435 203.593 186.5 203.593 187.753C203.593 189.01 203.03 190.063 201.833 190.063ZM210.448 188.286C210.452 189.398 209.626 189.926 208.91 189.926C208.121 189.926 207.576 189.355 207.576 188.464V184.455H206.302V188.618C206.302 190.241 207.192 191.085 208.45 191.085C209.434 191.085 210.103 190.565 210.406 189.866H210.474V191H211.727L211.727 184.455H210.448V188.286ZM213.439 191H214.713L214.713 187.003C214.713 186.146 215.373 185.528 216.277 185.528C216.541 185.528 216.839 185.575 216.941 185.605V184.386C216.814 184.369 216.562 184.357 216.4 184.357C215.633 184.357 214.977 184.791 214.738 185.494H214.67V184.455H213.439L213.439 191ZM222.949 186.053C222.685 185.034 221.888 184.369 220.473 184.369C218.994 184.369 217.946 185.149 217.946 186.308C217.946 187.237 218.509 187.855 219.736 188.128L220.844 188.371C221.474 188.511 221.768 188.793 221.768 189.202C221.768 189.709 221.227 190.105 220.392 190.105C219.629 190.105 219.139 189.777 218.986 189.134L217.754 189.321C217.967 190.48 218.93 191.132 220.401 191.132C221.982 191.132 223.077 190.293 223.077 189.108C223.077 188.183 222.489 187.612 221.287 187.335L220.247 187.097C219.527 186.926 219.216 186.683 219.22 186.24C219.216 185.737 219.761 185.379 220.486 185.379C221.278 185.379 221.645 185.818 221.794 186.257L222.949 186.053Z" fill="#EFDDD2"/>
</svg>
