<svg width="245" height="110" viewBox="0 0 245 110" fill="none" xmlns="http://www.w3.org/2000/svg">
<rect x="0.5" y="1.05566" width="107.889" height="107.889" rx="15.5" fill="#D6936D" stroke="#EFDDD2"/>
<path d="M25.5444 1.05566H84.5444V25.5557C84.5444 29.6978 81.1866 33.0557 77.0444 33.0557H33.0444C28.9023 33.0557 25.5444 29.6978 25.5444 25.5557V1.05566Z" fill="#CF7E50"/>
<path d="M38.195 12.8284H36.9123L34.7348 14.2517V15.5131L36.8228 14.1494H36.874V21.5557H38.195V12.8284ZM43.5941 21.7006C45.6098 21.7006 46.7902 20.0557 46.7902 17.1963C46.7902 14.3582 45.5927 12.7091 43.5941 12.7091C41.5913 12.7091 40.3981 14.354 40.3939 17.1963C40.3939 20.0514 41.5743 21.6963 43.5941 21.7006ZM43.5941 20.5628C42.4138 20.5628 41.7021 19.3781 41.7021 17.1963C41.7064 15.023 42.418 13.8255 43.5941 13.8255C44.766 13.8255 45.4819 15.023 45.4819 17.1963C45.4819 19.3781 44.7703 20.5628 43.5941 20.5628ZM51.3402 21.7006C53.3559 21.7006 54.5363 20.0557 54.5363 17.1963C54.5363 14.3582 53.3388 12.7091 51.3402 12.7091C49.3374 12.7091 48.1442 14.354 48.14 17.1963C48.14 20.0514 49.3204 21.6963 51.3402 21.7006ZM51.3402 20.5628C50.1598 20.5628 49.4482 19.3781 49.4482 17.1963C49.4525 15.023 50.1641 13.8255 51.3402 13.8255C52.5121 13.8255 53.228 15.023 53.228 17.1963C53.228 19.3781 52.5164 20.5628 51.3402 20.5628ZM60.515 12.8284H59.2408V21.5557H60.515V12.8284ZM62.3314 21.5557H63.5757V20.5372H63.6822C63.9123 20.9548 64.3811 21.6835 65.5743 21.6835C67.1595 21.6835 68.3101 20.4136 68.3101 18.2957C68.3101 16.1736 67.1424 14.925 65.5615 14.925C64.347 14.925 63.9081 15.6665 63.6822 16.0713H63.6055V12.8284H62.3314V21.5557ZM63.5799 18.2829C63.5799 16.915 64.1765 16.0074 65.2888 16.0074C66.4436 16.0074 67.0231 16.9832 67.0231 18.2829C67.0231 19.5954 66.4265 20.5969 65.2888 20.5969C64.1936 20.5969 63.5799 19.6594 63.5799 18.2829ZM74.6456 16.6082C74.3814 15.5898 73.5846 14.925 72.1698 14.925C70.6911 14.925 69.6428 15.7048 69.6428 16.8639C69.6428 17.7929 70.2053 18.4108 71.4326 18.6835L72.5405 18.9264C73.1712 19.067 73.4652 19.3483 73.4652 19.7574C73.4652 20.2645 72.9241 20.6608 72.0888 20.6608C71.326 20.6608 70.836 20.3327 70.6826 19.6892L69.451 19.8767C69.6641 21.0358 70.6272 21.6878 72.0973 21.6878C73.6783 21.6878 74.7735 20.8483 74.7735 19.6636C74.7735 18.7389 74.1854 18.1679 72.9837 17.8909L71.9439 17.6523C71.2238 17.4818 70.9127 17.2389 70.9169 16.7957C70.9127 16.2929 71.4581 15.9349 72.1826 15.9349C72.9752 15.9349 73.3417 16.3738 73.4908 16.8128L74.6456 16.6082Z" fill="#EFDDD2"/>
<path d="M25.5444 1.05566H84.5444V25.5557C84.5444 29.6978 81.1866 33.0557 77.0444 33.0557H33.0444C28.9023 33.0557 25.5444 29.6978 25.5444 25.5557V1.05566Z" stroke="#EFDDD2"/>
<rect x="136.611" y="1.05566" width="107.889" height="107.889" rx="15.5" fill="#EFDDD2" stroke="#EFDDD2"/>
<path d="M164.923 1.05566H217.923V25.5557C217.923 29.6978 214.565 33.0557 210.423 33.0557H172.423C168.281 33.0557 164.923 29.6978 164.923 25.5557V1.05566Z" fill="#CF7E50"/>
<path d="M177.301 21.675C179.082 21.675 180.39 20.6096 180.386 19.1608C180.39 18.0571 179.721 17.2645 178.562 17.0855V17.0173C179.474 16.7829 180.066 16.067 180.062 15.0869C180.066 13.8042 179.014 12.7091 177.335 12.7091C175.733 12.7091 174.446 13.6764 174.403 15.0954H175.677C175.707 14.2943 176.461 13.8085 177.318 13.8085C178.208 13.8085 178.792 14.3497 178.788 15.1551C178.792 15.9988 178.115 16.5528 177.147 16.5528H176.41V17.6267H177.147C178.358 17.6267 179.056 18.2403 179.056 19.1182C179.056 19.9662 178.319 20.5415 177.292 20.5415C176.346 20.5415 175.609 20.0557 175.558 19.2801H174.22C174.275 20.7034 175.536 21.675 177.301 21.675ZM184.946 21.675C186.761 21.675 188.044 20.6437 188.052 19.229C188.044 18.1295 187.272 17.2048 186.296 17.0301V16.979C187.144 16.7744 187.72 15.9775 187.728 15.0358C187.72 13.702 186.544 12.7091 184.946 12.7091C183.331 12.7091 182.154 13.702 182.163 15.0358C182.154 15.9733 182.73 16.7744 183.595 16.979V17.0301C182.602 17.2048 181.831 18.1295 181.839 19.229C181.831 20.6437 183.113 21.675 184.946 21.675ZM184.946 20.5969C183.855 20.5969 183.164 20.0173 183.173 19.1437C183.164 18.2361 183.914 17.5883 184.946 17.5883C185.96 17.5883 186.71 18.2361 186.718 19.1437C186.71 20.0173 186.024 20.5969 184.946 20.5969ZM184.946 16.5358C184.063 16.5358 183.437 15.9775 183.446 15.1466C183.437 14.3284 184.042 13.7872 184.946 13.7872C185.832 13.7872 186.437 14.3284 186.446 15.1466C186.437 15.9775 185.815 16.5358 184.946 16.5358ZM194.046 12.8284H192.772V21.5557H194.046V12.8284ZM195.862 21.5557H197.106V20.5372H197.213C197.443 20.9548 197.912 21.6835 199.105 21.6835C200.69 21.6835 201.841 20.4136 201.841 18.2957C201.841 16.1736 200.673 14.925 199.092 14.925C197.878 14.925 197.439 15.6665 197.213 16.0713H197.136V12.8284H195.862V21.5557ZM197.111 18.2829C197.111 16.915 197.707 16.0074 198.82 16.0074C199.974 16.0074 200.554 16.9832 200.554 18.2829C200.554 19.5954 199.957 20.5969 198.82 20.5969C197.724 20.5969 197.111 19.6594 197.111 18.2829ZM208.176 16.6082C207.912 15.5898 207.115 14.925 205.701 14.925C204.222 14.925 203.174 15.7048 203.174 16.8639C203.174 17.7929 203.736 18.4108 204.963 18.6835L206.071 18.9264C206.702 19.067 206.996 19.3483 206.996 19.7574C206.996 20.2645 206.455 20.6608 205.62 20.6608C204.857 20.6608 204.367 20.3327 204.213 19.6892L202.982 19.8767C203.195 21.0358 204.158 21.6878 205.628 21.6878C207.209 21.6878 208.304 20.8483 208.304 19.6636C208.304 18.7389 207.716 18.1679 206.514 17.8909L205.475 17.6523C204.755 17.4818 204.443 17.2389 204.448 16.7957C204.443 16.2929 204.989 15.9349 205.713 15.9349C206.506 15.9349 206.872 16.3738 207.022 16.8128L208.176 16.6082Z" fill="#EFDDD2"/>
<path d="M164.923 1.05566H217.923V25.5557C217.923 29.6978 214.565 33.0557 210.423 33.0557H172.423C168.281 33.0557 164.923 29.6978 164.923 25.5557V1.05566Z" stroke="#EFDDD2"/>
</svg>
