<svg width="287" height="297" viewBox="0 0 287 297" fill="none" xmlns="http://www.w3.org/2000/svg">
<circle cx="102" cy="56" r="56" fill="#D2895F"/>
<path d="M186.278 41H193.642V39.4886H188.034V35.9261H193.193V34.4205H188.034V30.875H193.574V29.3636H186.278V41ZM198.802 41.1932C200.246 41.1932 201.058 40.4602 201.382 39.8068H201.45V41H203.109V35.2045C203.109 32.6648 201.109 32.1591 199.723 32.1591C198.143 32.1591 196.689 32.7955 196.121 34.3864L197.717 34.75C197.967 34.1307 198.604 33.5341 199.746 33.5341C200.842 33.5341 201.405 34.108 201.405 35.0966V35.1364C201.405 35.7557 200.768 35.7443 199.2 35.9261C197.547 36.1193 195.854 36.5511 195.854 38.5341C195.854 40.25 197.143 41.1932 198.802 41.1932ZM199.172 39.8295C198.212 39.8295 197.518 39.3977 197.518 38.5568C197.518 37.6477 198.325 37.3239 199.308 37.1932C199.859 37.1193 201.166 36.9716 201.41 36.7273V37.8523C201.41 38.8864 200.587 39.8295 199.172 39.8295ZM205.852 41H207.551V35.6705C207.551 34.5284 208.432 33.7045 209.636 33.7045C209.988 33.7045 210.386 33.767 210.522 33.8068V32.1818C210.352 32.1591 210.017 32.142 209.801 32.142C208.778 32.142 207.903 32.7216 207.585 33.6591H207.494V32.2727H205.852V41ZM217.062 32.2727H215.272V30.1818H213.574V32.2727H212.295V33.6364H213.574V38.7898C213.568 40.375 214.778 41.142 216.119 41.1136C216.659 41.108 217.022 41.0057 217.221 40.9318L216.914 39.5284C216.801 39.5511 216.591 39.6023 216.318 39.6023C215.767 39.6023 215.272 39.4205 215.272 38.4375V33.6364H217.062V32.2727ZM221.308 35.8182C221.308 34.4261 222.188 33.6307 223.399 33.6307C224.569 33.6307 225.268 34.375 225.268 35.6534V41H226.967V35.4489C226.967 33.2727 225.774 32.1591 223.978 32.1591C222.62 32.1591 221.802 32.75 221.393 33.6932H221.285V29.3636H219.609V41H221.308V35.8182Z" fill="#EFDDD2"/>
<path d="M186.134 65H187.51L191.307 57.4403V56.2727L185.537 56.2727V57.402L189.943 57.402V57.4659L186.134 65ZM195.574 56.1534C193.741 56.1364 192.544 57.4531 192.544 59.1065C192.548 60.7727 193.754 61.9744 195.267 61.9744C196.191 61.9744 196.984 61.5227 197.431 60.7898H197.5C197.495 62.7969 196.741 63.9688 195.463 63.9688C194.627 63.9688 194.091 63.4574 193.92 62.7116H192.62C192.812 64.1222 193.903 65.1193 195.463 65.1193C197.491 65.1193 198.761 63.3764 198.761 60.321C198.757 57.1335 197.129 56.1662 195.574 56.1534ZM195.578 57.2614C196.588 57.2614 197.333 58.1179 197.333 59.0767C197.338 60.0483 196.549 60.9006 195.552 60.9006C194.551 60.9006 193.826 60.0994 193.822 59.0895C193.822 58.0753 194.576 57.2614 195.578 57.2614ZM200.3 65H206.045V63.8707L202.116 63.8707V63.8068L203.85 61.9915C205.448 60.3764 205.904 59.6051 205.904 58.6293C205.904 57.2273 204.762 56.1534 203.117 56.1534C201.485 56.1534 200.292 57.2102 200.292 58.804H201.549C201.545 57.8665 202.15 57.2528 203.092 57.2528C203.978 57.2528 204.651 57.7983 204.651 58.6676C204.651 59.4389 204.191 59.9929 203.254 60.9858L200.3 64.0455V65ZM210.707 65.1193C212.531 65.1364 213.741 63.8239 213.737 62.1491C213.741 60.4787 212.526 59.2813 211.013 59.2813C210.093 59.2813 209.296 59.7244 208.849 60.4616H208.785C208.789 58.4801 209.539 57.304 210.817 57.304C211.657 57.304 212.185 57.8153 212.364 58.5398H213.664C213.464 57.1591 212.377 56.1534 210.817 56.1534C208.789 56.1534 207.523 57.8963 207.523 60.9304C207.519 64.1435 209.156 65.1065 210.707 65.1193ZM210.702 64.0114C209.688 64.0114 208.947 63.1591 208.947 62.179C208.951 61.2031 209.727 60.3509 210.732 60.3509C211.729 60.3509 212.462 61.1563 212.458 62.1662C212.462 63.1974 211.7 64.0114 210.702 64.0114ZM218.482 65H219.756L219.756 60.9645C219.756 60.0824 220.374 59.4688 221.098 59.4688C221.805 59.4688 222.295 59.9375 222.295 60.6491L222.295 65L223.565 65L223.565 60.8281C223.565 60.0398 224.047 59.4688 224.878 59.4688C225.551 59.4688 226.105 59.8438 226.105 60.7301L226.105 65H227.379L227.379 60.6108C227.379 59.1151 226.544 58.3693 225.359 58.3693C224.418 58.3693 223.71 58.821 223.395 59.5199H223.327C223.041 58.804 222.44 58.3693 221.567 58.3693C220.702 58.3693 220.058 58.7997 219.786 59.5199H219.705V58.4545H218.482L218.482 65ZM229.087 65L230.361 65L230.361 58.4545H229.087L229.087 65ZM229.73 57.4446C230.169 57.4446 230.536 57.1037 230.536 56.6861C230.536 56.2685 230.169 55.9233 229.73 55.9233C229.287 55.9233 228.925 56.2685 228.925 56.6861C228.925 57.1037 229.287 57.4446 229.73 57.4446ZM233.349 56.2727L232.075 56.2727L232.075 65H233.349L233.349 56.2727ZM237.885 65.1321C239.312 65.1321 240.322 64.429 240.612 63.3636L239.406 63.1463C239.176 63.7642 238.622 64.0795 237.897 64.0795C236.806 64.0795 236.074 63.3722 236.039 62.1108L240.693 62.1108V61.6591C240.693 59.294 239.278 58.3693 237.795 58.3693C235.971 58.3693 234.77 59.7585 234.77 61.7699C234.77 63.8026 235.954 65.1321 237.885 65.1321ZM236.044 61.1563C236.095 60.2273 236.768 59.4219 237.804 59.4219C238.792 59.4219 239.44 60.1548 239.444 61.1563L236.044 61.1563ZM247.011 60.0526C246.747 59.0341 245.95 58.3693 244.536 58.3693C243.057 58.3693 242.009 59.1491 242.009 60.3082C242.009 61.2372 242.571 61.8551 243.798 62.1278L244.906 62.3707C245.537 62.5114 245.831 62.7926 245.831 63.2017C245.831 63.7088 245.29 64.1051 244.455 64.1051C243.692 64.1051 243.202 63.777 243.048 63.1335L241.817 63.321C242.03 64.4801 242.993 65.1321 244.463 65.1321C246.044 65.1321 247.139 64.2926 247.139 63.108C247.139 62.1832 246.551 61.6122 245.349 61.3352L244.31 61.0966C243.589 60.9261 243.278 60.6832 243.283 60.2401C243.278 59.7372 243.824 59.3793 244.548 59.3793C245.341 59.3793 245.707 59.8182 245.857 60.2571L247.011 60.0526Z" fill="#EFDDD2"/>
<path opacity="0.5" d="M189.151 75.2727H187.868L185.69 76.696V77.9574L187.778 76.5938H187.83L187.83 84H189.151L189.151 75.2727ZM191.511 84L197.256 84V82.8707L193.327 82.8707V82.8068L195.061 80.9915C196.659 79.3764 197.115 78.6051 197.115 77.6293C197.115 76.2273 195.973 75.1534 194.328 75.1534C192.696 75.1534 191.503 76.2102 191.503 77.804H192.76C192.756 76.8665 193.361 76.2528 194.303 76.2528C195.189 76.2528 195.862 76.7983 195.862 77.6676C195.862 78.4389 195.402 78.9929 194.464 79.9858L191.511 83.0455V84ZM199.165 84H200.541L204.338 76.4403V75.2727H198.568V76.402H202.974V76.4659L199.165 84ZM208.583 84.1193C210.339 84.1193 211.592 82.8793 211.588 81.179C211.592 79.4915 210.416 78.2642 208.826 78.2642C208.179 78.2642 207.578 78.5114 207.237 78.8438H207.186L207.463 76.402H211.166V75.2727H206.368L205.877 79.6705L207.083 79.8494C207.412 79.5554 208 79.3551 208.528 79.3551C209.564 79.3636 210.314 80.1392 210.314 81.2045C210.314 82.2528 209.585 83.0114 208.583 83.0114C207.74 83.0114 207.071 82.4744 207.002 81.7244L205.724 81.7244C205.775 83.1136 206.981 84.1193 208.583 84.1193ZM216.191 84.1193C218.015 84.1364 219.225 82.8239 219.221 81.1491C219.225 79.4787 218.011 78.2813 216.498 78.2813C215.577 78.2813 214.781 78.7244 214.333 79.4616H214.269C214.273 77.4801 215.023 76.304 216.302 76.304C217.141 76.304 217.67 76.8153 217.849 77.5398H219.148C218.948 76.1591 217.862 75.1534 216.302 75.1534C214.273 75.1534 213.008 76.8963 213.008 79.9304C213.004 83.1435 214.64 84.1065 216.191 84.1193ZM216.187 83.0114C215.173 83.0114 214.431 82.1591 214.431 81.179C214.435 80.2031 215.211 79.3509 216.217 79.3509C217.214 79.3509 217.947 80.1563 217.942 81.1662C217.947 82.1974 217.184 83.0114 216.187 83.0114ZM223.966 84H225.24L225.24 81.6776L225.875 81.0426L228.099 84H229.663L226.834 80.2628L229.484 77.4545H227.959L225.351 80.2244H225.24V75.2727H223.966L223.966 84ZM230.646 84H231.92L231.92 79.9645C231.92 79.0824 232.538 78.4688 233.262 78.4688C233.969 78.4688 234.46 78.9375 234.46 79.6491L234.46 84H235.729L235.729 79.8281C235.729 79.0398 236.211 78.4688 237.042 78.4688C237.715 78.4688 238.269 78.8438 238.269 79.7301L238.269 84L239.543 84L239.543 79.6108C239.543 78.1151 238.708 77.3693 237.523 77.3693C236.582 77.3693 235.874 77.821 235.559 78.5199H235.491C235.205 77.804 234.604 77.3693 233.731 77.3693C232.866 77.3693 232.222 77.7997 231.95 78.5199H231.869V77.4545H230.646L230.646 84Z" fill="#EFDDD2"/>
<path d="M186.278 153.364V165H187.949V156.574H188.057L191.489 164.983H192.875L196.307 156.58H196.415V165H198.085V153.364H195.955L192.25 162.409H192.114L188.409 153.364H186.278ZM203.521 165.193C204.964 165.193 205.777 164.46 206.101 163.807H206.169V165H207.828V159.205C207.828 156.665 205.828 156.159 204.442 156.159C202.862 156.159 201.408 156.795 200.839 158.386L202.436 158.75C202.686 158.131 203.322 157.534 204.464 157.534C205.561 157.534 206.123 158.108 206.123 159.097V159.136C206.123 159.756 205.487 159.744 203.919 159.926C202.266 160.119 200.572 160.551 200.572 162.534C200.572 164.25 201.862 165.193 203.521 165.193ZM203.891 163.83C202.93 163.83 202.237 163.398 202.237 162.557C202.237 161.648 203.044 161.324 204.027 161.193C204.578 161.119 205.885 160.972 206.129 160.727V161.852C206.129 162.886 205.305 163.83 203.891 163.83ZM210.571 165H212.27V159.67C212.27 158.528 213.15 157.705 214.355 157.705C214.707 157.705 215.105 157.767 215.241 157.807V156.182C215.071 156.159 214.736 156.142 214.52 156.142C213.497 156.142 212.622 156.722 212.304 157.659H212.213V156.273H210.571V165ZM223.731 158.403C223.379 157.045 222.316 156.159 220.43 156.159C218.458 156.159 217.061 157.199 217.061 158.744C217.061 159.983 217.811 160.807 219.447 161.17L220.924 161.494C221.765 161.682 222.157 162.057 222.157 162.602C222.157 163.278 221.436 163.807 220.322 163.807C219.305 163.807 218.652 163.369 218.447 162.511L216.805 162.761C217.089 164.307 218.373 165.176 220.333 165.176C222.441 165.176 223.902 164.057 223.902 162.477C223.902 161.244 223.118 160.483 221.515 160.114L220.129 159.795C219.169 159.568 218.754 159.244 218.76 158.653C218.754 157.983 219.481 157.506 220.447 157.506C221.504 157.506 221.993 158.091 222.191 158.676L223.731 158.403Z" fill="#EFDDD2"/>
<path d="M186.134 189H187.51L191.307 181.44V180.273H185.537V181.402H189.943V181.466L186.134 189ZM195.574 180.153C193.741 180.136 192.544 181.453 192.544 183.107C192.548 184.773 193.754 185.974 195.267 185.974C196.191 185.974 196.984 185.523 197.431 184.79H197.5C197.495 186.797 196.741 187.969 195.463 187.969C194.627 187.969 194.091 187.457 193.92 186.712L192.62 186.712C192.812 188.122 193.903 189.119 195.463 189.119C197.491 189.119 198.761 187.376 198.761 184.321C198.757 181.134 197.129 180.166 195.574 180.153ZM195.578 181.261C196.588 181.261 197.333 182.118 197.333 183.077C197.338 184.048 196.549 184.901 195.552 184.901C194.551 184.901 193.826 184.099 193.822 183.089C193.822 182.075 194.576 181.261 195.578 181.261ZM200.3 189H206.045V187.871H202.116V187.807L203.85 185.991C205.448 184.376 205.904 183.605 205.904 182.629C205.904 181.227 204.762 180.153 203.117 180.153C201.485 180.153 200.292 181.21 200.292 182.804H201.549C201.545 181.866 202.15 181.253 203.092 181.253C203.978 181.253 204.651 181.798 204.651 182.668C204.651 183.439 204.191 183.993 203.254 184.986L200.3 188.045V189ZM210.707 189.119C212.531 189.136 213.741 187.824 213.737 186.149C213.741 184.479 212.526 183.281 211.013 183.281C210.093 183.281 209.296 183.724 208.849 184.462H208.785C208.789 182.48 209.539 181.304 210.817 181.304C211.657 181.304 212.185 181.815 212.364 182.54H213.664C213.464 181.159 212.377 180.153 210.817 180.153C208.789 180.153 207.523 181.896 207.523 184.93C207.519 188.143 209.156 189.107 210.707 189.119ZM210.702 188.011C209.688 188.011 208.947 187.159 208.947 186.179C208.951 185.203 209.727 184.351 210.732 184.351C211.729 184.351 212.462 185.156 212.458 186.166C212.462 187.197 211.7 188.011 210.702 188.011ZM218.482 189H219.756L219.756 184.964C219.756 184.082 220.374 183.469 221.098 183.469C221.805 183.469 222.295 183.938 222.295 184.649L222.295 189H223.565L223.565 184.828C223.565 184.04 224.047 183.469 224.878 183.469C225.551 183.469 226.105 183.844 226.105 184.73L226.105 189L227.379 189L227.379 184.611C227.379 183.115 226.544 182.369 225.359 182.369C224.418 182.369 223.71 182.821 223.395 183.52H223.327C223.041 182.804 222.44 182.369 221.567 182.369C220.702 182.369 220.058 182.8 219.786 183.52H219.705V182.455H218.482L218.482 189ZM229.087 189H230.361L230.361 182.455H229.087L229.087 189ZM229.73 181.445C230.169 181.445 230.536 181.104 230.536 180.686C230.536 180.268 230.169 179.923 229.73 179.923C229.287 179.923 228.925 180.268 228.925 180.686C228.925 181.104 229.287 181.445 229.73 181.445ZM233.349 180.273H232.075L232.075 189H233.349L233.349 180.273ZM237.885 189.132C239.312 189.132 240.322 188.429 240.612 187.364L239.406 187.146C239.176 187.764 238.622 188.08 237.897 188.08C236.806 188.08 236.074 187.372 236.039 186.111H240.693V185.659C240.693 183.294 239.278 182.369 237.795 182.369C235.971 182.369 234.77 183.759 234.77 185.77C234.77 187.803 235.954 189.132 237.885 189.132ZM236.044 185.156C236.095 184.227 236.768 183.422 237.804 183.422C238.792 183.422 239.44 184.155 239.444 185.156H236.044ZM247.011 184.053C246.747 183.034 245.95 182.369 244.536 182.369C243.057 182.369 242.009 183.149 242.009 184.308C242.009 185.237 242.571 185.855 243.798 186.128L244.906 186.371C245.537 186.511 245.831 186.793 245.831 187.202C245.831 187.709 245.29 188.105 244.455 188.105C243.692 188.105 243.202 187.777 243.048 187.134L241.817 187.321C242.03 188.48 242.993 189.132 244.463 189.132C246.044 189.132 247.139 188.293 247.139 187.108C247.139 186.183 246.551 185.612 245.349 185.335L244.31 185.097C243.589 184.926 243.278 184.683 243.283 184.24C243.278 183.737 243.824 183.379 244.548 183.379C245.341 183.379 245.707 183.818 245.857 184.257L247.011 184.053Z" fill="#EFDDD2"/>
<path opacity="0.5" d="M189.151 199.273H187.868L185.69 200.696V201.957L187.778 200.594H187.83L187.83 208H189.151L189.151 199.273ZM191.511 208L197.256 208V206.871L193.327 206.871V206.807L195.061 204.991C196.659 203.376 197.115 202.605 197.115 201.629C197.115 200.227 195.973 199.153 194.328 199.153C192.696 199.153 191.503 200.21 191.503 201.804H192.76C192.756 200.866 193.361 200.253 194.303 200.253C195.189 200.253 195.862 200.798 195.862 201.668C195.862 202.439 195.402 202.993 194.464 203.986L191.511 207.045V208ZM199.165 208H200.541L204.338 200.44V199.273H198.568V200.402H202.974V200.466L199.165 208ZM208.583 208.119C210.339 208.119 211.592 206.879 211.588 205.179C211.592 203.491 210.416 202.264 208.826 202.264C208.179 202.264 207.578 202.511 207.237 202.844H207.186L207.463 200.402L211.166 200.402V199.273L206.368 199.273L205.877 203.67L207.083 203.849C207.412 203.555 208 203.355 208.528 203.355C209.564 203.364 210.314 204.139 210.314 205.205C210.314 206.253 209.585 207.011 208.583 207.011C207.74 207.011 207.071 206.474 207.002 205.724H205.724C205.775 207.114 206.981 208.119 208.583 208.119ZM216.191 208.119C218.015 208.136 219.225 206.824 219.221 205.149C219.225 203.479 218.011 202.281 216.498 202.281C215.577 202.281 214.781 202.724 214.333 203.462H214.269C214.273 201.48 215.023 200.304 216.302 200.304C217.141 200.304 217.67 200.815 217.849 201.54H219.148C218.948 200.159 217.862 199.153 216.302 199.153C214.273 199.153 213.008 200.896 213.008 203.93C213.004 207.143 214.64 208.107 216.191 208.119ZM216.187 207.011C215.173 207.011 214.431 206.159 214.431 205.179C214.435 204.203 215.211 203.351 216.217 203.351C217.214 203.351 217.947 204.156 217.942 205.166C217.947 206.197 217.184 207.011 216.187 207.011ZM223.966 208H225.24L225.24 205.678L225.875 205.043L228.099 208H229.663L226.834 204.263L229.484 201.455H227.959L225.351 204.224H225.24V199.273H223.966L223.966 208ZM230.646 208H231.92L231.92 203.964C231.92 203.082 232.538 202.469 233.262 202.469C233.969 202.469 234.46 202.938 234.46 203.649L234.46 208H235.729L235.729 203.828C235.729 203.04 236.211 202.469 237.042 202.469C237.715 202.469 238.269 202.844 238.269 203.73L238.269 208H239.543L239.543 203.611C239.543 202.115 238.708 201.369 237.523 201.369C236.582 201.369 235.874 201.821 235.559 202.52H235.491C235.205 201.804 234.604 201.369 233.731 201.369C232.866 201.369 232.222 201.8 231.95 202.52H231.869V201.455H230.646L230.646 208Z" fill="#EFDDD2"/>
<path d="M186.278 251H193.642V249.489H188.034V245.926H193.193V244.42H188.034V240.875H193.574V239.364H186.278V251ZM198.802 251.193C200.246 251.193 201.058 250.46 201.382 249.807H201.45V251H203.109V245.205C203.109 242.665 201.109 242.159 199.723 242.159C198.143 242.159 196.689 242.795 196.121 244.386L197.717 244.75C197.967 244.131 198.604 243.534 199.746 243.534C200.842 243.534 201.405 244.108 201.405 245.097V245.136C201.405 245.756 200.768 245.744 199.2 245.926C197.547 246.119 195.854 246.551 195.854 248.534C195.854 250.25 197.143 251.193 198.802 251.193ZM199.172 249.83C198.212 249.83 197.518 249.398 197.518 248.557C197.518 247.648 198.325 247.324 199.308 247.193C199.859 247.119 201.166 246.972 201.41 246.727V247.852C201.41 248.886 200.587 249.83 199.172 249.83ZM205.852 251H207.551V245.67C207.551 244.528 208.432 243.705 209.636 243.705C209.988 243.705 210.386 243.767 210.522 243.807V242.182C210.352 242.159 210.017 242.142 209.801 242.142C208.778 242.142 207.903 242.722 207.585 243.659H207.494V242.273H205.852V251ZM217.062 242.273H215.272V240.182H213.574V242.273H212.295V243.636H213.574V248.79C213.568 250.375 214.778 251.142 216.119 251.114C216.659 251.108 217.022 251.006 217.221 250.932L216.914 249.528C216.801 249.551 216.591 249.602 216.318 249.602C215.767 249.602 215.272 249.42 215.272 248.438V243.636H217.062V242.273ZM221.308 245.818C221.308 244.426 222.188 243.631 223.399 243.631C224.569 243.631 225.268 244.375 225.268 245.653V251H226.967V245.449C226.967 243.273 225.774 242.159 223.978 242.159C222.62 242.159 221.802 242.75 221.393 243.693H221.285V239.364H219.609V251H221.308V245.818ZM236.254 244.403C235.901 243.045 234.839 242.159 232.953 242.159C230.981 242.159 229.583 243.199 229.583 244.744C229.583 245.983 230.333 246.807 231.97 247.17L233.447 247.494C234.288 247.682 234.68 248.057 234.68 248.602C234.68 249.278 233.958 249.807 232.845 249.807C231.828 249.807 231.174 249.369 230.97 248.511L229.328 248.761C229.612 250.307 230.896 251.176 232.856 251.176C234.964 251.176 236.424 250.057 236.424 248.477C236.424 247.244 235.64 246.483 234.038 246.114L232.651 245.795C231.691 245.568 231.276 245.244 231.282 244.653C231.276 243.983 232.004 243.506 232.97 243.506C234.026 243.506 234.515 244.091 234.714 244.676L236.254 244.403ZM243.486 251H245.185V245.619C245.185 244.443 246.009 243.625 246.975 243.625C247.918 243.625 248.572 244.25 248.572 245.199V251H250.265V245.438C250.265 244.386 250.907 243.625 252.015 243.625C252.913 243.625 253.651 244.125 253.651 245.307V251H255.35V245.148C255.35 243.153 254.236 242.159 252.657 242.159C251.401 242.159 250.458 242.761 250.038 243.693H249.947C249.566 242.739 248.765 242.159 247.6 242.159C246.447 242.159 245.589 242.733 245.225 243.693H245.117V242.273H243.486V251ZM261.783 251.176C264.243 251.176 265.851 249.375 265.851 246.676C265.851 243.96 264.243 242.159 261.783 242.159C259.323 242.159 257.715 243.96 257.715 246.676C257.715 249.375 259.323 251.176 261.783 251.176ZM261.789 249.75C260.181 249.75 259.431 248.347 259.431 246.67C259.431 245 260.181 243.58 261.789 243.58C263.385 243.58 264.135 245 264.135 246.67C264.135 248.347 263.385 249.75 261.789 249.75ZM271.904 251.176C274.364 251.176 275.972 249.375 275.972 246.676C275.972 243.96 274.364 242.159 271.904 242.159C269.444 242.159 267.836 243.96 267.836 246.676C267.836 249.375 269.444 251.176 271.904 251.176ZM271.909 249.75C270.302 249.75 269.552 248.347 269.552 246.67C269.552 245 270.302 243.58 271.909 243.58C273.506 243.58 274.256 245 274.256 246.67C274.256 248.347 273.506 249.75 271.909 249.75ZM280.047 245.818C280.047 244.426 280.899 243.631 282.081 243.631C283.235 243.631 283.934 244.386 283.934 245.653V251H285.632V245.449C285.632 243.29 284.445 242.159 282.661 242.159C281.348 242.159 280.49 242.767 280.087 243.693H279.979V242.273H278.348V251H280.047V245.818Z" fill="#EFDDD2"/>
<path d="M186.134 275H187.51L191.307 267.44V266.273H185.537V267.402H189.943V267.466L186.134 275ZM195.574 266.153C193.741 266.136 192.544 267.453 192.544 269.107C192.548 270.773 193.754 271.974 195.267 271.974C196.191 271.974 196.984 271.523 197.431 270.79H197.5C197.495 272.797 196.741 273.969 195.463 273.969C194.627 273.969 194.091 273.457 193.92 272.712H192.62C192.812 274.122 193.903 275.119 195.463 275.119C197.491 275.119 198.761 273.376 198.761 270.321C198.757 267.134 197.129 266.166 195.574 266.153ZM195.578 267.261C196.588 267.261 197.333 268.118 197.333 269.077C197.338 270.048 196.549 270.901 195.552 270.901C194.551 270.901 193.826 270.099 193.822 269.089C193.822 268.075 194.576 267.261 195.578 267.261ZM200.3 275L206.045 275V273.871H202.116V273.807L203.85 271.991C205.448 270.376 205.904 269.605 205.904 268.629C205.904 267.227 204.762 266.153 203.117 266.153C201.485 266.153 200.292 267.21 200.292 268.804H201.549C201.545 267.866 202.15 267.253 203.092 267.253C203.978 267.253 204.651 267.798 204.651 268.668C204.651 269.439 204.191 269.993 203.254 270.986L200.3 274.045V275ZM210.707 275.119C212.531 275.136 213.741 273.824 213.737 272.149C213.741 270.479 212.526 269.281 211.013 269.281C210.093 269.281 209.296 269.724 208.849 270.462H208.785C208.789 268.48 209.539 267.304 210.817 267.304C211.657 267.304 212.185 267.815 212.364 268.54H213.664C213.464 267.159 212.377 266.153 210.817 266.153C208.789 266.153 207.523 267.896 207.523 270.93C207.519 274.143 209.156 275.107 210.707 275.119ZM210.702 274.011C209.688 274.011 208.947 273.159 208.947 272.179C208.951 271.203 209.727 270.351 210.732 270.351C211.729 270.351 212.462 271.156 212.458 272.166C212.462 273.197 211.7 274.011 210.702 274.011ZM218.482 275H219.756L219.756 270.964C219.756 270.082 220.374 269.469 221.098 269.469C221.805 269.469 222.295 269.938 222.295 270.649L222.295 275H223.565L223.565 270.828C223.565 270.04 224.047 269.469 224.878 269.469C225.551 269.469 226.105 269.844 226.105 270.73L226.105 275H227.379L227.379 270.611C227.379 269.115 226.544 268.369 225.359 268.369C224.418 268.369 223.71 268.821 223.395 269.52H223.327C223.041 268.804 222.44 268.369 221.567 268.369C220.702 268.369 220.058 268.8 219.786 269.52H219.705V268.455H218.482L218.482 275ZM229.087 275H230.361L230.361 268.455H229.087L229.087 275ZM229.73 267.445C230.169 267.445 230.536 267.104 230.536 266.686C230.536 266.268 230.169 265.923 229.73 265.923C229.287 265.923 228.925 266.268 228.925 266.686C228.925 267.104 229.287 267.445 229.73 267.445ZM233.349 266.273H232.075L232.075 275H233.349L233.349 266.273ZM237.885 275.132C239.312 275.132 240.322 274.429 240.612 273.364L239.406 273.146C239.176 273.764 238.622 274.08 237.897 274.08C236.806 274.08 236.074 273.372 236.039 272.111H240.693V271.659C240.693 269.294 239.278 268.369 237.795 268.369C235.971 268.369 234.77 269.759 234.77 271.77C234.77 273.803 235.954 275.132 237.885 275.132ZM236.044 271.156C236.095 270.227 236.768 269.422 237.804 269.422C238.792 269.422 239.44 270.155 239.444 271.156H236.044ZM247.011 270.053C246.747 269.034 245.95 268.369 244.536 268.369C243.057 268.369 242.009 269.149 242.009 270.308C242.009 271.237 242.571 271.855 243.798 272.128L244.906 272.371C245.537 272.511 245.831 272.793 245.831 273.202C245.831 273.709 245.29 274.105 244.455 274.105C243.692 274.105 243.202 273.777 243.048 273.134L241.817 273.321C242.03 274.48 242.993 275.132 244.463 275.132C246.044 275.132 247.139 274.293 247.139 273.108C247.139 272.183 246.551 271.612 245.349 271.335L244.31 271.097C243.589 270.926 243.278 270.683 243.283 270.24C243.278 269.737 243.824 269.379 244.548 269.379C245.341 269.379 245.707 269.818 245.857 270.257L247.011 270.053Z" fill="#EFDDD2"/>
<path opacity="0.5" d="M189.151 285.273H187.868L185.69 286.696V287.957L187.778 286.594H187.83L187.83 294H189.151L189.151 285.273ZM191.511 294H197.256V292.871H193.327V292.807L195.061 290.991C196.659 289.376 197.115 288.605 197.115 287.629C197.115 286.227 195.973 285.153 194.328 285.153C192.696 285.153 191.503 286.21 191.503 287.804H192.76C192.756 286.866 193.361 286.253 194.303 286.253C195.189 286.253 195.862 286.798 195.862 287.668C195.862 288.439 195.402 288.993 194.464 289.986L191.511 293.045V294ZM199.165 294H200.541L204.338 286.44V285.273L198.568 285.273V286.402L202.974 286.402V286.466L199.165 294ZM208.583 294.119C210.339 294.119 211.592 292.879 211.588 291.179C211.592 289.491 210.416 288.264 208.826 288.264C208.179 288.264 207.578 288.511 207.237 288.844H207.186L207.463 286.402H211.166V285.273H206.368L205.877 289.67L207.083 289.849C207.412 289.555 208 289.355 208.528 289.355C209.564 289.364 210.314 290.139 210.314 291.205C210.314 292.253 209.585 293.011 208.583 293.011C207.74 293.011 207.071 292.474 207.002 291.724H205.724C205.775 293.114 206.981 294.119 208.583 294.119ZM216.191 294.119C218.015 294.136 219.225 292.824 219.221 291.149C219.225 289.479 218.011 288.281 216.498 288.281C215.577 288.281 214.781 288.724 214.333 289.462H214.269C214.273 287.48 215.023 286.304 216.302 286.304C217.141 286.304 217.67 286.815 217.849 287.54H219.148C218.948 286.159 217.862 285.153 216.302 285.153C214.273 285.153 213.008 286.896 213.008 289.93C213.004 293.143 214.64 294.107 216.191 294.119ZM216.187 293.011C215.173 293.011 214.431 292.159 214.431 291.179C214.435 290.203 215.211 289.351 216.217 289.351C217.214 289.351 217.947 290.156 217.942 291.166C217.947 292.197 217.184 293.011 216.187 293.011ZM223.966 294H225.24L225.24 291.678L225.875 291.043L228.099 294H229.663L226.834 290.263L229.484 287.455H227.959L225.351 290.224H225.24V285.273H223.966L223.966 294ZM230.646 294H231.92L231.92 289.964C231.92 289.082 232.538 288.469 233.262 288.469C233.969 288.469 234.46 288.938 234.46 289.649L234.46 294H235.729L235.729 289.828C235.729 289.04 236.211 288.469 237.042 288.469C237.715 288.469 238.269 288.844 238.269 289.73L238.269 294H239.543L239.543 289.611C239.543 288.115 238.708 287.369 237.523 287.369C236.582 287.369 235.874 287.821 235.559 288.52H235.491C235.205 287.804 234.604 287.369 233.731 287.369C232.866 287.369 232.222 287.8 231.95 288.52H231.869V287.455H230.646L230.646 294Z" fill="#EFDDD2"/>
<circle cx="102" cy="181" r="28" fill="#EFDDD2"/>
<circle cx="102" cy="267" r="14" fill="#D2895F"/>
<line x1="21" y1="0.5" x2="4" y2="0.5" stroke="#EFDDD2"/>
<line x1="13" y1="2.18557e-08" x2="13" y2="112" stroke="#EFDDD2"/>
<line x1="21" y1="112.5" x2="4" y2="112.5" stroke="#EFDDD2"/>
<line x1="21" y1="155.5" x2="4" y2="155.5" stroke="#EFDDD2"/>
<line x1="13" y1="155" x2="13" y2="207" stroke="#EFDDD2"/>
<line x1="21" y1="207.5" x2="4" y2="207.5" stroke="#EFDDD2"/>
<line x1="21" y1="253.5" x2="4" y2="253.5" stroke="#EFDDD2"/>
<line x1="13" y1="253" x2="13" y2="281" stroke="#EFDDD2"/>
<line x1="21" y1="281.5" x2="4" y2="281.5" stroke="#EFDDD2"/>
<rect width="14" height="23" transform="translate(5 41)" fill="#CB7442"/>
<path d="M13.3146 48.2727H12.032L9.8544 49.696V50.9574L11.9425 49.5938H11.9936V57H13.3146V48.2727Z" fill="#EFDDD2"/>
<rect width="26" height="23" transform="translate(0 171)" fill="#CB7442"/>
<path d="M8.43182 178.273H7.14915L4.97159 179.696V180.957L7.05966 179.594H7.1108V187H8.43182V178.273ZM14.1335 177.864H12.9957L10.1832 188.312H11.321L14.1335 177.864ZM15.1989 187H20.9432V185.871H17.0142V185.807L18.7486 183.991C20.3466 182.376 20.8026 181.605 20.8026 180.629C20.8026 179.227 19.6605 178.153 18.0156 178.153C16.3835 178.153 15.1903 179.21 15.1903 180.804H16.4474C16.4432 179.866 17.0483 179.253 17.9901 179.253C18.8764 179.253 19.5497 179.798 19.5497 180.668C19.5497 181.439 19.0895 181.993 18.152 182.986L15.1989 186.045V187Z" fill="#EFDDD2"/>
<rect width="26" height="23" transform="translate(0 256)" fill="#CB7442"/>
<path d="M8.18572 263.273H6.90305L4.7255 264.696V265.957L6.81357 264.594H6.8647V272H8.18572V263.273ZM13.8874 262.864H12.7496L9.93714 273.312H11.0749L13.8874 262.864ZM14.7695 270.295H18.9073V272H20.1644V270.295H21.3192V269.179H20.1644V263.273H18.5408L14.7695 269.23V270.295ZM18.9158 269.179H16.1502V269.111L18.8477 264.841H18.9158V269.179Z" fill="#EFDDD2"/>
</svg>
