<svg width="230" height="154" viewBox="0 0 230 154" fill="none" xmlns="http://www.w3.org/2000/svg">
<path d="M0.958807 112.5L6.48153 112.5L6.48153 111.366L2.27557 111.366L2.27557 108.695L6.14489 108.695L6.14489 107.565L2.27557 107.565L2.27557 104.906L6.4304 104.906L6.4304 103.773L0.958807 103.773L0.958807 112.5ZM9.99183 112.645C11.0742 112.645 11.6836 112.095 11.9265 111.605H11.9776L11.9776 112.5H13.2219L13.2219 108.153C13.2219 106.249 11.7219 105.869 10.6822 105.869C9.49751 105.869 8.40661 106.347 7.98047 107.54L9.17791 107.813C9.36541 107.348 9.84268 106.901 10.6992 106.901C11.5217 106.901 11.9435 107.331 11.9435 108.072V108.102C11.9435 108.567 11.4663 108.558 10.2901 108.695C9.05007 108.839 7.78018 109.163 7.78018 110.651C7.78018 111.938 8.74751 112.645 9.99183 112.645ZM10.2688 111.622C9.54865 111.622 9.02876 111.298 9.02876 110.668C9.02876 109.986 9.63388 109.743 10.3711 109.645C10.7844 109.589 11.7646 109.479 11.9478 109.295L11.9478 110.139C11.9478 110.915 11.3299 111.622 10.2688 111.622ZM14.919 112.5H16.1932L16.1932 108.503C16.1932 107.646 16.8537 107.028 17.7571 107.028C18.0213 107.028 18.3196 107.075 18.4219 107.105V105.886C18.294 105.869 18.0426 105.857 17.8807 105.857C17.1136 105.857 16.4574 106.291 16.2187 106.994H16.1506V105.955H14.919L14.919 112.5ZM22.9666 105.955H21.6243L21.6243 104.386L20.3501 104.386L20.3501 105.955H19.3913V106.977H20.3501L20.3501 110.842C20.3459 112.031 21.2536 112.607 22.2592 112.585C22.6641 112.581 22.9368 112.504 23.0859 112.449L22.8558 111.396C22.7706 111.413 22.6129 111.452 22.4084 111.452C21.995 111.452 21.6243 111.315 21.6243 110.578L21.6243 106.977H22.9666V105.955ZM25.7908 108.614C25.7908 107.57 26.4513 106.973 27.359 106.973C28.2369 106.973 28.761 107.531 28.761 108.49L28.761 112.5H30.0352L30.0352 108.337C30.0352 106.705 29.1403 105.869 27.7937 105.869C26.7752 105.869 26.1616 106.313 25.8548 107.02H25.7738L25.7738 103.773H24.5167L24.5167 112.5H25.7908L25.7908 108.614Z" fill="#252321"/>
<path d="M0.839489 131.5H6.58381L6.58381 130.371H2.65483V130.307L4.3892 128.491C5.98722 126.876 6.44318 126.105 6.44318 125.129C6.44318 123.727 5.30114 122.653 3.65625 122.653C2.02415 122.653 0.830966 123.71 0.830966 125.304H2.08807C2.08381 124.366 2.68892 123.753 3.63068 123.753C4.51705 123.753 5.19034 124.298 5.19034 125.168C5.19034 125.939 4.73011 126.493 3.79261 127.486L0.839489 130.545L0.839489 131.5ZM11.2457 131.619C13.0696 131.636 14.2798 130.324 14.2756 128.649C14.2798 126.979 13.0653 125.781 11.5526 125.781C10.6321 125.781 9.83523 126.224 9.38778 126.962H9.32386C9.32812 124.98 10.0781 123.804 11.3565 123.804C12.196 123.804 12.7244 124.315 12.9034 125.04H14.2031C14.0028 123.659 12.9162 122.653 11.3565 122.653C9.32812 122.653 8.0625 124.396 8.0625 127.43C8.05824 130.643 9.6946 131.607 11.2457 131.619ZM11.2415 130.511C10.2273 130.511 9.4858 129.659 9.4858 128.679C9.49006 127.703 10.2656 126.851 11.2713 126.851C12.2685 126.851 13.0014 127.656 12.9972 128.666C13.0014 129.697 12.2386 130.511 11.2415 130.511ZM18.8661 131.645C20.8817 131.645 22.0621 130 22.0621 127.141C22.0621 124.303 20.8647 122.653 18.8661 122.653C16.8633 122.653 15.6701 124.298 15.6658 127.141C15.6658 129.996 16.8462 131.641 18.8661 131.645ZM18.8661 130.507C17.6857 130.507 16.9741 129.322 16.9741 127.141C16.9783 124.967 17.69 123.77 18.8661 123.77C20.038 123.77 20.7539 124.967 20.7539 127.141C20.7539 129.322 20.0423 130.507 18.8661 130.507ZM26.869 131.5H28.1133L28.1133 130.482H28.2198C28.4499 130.899 28.9187 131.628 30.1119 131.628C31.6971 131.628 32.8477 130.358 32.8477 128.24C32.8477 126.118 31.68 124.869 30.0991 124.869C28.8846 124.869 28.4457 125.611 28.2198 126.016H28.1431L28.1431 122.773H26.869L26.869 131.5ZM28.1175 128.227C28.1175 126.859 28.7141 125.952 29.8263 125.952C30.9812 125.952 31.5607 126.928 31.5607 128.227C31.5607 129.54 30.9641 130.541 29.8263 130.541C28.7312 130.541 28.1175 129.604 28.1175 128.227ZM34.2784 131.5H35.5526L35.5526 124.955H34.2784L34.2784 131.5ZM34.9219 123.945C35.3608 123.945 35.7273 123.604 35.7273 123.186C35.7273 122.768 35.3608 122.423 34.9219 122.423C34.4787 122.423 34.1165 122.768 34.1165 123.186C34.1165 123.604 34.4787 123.945 34.9219 123.945ZM38.5408 122.773L37.2667 122.773L37.2667 131.5H38.5408L38.5408 122.773ZM41.5291 122.773H40.255L40.255 131.5H41.5291L41.5291 122.773ZM43.2433 131.5H44.5174L44.5174 124.955H43.2433L43.2433 131.5ZM43.8867 123.945C44.3256 123.945 44.6921 123.604 44.6921 123.186C44.6921 122.768 44.3256 122.423 43.8867 122.423C43.4435 122.423 43.0813 122.768 43.0813 123.186C43.0813 123.604 43.4435 123.945 43.8867 123.945ZM48.9886 131.632C50.8338 131.632 52.0398 130.281 52.0398 128.257C52.0398 126.22 50.8338 124.869 48.9886 124.869C47.1435 124.869 45.9375 126.22 45.9375 128.257C45.9375 130.281 47.1435 131.632 48.9886 131.632ZM48.9929 130.563C47.7869 130.563 47.2244 129.51 47.2244 128.253C47.2244 127 47.7869 125.935 48.9929 125.935C50.1903 125.935 50.7528 127 50.7528 128.253C50.7528 129.51 50.1903 130.563 48.9929 130.563ZM54.7362 127.614C54.7362 126.57 55.3754 125.973 56.2617 125.973C57.1268 125.973 57.6509 126.54 57.6509 127.49L57.6509 131.5H58.9251L58.9251 127.337C58.9251 125.717 58.0344 124.869 56.6964 124.869C55.712 124.869 55.0685 125.325 54.766 126.02H54.685L54.685 124.955L53.462 124.955L53.462 131.5H54.7362L54.7362 127.614ZM63.8097 131.5H65.0838V127.464C65.0838 126.582 65.7017 125.969 66.4261 125.969C67.1335 125.969 67.6236 126.438 67.6236 127.149V131.5H68.8935V127.328C68.8935 126.54 69.375 125.969 70.206 125.969C70.8793 125.969 71.4332 126.344 71.4332 127.23V131.5H72.7074V127.111C72.7074 125.615 71.8722 124.869 70.6875 124.869C69.7457 124.869 69.0384 125.321 68.723 126.02H68.6548C68.3693 125.304 67.7685 124.869 66.8949 124.869C66.0298 124.869 65.3864 125.3 65.1136 126.02H65.0327V124.955H63.8097L63.8097 131.5ZM74.4151 131.5L75.6893 131.5V124.955H74.4151V131.5ZM75.0586 123.945C75.4975 123.945 75.864 123.604 75.864 123.186C75.864 122.768 75.4975 122.423 75.0586 122.423C74.6154 122.423 74.2532 122.768 74.2532 123.186C74.2532 123.604 74.6154 123.945 75.0586 123.945ZM79.142 127.205C80.3991 127.205 81.2983 126.557 81.2983 125.67C81.2983 125.031 80.8338 124.554 79.9986 124.447V124.409C80.608 124.315 81.0895 123.915 81.0895 123.301C81.0895 122.466 80.3054 121.835 79.1634 121.835C78.0341 121.835 77.152 122.457 77.1349 123.365H78.1449C78.1619 122.943 78.6094 122.666 79.1591 122.666C79.696 122.666 80.0625 122.956 80.0625 123.361C80.0625 123.791 79.6236 124.077 79.027 124.077H78.5455V124.852H79.027C79.7514 124.852 80.2074 125.163 80.2074 125.594C80.2074 126.037 79.7557 126.331 79.142 126.331C78.554 126.331 78.1065 126.067 78.0895 125.653H77.0156C77.0369 126.57 77.9276 127.205 79.142 127.205Z" fill="#252321"/>
<path d="M4.15057 141.773H2.8679L0.690341 143.196L0.690341 144.457L2.77841 143.094H2.82955L2.82955 150.5H4.15057L4.15057 141.773ZM6.87571 150.581C7.3402 150.581 7.72798 150.202 7.72798 149.729C7.72798 149.264 7.3402 148.881 6.87571 148.881C6.40696 148.881 6.02344 149.264 6.02344 149.729C6.02344 150.202 6.40696 150.581 6.87571 150.581ZM11.674 141.773H10.3913L8.21378 143.196L8.21378 144.457L10.3018 143.094H10.353L10.353 150.5H11.674L11.674 141.773ZM20.283 143.955H18.9407L18.9407 142.386H17.6665L17.6665 143.955H16.7077V144.977H17.6665L17.6665 148.842C17.6623 150.031 18.57 150.607 19.5756 150.585C19.9805 150.581 20.2532 150.504 20.4023 150.449L20.1722 149.396C20.087 149.413 19.9293 149.452 19.7248 149.452C19.3114 149.452 18.9407 149.315 18.9407 148.578L18.9407 144.977H20.283V143.955ZM21.6925 150.5H22.9666L22.9666 146.503C22.9666 145.646 23.6271 145.028 24.5305 145.028C24.7947 145.028 25.093 145.075 25.1953 145.105V143.886C25.0675 143.869 24.8161 143.857 24.6541 143.857C23.8871 143.857 23.2308 144.291 22.9922 144.994H22.924V143.955H21.6925L21.6925 150.5ZM26.2979 150.5H27.5721L27.5721 143.955H26.2979L26.2979 150.5ZM26.9414 142.945C27.3803 142.945 27.7468 142.604 27.7468 142.186C27.7468 141.768 27.3803 141.423 26.9414 141.423C26.4982 141.423 26.136 141.768 26.136 142.186C26.136 142.604 26.4982 142.945 26.9414 142.945ZM30.5604 141.773H29.2862L29.2862 150.5H30.5604L30.5604 141.773ZM33.5487 141.773H32.2745L32.2745 150.5H33.5487L33.5487 141.773ZM35.2628 150.5H36.5369L36.5369 143.955H35.2628L35.2628 150.5ZM35.9062 142.945C36.3452 142.945 36.7116 142.604 36.7116 142.186C36.7116 141.768 36.3452 141.423 35.9062 141.423C35.4631 141.423 35.1009 141.768 35.1009 142.186C35.1009 142.604 35.4631 142.945 35.9062 142.945ZM41.0082 150.632C42.8533 150.632 44.0593 149.281 44.0593 147.257C44.0593 145.22 42.8533 143.869 41.0082 143.869C39.163 143.869 37.957 145.22 37.957 147.257C37.957 149.281 39.163 150.632 41.0082 150.632ZM41.0124 149.563C39.8065 149.563 39.244 148.51 39.244 147.253C39.244 146 39.8065 144.935 41.0124 144.935C42.2099 144.935 42.7724 146 42.7724 147.253C42.7724 148.51 42.2099 149.563 41.0124 149.563ZM46.7557 146.614C46.7557 145.57 47.3949 144.973 48.2812 144.973C49.1463 144.973 49.6705 145.54 49.6705 146.49L49.6705 150.5H50.9446L50.9446 146.337C50.9446 144.717 50.054 143.869 48.7159 143.869C47.7315 143.869 47.0881 144.325 46.7855 145.02H46.7045L46.7045 143.955H45.4815L45.4815 150.5H46.7557L46.7557 146.614ZM55.8292 150.5H57.1033L57.1033 148.178L57.7383 147.543L59.9627 150.5H61.5266L58.6971 146.763L61.3477 143.955H59.8221L57.2141 146.724H57.1033L57.1033 141.773H55.8292L55.8292 150.5ZM62.5089 150.5H63.783L63.783 146.464C63.783 145.582 64.4009 144.969 65.1254 144.969C65.8327 144.969 66.3228 145.438 66.3228 146.149V150.5H67.5927V146.328C67.5927 145.54 68.0742 144.969 68.9052 144.969C69.5785 144.969 70.1325 145.344 70.1325 146.23V150.5H71.4066V146.111C71.4066 144.615 70.5714 143.869 69.3867 143.869C68.445 143.869 67.7376 144.321 67.4222 145.02H67.354C67.0685 144.304 66.4677 143.869 65.5941 143.869C64.729 143.869 64.0856 144.3 63.8129 145.02H63.7319L63.7319 143.955H62.5089L62.5089 150.5ZM74.853 146.205C76.1101 146.205 77.0092 145.557 77.0092 144.67C77.0092 144.031 76.5447 143.554 75.7095 143.447V143.409C76.3189 143.315 76.8004 142.915 76.8004 142.301C76.8004 141.466 76.0163 140.835 74.8743 140.835C73.745 140.835 72.8629 141.457 72.8459 142.365H73.8558C73.8729 141.943 74.3203 141.666 74.87 141.666C75.407 141.666 75.7734 141.956 75.7734 142.361C75.7734 142.791 75.3345 143.077 74.7379 143.077H74.2564V143.852H74.7379C75.4624 143.852 75.9183 144.163 75.9183 144.594C75.9183 145.037 75.4666 145.331 74.853 145.331C74.2649 145.331 73.8175 145.067 73.8004 144.653H72.7266C72.7479 145.57 73.6385 146.205 74.853 146.205Z" fill="#68432E"/>
<path d="M146.959 103.773L146.959 112.5H148.212L148.212 106.18H148.293L150.866 112.487H151.906L154.48 106.185H154.561L154.561 112.5H155.814L155.814 103.773H154.216L151.437 110.557H151.335L148.557 103.773H146.959ZM159.531 112.645C160.613 112.645 161.223 112.095 161.466 111.605H161.517V112.5H162.761L162.761 108.153C162.761 106.249 161.261 105.869 160.221 105.869C159.037 105.869 157.946 106.347 157.52 107.54L158.717 107.813C158.904 107.348 159.382 106.901 160.238 106.901C161.061 106.901 161.483 107.331 161.483 108.072V108.102C161.483 108.567 161.005 108.558 159.829 108.695C158.589 108.839 157.319 109.163 157.319 110.651C157.319 111.938 158.287 112.645 159.531 112.645ZM159.808 111.622C159.088 111.622 158.568 111.298 158.568 110.668C158.568 109.986 159.173 109.743 159.91 109.645C160.324 109.589 161.304 109.479 161.487 109.295L161.487 110.139C161.487 110.915 160.869 111.622 159.808 111.622ZM164.458 112.5H165.732L165.732 108.503C165.732 107.646 166.393 107.028 167.296 107.028C167.56 107.028 167.859 107.075 167.961 107.105V105.886C167.833 105.869 167.582 105.857 167.42 105.857C166.653 105.857 165.996 106.291 165.758 106.994H165.69V105.955H164.458L164.458 112.5ZM173.968 107.553C173.704 106.534 172.907 105.869 171.493 105.869C170.014 105.869 168.966 106.649 168.966 107.808C168.966 108.737 169.528 109.355 170.755 109.628L171.863 109.871C172.494 110.011 172.788 110.293 172.788 110.702C172.788 111.209 172.247 111.605 171.412 111.605C170.649 111.605 170.159 111.277 170.005 110.634L168.774 110.821C168.987 111.98 169.95 112.632 171.42 112.632C173.001 112.632 174.096 111.793 174.096 110.608C174.096 109.683 173.508 109.112 172.306 108.835L171.267 108.597C170.547 108.426 170.235 108.183 170.24 107.74C170.235 107.237 170.781 106.879 171.505 106.879C172.298 106.879 172.664 107.318 172.814 107.757L173.968 107.553Z" fill="#252321"/>
<path d="M149.878 131.619C151.659 131.619 152.967 130.554 152.963 129.105C152.967 128.001 152.298 127.209 151.139 127.03V126.962C152.051 126.727 152.643 126.011 152.639 125.031C152.643 123.749 151.591 122.653 149.912 122.653C148.31 122.653 147.023 123.621 146.98 125.04H148.254C148.284 124.239 149.038 123.753 149.895 123.753C150.786 123.753 151.369 124.294 151.365 125.099C151.369 125.943 150.692 126.497 149.724 126.497H148.987V127.571H149.724C150.935 127.571 151.634 128.185 151.634 129.062C151.634 129.911 150.896 130.486 149.869 130.486C148.923 130.486 148.186 130 148.135 129.224H146.797C146.852 130.648 148.114 131.619 149.878 131.619ZM157.476 122.653C155.643 122.636 154.446 123.953 154.446 125.607C154.45 127.273 155.656 128.474 157.169 128.474C158.094 128.474 158.886 128.023 159.334 127.29H159.402C159.398 129.297 158.643 130.469 157.365 130.469C156.53 130.469 155.993 129.957 155.822 129.212L154.523 129.212C154.714 130.622 155.805 131.619 157.365 131.619C159.393 131.619 160.663 129.876 160.663 126.821C160.659 123.634 159.031 122.666 157.476 122.653ZM157.48 123.761C158.49 123.761 159.236 124.618 159.236 125.577C159.24 126.548 158.452 127.401 157.455 127.401C156.453 127.401 155.729 126.599 155.724 125.589C155.724 124.575 156.479 123.761 157.48 123.761ZM165.498 131.5H166.742V130.482H166.849C167.079 130.899 167.548 131.628 168.741 131.628C170.326 131.628 171.477 130.358 171.477 128.24C171.477 126.118 170.309 124.869 168.728 124.869C167.513 124.869 167.075 125.611 166.849 126.016H166.772V122.773H165.498L165.498 131.5ZM166.746 128.227C166.746 126.859 167.343 125.952 168.455 125.952C169.61 125.952 170.19 126.928 170.19 128.227C170.19 129.54 169.593 130.541 168.455 130.541C167.36 130.541 166.746 129.604 166.746 128.227ZM172.907 131.5H174.181L174.181 124.955H172.907L172.907 131.5ZM173.551 123.945C173.99 123.945 174.356 123.604 174.356 123.186C174.356 122.768 173.99 122.423 173.551 122.423C173.108 122.423 172.745 122.768 172.745 123.186C172.745 123.604 173.108 123.945 173.551 123.945ZM177.17 122.773H175.896L175.896 131.5H177.17L177.17 122.773ZM180.158 122.773H178.884L178.884 131.5H180.158L180.158 122.773ZM181.872 131.5H183.146L183.146 124.955H181.872L181.872 131.5ZM182.516 123.945C182.955 123.945 183.321 123.604 183.321 123.186C183.321 122.768 182.955 122.423 182.516 122.423C182.072 122.423 181.71 122.768 181.71 123.186C181.71 123.604 182.072 123.945 182.516 123.945ZM187.618 131.632C189.463 131.632 190.669 130.281 190.669 128.257C190.669 126.22 189.463 124.869 187.618 124.869C185.772 124.869 184.566 126.22 184.566 128.257C184.566 130.281 185.772 131.632 187.618 131.632ZM187.622 130.563C186.416 130.563 185.853 129.51 185.853 128.253C185.853 127 186.416 125.935 187.622 125.935C188.819 125.935 189.382 127 189.382 128.253C189.382 129.51 188.819 130.563 187.622 130.563ZM193.365 127.614C193.365 126.57 194.004 125.973 194.891 125.973C195.756 125.973 196.28 126.54 196.28 127.49L196.28 131.5H197.554L197.554 127.337C197.554 125.717 196.663 124.869 195.325 124.869C194.341 124.869 193.697 125.325 193.395 126.02H193.314V124.955H192.091L192.091 131.5H193.365L193.365 127.614ZM202.439 131.5L203.713 131.5L203.713 127.464C203.713 126.582 204.331 125.969 205.055 125.969C205.762 125.969 206.252 126.438 206.252 127.149L206.252 131.5H207.522L207.522 127.328C207.522 126.54 208.004 125.969 208.835 125.969C209.508 125.969 210.062 126.344 210.062 127.23V131.5H211.336V127.111C211.336 125.615 210.501 124.869 209.316 124.869C208.375 124.869 207.667 125.321 207.352 126.02H207.284C206.998 125.304 206.397 124.869 205.524 124.869C204.659 124.869 204.015 125.3 203.743 126.02H203.662V124.955H202.439L202.439 131.5ZM213.044 131.5H214.318V124.955H213.044V131.5ZM213.688 123.945C214.126 123.945 214.493 123.604 214.493 123.186C214.493 122.768 214.126 122.423 213.688 122.423C213.244 122.423 212.882 122.768 212.882 123.186C212.882 123.604 213.244 123.945 213.688 123.945ZM217.771 127.205C219.028 127.205 219.927 126.557 219.927 125.67C219.927 125.031 219.463 124.554 218.627 124.447V124.409C219.237 124.315 219.718 123.915 219.718 123.301C219.718 122.466 218.934 121.835 217.792 121.835C216.663 121.835 215.781 122.457 215.764 123.365L216.774 123.365C216.791 122.943 217.238 122.666 217.788 122.666C218.325 122.666 218.691 122.956 218.691 123.361C218.691 123.791 218.252 124.077 217.656 124.077H217.174V124.852H217.656C218.38 124.852 218.836 125.163 218.836 125.594C218.836 126.037 218.385 126.331 217.771 126.331C217.183 126.331 216.735 126.067 216.718 125.653L215.645 125.653C215.666 126.57 216.556 127.205 217.771 127.205Z" fill="#252321"/>
<path d="M150.151 141.773H148.868L146.69 143.196V144.457L148.778 143.094H148.83L148.83 150.5H150.151L150.151 141.773ZM155.558 150.619C157.382 150.636 158.592 149.324 158.588 147.649C158.592 145.979 157.378 144.781 155.865 144.781C154.945 144.781 154.148 145.224 153.7 145.962H153.636C153.641 143.98 154.391 142.804 155.669 142.804C156.509 142.804 157.037 143.315 157.216 144.04H158.516C158.315 142.659 157.229 141.653 155.669 141.653C153.641 141.653 152.375 143.396 152.375 146.43C152.371 149.643 154.007 150.607 155.558 150.619ZM155.554 149.511C154.54 149.511 153.798 148.659 153.798 147.679C153.803 146.703 154.578 145.851 155.584 145.851C156.581 145.851 157.314 146.656 157.31 147.666C157.314 148.697 156.551 149.511 155.554 149.511ZM163.179 150.619C164.96 150.619 166.268 149.554 166.264 148.105C166.268 147.001 165.599 146.209 164.44 146.03V145.962C165.352 145.727 165.944 145.011 165.94 144.031C165.944 142.749 164.892 141.653 163.213 141.653C161.61 141.653 160.324 142.621 160.281 144.04H161.555C161.585 143.239 162.339 142.753 163.196 142.753C164.086 142.753 164.67 143.294 164.666 144.099C164.67 144.943 163.993 145.497 163.025 145.497H162.288V146.571H163.025C164.235 146.571 164.934 147.185 164.934 148.063C164.934 148.911 164.197 149.486 163.17 149.486C162.224 149.486 161.487 149 161.436 148.224H160.098C160.153 149.648 161.414 150.619 163.179 150.619ZM171.17 150.5H172.414V149.482H172.521C172.751 149.899 173.219 150.628 174.413 150.628C175.998 150.628 177.148 149.358 177.148 147.24C177.148 145.118 175.981 143.869 174.4 143.869C173.185 143.869 172.746 144.611 172.521 145.016H172.444V141.773H171.17L171.17 150.5ZM172.418 147.227C172.418 145.859 173.015 144.952 174.127 144.952C175.282 144.952 175.862 145.928 175.862 147.227C175.862 148.54 175.265 149.541 174.127 149.541C173.032 149.541 172.418 148.604 172.418 147.227ZM178.579 150.5H179.853L179.853 143.955H178.579L178.579 150.5ZM179.223 142.945C179.662 142.945 180.028 142.604 180.028 142.186C180.028 141.768 179.662 141.423 179.223 141.423C178.779 141.423 178.417 141.768 178.417 142.186C178.417 142.604 178.779 142.945 179.223 142.945ZM182.842 141.773H181.567L181.567 150.5H182.842L182.842 141.773ZM185.83 141.773H184.556L184.556 150.5H185.83L185.83 141.773ZM187.544 150.5L188.818 150.5L188.818 143.955L187.544 143.955L187.544 150.5ZM188.188 142.945C188.626 142.945 188.993 142.604 188.993 142.186C188.993 141.768 188.626 141.423 188.188 141.423C187.744 141.423 187.382 141.768 187.382 142.186C187.382 142.604 187.744 142.945 188.188 142.945ZM193.289 150.632C195.135 150.632 196.341 149.281 196.341 147.257C196.341 145.22 195.135 143.869 193.289 143.869C191.444 143.869 190.238 145.22 190.238 147.257C190.238 149.281 191.444 150.632 193.289 150.632ZM193.294 149.563C192.088 149.563 191.525 148.51 191.525 147.253C191.525 146 192.088 144.935 193.294 144.935C194.491 144.935 195.054 146 195.054 147.253C195.054 148.51 194.491 149.563 193.294 149.563ZM199.037 146.614C199.037 145.57 199.676 144.973 200.562 144.973C201.428 144.973 201.952 145.54 201.952 146.49L201.952 150.5H203.226L203.226 146.337C203.226 144.717 202.335 143.869 200.997 143.869C200.013 143.869 199.369 144.325 199.067 145.02H198.986V143.955H197.763L197.763 150.5H199.037L199.037 146.614ZM208.11 150.5H209.385L209.385 148.178L210.02 147.543L212.244 150.5H213.808L210.978 146.763L213.629 143.955H212.103L209.495 146.724H209.385V141.773H208.11L208.11 150.5ZM214.79 150.5H216.064V146.464C216.064 145.582 216.682 144.969 217.407 144.969C218.114 144.969 218.604 145.438 218.604 146.149V150.5H219.874V146.328C219.874 145.54 220.355 144.969 221.186 144.969C221.86 144.969 222.414 145.344 222.414 146.23V150.5H223.688V146.111C223.688 144.615 222.853 143.869 221.668 143.869C220.726 143.869 220.019 144.321 219.703 145.02H219.635C219.35 144.304 218.749 143.869 217.875 143.869C217.01 143.869 216.367 144.3 216.094 145.02H216.013V143.955H214.79V150.5ZM227.134 146.205C228.391 146.205 229.29 145.557 229.29 144.67C229.29 144.031 228.826 143.554 227.991 143.447V143.409C228.6 143.315 229.082 142.915 229.082 142.301C229.082 141.466 228.298 140.835 227.156 140.835C226.026 140.835 225.144 141.457 225.127 142.365H226.137C226.154 141.943 226.602 141.666 227.151 141.666C227.688 141.666 228.055 141.956 228.055 142.361C228.055 142.791 227.616 143.077 227.019 143.077H226.538V143.852H227.019C227.744 143.852 228.2 144.163 228.2 144.594C228.2 145.037 227.748 145.331 227.134 145.331C226.546 145.331 226.099 145.067 226.082 144.653H225.008C225.029 145.57 225.92 146.205 227.134 146.205Z" fill="#68432E"/>
<circle cx="72.8844" cy="12.8844" r="12.8844" fill="#252321"/>
<circle cx="114.653" cy="12.8844" r="12.8844" fill="#252321"/>
<circle cx="156.422" cy="12.8844" r="12.8844" fill="#252321"/>
<circle cx="72.8844" cy="54.6532" r="12.8844" fill="#252321"/>
<circle cx="114.653" cy="54.6532" r="12.8844" fill="#252321"/>
<circle cx="156.422" cy="54.6532" r="12.8844" fill="#252321"/>
</svg>
