<svg width="243" height="199" viewBox="0 0 243 199" fill="none" xmlns="http://www.w3.org/2000/svg">
<circle cx="56" cy="56" r="56" fill="#E4BDA7"/>
<circle cx="56" cy="56" r="51" fill="#D2895F"/>
<circle cx="56" cy="56" r="35" fill="#D99E7C"/>
<circle cx="56" cy="56" r="22" fill="#EFDDD2"/>
<path d="M38.7784 153H46.142V151.489H40.5341V147.926H45.6932V146.42H40.5341V142.875H46.0739V141.364H38.7784V153ZM51.3024 153.193C52.7456 153.193 53.5581 152.46 53.882 151.807H53.9502V153H55.6093V147.205C55.6093 144.665 53.6093 144.159 52.2229 144.159C50.6434 144.159 49.1888 144.795 48.6206 146.386L50.2172 146.75C50.4672 146.131 51.1036 145.534 52.2456 145.534C53.3422 145.534 53.9047 146.108 53.9047 147.097V147.136C53.9047 147.756 53.2684 147.744 51.7002 147.926C50.0468 148.119 48.3536 148.551 48.3536 150.534C48.3536 152.25 49.6434 153.193 51.3024 153.193ZM51.6718 151.83C50.7115 151.83 50.0184 151.398 50.0184 150.557C50.0184 149.648 50.8252 149.324 51.8081 149.193C52.3593 149.119 53.6661 148.972 53.9104 148.727V149.852C53.9104 150.886 53.0865 151.83 51.6718 151.83ZM58.352 153H60.0509V147.67C60.0509 146.528 60.9316 145.705 62.1361 145.705C62.4884 145.705 62.8861 145.767 63.0225 145.807V144.182C62.852 144.159 62.5168 144.142 62.3009 144.142C61.2782 144.142 60.4032 144.722 60.085 145.659H59.9941V144.273H58.352V153ZM69.5622 144.273H67.7724V142.182H66.0735V144.273H64.7951V145.636H66.0735V150.79C66.0678 152.375 67.2781 153.142 68.619 153.114C69.1588 153.108 69.5224 153.006 69.7213 152.932L69.4144 151.528C69.3008 151.551 69.0906 151.602 68.8178 151.602C68.2667 151.602 67.7724 151.42 67.7724 150.438V145.636H69.5622V144.273ZM73.8078 147.818C73.8078 146.426 74.6885 145.631 75.8987 145.631C77.0691 145.631 77.768 146.375 77.768 147.653V153H79.4669V147.449C79.4669 145.273 78.2737 144.159 76.4782 144.159C75.1203 144.159 74.3021 144.75 73.893 145.693H73.7851V141.364H72.1089V153H73.8078V147.818Z" fill="#EFDDD2"/>
<path d="M29.1335 177H30.5099L34.3068 169.44V168.273H28.5369V169.402H32.9432V169.466L29.1335 177ZM38.5735 168.153C36.7411 168.136 35.5437 169.453 35.5437 171.107C35.5479 172.773 36.7539 173.974 38.2667 173.974C39.1914 173.974 39.984 173.523 40.4315 172.79H40.4996C40.4954 174.797 39.7411 175.969 38.4627 175.969C37.6275 175.969 37.0906 175.457 36.9201 174.712L35.6204 174.712C35.8121 176.122 36.9031 177.119 38.4627 177.119C40.4911 177.119 41.761 175.376 41.761 172.321C41.7567 169.134 40.1289 168.166 38.5735 168.153ZM38.5778 169.261C39.5877 169.261 40.3335 170.118 40.3335 171.077C40.3377 172.048 39.5494 172.901 38.5522 172.901C37.5508 172.901 36.8263 172.099 36.8221 171.089C36.8221 170.075 37.5763 169.261 38.5778 169.261ZM43.3004 177H49.0447L49.0447 175.871H45.1158V175.807L46.8501 173.991C48.4482 172.376 48.9041 171.605 48.9041 170.629C48.9041 169.227 47.7621 168.153 46.1172 168.153C44.4851 168.153 43.2919 169.21 43.2919 170.804H44.549C44.5447 169.866 45.1499 169.253 46.0916 169.253C46.978 169.253 47.6513 169.798 47.6513 170.668C47.6513 171.439 47.1911 171.993 46.2536 172.986L43.3004 176.045V177ZM53.7067 177.119C55.5305 177.136 56.7408 175.824 56.7365 174.149C56.7408 172.479 55.5263 171.281 54.0135 171.281C53.093 171.281 52.2962 171.724 51.8487 172.462H51.7848C51.7891 170.48 52.5391 169.304 53.8175 169.304C54.657 169.304 55.1854 169.815 55.3643 170.54H56.6641C56.4638 169.159 55.3771 168.153 53.8175 168.153C51.7891 168.153 50.5234 169.896 50.5234 172.93C50.5192 176.143 52.1555 177.107 53.7067 177.119ZM53.7024 176.011C52.6882 176.011 51.9467 175.159 51.9467 174.179C51.951 173.203 52.7266 172.351 53.7322 172.351C54.7294 172.351 55.4624 173.156 55.4581 174.166C55.4624 175.197 54.6996 176.011 53.7024 176.011ZM61.4815 177H62.7557L62.7557 172.964C62.7557 172.082 63.3736 171.469 64.098 171.469C64.8054 171.469 65.2955 171.938 65.2955 172.649L65.2955 177H66.5653L66.5653 172.828C66.5653 172.04 67.0469 171.469 67.8778 171.469C68.5511 171.469 69.1051 171.844 69.1051 172.73L69.1051 177L70.3793 177L70.3793 172.611C70.3793 171.115 69.544 170.369 68.3594 170.369C67.4176 170.369 66.7102 170.821 66.3949 171.52H66.3267C66.0412 170.804 65.4403 170.369 64.5668 170.369C63.7017 170.369 63.0582 170.8 62.7855 171.52H62.7045L62.7045 170.455H61.4815L61.4815 177ZM72.087 177H73.3612L73.3612 170.455H72.087L72.087 177ZM72.7305 169.445C73.1694 169.445 73.5359 169.104 73.5359 168.686C73.5359 168.268 73.1694 167.923 72.7305 167.923C72.2873 167.923 71.9251 168.268 71.9251 168.686C71.9251 169.104 72.2873 169.445 72.7305 169.445ZM76.3494 168.273H75.0753L75.0753 177H76.3494L76.3494 168.273ZM80.8846 177.132C82.3121 177.132 83.3221 176.429 83.6119 175.364L82.4059 175.146C82.1758 175.764 81.6218 176.08 80.8974 176.08C79.8065 176.08 79.0735 175.372 79.0394 174.111H83.6928V173.659C83.6928 171.294 82.2781 170.369 80.7951 170.369C78.9712 170.369 77.7695 171.759 77.7695 173.77C77.7695 175.803 78.9542 177.132 80.8846 177.132ZM79.0437 173.156C79.0948 172.227 79.7681 171.422 80.8036 171.422C81.7923 171.422 82.44 172.155 82.4442 173.156H79.0437ZM90.0114 172.053C89.7472 171.034 88.9503 170.369 87.5355 170.369C86.0568 170.369 85.0085 171.149 85.0085 172.308C85.0085 173.237 85.571 173.855 86.7983 174.128L87.9062 174.371C88.5369 174.511 88.831 174.793 88.831 175.202C88.831 175.709 88.2898 176.105 87.4545 176.105C86.6918 176.105 86.2017 175.777 86.0483 175.134L84.8168 175.321C85.0298 176.48 85.9929 177.132 87.4631 177.132C89.044 177.132 90.1392 176.293 90.1392 175.108C90.1392 174.183 89.5511 173.612 88.3494 173.335L87.3097 173.097C86.5895 172.926 86.2784 172.683 86.2827 172.24C86.2784 171.737 86.8239 171.379 87.5483 171.379C88.3409 171.379 88.7074 171.818 88.8565 172.257L90.0114 172.053Z" fill="#EFDDD2"/>
<path d="M32.1506 187.273H30.8679L28.6903 188.696L28.6903 189.957L30.7784 188.594H30.8295L30.8295 196H32.1506L32.1506 187.273ZM34.5114 196L40.2557 196L40.2557 194.871L36.3267 194.871V194.807L38.0611 192.991C39.6591 191.376 40.1151 190.605 40.1151 189.629C40.1151 188.227 38.973 187.153 37.3281 187.153C35.696 187.153 34.5028 188.21 34.5028 189.804H35.7599C35.7557 188.866 36.3608 188.253 37.3026 188.253C38.1889 188.253 38.8622 188.798 38.8622 189.668C38.8622 190.439 38.402 190.993 37.4645 191.986L34.5114 195.045V196ZM42.1648 196H43.5412L47.3381 188.44V187.273H41.5682V188.402H45.9744V188.466L42.1648 196ZM51.5835 196.119C53.3391 196.119 54.592 194.879 54.5877 193.179C54.592 191.491 53.4158 190.264 51.8263 190.264C51.1786 190.264 50.5778 190.511 50.2369 190.844H50.1857L50.4627 188.402L54.1658 188.402V187.273L49.3675 187.273L48.8775 191.67L50.0835 191.849C50.4116 191.555 50.9996 191.355 51.5281 191.355C52.5636 191.364 53.3136 192.139 53.3136 193.205C53.3136 194.253 52.5849 195.011 51.5835 195.011C50.7397 195.011 50.0707 194.474 50.0025 193.724H48.7241C48.7752 195.114 49.9812 196.119 51.5835 196.119ZM59.1911 196.119C61.0149 196.136 62.2251 194.824 62.2209 193.149C62.2251 191.479 61.0107 190.281 59.4979 190.281C58.5774 190.281 57.7805 190.724 57.3331 191.462H57.2692C57.2734 189.48 58.0234 188.304 59.3018 188.304C60.1413 188.304 60.6697 188.815 60.8487 189.54H62.1484C61.9482 188.159 60.8615 187.153 59.3018 187.153C57.2734 187.153 56.0078 188.896 56.0078 191.93C56.0036 195.143 57.6399 196.107 59.1911 196.119ZM59.1868 195.011C58.1726 195.011 57.4311 194.159 57.4311 193.179C57.4354 192.203 58.2109 191.351 59.2166 191.351C60.2138 191.351 60.9467 192.156 60.9425 193.166C60.9467 194.197 60.1839 195.011 59.1868 195.011ZM66.9659 196H68.2401L68.2401 193.678L68.875 193.043L71.0994 196H72.6634L69.8338 192.263L72.4844 189.455H70.9588L68.3509 192.224H68.2401L68.2401 187.273H66.9659L66.9659 196ZM73.6456 196H74.9197L74.9197 191.964C74.9197 191.082 75.5376 190.469 76.2621 190.469C76.9695 190.469 77.4595 190.938 77.4595 191.649L77.4595 196H78.7294L78.7294 191.828C78.7294 191.04 79.2109 190.469 80.0419 190.469C80.7152 190.469 81.2692 190.844 81.2692 191.73L81.2692 196H82.5433L82.5433 191.611C82.5433 190.115 81.7081 189.369 80.5234 189.369C79.5817 189.369 78.8743 189.821 78.5589 190.52H78.4908C78.2053 189.804 77.6044 189.369 76.7308 189.369C75.8658 189.369 75.2223 189.8 74.9496 190.52H74.8686L74.8686 189.455H73.6456L73.6456 196Z" fill="#E1B398"/>
<path d="M192.778 141.364V153H194.449V144.574H194.557L197.989 152.983H199.375L202.807 144.58H202.915V153H204.585V141.364H202.455L198.75 150.409H198.614L194.909 141.364H192.778ZM210.021 153.193C211.464 153.193 212.277 152.46 212.601 151.807H212.669V153H214.328V147.205C214.328 144.665 212.328 144.159 210.942 144.159C209.362 144.159 207.908 144.795 207.339 146.386L208.936 146.75C209.186 146.131 209.822 145.534 210.964 145.534C212.061 145.534 212.623 146.108 212.623 147.097V147.136C212.623 147.756 211.987 147.744 210.419 147.926C208.766 148.119 207.072 148.551 207.072 150.534C207.072 152.25 208.362 153.193 210.021 153.193ZM210.391 151.83C209.43 151.83 208.737 151.398 208.737 150.557C208.737 149.648 209.544 149.324 210.527 149.193C211.078 149.119 212.385 148.972 212.629 148.727V149.852C212.629 150.886 211.805 151.83 210.391 151.83ZM217.071 153H218.77V147.67C218.77 146.528 219.65 145.705 220.855 145.705C221.207 145.705 221.605 145.767 221.741 145.807V144.182C221.571 144.159 221.236 144.142 221.02 144.142C219.997 144.142 219.122 144.722 218.804 145.659H218.713V144.273H217.071V153ZM230.231 146.403C229.879 145.045 228.816 144.159 226.93 144.159C224.958 144.159 223.561 145.199 223.561 146.744C223.561 147.983 224.311 148.807 225.947 149.17L227.424 149.494C228.265 149.682 228.657 150.057 228.657 150.602C228.657 151.278 227.936 151.807 226.822 151.807C225.805 151.807 225.152 151.369 224.947 150.511L223.305 150.761C223.589 152.307 224.873 153.176 226.833 153.176C228.941 153.176 230.402 152.057 230.402 150.477C230.402 149.244 229.618 148.483 228.015 148.114L226.629 147.795C225.669 147.568 225.254 147.244 225.26 146.653C225.254 145.983 225.981 145.506 226.947 145.506C228.004 145.506 228.493 146.091 228.691 146.676L230.231 146.403Z" fill="#EFDDD2"/>
<path d="M181.134 177H182.51L186.307 169.44V168.273H180.537V169.402H184.943V169.466L181.134 177ZM190.574 168.153C188.741 168.136 187.544 169.453 187.544 171.107C187.548 172.773 188.754 173.974 190.267 173.974C191.191 173.974 191.984 173.523 192.431 172.79H192.5C192.495 174.797 191.741 175.969 190.463 175.969C189.627 175.969 189.091 175.457 188.92 174.712L187.62 174.712C187.812 176.122 188.903 177.119 190.463 177.119C192.491 177.119 193.761 175.376 193.761 172.321C193.757 169.134 192.129 168.166 190.574 168.153ZM190.578 169.261C191.588 169.261 192.333 170.118 192.333 171.077C192.338 172.048 191.549 172.901 190.552 172.901C189.551 172.901 188.826 172.099 188.822 171.089C188.822 170.075 189.576 169.261 190.578 169.261ZM195.3 177H201.045V175.871H197.116V175.807L198.85 173.991C200.448 172.376 200.904 171.605 200.904 170.629C200.904 169.227 199.762 168.153 198.117 168.153C196.485 168.153 195.292 169.21 195.292 170.804H196.549C196.545 169.866 197.15 169.253 198.092 169.253C198.978 169.253 199.651 169.798 199.651 170.668C199.651 171.439 199.191 171.993 198.254 172.986L195.3 176.045V177ZM205.707 177.119C207.531 177.136 208.741 175.824 208.737 174.149C208.741 172.479 207.526 171.281 206.013 171.281C205.093 171.281 204.296 171.724 203.849 172.462H203.785C203.789 170.48 204.539 169.304 205.817 169.304C206.657 169.304 207.185 169.815 207.364 170.54H208.664C208.464 169.159 207.377 168.153 205.817 168.153C203.789 168.153 202.523 169.896 202.523 172.93C202.519 176.143 204.156 177.107 205.707 177.119ZM205.702 176.011C204.688 176.011 203.947 175.159 203.947 174.179C203.951 173.203 204.727 172.351 205.732 172.351C206.729 172.351 207.462 173.156 207.458 174.166C207.462 175.197 206.7 176.011 205.702 176.011ZM213.482 177H214.756L214.756 172.964C214.756 172.082 215.374 171.469 216.098 171.469C216.805 171.469 217.295 171.938 217.295 172.649L217.295 177H218.565L218.565 172.828C218.565 172.04 219.047 171.469 219.878 171.469C220.551 171.469 221.105 171.844 221.105 172.73L221.105 177L222.379 177L222.379 172.611C222.379 171.115 221.544 170.369 220.359 170.369C219.418 170.369 218.71 170.821 218.395 171.52H218.327C218.041 170.804 217.44 170.369 216.567 170.369C215.702 170.369 215.058 170.8 214.786 171.52H214.705V170.455H213.482L213.482 177ZM224.087 177H225.361L225.361 170.455H224.087L224.087 177ZM224.73 169.445C225.169 169.445 225.536 169.104 225.536 168.686C225.536 168.268 225.169 167.923 224.73 167.923C224.287 167.923 223.925 168.268 223.925 168.686C223.925 169.104 224.287 169.445 224.73 169.445ZM228.349 168.273H227.075L227.075 177H228.349L228.349 168.273ZM232.885 177.132C234.312 177.132 235.322 176.429 235.612 175.364L234.406 175.146C234.176 175.764 233.622 176.08 232.897 176.08C231.806 176.08 231.074 175.372 231.039 174.111H235.693V173.659C235.693 171.294 234.278 170.369 232.795 170.369C230.971 170.369 229.77 171.759 229.77 173.77C229.77 175.803 230.954 177.132 232.885 177.132ZM231.044 173.156C231.095 172.227 231.768 171.422 232.804 171.422C233.792 171.422 234.44 172.155 234.444 173.156H231.044ZM242.011 172.053C241.747 171.034 240.95 170.369 239.536 170.369C238.057 170.369 237.009 171.149 237.009 172.308C237.009 173.237 237.571 173.855 238.798 174.128L239.906 174.371C240.537 174.511 240.831 174.793 240.831 175.202C240.831 175.709 240.29 176.105 239.455 176.105C238.692 176.105 238.202 175.777 238.048 175.134L236.817 175.321C237.03 176.48 237.993 177.132 239.463 177.132C241.044 177.132 242.139 176.293 242.139 175.108C242.139 174.183 241.551 173.612 240.349 173.335L239.31 173.097C238.589 172.926 238.278 172.683 238.283 172.24C238.278 171.737 238.824 171.379 239.548 171.379C240.341 171.379 240.707 171.818 240.857 172.257L242.011 172.053Z" fill="#EFDDD2"/>
<path d="M184.151 187.273H182.868L180.69 188.696V189.957L182.778 188.594H182.83L182.83 196H184.151L184.151 187.273ZM186.511 196L192.256 196V194.871L188.327 194.871V194.807L190.061 192.991C191.659 191.376 192.115 190.605 192.115 189.629C192.115 188.227 190.973 187.153 189.328 187.153C187.696 187.153 186.503 188.21 186.503 189.804H187.76C187.756 188.866 188.361 188.253 189.303 188.253C190.189 188.253 190.862 188.798 190.862 189.668C190.862 190.439 190.402 190.993 189.464 191.986L186.511 195.045V196ZM194.165 196H195.541L199.338 188.44V187.273H193.568V188.402H197.974V188.466L194.165 196ZM203.583 196.119C205.339 196.119 206.592 194.879 206.588 193.179C206.592 191.491 205.416 190.264 203.826 190.264C203.179 190.264 202.578 190.511 202.237 190.844H202.186L202.463 188.402L206.166 188.402V187.273L201.368 187.273L200.877 191.67L202.083 191.849C202.412 191.555 203 191.355 203.528 191.355C204.564 191.364 205.314 192.139 205.314 193.205C205.314 194.253 204.585 195.011 203.583 195.011C202.74 195.011 202.071 194.474 202.002 193.724H200.724C200.775 195.114 201.981 196.119 203.583 196.119ZM211.191 196.119C213.015 196.136 214.225 194.824 214.221 193.149C214.225 191.479 213.011 190.281 211.498 190.281C210.577 190.281 209.781 190.724 209.333 191.462H209.269C209.273 189.48 210.023 188.304 211.302 188.304C212.141 188.304 212.67 188.815 212.849 189.54H214.148C213.948 188.159 212.862 187.153 211.302 187.153C209.273 187.153 208.008 188.896 208.008 191.93C208.004 195.143 209.64 196.107 211.191 196.119ZM211.187 195.011C210.173 195.011 209.431 194.159 209.431 193.179C209.435 192.203 210.211 191.351 211.217 191.351C212.214 191.351 212.947 192.156 212.942 193.166C212.947 194.197 212.184 195.011 211.187 195.011ZM218.966 196H220.24L220.24 193.678L220.875 193.043L223.099 196H224.663L221.834 192.263L224.484 189.455H222.959L220.351 192.224H220.24V187.273H218.966L218.966 196ZM225.646 196H226.92L226.92 191.964C226.92 191.082 227.538 190.469 228.262 190.469C228.969 190.469 229.46 190.938 229.46 191.649L229.46 196H230.729L230.729 191.828C230.729 191.04 231.211 190.469 232.042 190.469C232.715 190.469 233.269 190.844 233.269 191.73L233.269 196H234.543L234.543 191.611C234.543 190.115 233.708 189.369 232.523 189.369C231.582 189.369 230.874 189.821 230.559 190.52H230.491C230.205 189.804 229.604 189.369 228.731 189.369C227.866 189.369 227.222 189.8 226.95 190.52H226.869V189.455H225.646L225.646 196Z" fill="#E1B398"/>
<circle cx="215" cy="56" r="28" fill="#E4BDA7"/>
<circle cx="215" cy="56" r="26" fill="#D2895F"/>
<mask id="mask0" mask-type="alpha" maskUnits="userSpaceOnUse" x="202" y="43" width="26" height="26">
<circle cx="215" cy="56" r="13" fill="#EFDDD2"/>
</mask>
<g mask="url(#mask0)">
<line x1="174.293" y1="70.2929" x2="204.293" y2="40.2929" stroke="#EFDDD2" stroke-width="2"/>
<line x1="179.601" y1="70.2929" x2="209.601" y2="40.2929" stroke="#EFDDD2" stroke-width="2"/>
<line x1="184.908" y1="70.2929" x2="214.908" y2="40.2929" stroke="#EFDDD2" stroke-width="2"/>
<line x1="190.216" y1="70.2929" x2="220.216" y2="40.2929" stroke="#EFDDD2" stroke-width="2"/>
<line x1="195.524" y1="70.2929" x2="225.524" y2="40.2929" stroke="#EFDDD2" stroke-width="2"/>
<line x1="200.831" y1="70.2929" x2="230.831" y2="40.2929" stroke="#EFDDD2" stroke-width="2"/>
<line x1="206.139" y1="70.2929" x2="236.139" y2="40.2929" stroke="#EFDDD2" stroke-width="2"/>
<line x1="211.447" y1="70.2929" x2="241.447" y2="40.2929" stroke="#EFDDD2" stroke-width="2"/>
<line x1="216.754" y1="70.2929" x2="246.754" y2="40.2929" stroke="#EFDDD2" stroke-width="2"/>
<line x1="222.062" y1="70.2929" x2="252.062" y2="40.2929" stroke="#EFDDD2" stroke-width="2"/>
<line x1="227.37" y1="70.2929" x2="257.37" y2="40.2929" stroke="#EFDDD2" stroke-width="2"/>
</g>
</svg>
