<svg width="244" height="206" viewBox="0 0 244 206" fill="none" xmlns="http://www.w3.org/2000/svg">
<circle cx="56" cy="56" r="56" fill="#E4BDA7"/>
<circle cx="56" cy="56" r="51" fill="#D2895F"/>
<circle cx="56" cy="56" r="35" fill="#D99E7C"/>
<circle cx="56" cy="56" r="22" fill="#EFDDD2"/>
<path d="M38.7784 157H46.142V155.489H40.5341V151.926H45.6932V150.42H40.5341V146.875H46.0739V145.364H38.7784V157ZM51.3024 157.193C52.7456 157.193 53.5581 156.46 53.882 155.807H53.9502V157H55.6093V151.205C55.6093 148.665 53.6093 148.159 52.2229 148.159C50.6434 148.159 49.1888 148.795 48.6206 150.386L50.2172 150.75C50.4672 150.131 51.1036 149.534 52.2456 149.534C53.3422 149.534 53.9047 150.108 53.9047 151.097V151.136C53.9047 151.756 53.2684 151.744 51.7002 151.926C50.0468 152.119 48.3536 152.551 48.3536 154.534C48.3536 156.25 49.6434 157.193 51.3024 157.193ZM51.6718 155.83C50.7115 155.83 50.0184 155.398 50.0184 154.557C50.0184 153.648 50.8252 153.324 51.8081 153.193C52.3593 153.119 53.6661 152.972 53.9104 152.727V153.852C53.9104 154.886 53.0865 155.83 51.6718 155.83ZM58.352 157H60.0509V151.67C60.0509 150.528 60.9316 149.705 62.1361 149.705C62.4884 149.705 62.8861 149.767 63.0225 149.807V148.182C62.852 148.159 62.5168 148.142 62.3009 148.142C61.2782 148.142 60.4032 148.722 60.085 149.659H59.9941V148.273H58.352V157ZM69.5622 148.273H67.7724V146.182H66.0735V148.273H64.7951V149.636H66.0735V154.79C66.0678 156.375 67.2781 157.142 68.619 157.114C69.1588 157.108 69.5224 157.006 69.7213 156.932L69.4144 155.528C69.3008 155.551 69.0906 155.602 68.8178 155.602C68.2667 155.602 67.7724 155.42 67.7724 154.438V149.636H69.5622V148.273ZM73.8078 151.818C73.8078 150.426 74.6885 149.631 75.8987 149.631C77.0691 149.631 77.768 150.375 77.768 151.653V157H79.4669V151.449C79.4669 149.273 78.2737 148.159 76.4782 148.159C75.1203 148.159 74.3021 148.75 73.893 149.693H73.7851V145.364H72.1089V157H73.8078V151.818Z" fill="#EFDDD2"/>
<path d="M29.1335 184H30.5099L34.3068 176.44V175.273H28.5369V176.402H32.9432V176.466L29.1335 184ZM38.5735 175.153C36.7411 175.136 35.5437 176.453 35.5437 178.107C35.5479 179.773 36.7539 180.974 38.2667 180.974C39.1914 180.974 39.984 180.523 40.4315 179.79H40.4996C40.4954 181.797 39.7411 182.969 38.4627 182.969C37.6275 182.969 37.0906 182.457 36.9201 181.712L35.6204 181.712C35.8121 183.122 36.9031 184.119 38.4627 184.119C40.4911 184.119 41.761 182.376 41.761 179.321C41.7567 176.134 40.1289 175.166 38.5735 175.153ZM38.5778 176.261C39.5877 176.261 40.3335 177.118 40.3335 178.077C40.3377 179.048 39.5494 179.901 38.5522 179.901C37.5508 179.901 36.8263 179.099 36.8221 178.089C36.8221 177.075 37.5763 176.261 38.5778 176.261ZM43.3004 184H49.0447L49.0447 182.871H45.1158V182.807L46.8501 180.991C48.4482 179.376 48.9041 178.605 48.9041 177.629C48.9041 176.227 47.7621 175.153 46.1172 175.153C44.4851 175.153 43.2919 176.21 43.2919 177.804H44.549C44.5447 176.866 45.1499 176.253 46.0916 176.253C46.978 176.253 47.6513 176.798 47.6513 177.668C47.6513 178.439 47.1911 178.993 46.2536 179.986L43.3004 183.045V184ZM53.7067 184.119C55.5305 184.136 56.7408 182.824 56.7365 181.149C56.7408 179.479 55.5263 178.281 54.0135 178.281C53.093 178.281 52.2962 178.724 51.8487 179.462H51.7848C51.7891 177.48 52.5391 176.304 53.8175 176.304C54.657 176.304 55.1854 176.815 55.3643 177.54H56.6641C56.4638 176.159 55.3771 175.153 53.8175 175.153C51.7891 175.153 50.5234 176.896 50.5234 179.93C50.5192 183.143 52.1555 184.107 53.7067 184.119ZM53.7024 183.011C52.6882 183.011 51.9467 182.159 51.9467 181.179C51.951 180.203 52.7266 179.351 53.7322 179.351C54.7294 179.351 55.4624 180.156 55.4581 181.166C55.4624 182.197 54.6996 183.011 53.7024 183.011ZM61.4815 184H62.7557L62.7557 179.964C62.7557 179.082 63.3736 178.469 64.098 178.469C64.8054 178.469 65.2955 178.938 65.2955 179.649L65.2955 184H66.5653L66.5653 179.828C66.5653 179.04 67.0469 178.469 67.8778 178.469C68.5511 178.469 69.1051 178.844 69.1051 179.73L69.1051 184L70.3793 184L70.3793 179.611C70.3793 178.115 69.544 177.369 68.3594 177.369C67.4176 177.369 66.7102 177.821 66.3949 178.52H66.3267C66.0412 177.804 65.4403 177.369 64.5668 177.369C63.7017 177.369 63.0582 177.8 62.7855 178.52H62.7045L62.7045 177.455H61.4815L61.4815 184ZM72.087 184H73.3612L73.3612 177.455H72.087L72.087 184ZM72.7305 176.445C73.1694 176.445 73.5359 176.104 73.5359 175.686C73.5359 175.268 73.1694 174.923 72.7305 174.923C72.2873 174.923 71.9251 175.268 71.9251 175.686C71.9251 176.104 72.2873 176.445 72.7305 176.445ZM76.3494 175.273H75.0753L75.0753 184H76.3494L76.3494 175.273ZM80.8846 184.132C82.3121 184.132 83.3221 183.429 83.6119 182.364L82.4059 182.146C82.1758 182.764 81.6218 183.08 80.8974 183.08C79.8065 183.08 79.0735 182.372 79.0394 181.111H83.6928V180.659C83.6928 178.294 82.2781 177.369 80.7951 177.369C78.9712 177.369 77.7695 178.759 77.7695 180.77C77.7695 182.803 78.9542 184.132 80.8846 184.132ZM79.0437 180.156C79.0948 179.227 79.7681 178.422 80.8036 178.422C81.7923 178.422 82.44 179.155 82.4442 180.156H79.0437ZM90.0114 179.053C89.7472 178.034 88.9503 177.369 87.5355 177.369C86.0568 177.369 85.0085 178.149 85.0085 179.308C85.0085 180.237 85.571 180.855 86.7983 181.128L87.9062 181.371C88.5369 181.511 88.831 181.793 88.831 182.202C88.831 182.709 88.2898 183.105 87.4545 183.105C86.6918 183.105 86.2017 182.777 86.0483 182.134L84.8168 182.321C85.0298 183.48 85.9929 184.132 87.4631 184.132C89.044 184.132 90.1392 183.293 90.1392 182.108C90.1392 181.183 89.5511 180.612 88.3494 180.335L87.3097 180.097C86.5895 179.926 86.2784 179.683 86.2827 179.24C86.2784 178.737 86.8239 178.379 87.5483 178.379C88.3409 178.379 88.7074 178.818 88.8565 179.257L90.0114 179.053Z" fill="#EFDDD2"/>
<path d="M32.1506 194.273H30.8679L28.6903 195.696L28.6903 196.957L30.7784 195.594H30.8295L30.8295 203H32.1506L32.1506 194.273ZM34.5114 203L40.2557 203L40.2557 201.871L36.3267 201.871V201.807L38.0611 199.991C39.6591 198.376 40.1151 197.605 40.1151 196.629C40.1151 195.227 38.973 194.153 37.3281 194.153C35.696 194.153 34.5028 195.21 34.5028 196.804H35.7599C35.7557 195.866 36.3608 195.253 37.3026 195.253C38.1889 195.253 38.8622 195.798 38.8622 196.668C38.8622 197.439 38.402 197.993 37.4645 198.986L34.5114 202.045V203ZM42.1648 203H43.5412L47.3381 195.44V194.273H41.5682V195.402H45.9744V195.466L42.1648 203ZM51.5835 203.119C53.3391 203.119 54.592 201.879 54.5877 200.179C54.592 198.491 53.4158 197.264 51.8263 197.264C51.1786 197.264 50.5778 197.511 50.2369 197.844H50.1857L50.4627 195.402L54.1658 195.402V194.273L49.3675 194.273L48.8775 198.67L50.0835 198.849C50.4116 198.555 50.9996 198.355 51.5281 198.355C52.5636 198.364 53.3136 199.139 53.3136 200.205C53.3136 201.253 52.5849 202.011 51.5835 202.011C50.7397 202.011 50.0707 201.474 50.0025 200.724H48.7241C48.7752 202.114 49.9812 203.119 51.5835 203.119ZM59.1911 203.119C61.0149 203.136 62.2251 201.824 62.2209 200.149C62.2251 198.479 61.0107 197.281 59.4979 197.281C58.5774 197.281 57.7805 197.724 57.3331 198.462H57.2692C57.2734 196.48 58.0234 195.304 59.3018 195.304C60.1413 195.304 60.6697 195.815 60.8487 196.54H62.1484C61.9482 195.159 60.8615 194.153 59.3018 194.153C57.2734 194.153 56.0078 195.896 56.0078 198.93C56.0036 202.143 57.6399 203.107 59.1911 203.119ZM59.1868 202.011C58.1726 202.011 57.4311 201.159 57.4311 200.179C57.4354 199.203 58.2109 198.351 59.2166 198.351C60.2138 198.351 60.9467 199.156 60.9425 200.166C60.9467 201.197 60.1839 202.011 59.1868 202.011ZM66.9659 203H68.2401L68.2401 200.678L68.875 200.043L71.0994 203H72.6634L69.8338 199.263L72.4844 196.455H70.9588L68.3509 199.224H68.2401L68.2401 194.273H66.9659L66.9659 203ZM73.6456 203H74.9197L74.9197 198.964C74.9197 198.082 75.5376 197.469 76.2621 197.469C76.9695 197.469 77.4595 197.938 77.4595 198.649L77.4595 203H78.7294L78.7294 198.828C78.7294 198.04 79.2109 197.469 80.0419 197.469C80.7152 197.469 81.2692 197.844 81.2692 198.73L81.2692 203H82.5433L82.5433 198.611C82.5433 197.115 81.7081 196.369 80.5234 196.369C79.5817 196.369 78.8743 196.821 78.5589 197.52H78.4908C78.2053 196.804 77.6044 196.369 76.7308 196.369C75.8658 196.369 75.2223 196.8 74.9496 197.52H74.8686L74.8686 196.455H73.6456L73.6456 203ZM89.1559 198.053C88.8917 197.034 88.0948 196.369 86.68 196.369C85.2013 196.369 84.1531 197.149 84.1531 198.308C84.1531 199.237 84.7156 199.855 85.9428 200.128L87.0508 200.371C87.6815 200.511 87.9755 200.793 87.9755 201.202C87.9755 201.709 87.4343 202.105 86.5991 202.105C85.8363 202.105 85.3462 201.777 85.1928 201.134L83.9613 201.321C84.1744 202.48 85.1374 203.132 86.6076 203.132C88.1886 203.132 89.2837 202.293 89.2837 201.108C89.2837 200.183 88.6957 199.612 87.494 199.335L86.4542 199.097C85.734 198.926 85.4229 198.683 85.4272 198.24C85.4229 197.737 85.9684 197.379 86.6928 197.379C87.4854 197.379 87.8519 197.818 88.0011 198.257L89.1559 198.053Z" fill="#E1B398"/>
<path d="M193.278 145.364V157H194.949V148.574H195.057L198.489 156.983H199.875L203.307 148.58H203.415V157H205.085V145.364H202.955L199.25 154.409H199.114L195.409 145.364H193.278ZM210.521 157.193C211.964 157.193 212.777 156.46 213.101 155.807H213.169V157H214.828V151.205C214.828 148.665 212.828 148.159 211.442 148.159C209.862 148.159 208.408 148.795 207.839 150.386L209.436 150.75C209.686 150.131 210.322 149.534 211.464 149.534C212.561 149.534 213.123 150.108 213.123 151.097V151.136C213.123 151.756 212.487 151.744 210.919 151.926C209.266 152.119 207.572 152.551 207.572 154.534C207.572 156.25 208.862 157.193 210.521 157.193ZM210.891 155.83C209.93 155.83 209.237 155.398 209.237 154.557C209.237 153.648 210.044 153.324 211.027 153.193C211.578 153.119 212.885 152.972 213.129 152.727V153.852C213.129 154.886 212.305 155.83 210.891 155.83ZM217.571 157H219.27V151.67C219.27 150.528 220.15 149.705 221.355 149.705C221.707 149.705 222.105 149.767 222.241 149.807V148.182C222.071 148.159 221.736 148.142 221.52 148.142C220.497 148.142 219.622 148.722 219.304 149.659H219.213V148.273H217.571V157ZM230.731 150.403C230.379 149.045 229.316 148.159 227.43 148.159C225.458 148.159 224.061 149.199 224.061 150.744C224.061 151.983 224.811 152.807 226.447 153.17L227.924 153.494C228.765 153.682 229.157 154.057 229.157 154.602C229.157 155.278 228.436 155.807 227.322 155.807C226.305 155.807 225.652 155.369 225.447 154.511L223.805 154.761C224.089 156.307 225.373 157.176 227.333 157.176C229.441 157.176 230.902 156.057 230.902 154.477C230.902 153.244 230.118 152.483 228.515 152.114L227.129 151.795C226.169 151.568 225.754 151.244 225.76 150.653C225.754 149.983 226.481 149.506 227.447 149.506C228.504 149.506 228.993 150.091 229.191 150.676L230.731 150.403Z" fill="#EFDDD2"/>
<path d="M180.656 182.295H184.794V184H186.051V182.295H187.206V181.179H186.051L186.051 175.273H184.428L180.656 181.23V182.295ZM184.803 181.179H182.037V181.111L184.734 176.841H184.803L184.803 181.179ZM188.691 184L194.435 184V182.871H190.506V182.807L192.241 180.991C193.839 179.376 194.295 178.605 194.295 177.629C194.295 176.227 193.153 175.153 191.508 175.153C189.876 175.153 188.683 176.21 188.683 177.804H189.94C189.935 176.866 190.54 176.253 191.482 176.253C192.369 176.253 193.042 176.798 193.042 177.668C193.042 178.439 192.582 178.993 191.644 179.986L188.691 183.045V184ZM196.05 184H201.795V182.871H197.866V182.807L199.6 180.991C201.198 179.376 201.654 178.605 201.654 177.629C201.654 176.227 200.512 175.153 198.867 175.153C197.235 175.153 196.042 176.21 196.042 177.804H197.299C197.295 176.866 197.9 176.253 198.842 176.253C199.728 176.253 200.401 176.798 200.401 177.668C200.401 178.439 199.941 178.993 199.004 179.986L196.05 183.045V184ZM206.448 184.145C208.464 184.145 209.644 182.5 209.644 179.641C209.644 176.803 208.447 175.153 206.448 175.153C204.445 175.153 203.252 176.798 203.248 179.641C203.248 182.496 204.428 184.141 206.448 184.145ZM206.448 183.007C205.268 183.007 204.556 181.822 204.556 179.641C204.56 177.467 205.272 176.27 206.448 176.27C207.62 176.27 208.336 177.467 208.336 179.641C208.336 181.822 207.624 183.007 206.448 183.007ZM214.349 184H215.623L215.623 179.964C215.623 179.082 216.241 178.469 216.965 178.469C217.673 178.469 218.163 178.938 218.163 179.649L218.163 184H219.433L219.433 179.828C219.433 179.04 219.914 178.469 220.745 178.469C221.418 178.469 221.972 178.844 221.972 179.73L221.972 184H223.246L223.246 179.611C223.246 178.115 222.411 177.369 221.227 177.369C220.285 177.369 219.577 177.821 219.262 178.52H219.194C218.908 177.804 218.308 177.369 217.434 177.369C216.569 177.369 215.925 177.8 215.653 178.52H215.572V177.455H214.349L214.349 184ZM224.954 184H226.228L226.228 177.455H224.954L224.954 184ZM225.598 176.445C226.037 176.445 226.403 176.104 226.403 175.686C226.403 175.268 226.037 174.923 225.598 174.923C225.154 174.923 224.792 175.268 224.792 175.686C224.792 176.104 225.154 176.445 225.598 176.445ZM229.217 175.273H227.942L227.942 184H229.217L229.217 175.273ZM233.752 184.132C235.179 184.132 236.189 183.429 236.479 182.364L235.273 182.146C235.043 182.764 234.489 183.08 233.765 183.08C232.674 183.08 231.941 182.372 231.907 181.111H236.56V180.659C236.56 178.294 235.145 177.369 233.662 177.369C231.838 177.369 230.637 178.759 230.637 180.77C230.637 182.803 231.821 184.132 233.752 184.132ZM231.911 180.156C231.962 179.227 232.635 178.422 233.671 178.422C234.659 178.422 235.307 179.155 235.311 180.156H231.911ZM242.879 179.053C242.614 178.034 241.817 177.369 240.403 177.369C238.924 177.369 237.876 178.149 237.876 179.308C237.876 180.237 238.438 180.855 239.665 181.128L240.773 181.371C241.404 181.511 241.698 181.793 241.698 182.202C241.698 182.709 241.157 183.105 240.322 183.105C239.559 183.105 239.069 182.777 238.915 182.134L237.684 182.321C237.897 183.48 238.86 184.132 240.33 184.132C241.911 184.132 243.006 183.293 243.006 182.108C243.006 181.183 242.418 180.612 241.217 180.335L240.177 180.097C239.457 179.926 239.146 179.683 239.15 179.24C239.146 178.737 239.691 178.379 240.415 178.379C241.208 178.379 241.575 178.818 241.724 179.257L242.879 179.053Z" fill="#EFDDD2"/>
<path d="M183.886 203.119C185.71 203.136 186.92 201.824 186.916 200.149C186.92 198.479 185.706 197.281 184.193 197.281C183.273 197.281 182.476 197.724 182.028 198.462H181.964C181.969 196.48 182.719 195.304 183.997 195.304C184.837 195.304 185.365 195.815 185.544 196.54H186.844C186.643 195.159 185.557 194.153 183.997 194.153C181.969 194.153 180.703 195.896 180.703 198.93C180.699 202.143 182.335 203.107 183.886 203.119ZM183.882 202.011C182.868 202.011 182.126 201.159 182.126 200.179C182.131 199.203 182.906 198.351 183.912 198.351C184.909 198.351 185.642 199.156 185.638 200.166C185.642 201.197 184.879 202.011 183.882 202.011ZM188.762 203L190.139 203L193.936 195.44V194.273L188.166 194.273V195.402L192.572 195.402V195.466L188.762 203ZM198.202 194.153C196.37 194.136 195.173 195.453 195.173 197.107C195.177 198.773 196.383 199.974 197.896 199.974C198.82 199.974 199.613 199.523 200.06 198.79H200.129C200.124 200.797 199.37 201.969 198.092 201.969C197.256 201.969 196.719 201.457 196.549 200.712H195.249C195.441 202.122 196.532 203.119 198.092 203.119C200.12 203.119 201.39 201.376 201.39 198.321C201.386 195.134 199.758 194.166 198.202 194.153ZM198.207 195.261C199.217 195.261 199.962 196.118 199.962 197.077C199.967 198.048 199.178 198.901 198.181 198.901C197.18 198.901 196.455 198.099 196.451 197.089C196.451 196.075 197.205 195.261 198.207 195.261ZM202.929 203L208.674 203V201.871H204.745V201.807L206.479 199.991C208.077 198.376 208.533 197.605 208.533 196.629C208.533 195.227 207.391 194.153 205.746 194.153C204.114 194.153 202.921 195.21 202.921 196.804H204.178C204.174 195.866 204.779 195.253 205.721 195.253C206.607 195.253 207.28 195.798 207.28 196.668C207.28 197.439 206.82 197.993 205.882 198.986L202.929 202.045V203ZM213.482 203H214.756L214.756 200.678L215.391 200.043L217.615 203H219.179L216.349 199.263L219 196.455H217.474L214.866 199.224H214.756V194.273H213.482L213.482 203ZM220.161 203H221.435L221.435 198.964C221.435 198.082 222.053 197.469 222.778 197.469C223.485 197.469 223.975 197.938 223.975 198.649L223.975 203H225.245L225.245 198.828C225.245 198.04 225.727 197.469 226.558 197.469C227.231 197.469 227.785 197.844 227.785 198.73L227.785 203H229.059L229.059 198.611C229.059 197.115 228.224 196.369 227.039 196.369C226.097 196.369 225.39 196.821 225.075 197.52H225.006C224.721 196.804 224.12 196.369 223.246 196.369C222.381 196.369 221.738 196.8 221.465 197.52H221.384V196.455H220.161L220.161 203ZM235.672 198.053C235.407 197.034 234.61 196.369 233.196 196.369C231.717 196.369 230.669 197.149 230.669 198.308C230.669 199.237 231.231 199.855 232.458 200.128L233.566 200.371C234.197 200.511 234.491 200.793 234.491 201.202C234.491 201.709 233.95 202.105 233.115 202.105C232.352 202.105 231.862 201.777 231.708 201.134L230.477 201.321C230.69 202.48 231.653 203.132 233.123 203.132C234.704 203.132 235.799 202.293 235.799 201.108C235.799 200.183 235.211 199.612 234.01 199.335L232.97 199.097C232.25 198.926 231.939 198.683 231.943 198.24C231.939 197.737 232.484 197.379 233.208 197.379C234.001 197.379 234.368 197.818 234.517 198.257L235.672 198.053Z" fill="#E1B398"/>
<circle cx="215" cy="56" r="28" fill="#E4BDA7"/>
<circle cx="215" cy="56" r="26" fill="#D2895F"/>
<path fill-rule="evenodd" clip-rule="evenodd" d="M202.052 57.1739C202.114 57.8663 202.23 58.5431 202.397 59.1999L218.2 43.3967C217.543 43.2305 216.866 43.1142 216.174 43.0522L202.052 57.1739ZM213.286 43.112L202.112 54.2858C202.877 48.4772 207.477 43.8771 213.286 43.112ZM220.299 44.1256L203.126 61.2994C203.365 61.8358 203.64 62.3529 203.948 62.8479L221.848 44.9477C221.353 44.6404 220.836 44.3654 220.299 44.1256ZM223.479 46.1452L205.145 64.4788C205.51 64.9026 205.902 65.3026 206.318 65.6762L224.676 47.3182C224.303 46.9021 223.903 46.5102 223.479 46.1452ZM225.904 48.9189L207.919 66.904C208.404 67.2198 208.912 67.5042 209.439 67.754L226.754 50.4393C226.504 49.912 226.22 49.4043 225.904 48.9189ZM227.523 52.4987L211.499 68.523C212.141 68.7021 212.802 68.8332 213.48 68.9121L227.912 54.4802C227.833 53.8024 227.702 53.1406 227.523 52.4987ZM227.937 57.2833L216.283 68.9374C217.341 68.8338 218.362 68.6033 219.33 68.2615L227.262 60.3297C227.603 59.3617 227.834 58.3411 227.937 57.2833Z" fill="#EFDDD2"/>
</svg>
