<svg width="247" height="206" viewBox="0 0 247 206" fill="none" xmlns="http://www.w3.org/2000/svg">
<circle cx="56" cy="56" r="56" fill="#573B2B"/>
<circle cx="56" cy="56" r="51" fill="#AA643B"/>
<circle cx="56" cy="56" r="35" fill="#895335"/>
<circle cx="56" cy="56" r="22" fill="#252321"/>
<path d="M38.7784 157H46.142V155.489H40.5341V151.926H45.6932V150.42H40.5341V146.875H46.0739V145.364H38.7784V157ZM51.3024 157.193C52.7456 157.193 53.5581 156.46 53.882 155.807H53.9502V157H55.6093V151.205C55.6093 148.665 53.6093 148.159 52.2229 148.159C50.6434 148.159 49.1888 148.795 48.6206 150.386L50.2172 150.75C50.4672 150.131 51.1036 149.534 52.2456 149.534C53.3422 149.534 53.9047 150.108 53.9047 151.097V151.136C53.9047 151.756 53.2684 151.744 51.7002 151.926C50.0468 152.119 48.3536 152.551 48.3536 154.534C48.3536 156.25 49.6434 157.193 51.3024 157.193ZM51.6718 155.83C50.7115 155.83 50.0184 155.398 50.0184 154.557C50.0184 153.648 50.8252 153.324 51.8081 153.193C52.3593 153.119 53.6661 152.972 53.9104 152.727V153.852C53.9104 154.886 53.0865 155.83 51.6718 155.83ZM58.352 157H60.0509V151.67C60.0509 150.528 60.9316 149.705 62.1361 149.705C62.4884 149.705 62.8861 149.767 63.0225 149.807V148.182C62.852 148.159 62.5168 148.142 62.3009 148.142C61.2782 148.142 60.4032 148.722 60.085 149.659H59.9941V148.273H58.352V157ZM69.5622 148.273H67.7724V146.182H66.0735V148.273H64.7951V149.636H66.0735V154.79C66.0678 156.375 67.2781 157.142 68.619 157.114C69.1588 157.108 69.5224 157.006 69.7213 156.932L69.4144 155.528C69.3008 155.551 69.0906 155.602 68.8178 155.602C68.2667 155.602 67.7724 155.42 67.7724 154.438V149.636H69.5622V148.273ZM73.8078 151.818C73.8078 150.426 74.6885 149.631 75.8987 149.631C77.0691 149.631 77.768 150.375 77.768 151.653V157H79.4669V151.449C79.4669 149.273 78.2737 148.159 76.4782 148.159C75.1203 148.159 74.3021 148.75 73.893 149.693H73.7851V145.364H72.1089V157H73.8078V151.818Z" fill="#252321"/>
<path d="M29.1335 184H30.5099L34.3068 176.44V175.273H28.5369V176.402H32.9432V176.466L29.1335 184ZM38.5735 175.153C36.7411 175.136 35.5437 176.453 35.5437 178.107C35.5479 179.773 36.7539 180.974 38.2667 180.974C39.1914 180.974 39.984 180.523 40.4315 179.79H40.4996C40.4954 181.797 39.7411 182.969 38.4627 182.969C37.6275 182.969 37.0906 182.457 36.9201 181.712L35.6204 181.712C35.8121 183.122 36.9031 184.119 38.4627 184.119C40.4911 184.119 41.761 182.376 41.761 179.321C41.7567 176.134 40.1289 175.166 38.5735 175.153ZM38.5778 176.261C39.5877 176.261 40.3335 177.118 40.3335 178.077C40.3377 179.048 39.5494 179.901 38.5522 179.901C37.5508 179.901 36.8263 179.099 36.8221 178.089C36.8221 177.075 37.5763 176.261 38.5778 176.261ZM43.3004 184H49.0447L49.0447 182.871H45.1158V182.807L46.8501 180.991C48.4482 179.376 48.9041 178.605 48.9041 177.629C48.9041 176.227 47.7621 175.153 46.1172 175.153C44.4851 175.153 43.2919 176.21 43.2919 177.804H44.549C44.5447 176.866 45.1499 176.253 46.0916 176.253C46.978 176.253 47.6513 176.798 47.6513 177.668C47.6513 178.439 47.1911 178.993 46.2536 179.986L43.3004 183.045V184ZM53.7067 184.119C55.5305 184.136 56.7408 182.824 56.7365 181.149C56.7408 179.479 55.5263 178.281 54.0135 178.281C53.093 178.281 52.2962 178.724 51.8487 179.462H51.7848C51.7891 177.48 52.5391 176.304 53.8175 176.304C54.657 176.304 55.1854 176.815 55.3643 177.54H56.6641C56.4638 176.159 55.3771 175.153 53.8175 175.153C51.7891 175.153 50.5234 176.896 50.5234 179.93C50.5192 183.143 52.1555 184.107 53.7067 184.119ZM53.7024 183.011C52.6882 183.011 51.9467 182.159 51.9467 181.179C51.951 180.203 52.7266 179.351 53.7322 179.351C54.7294 179.351 55.4624 180.156 55.4581 181.166C55.4624 182.197 54.6996 183.011 53.7024 183.011ZM61.4815 184H62.7557L62.7557 179.964C62.7557 179.082 63.3736 178.469 64.098 178.469C64.8054 178.469 65.2955 178.938 65.2955 179.649L65.2955 184H66.5653L66.5653 179.828C66.5653 179.04 67.0469 178.469 67.8778 178.469C68.5511 178.469 69.1051 178.844 69.1051 179.73L69.1051 184L70.3793 184L70.3793 179.611C70.3793 178.115 69.544 177.369 68.3594 177.369C67.4176 177.369 66.7102 177.821 66.3949 178.52H66.3267C66.0412 177.804 65.4403 177.369 64.5668 177.369C63.7017 177.369 63.0582 177.8 62.7855 178.52H62.7045L62.7045 177.455H61.4815L61.4815 184ZM72.087 184H73.3612L73.3612 177.455H72.087L72.087 184ZM72.7305 176.445C73.1694 176.445 73.5359 176.104 73.5359 175.686C73.5359 175.268 73.1694 174.923 72.7305 174.923C72.2873 174.923 71.9251 175.268 71.9251 175.686C71.9251 176.104 72.2873 176.445 72.7305 176.445ZM76.3494 175.273H75.0753L75.0753 184H76.3494L76.3494 175.273ZM80.8846 184.132C82.3121 184.132 83.3221 183.429 83.6119 182.364L82.4059 182.146C82.1758 182.764 81.6218 183.08 80.8974 183.08C79.8065 183.08 79.0735 182.372 79.0394 181.111H83.6928V180.659C83.6928 178.294 82.2781 177.369 80.7951 177.369C78.9712 177.369 77.7695 178.759 77.7695 180.77C77.7695 182.803 78.9542 184.132 80.8846 184.132ZM79.0437 180.156C79.0948 179.227 79.7681 178.422 80.8036 178.422C81.7923 178.422 82.44 179.155 82.4442 180.156H79.0437ZM90.0114 179.053C89.7472 178.034 88.9503 177.369 87.5355 177.369C86.0568 177.369 85.0085 178.149 85.0085 179.308C85.0085 180.237 85.571 180.855 86.7983 181.128L87.9062 181.371C88.5369 181.511 88.831 181.793 88.831 182.202C88.831 182.709 88.2898 183.105 87.4545 183.105C86.6918 183.105 86.2017 182.777 86.0483 182.134L84.8168 182.321C85.0298 183.48 85.9929 184.132 87.4631 184.132C89.044 184.132 90.1392 183.293 90.1392 182.108C90.1392 181.183 89.5511 180.612 88.3494 180.335L87.3097 180.097C86.5895 179.926 86.2784 179.683 86.2827 179.24C86.2784 178.737 86.8239 178.379 87.5483 178.379C88.3409 178.379 88.7074 178.818 88.8565 179.257L90.0114 179.053Z" fill="#252321"/>
<path d="M32.1506 194.273H30.8679L28.6903 195.696L28.6903 196.957L30.7784 195.594H30.8295L30.8295 203H32.1506L32.1506 194.273ZM34.5114 203L40.2557 203L40.2557 201.871L36.3267 201.871V201.807L38.0611 199.991C39.6591 198.376 40.1151 197.605 40.1151 196.629C40.1151 195.227 38.973 194.153 37.3281 194.153C35.696 194.153 34.5028 195.21 34.5028 196.804H35.7599C35.7557 195.866 36.3608 195.253 37.3026 195.253C38.1889 195.253 38.8622 195.798 38.8622 196.668C38.8622 197.439 38.402 197.993 37.4645 198.986L34.5114 202.045V203ZM42.1648 203H43.5412L47.3381 195.44V194.273H41.5682V195.402H45.9744V195.466L42.1648 203ZM51.5835 203.119C53.3391 203.119 54.592 201.879 54.5877 200.179C54.592 198.491 53.4158 197.264 51.8263 197.264C51.1786 197.264 50.5778 197.511 50.2369 197.844H50.1857L50.4627 195.402L54.1658 195.402V194.273L49.3675 194.273L48.8775 198.67L50.0835 198.849C50.4116 198.555 50.9996 198.355 51.5281 198.355C52.5636 198.364 53.3136 199.139 53.3136 200.205C53.3136 201.253 52.5849 202.011 51.5835 202.011C50.7397 202.011 50.0707 201.474 50.0025 200.724H48.7241C48.7752 202.114 49.9812 203.119 51.5835 203.119ZM59.1911 203.119C61.0149 203.136 62.2251 201.824 62.2209 200.149C62.2251 198.479 61.0107 197.281 59.4979 197.281C58.5774 197.281 57.7805 197.724 57.3331 198.462H57.2692C57.2734 196.48 58.0234 195.304 59.3018 195.304C60.1413 195.304 60.6697 195.815 60.8487 196.54H62.1484C61.9482 195.159 60.8615 194.153 59.3018 194.153C57.2734 194.153 56.0078 195.896 56.0078 198.93C56.0036 202.143 57.6399 203.107 59.1911 203.119ZM59.1868 202.011C58.1726 202.011 57.4311 201.159 57.4311 200.179C57.4354 199.203 58.2109 198.351 59.2166 198.351C60.2138 198.351 60.9467 199.156 60.9425 200.166C60.9467 201.197 60.1839 202.011 59.1868 202.011ZM66.9659 203H68.2401L68.2401 200.678L68.875 200.043L71.0994 203H72.6634L69.8338 199.263L72.4844 196.455H70.9588L68.3509 199.224H68.2401L68.2401 194.273H66.9659L66.9659 203ZM73.6456 203H74.9197L74.9197 198.964C74.9197 198.082 75.5376 197.469 76.2621 197.469C76.9695 197.469 77.4595 197.938 77.4595 198.649L77.4595 203H78.7294L78.7294 198.828C78.7294 198.04 79.2109 197.469 80.0419 197.469C80.7152 197.469 81.2692 197.844 81.2692 198.73L81.2692 203H82.5433L82.5433 198.611C82.5433 197.115 81.7081 196.369 80.5234 196.369C79.5817 196.369 78.8743 196.821 78.5589 197.52H78.4908C78.2053 196.804 77.6044 196.369 76.7308 196.369C75.8658 196.369 75.2223 196.8 74.9496 197.52H74.8686L74.8686 196.455H73.6456L73.6456 203ZM89.1559 198.053C88.8917 197.034 88.0948 196.369 86.68 196.369C85.2013 196.369 84.1531 197.149 84.1531 198.308C84.1531 199.237 84.7156 199.855 85.9428 200.128L87.0508 200.371C87.6815 200.511 87.9755 200.793 87.9755 201.202C87.9755 201.709 87.4343 202.105 86.5991 202.105C85.8363 202.105 85.3462 201.777 85.1928 201.134L83.9613 201.321C84.1744 202.48 85.1374 203.132 86.6076 203.132C88.1886 203.132 89.2837 202.293 89.2837 201.108C89.2837 200.183 88.6957 199.612 87.494 199.335L86.4542 199.097C85.734 198.926 85.4229 198.683 85.4272 198.24C85.4229 197.737 85.9684 197.379 86.6928 197.379C87.4854 197.379 87.8519 197.818 88.0011 198.257L89.1559 198.053Z" fill="#68432E"/>
<path d="M196.278 145.364V157H197.949V148.574H198.057L201.489 156.983H202.875L206.307 148.58H206.415V157H208.085V145.364H205.955L202.25 154.409H202.114L198.409 145.364H196.278ZM213.521 157.193C214.964 157.193 215.777 156.46 216.101 155.807H216.169V157H217.828V151.205C217.828 148.665 215.828 148.159 214.442 148.159C212.862 148.159 211.408 148.795 210.839 150.386L212.436 150.75C212.686 150.131 213.322 149.534 214.464 149.534C215.561 149.534 216.123 150.108 216.123 151.097V151.136C216.123 151.756 215.487 151.744 213.919 151.926C212.266 152.119 210.572 152.551 210.572 154.534C210.572 156.25 211.862 157.193 213.521 157.193ZM213.891 155.83C212.93 155.83 212.237 155.398 212.237 154.557C212.237 153.648 213.044 153.324 214.027 153.193C214.578 153.119 215.885 152.972 216.129 152.727V153.852C216.129 154.886 215.305 155.83 213.891 155.83ZM220.571 157H222.27V151.67C222.27 150.528 223.15 149.705 224.355 149.705C224.707 149.705 225.105 149.767 225.241 149.807V148.182C225.071 148.159 224.736 148.142 224.52 148.142C223.497 148.142 222.622 148.722 222.304 149.659H222.213V148.273H220.571V157ZM233.731 150.403C233.379 149.045 232.316 148.159 230.43 148.159C228.458 148.159 227.061 149.199 227.061 150.744C227.061 151.983 227.811 152.807 229.447 153.17L230.924 153.494C231.765 153.682 232.157 154.057 232.157 154.602C232.157 155.278 231.436 155.807 230.322 155.807C229.305 155.807 228.652 155.369 228.447 154.511L226.805 154.761C227.089 156.307 228.373 157.176 230.333 157.176C232.441 157.176 233.902 156.057 233.902 154.477C233.902 153.244 233.118 152.483 231.515 152.114L230.129 151.795C229.169 151.568 228.754 151.244 228.76 150.653C228.754 149.983 229.481 149.506 230.447 149.506C231.504 149.506 231.993 150.091 232.191 150.676L233.731 150.403Z" fill="#252321"/>
<path d="M183.656 182.295H187.794V184H189.051V182.295H190.206V181.179H189.051L189.051 175.273H187.428L183.656 181.23V182.295ZM187.803 181.179H185.037V181.111L187.734 176.841H187.803L187.803 181.179ZM191.691 184L197.435 184V182.871H193.506V182.807L195.241 180.991C196.839 179.376 197.295 178.605 197.295 177.629C197.295 176.227 196.153 175.153 194.508 175.153C192.876 175.153 191.683 176.21 191.683 177.804H192.94C192.935 176.866 193.54 176.253 194.482 176.253C195.369 176.253 196.042 176.798 196.042 177.668C196.042 178.439 195.582 178.993 194.644 179.986L191.691 183.045V184ZM199.05 184H204.795V182.871H200.866V182.807L202.6 180.991C204.198 179.376 204.654 178.605 204.654 177.629C204.654 176.227 203.512 175.153 201.867 175.153C200.235 175.153 199.042 176.21 199.042 177.804H200.299C200.295 176.866 200.9 176.253 201.842 176.253C202.728 176.253 203.401 176.798 203.401 177.668C203.401 178.439 202.941 178.993 202.004 179.986L199.05 183.045V184ZM209.448 184.145C211.464 184.145 212.644 182.5 212.644 179.641C212.644 176.803 211.447 175.153 209.448 175.153C207.445 175.153 206.252 176.798 206.248 179.641C206.248 182.496 207.428 184.141 209.448 184.145ZM209.448 183.007C208.268 183.007 207.556 181.822 207.556 179.641C207.56 177.467 208.272 176.27 209.448 176.27C210.62 176.27 211.336 177.467 211.336 179.641C211.336 181.822 210.624 183.007 209.448 183.007ZM217.349 184H218.623L218.623 179.964C218.623 179.082 219.241 178.469 219.965 178.469C220.673 178.469 221.163 178.938 221.163 179.649L221.163 184H222.433L222.433 179.828C222.433 179.04 222.914 178.469 223.745 178.469C224.418 178.469 224.972 178.844 224.972 179.73L224.972 184H226.246L226.246 179.611C226.246 178.115 225.411 177.369 224.227 177.369C223.285 177.369 222.577 177.821 222.262 178.52H222.194C221.908 177.804 221.308 177.369 220.434 177.369C219.569 177.369 218.925 177.8 218.653 178.52H218.572V177.455H217.349L217.349 184ZM227.954 184H229.228L229.228 177.455H227.954L227.954 184ZM228.598 176.445C229.037 176.445 229.403 176.104 229.403 175.686C229.403 175.268 229.037 174.923 228.598 174.923C228.154 174.923 227.792 175.268 227.792 175.686C227.792 176.104 228.154 176.445 228.598 176.445ZM232.217 175.273H230.942L230.942 184H232.217L232.217 175.273ZM236.752 184.132C238.179 184.132 239.189 183.429 239.479 182.364L238.273 182.146C238.043 182.764 237.489 183.08 236.765 183.08C235.674 183.08 234.941 182.372 234.907 181.111H239.56V180.659C239.56 178.294 238.145 177.369 236.662 177.369C234.838 177.369 233.637 178.759 233.637 180.77C233.637 182.803 234.821 184.132 236.752 184.132ZM234.911 180.156C234.962 179.227 235.635 178.422 236.671 178.422C237.659 178.422 238.307 179.155 238.311 180.156H234.911ZM245.879 179.053C245.614 178.034 244.817 177.369 243.403 177.369C241.924 177.369 240.876 178.149 240.876 179.308C240.876 180.237 241.438 180.855 242.665 181.128L243.773 181.371C244.404 181.511 244.698 181.793 244.698 182.202C244.698 182.709 244.157 183.105 243.322 183.105C242.559 183.105 242.069 182.777 241.915 182.134L240.684 182.321C240.897 183.48 241.86 184.132 243.33 184.132C244.911 184.132 246.006 183.293 246.006 182.108C246.006 181.183 245.418 180.612 244.217 180.335L243.177 180.097C242.457 179.926 242.146 179.683 242.15 179.24C242.146 178.737 242.691 178.379 243.415 178.379C244.208 178.379 244.575 178.818 244.724 179.257L245.879 179.053Z" fill="#252321"/>
<path d="M186.886 203.119C188.71 203.136 189.92 201.824 189.916 200.149C189.92 198.479 188.706 197.281 187.193 197.281C186.273 197.281 185.476 197.724 185.028 198.462H184.964C184.969 196.48 185.719 195.304 186.997 195.304C187.837 195.304 188.365 195.815 188.544 196.54H189.844C189.643 195.159 188.557 194.153 186.997 194.153C184.969 194.153 183.703 195.896 183.703 198.93C183.699 202.143 185.335 203.107 186.886 203.119ZM186.882 202.011C185.868 202.011 185.126 201.159 185.126 200.179C185.131 199.203 185.906 198.351 186.912 198.351C187.909 198.351 188.642 199.156 188.638 200.166C188.642 201.197 187.879 202.011 186.882 202.011ZM191.762 203L193.139 203L196.936 195.44V194.273L191.166 194.273V195.402L195.572 195.402V195.466L191.762 203ZM201.202 194.153C199.37 194.136 198.173 195.453 198.173 197.107C198.177 198.773 199.383 199.974 200.896 199.974C201.82 199.974 202.613 199.523 203.06 198.79H203.129C203.124 200.797 202.37 201.969 201.092 201.969C200.256 201.969 199.719 201.457 199.549 200.712H198.249C198.441 202.122 199.532 203.119 201.092 203.119C203.12 203.119 204.39 201.376 204.39 198.321C204.386 195.134 202.758 194.166 201.202 194.153ZM201.207 195.261C202.217 195.261 202.962 196.118 202.962 197.077C202.967 198.048 202.178 198.901 201.181 198.901C200.18 198.901 199.455 198.099 199.451 197.089C199.451 196.075 200.205 195.261 201.207 195.261ZM205.929 203L211.674 203V201.871H207.745V201.807L209.479 199.991C211.077 198.376 211.533 197.605 211.533 196.629C211.533 195.227 210.391 194.153 208.746 194.153C207.114 194.153 205.921 195.21 205.921 196.804H207.178C207.174 195.866 207.779 195.253 208.721 195.253C209.607 195.253 210.28 195.798 210.28 196.668C210.28 197.439 209.82 197.993 208.882 198.986L205.929 202.045V203ZM216.482 203H217.756L217.756 200.678L218.391 200.043L220.615 203H222.179L219.349 199.263L222 196.455H220.474L217.866 199.224H217.756V194.273H216.482L216.482 203ZM223.161 203H224.435L224.435 198.964C224.435 198.082 225.053 197.469 225.778 197.469C226.485 197.469 226.975 197.938 226.975 198.649L226.975 203H228.245L228.245 198.828C228.245 198.04 228.727 197.469 229.558 197.469C230.231 197.469 230.785 197.844 230.785 198.73L230.785 203H232.059L232.059 198.611C232.059 197.115 231.224 196.369 230.039 196.369C229.097 196.369 228.39 196.821 228.075 197.52H228.006C227.721 196.804 227.12 196.369 226.246 196.369C225.381 196.369 224.738 196.8 224.465 197.52H224.384V196.455H223.161L223.161 203ZM238.672 198.053C238.407 197.034 237.61 196.369 236.196 196.369C234.717 196.369 233.669 197.149 233.669 198.308C233.669 199.237 234.231 199.855 235.458 200.128L236.566 200.371C237.197 200.511 237.491 200.793 237.491 201.202C237.491 201.709 236.95 202.105 236.115 202.105C235.352 202.105 234.862 201.777 234.708 201.134L233.477 201.321C233.69 202.48 234.653 203.132 236.123 203.132C237.704 203.132 238.799 202.293 238.799 201.108C238.799 200.183 238.211 199.612 237.01 199.335L235.97 199.097C235.25 198.926 234.939 198.683 234.943 198.24C234.939 197.737 235.484 197.379 236.208 197.379C237.001 197.379 237.368 197.818 237.517 198.257L238.672 198.053Z" fill="#68432E"/>
<circle cx="215" cy="56" r="28" fill="#573B2B"/>
<circle cx="215" cy="56" r="26" fill="#AA643B"/>
<path fill-rule="evenodd" clip-rule="evenodd" d="M202.974 51.0529C202.555 52.0719 202.261 53.156 202.112 54.2858L213.286 43.112C212.156 43.2608 211.072 43.5547 210.053 43.9743L202.974 51.0529ZM216.174 43.0522L202.052 57.1739C202.114 57.8663 202.23 58.5431 202.397 59.1999L218.2 43.3967C217.543 43.2305 216.866 43.1142 216.174 43.0522ZM220.299 44.1256L203.126 61.2994C203.365 61.8358 203.64 62.3529 203.948 62.8479L221.848 44.9477C221.353 44.6404 220.836 44.3654 220.299 44.1256ZM223.479 46.1452L205.145 64.4788C205.51 64.9026 205.902 65.3026 206.318 65.6762L224.676 47.3182C224.303 46.9021 223.903 46.5102 223.479 46.1452ZM225.904 48.9189L207.919 66.904C208.404 67.2198 208.912 67.5042 209.439 67.754L226.754 50.4393C226.504 49.912 226.22 49.4043 225.904 48.9189ZM227.523 52.4987L211.499 68.523C212.141 68.7021 212.802 68.8332 213.48 68.9121L227.912 54.4802C227.833 53.8024 227.702 53.1406 227.523 52.4987ZM227.937 57.2833L216.283 68.9374C217.341 68.8338 218.362 68.6033 219.33 68.2615L227.262 60.3297C227.603 59.3616 227.834 58.3411 227.937 57.2833Z" fill="#252321"/>
</svg>
