<svg width="243" height="206" viewBox="0 0 243 206" fill="none" xmlns="http://www.w3.org/2000/svg">
<circle cx="56" cy="56" r="56" fill="#E4BDA7"/>
<circle cx="56" cy="56" r="51" fill="#D2895F"/>
<circle cx="56" cy="56" r="35" fill="#D99E7C"/>
<circle cx="56" cy="56" r="22" fill="#EFDDD2"/>
<path d="M38.7784 157H46.142V155.489H40.5341V151.926H45.6932V150.42H40.5341V146.875H46.0739V145.364H38.7784V157ZM51.3024 157.193C52.7456 157.193 53.5581 156.46 53.882 155.807H53.9502V157H55.6093V151.205C55.6093 148.665 53.6093 148.159 52.2229 148.159C50.6434 148.159 49.1888 148.795 48.6206 150.386L50.2172 150.75C50.4672 150.131 51.1036 149.534 52.2456 149.534C53.3422 149.534 53.9047 150.108 53.9047 151.097V151.136C53.9047 151.756 53.2684 151.744 51.7002 151.926C50.0468 152.119 48.3536 152.551 48.3536 154.534C48.3536 156.25 49.6434 157.193 51.3024 157.193ZM51.6718 155.83C50.7115 155.83 50.0184 155.398 50.0184 154.557C50.0184 153.648 50.8252 153.324 51.8081 153.193C52.3593 153.119 53.6661 152.972 53.9104 152.727V153.852C53.9104 154.886 53.0865 155.83 51.6718 155.83ZM58.352 157H60.0509V151.67C60.0509 150.528 60.9316 149.705 62.1361 149.705C62.4884 149.705 62.8861 149.767 63.0225 149.807V148.182C62.852 148.159 62.5168 148.142 62.3009 148.142C61.2782 148.142 60.4032 148.722 60.085 149.659H59.9941V148.273H58.352V157ZM69.5622 148.273H67.7724V146.182H66.0735V148.273H64.7951V149.636H66.0735V154.79C66.0678 156.375 67.2781 157.142 68.619 157.114C69.1588 157.108 69.5224 157.006 69.7213 156.932L69.4144 155.528C69.3008 155.551 69.0906 155.602 68.8178 155.602C68.2667 155.602 67.7724 155.42 67.7724 154.438V149.636H69.5622V148.273ZM73.8078 151.818C73.8078 150.426 74.6885 149.631 75.8987 149.631C77.0691 149.631 77.768 150.375 77.768 151.653V157H79.4669V151.449C79.4669 149.273 78.2737 148.159 76.4782 148.159C75.1203 148.159 74.3021 148.75 73.893 149.693H73.7851V145.364H72.1089V157H73.8078V151.818Z" fill="#EFDDD2"/>
<path d="M29.1335 184H30.5099L34.3068 176.44V175.273H28.5369V176.402H32.9432V176.466L29.1335 184ZM38.5735 175.153C36.7411 175.136 35.5437 176.453 35.5437 178.107C35.5479 179.773 36.7539 180.974 38.2667 180.974C39.1914 180.974 39.984 180.523 40.4315 179.79H40.4996C40.4954 181.797 39.7411 182.969 38.4627 182.969C37.6275 182.969 37.0906 182.457 36.9201 181.712L35.6204 181.712C35.8121 183.122 36.9031 184.119 38.4627 184.119C40.4911 184.119 41.761 182.376 41.761 179.321C41.7567 176.134 40.1289 175.166 38.5735 175.153ZM38.5778 176.261C39.5877 176.261 40.3335 177.118 40.3335 178.077C40.3377 179.048 39.5494 179.901 38.5522 179.901C37.5508 179.901 36.8263 179.099 36.8221 178.089C36.8221 177.075 37.5763 176.261 38.5778 176.261ZM43.3004 184H49.0447L49.0447 182.871H45.1158V182.807L46.8501 180.991C48.4482 179.376 48.9041 178.605 48.9041 177.629C48.9041 176.227 47.7621 175.153 46.1172 175.153C44.4851 175.153 43.2919 176.21 43.2919 177.804H44.549C44.5447 176.866 45.1499 176.253 46.0916 176.253C46.978 176.253 47.6513 176.798 47.6513 177.668C47.6513 178.439 47.1911 178.993 46.2536 179.986L43.3004 183.045V184ZM53.7067 184.119C55.5305 184.136 56.7408 182.824 56.7365 181.149C56.7408 179.479 55.5263 178.281 54.0135 178.281C53.093 178.281 52.2962 178.724 51.8487 179.462H51.7848C51.7891 177.48 52.5391 176.304 53.8175 176.304C54.657 176.304 55.1854 176.815 55.3643 177.54H56.6641C56.4638 176.159 55.3771 175.153 53.8175 175.153C51.7891 175.153 50.5234 176.896 50.5234 179.93C50.5192 183.143 52.1555 184.107 53.7067 184.119ZM53.7024 183.011C52.6882 183.011 51.9467 182.159 51.9467 181.179C51.951 180.203 52.7266 179.351 53.7322 179.351C54.7294 179.351 55.4624 180.156 55.4581 181.166C55.4624 182.197 54.6996 183.011 53.7024 183.011ZM61.4815 184H62.7557L62.7557 179.964C62.7557 179.082 63.3736 178.469 64.098 178.469C64.8054 178.469 65.2955 178.938 65.2955 179.649L65.2955 184H66.5653L66.5653 179.828C66.5653 179.04 67.0469 178.469 67.8778 178.469C68.5511 178.469 69.1051 178.844 69.1051 179.73L69.1051 184L70.3793 184L70.3793 179.611C70.3793 178.115 69.544 177.369 68.3594 177.369C67.4176 177.369 66.7102 177.821 66.3949 178.52H66.3267C66.0412 177.804 65.4403 177.369 64.5668 177.369C63.7017 177.369 63.0582 177.8 62.7855 178.52H62.7045L62.7045 177.455H61.4815L61.4815 184ZM72.087 184H73.3612L73.3612 177.455H72.087L72.087 184ZM72.7305 176.445C73.1694 176.445 73.5359 176.104 73.5359 175.686C73.5359 175.268 73.1694 174.923 72.7305 174.923C72.2873 174.923 71.9251 175.268 71.9251 175.686C71.9251 176.104 72.2873 176.445 72.7305 176.445ZM76.3494 175.273H75.0753L75.0753 184H76.3494L76.3494 175.273ZM80.8846 184.132C82.3121 184.132 83.3221 183.429 83.6119 182.364L82.4059 182.146C82.1758 182.764 81.6218 183.08 80.8974 183.08C79.8065 183.08 79.0735 182.372 79.0394 181.111H83.6928V180.659C83.6928 178.294 82.2781 177.369 80.7951 177.369C78.9712 177.369 77.7695 178.759 77.7695 180.77C77.7695 182.803 78.9542 184.132 80.8846 184.132ZM79.0437 180.156C79.0948 179.227 79.7681 178.422 80.8036 178.422C81.7923 178.422 82.44 179.155 82.4442 180.156H79.0437ZM90.0114 179.053C89.7472 178.034 88.9503 177.369 87.5355 177.369C86.0568 177.369 85.0085 178.149 85.0085 179.308C85.0085 180.237 85.571 180.855 86.7983 181.128L87.9062 181.371C88.5369 181.511 88.831 181.793 88.831 182.202C88.831 182.709 88.2898 183.105 87.4545 183.105C86.6918 183.105 86.2017 182.777 86.0483 182.134L84.8168 182.321C85.0298 183.48 85.9929 184.132 87.4631 184.132C89.044 184.132 90.1392 183.293 90.1392 182.108C90.1392 181.183 89.5511 180.612 88.3494 180.335L87.3097 180.097C86.5895 179.926 86.2784 179.683 86.2827 179.24C86.2784 178.737 86.8239 178.379 87.5483 178.379C88.3409 178.379 88.7074 178.818 88.8565 179.257L90.0114 179.053Z" fill="#EFDDD2"/>
<path d="M32.1506 194.273H30.8679L28.6903 195.696L28.6903 196.957L30.7784 195.594H30.8295L30.8295 203H32.1506L32.1506 194.273ZM34.5114 203L40.2557 203L40.2557 201.871L36.3267 201.871V201.807L38.0611 199.991C39.6591 198.376 40.1151 197.605 40.1151 196.629C40.1151 195.227 38.973 194.153 37.3281 194.153C35.696 194.153 34.5028 195.21 34.5028 196.804H35.7599C35.7557 195.866 36.3608 195.253 37.3026 195.253C38.1889 195.253 38.8622 195.798 38.8622 196.668C38.8622 197.439 38.402 197.993 37.4645 198.986L34.5114 202.045V203ZM42.1648 203H43.5412L47.3381 195.44V194.273H41.5682V195.402H45.9744V195.466L42.1648 203ZM51.5835 203.119C53.3391 203.119 54.592 201.879 54.5877 200.179C54.592 198.491 53.4158 197.264 51.8263 197.264C51.1786 197.264 50.5778 197.511 50.2369 197.844H50.1857L50.4627 195.402L54.1658 195.402V194.273L49.3675 194.273L48.8775 198.67L50.0835 198.849C50.4116 198.555 50.9996 198.355 51.5281 198.355C52.5636 198.364 53.3136 199.139 53.3136 200.205C53.3136 201.253 52.5849 202.011 51.5835 202.011C50.7397 202.011 50.0707 201.474 50.0025 200.724H48.7241C48.7752 202.114 49.9812 203.119 51.5835 203.119ZM59.1911 203.119C61.0149 203.136 62.2251 201.824 62.2209 200.149C62.2251 198.479 61.0107 197.281 59.4979 197.281C58.5774 197.281 57.7805 197.724 57.3331 198.462H57.2692C57.2734 196.48 58.0234 195.304 59.3018 195.304C60.1413 195.304 60.6697 195.815 60.8487 196.54H62.1484C61.9482 195.159 60.8615 194.153 59.3018 194.153C57.2734 194.153 56.0078 195.896 56.0078 198.93C56.0036 202.143 57.6399 203.107 59.1911 203.119ZM59.1868 202.011C58.1726 202.011 57.4311 201.159 57.4311 200.179C57.4354 199.203 58.2109 198.351 59.2166 198.351C60.2138 198.351 60.9467 199.156 60.9425 200.166C60.9467 201.197 60.1839 202.011 59.1868 202.011ZM66.9659 203H68.2401L68.2401 200.678L68.875 200.043L71.0994 203H72.6634L69.8338 199.263L72.4844 196.455H70.9588L68.3509 199.224H68.2401L68.2401 194.273H66.9659L66.9659 203ZM73.6456 203H74.9197L74.9197 198.964C74.9197 198.082 75.5376 197.469 76.2621 197.469C76.9695 197.469 77.4595 197.938 77.4595 198.649L77.4595 203H78.7294L78.7294 198.828C78.7294 198.04 79.2109 197.469 80.0419 197.469C80.7152 197.469 81.2692 197.844 81.2692 198.73L81.2692 203H82.5433L82.5433 198.611C82.5433 197.115 81.7081 196.369 80.5234 196.369C79.5817 196.369 78.8743 196.821 78.5589 197.52H78.4908C78.2053 196.804 77.6044 196.369 76.7308 196.369C75.8658 196.369 75.2223 196.8 74.9496 197.52H74.8686L74.8686 196.455H73.6456L73.6456 203Z" fill="#E1B398"/>
<path d="M192.778 145.364V157H194.449V148.574H194.557L197.989 156.983H199.375L202.807 148.58H202.915V157H204.585V145.364H202.455L198.75 154.409H198.614L194.909 145.364H192.778ZM210.021 157.193C211.464 157.193 212.277 156.46 212.601 155.807H212.669V157H214.328V151.205C214.328 148.665 212.328 148.159 210.942 148.159C209.362 148.159 207.908 148.795 207.339 150.386L208.936 150.75C209.186 150.131 209.822 149.534 210.964 149.534C212.061 149.534 212.623 150.108 212.623 151.097V151.136C212.623 151.756 211.987 151.744 210.419 151.926C208.766 152.119 207.072 152.551 207.072 154.534C207.072 156.25 208.362 157.193 210.021 157.193ZM210.391 155.83C209.43 155.83 208.737 155.398 208.737 154.557C208.737 153.648 209.544 153.324 210.527 153.193C211.078 153.119 212.385 152.972 212.629 152.727V153.852C212.629 154.886 211.805 155.83 210.391 155.83ZM217.071 157H218.77V151.67C218.77 150.528 219.65 149.705 220.855 149.705C221.207 149.705 221.605 149.767 221.741 149.807V148.182C221.571 148.159 221.236 148.142 221.02 148.142C219.997 148.142 219.122 148.722 218.804 149.659H218.713V148.273H217.071V157ZM230.231 150.403C229.879 149.045 228.816 148.159 226.93 148.159C224.958 148.159 223.561 149.199 223.561 150.744C223.561 151.983 224.311 152.807 225.947 153.17L227.424 153.494C228.265 153.682 228.657 154.057 228.657 154.602C228.657 155.278 227.936 155.807 226.822 155.807C225.805 155.807 225.152 155.369 224.947 154.511L223.305 154.761C223.589 156.307 224.873 157.176 226.833 157.176C228.941 157.176 230.402 156.057 230.402 154.477C230.402 153.244 229.618 152.483 228.015 152.114L226.629 151.795C225.669 151.568 225.254 151.244 225.26 150.653C225.254 149.983 225.981 149.506 226.947 149.506C228.004 149.506 228.493 150.091 228.691 150.676L230.231 150.403Z" fill="#EFDDD2"/>
<path d="M181.134 184H182.51L186.307 176.44V175.273H180.537V176.402H184.943V176.466L181.134 184ZM190.574 175.153C188.741 175.136 187.544 176.453 187.544 178.107C187.548 179.773 188.754 180.974 190.267 180.974C191.191 180.974 191.984 180.523 192.431 179.79H192.5C192.495 181.797 191.741 182.969 190.463 182.969C189.627 182.969 189.091 182.457 188.92 181.712L187.62 181.712C187.812 183.122 188.903 184.119 190.463 184.119C192.491 184.119 193.761 182.376 193.761 179.321C193.757 176.134 192.129 175.166 190.574 175.153ZM190.578 176.261C191.588 176.261 192.333 177.118 192.333 178.077C192.338 179.048 191.549 179.901 190.552 179.901C189.551 179.901 188.826 179.099 188.822 178.089C188.822 177.075 189.576 176.261 190.578 176.261ZM195.3 184H201.045V182.871H197.116V182.807L198.85 180.991C200.448 179.376 200.904 178.605 200.904 177.629C200.904 176.227 199.762 175.153 198.117 175.153C196.485 175.153 195.292 176.21 195.292 177.804H196.549C196.545 176.866 197.15 176.253 198.092 176.253C198.978 176.253 199.651 176.798 199.651 177.668C199.651 178.439 199.191 178.993 198.254 179.986L195.3 183.045V184ZM205.707 184.119C207.531 184.136 208.741 182.824 208.737 181.149C208.741 179.479 207.526 178.281 206.013 178.281C205.093 178.281 204.296 178.724 203.849 179.462H203.785C203.789 177.48 204.539 176.304 205.817 176.304C206.657 176.304 207.185 176.815 207.364 177.54H208.664C208.464 176.159 207.377 175.153 205.817 175.153C203.789 175.153 202.523 176.896 202.523 179.93C202.519 183.143 204.156 184.107 205.707 184.119ZM205.702 183.011C204.688 183.011 203.947 182.159 203.947 181.179C203.951 180.203 204.727 179.351 205.732 179.351C206.729 179.351 207.462 180.156 207.458 181.166C207.462 182.197 206.7 183.011 205.702 183.011ZM213.482 184H214.756L214.756 179.964C214.756 179.082 215.374 178.469 216.098 178.469C216.805 178.469 217.295 178.938 217.295 179.649L217.295 184H218.565L218.565 179.828C218.565 179.04 219.047 178.469 219.878 178.469C220.551 178.469 221.105 178.844 221.105 179.73L221.105 184L222.379 184L222.379 179.611C222.379 178.115 221.544 177.369 220.359 177.369C219.418 177.369 218.71 177.821 218.395 178.52H218.327C218.041 177.804 217.44 177.369 216.567 177.369C215.702 177.369 215.058 177.8 214.786 178.52H214.705V177.455H213.482L213.482 184ZM224.087 184H225.361L225.361 177.455H224.087L224.087 184ZM224.73 176.445C225.169 176.445 225.536 176.104 225.536 175.686C225.536 175.268 225.169 174.923 224.73 174.923C224.287 174.923 223.925 175.268 223.925 175.686C223.925 176.104 224.287 176.445 224.73 176.445ZM228.349 175.273H227.075L227.075 184H228.349L228.349 175.273ZM232.885 184.132C234.312 184.132 235.322 183.429 235.612 182.364L234.406 182.146C234.176 182.764 233.622 183.08 232.897 183.08C231.806 183.08 231.074 182.372 231.039 181.111H235.693V180.659C235.693 178.294 234.278 177.369 232.795 177.369C230.971 177.369 229.77 178.759 229.77 180.77C229.77 182.803 230.954 184.132 232.885 184.132ZM231.044 180.156C231.095 179.227 231.768 178.422 232.804 178.422C233.792 178.422 234.44 179.155 234.444 180.156H231.044ZM242.011 179.053C241.747 178.034 240.95 177.369 239.536 177.369C238.057 177.369 237.009 178.149 237.009 179.308C237.009 180.237 237.571 180.855 238.798 181.128L239.906 181.371C240.537 181.511 240.831 181.793 240.831 182.202C240.831 182.709 240.29 183.105 239.455 183.105C238.692 183.105 238.202 182.777 238.048 182.134L236.817 182.321C237.03 183.48 237.993 184.132 239.463 184.132C241.044 184.132 242.139 183.293 242.139 182.108C242.139 181.183 241.551 180.612 240.349 180.335L239.31 180.097C238.589 179.926 238.278 179.683 238.283 179.24C238.278 178.737 238.824 178.379 239.548 178.379C240.341 178.379 240.707 178.818 240.857 179.257L242.011 179.053Z" fill="#EFDDD2"/>
<path d="M184.151 194.273H182.868L180.69 195.696V196.957L182.778 195.594H182.83L182.83 203H184.151L184.151 194.273ZM186.511 203L192.256 203V201.871L188.327 201.871V201.807L190.061 199.991C191.659 198.376 192.115 197.605 192.115 196.629C192.115 195.227 190.973 194.153 189.328 194.153C187.696 194.153 186.503 195.21 186.503 196.804H187.76C187.756 195.866 188.361 195.253 189.303 195.253C190.189 195.253 190.862 195.798 190.862 196.668C190.862 197.439 190.402 197.993 189.464 198.986L186.511 202.045V203ZM194.165 203H195.541L199.338 195.44V194.273H193.568V195.402H197.974V195.466L194.165 203ZM203.583 203.119C205.339 203.119 206.592 201.879 206.588 200.179C206.592 198.491 205.416 197.264 203.826 197.264C203.179 197.264 202.578 197.511 202.237 197.844H202.186L202.463 195.402L206.166 195.402V194.273L201.368 194.273L200.877 198.67L202.083 198.849C202.412 198.555 203 198.355 203.528 198.355C204.564 198.364 205.314 199.139 205.314 200.205C205.314 201.253 204.585 202.011 203.583 202.011C202.74 202.011 202.071 201.474 202.002 200.724H200.724C200.775 202.114 201.981 203.119 203.583 203.119ZM211.191 203.119C213.015 203.136 214.225 201.824 214.221 200.149C214.225 198.479 213.011 197.281 211.498 197.281C210.577 197.281 209.781 197.724 209.333 198.462H209.269C209.273 196.48 210.023 195.304 211.302 195.304C212.141 195.304 212.67 195.815 212.849 196.54H214.148C213.948 195.159 212.862 194.153 211.302 194.153C209.273 194.153 208.008 195.896 208.008 198.93C208.004 202.143 209.64 203.107 211.191 203.119ZM211.187 202.011C210.173 202.011 209.431 201.159 209.431 200.179C209.435 199.203 210.211 198.351 211.217 198.351C212.214 198.351 212.947 199.156 212.942 200.166C212.947 201.197 212.184 202.011 211.187 202.011ZM218.966 203H220.24L220.24 200.678L220.875 200.043L223.099 203H224.663L221.834 199.263L224.484 196.455H222.959L220.351 199.224H220.24V194.273H218.966L218.966 203ZM225.646 203H226.92L226.92 198.964C226.92 198.082 227.538 197.469 228.262 197.469C228.969 197.469 229.46 197.938 229.46 198.649L229.46 203H230.729L230.729 198.828C230.729 198.04 231.211 197.469 232.042 197.469C232.715 197.469 233.269 197.844 233.269 198.73L233.269 203H234.543L234.543 198.611C234.543 197.115 233.708 196.369 232.523 196.369C231.582 196.369 230.874 196.821 230.559 197.52H230.491C230.205 196.804 229.604 196.369 228.731 196.369C227.866 196.369 227.222 196.8 226.95 197.52H226.869V196.455H225.646L225.646 203Z" fill="#E1B398"/>
<circle cx="215" cy="56" r="28" fill="#E4BDA7"/>
<circle cx="215" cy="56" r="26" fill="#D2895F"/>
<path fill-rule="evenodd" clip-rule="evenodd" d="M202.974 51.0529C202.555 52.0719 202.261 53.156 202.112 54.2858L213.286 43.112C212.156 43.2608 211.072 43.5547 210.053 43.9743L202.974 51.0529ZM216.174 43.0522L202.052 57.1739C202.114 57.8663 202.23 58.5431 202.397 59.1999L218.2 43.3967C217.543 43.2305 216.866 43.1142 216.174 43.0522ZM220.299 44.1256L203.126 61.2994C203.365 61.8358 203.64 62.3529 203.948 62.8479L221.848 44.9477C221.353 44.6404 220.836 44.3654 220.299 44.1256ZM223.479 46.1452L205.145 64.4788C205.51 64.9026 205.902 65.3026 206.318 65.6762L224.676 47.3182C224.303 46.9021 223.903 46.5102 223.479 46.1452ZM225.904 48.9189L207.919 66.904C208.404 67.2198 208.912 67.5042 209.439 67.754L226.754 50.4393C226.504 49.912 226.22 49.4043 225.904 48.9189ZM227.523 52.4987L211.499 68.523C212.141 68.7021 212.802 68.8332 213.48 68.9121L227.912 54.4802C227.833 53.8024 227.702 53.1406 227.523 52.4987ZM227.937 57.2833L216.283 68.9374C217.341 68.8338 218.362 68.6033 219.33 68.2615L227.262 60.3297C227.603 59.3616 227.834 58.3411 227.937 57.2833Z" fill="#EFDDD2"/>
</svg>
