<svg width="294" height="263" viewBox="0 0 294 263" fill="none" xmlns="http://www.w3.org/2000/svg">
<circle cx="84.1572" cy="84.0255" r="59.415" fill="#68432E"/>
<path d="M25.8023 72.852C23.4602 85.0837 25.021 97.7422 30.2639 109.039C35.5069 120.335 44.1671 129.699 55.0207 135.806C65.8743 141.913 78.3726 144.455 90.7497 143.074C103.127 141.692 114.757 136.456 123.996 128.105C133.236 119.755 139.617 108.712 142.24 96.5371C144.863 84.3624 143.593 71.6715 138.611 60.2575C133.629 48.8435 125.186 39.2835 114.476 32.9284C103.766 26.5733 91.3291 23.7444 78.9236 24.8414L84.1572 84.0255L25.8023 72.852Z" fill="#252321"/>
<path d="M25.8023 72.852C23.5038 84.8559 24.9632 97.2766 29.9815 108.421C34.9997 119.565 43.3327 128.891 53.8443 135.126C64.356 141.362 76.5349 144.204 88.7207 143.265C100.907 142.326 112.506 137.652 121.939 129.88C131.372 122.109 138.178 111.617 141.43 99.8354C144.682 88.0541 144.222 75.5564 140.112 64.0462C136.002 52.5359 128.443 42.5731 118.464 35.516C108.486 28.4589 96.5734 24.6507 84.3515 24.6108L84.1572 84.0255L25.8023 72.852Z" fill="#995C38"/>
<circle cx="244.052" cy="83.2333" r="32.4899" fill="#784B31"/>
<path d="M235.575 51.8689C227.4 54.0786 220.41 59.3933 216.096 66.6808C211.781 73.9683 210.482 82.6525 212.476 90.8834C214.47 99.1143 219.6 106.241 226.771 110.746C233.943 115.251 242.59 116.777 250.87 115C259.151 113.223 266.41 108.283 271.102 101.232C275.793 94.181 277.546 85.577 275.987 77.2528C274.428 68.9285 269.681 61.5419 262.756 56.6667C255.831 51.7914 247.276 49.8129 238.913 51.1525L244.053 83.2333L235.575 51.8689Z" fill="#573B2B"/>
<path d="M235.575 51.8689C227.596 54.0256 220.739 59.1424 216.4 66.1776C212.061 73.2128 210.566 81.6373 212.22 89.7358C213.875 97.8343 218.553 104.998 225.304 109.768C232.054 114.537 240.369 116.555 248.555 115.41C256.741 114.264 264.183 110.042 269.365 103.602C274.547 97.1627 277.08 88.9901 276.447 80.7486C275.815 72.5071 272.066 64.8164 265.962 59.2424C259.859 53.6685 251.86 50.6303 243.595 50.7467L244.053 83.2333L235.575 51.8689Z" fill="#252321"/>
<path d="M34.2784 187H41.642V185.489H36.0341V181.926H41.1932V180.42H36.0341V176.875H41.5739V175.364H34.2784V187ZM46.8024 187.193C48.2456 187.193 49.0581 186.46 49.382 185.807H49.4502V187H51.1093V181.205C51.1093 178.665 49.1093 178.159 47.7229 178.159C46.1434 178.159 44.6888 178.795 44.1206 180.386L45.7172 180.75C45.9672 180.131 46.6036 179.534 47.7456 179.534C48.8422 179.534 49.4047 180.108 49.4047 181.097V181.136C49.4047 181.756 48.7684 181.744 47.2002 181.926C45.5468 182.119 43.8536 182.551 43.8536 184.534C43.8536 186.25 45.1434 187.193 46.8024 187.193ZM47.1718 185.83C46.2115 185.83 45.5184 185.398 45.5184 184.557C45.5184 183.648 46.3252 183.324 47.3081 183.193C47.8593 183.119 49.1661 182.972 49.4104 182.727V183.852C49.4104 184.886 48.5865 185.83 47.1718 185.83ZM53.852 187H55.5509V181.67C55.5509 180.528 56.4316 179.705 57.6361 179.705C57.9884 179.705 58.3861 179.767 58.5225 179.807V178.182C58.352 178.159 58.0168 178.142 57.8009 178.142C56.7782 178.142 55.9032 178.722 55.585 179.659H55.4941V178.273H53.852V187ZM65.0622 178.273H63.2724V176.182H61.5735V178.273H60.2951V179.636H61.5735V184.79C61.5678 186.375 62.7781 187.142 64.119 187.114C64.6588 187.108 65.0224 187.006 65.2213 186.932L64.9144 185.528C64.8008 185.551 64.5906 185.602 64.3178 185.602C63.7667 185.602 63.2724 185.42 63.2724 184.438V179.636H65.0622V178.273ZM69.3078 181.818C69.3078 180.426 70.1885 179.631 71.3987 179.631C72.5691 179.631 73.268 180.375 73.268 181.653V187H74.9669V181.449C74.9669 179.273 73.7737 178.159 71.9782 178.159C70.6203 178.159 69.8021 178.75 69.393 179.693H69.2851V175.364H67.6089V187H69.3078V181.818Z" fill="#252321"/>
<circle cx="39" cy="209.5" r="6" fill="#995C38"/>
<path d="M54.1335 214H55.5099L59.3068 206.44V205.273H53.5369V206.402H57.9432V206.466L54.1335 214ZM63.5618 214.119C65.3771 214.119 66.6598 213.088 66.6683 211.673C66.6598 210.574 65.8885 209.649 64.9126 209.474V209.423C65.7607 209.219 66.3359 208.422 66.3445 207.48C66.3359 206.146 65.1598 205.153 63.5618 205.153C61.9467 205.153 60.7706 206.146 60.7791 207.48C60.7706 208.418 61.3459 209.219 62.2109 209.423V209.474C61.218 209.649 60.4467 210.574 60.4553 211.673C60.4467 213.088 61.7294 214.119 63.5618 214.119ZM63.5618 213.041C62.4709 213.041 61.7805 212.462 61.7891 211.588C61.7805 210.68 62.5305 210.033 63.5618 210.033C64.576 210.033 65.326 210.68 65.3345 211.588C65.326 212.462 64.6399 213.041 63.5618 213.041ZM63.5618 208.98C62.6797 208.98 62.0533 208.422 62.0618 207.591C62.0533 206.773 62.6584 206.232 63.5618 206.232C64.4482 206.232 65.0533 206.773 65.0618 207.591C65.0533 208.422 64.4311 208.98 63.5618 208.98ZM72.7504 212.364C72.7546 213.348 73.3725 214.179 74.5273 214.179C75.6694 214.179 76.2958 213.348 76.2958 212.364V211.903C76.2958 210.915 75.6864 210.088 74.5273 210.088C73.3896 210.088 72.7546 210.919 72.7504 211.903V212.364ZM68.3612 207.369C68.3612 208.354 68.9833 209.185 70.1381 209.185C71.2759 209.185 71.9066 208.358 71.9023 207.369L71.9023 206.909C71.9066 205.92 71.293 205.094 70.1381 205.094C69.0046 205.094 68.3612 205.92 68.3612 206.909V207.369ZM68.7191 214H69.7376L75.7376 205.273H74.7191L68.7191 214ZM73.7433 211.903C73.7475 211.413 73.9606 210.94 74.5273 210.94C75.1154 210.94 75.2987 211.413 75.2987 211.903V212.364C75.2987 212.854 75.0984 213.327 74.5273 213.327C73.9478 213.327 73.7475 212.849 73.7433 212.364V211.903ZM69.3583 206.909C69.3583 206.423 69.5714 205.946 70.1381 205.946C70.7262 205.946 70.9094 206.419 70.9094 206.909L70.9094 207.369C70.9094 207.859 70.7092 208.332 70.1381 208.332C69.5586 208.332 69.3583 207.859 69.3583 207.369L69.3583 206.909Z" fill="#252321"/>
<path d="M98.0028 205.273H96.6989L96.6989 211.682H96.6179L92.1776 205.273H90.9588L90.9588 214H92.2756V207.599H92.3565L96.7926 214H98.0028L98.0028 205.273ZM99.8214 214H101.096L101.096 207.455H99.8214L99.8214 214ZM100.465 206.445C100.904 206.445 101.27 206.104 101.27 205.686C101.27 205.268 100.904 204.923 100.465 204.923C100.022 204.923 99.6594 205.268 99.6594 205.686C99.6594 206.104 100.022 206.445 100.465 206.445ZM105.865 207.455H104.523L104.523 205.886H103.249L103.249 207.455H102.29V208.477H103.249V212.342C103.244 213.531 104.152 214.107 105.158 214.085C105.562 214.081 105.835 214.004 105.984 213.949L105.754 212.896C105.669 212.913 105.511 212.952 105.307 212.952C104.893 212.952 104.523 212.815 104.523 212.078V208.477H105.865V207.455ZM107.275 214H108.549L108.549 210.003C108.549 209.146 109.209 208.528 110.113 208.528C110.377 208.528 110.675 208.575 110.777 208.605V207.386C110.65 207.369 110.398 207.357 110.236 207.357C109.469 207.357 108.813 207.791 108.574 208.494H108.506V207.455H107.275L107.275 214ZM114.403 214.132C116.248 214.132 117.454 212.781 117.454 210.757C117.454 208.72 116.248 207.369 114.403 207.369C112.558 207.369 111.352 208.72 111.352 210.757C111.352 212.781 112.558 214.132 114.403 214.132ZM114.407 213.063C113.201 213.063 112.638 212.01 112.638 210.753C112.638 209.5 113.201 208.435 114.407 208.435C115.604 208.435 116.167 209.5 116.167 210.753C116.167 212.01 115.604 213.063 114.407 213.063ZM121.62 216.591C123.287 216.591 124.574 215.828 124.574 214.145L124.574 207.455H123.325L123.325 208.516H123.231C123.005 208.111 122.554 207.369 121.335 207.369C119.754 207.369 118.591 208.618 118.591 210.702C118.591 212.79 119.779 213.902 121.326 213.902C122.528 213.902 122.993 213.224 123.223 212.807H123.304V214.094C123.304 215.121 122.6 215.564 121.633 215.564C120.572 215.564 120.159 215.031 119.933 214.656L118.838 215.108C119.183 215.909 120.056 216.591 121.62 216.591ZM121.608 212.845C120.47 212.845 119.877 211.972 119.877 210.685C119.877 209.428 120.457 208.452 121.608 208.452C122.72 208.452 123.316 209.359 123.316 210.685C123.316 212.036 122.707 212.845 121.608 212.845ZM129.103 214.132C130.531 214.132 131.541 213.429 131.831 212.364L130.625 212.146C130.395 212.764 129.841 213.08 129.116 213.08C128.025 213.08 127.292 212.372 127.258 211.111H131.912V210.659C131.912 208.294 130.497 207.369 129.014 207.369C127.19 207.369 125.988 208.759 125.988 210.77C125.988 212.803 127.173 214.132 129.103 214.132ZM127.262 210.156C127.314 209.227 127.987 208.422 129.022 208.422C130.011 208.422 130.659 209.155 130.663 210.156H127.262ZM134.599 210.114C134.599 209.07 135.239 208.473 136.125 208.473C136.99 208.473 137.514 209.04 137.514 209.99L137.514 214H138.788L138.788 209.837C138.788 208.217 137.898 207.369 136.56 207.369C135.575 207.369 134.932 207.825 134.629 208.52H134.548V207.455H133.325L133.325 214H134.599L134.599 210.114Z" fill="#252321"/>
<circle cx="39" cy="232.5" r="6" fill="#68432E"/>
<path d="M53.8395 237H59.5838V235.871H55.6548V235.807L57.3892 233.991C58.9872 232.376 59.4432 231.605 59.4432 230.629C59.4432 229.227 58.3011 228.153 56.6562 228.153C55.0241 228.153 53.831 229.21 53.831 230.804H55.0881C55.0838 229.866 55.6889 229.253 56.6307 229.253C57.517 229.253 58.1903 229.798 58.1903 230.668C58.1903 231.439 57.7301 231.993 56.7926 232.986L53.8395 236.045V237ZM64.5099 228.273H63.2273L61.0497 229.696L61.0497 230.957L63.1378 229.594H63.1889L63.1889 237H64.5099L64.5099 228.273ZM71.4261 235.364C71.4304 236.348 72.0483 237.179 73.2031 237.179C74.3452 237.179 74.9716 236.348 74.9716 235.364V234.903C74.9716 233.915 74.3622 233.088 73.2031 233.088C72.0653 233.088 71.4304 233.919 71.4261 234.903V235.364ZM67.0369 230.369C67.0369 231.354 67.6591 232.185 68.8139 232.185C69.9517 232.185 70.5824 231.358 70.5781 230.369L70.5781 229.909C70.5824 228.92 69.9688 228.094 68.8139 228.094C67.6804 228.094 67.0369 228.92 67.0369 229.909V230.369ZM67.3949 237H68.4134L74.4134 228.273H73.3949L67.3949 237ZM72.419 234.903C72.4233 234.413 72.6364 233.94 73.2031 233.94C73.7912 233.94 73.9744 234.413 73.9744 234.903V235.364C73.9744 235.854 73.7741 236.327 73.2031 236.327C72.6236 236.327 72.4233 235.849 72.419 235.364V234.903ZM68.0341 229.909C68.0341 229.423 68.2472 228.946 68.8139 228.946C69.402 228.946 69.5852 229.419 69.5852 229.909L69.5852 230.369C69.5852 230.859 69.3849 231.332 68.8139 231.332C68.2344 231.332 68.0341 230.859 68.0341 230.369V229.909Z" fill="#252321"/>
<path d="M103.54 232.636C103.54 229.845 101.869 228.153 99.6108 228.153C97.3438 228.153 95.6776 229.845 95.6776 232.636C95.6776 235.423 97.3437 237.119 99.6108 237.119C101.869 237.119 103.54 235.428 103.54 232.636ZM102.236 232.636C102.236 234.763 101.111 235.918 99.6108 235.918C98.1065 235.918 96.9858 234.763 96.9858 232.636C96.9858 230.51 98.1065 229.355 99.6108 229.355C101.111 229.355 102.236 230.51 102.236 232.636ZM106.085 230.455H104.687L106.699 233.727L104.662 237H106.059L107.529 234.554L109.004 237H110.397L108.339 233.727L110.38 230.455H108.987L107.529 233.003L106.085 230.455ZM112.494 239.455C113.547 239.455 114.211 238.905 114.591 237.874L117.297 230.467L115.92 230.455L114.262 235.534H114.194L112.537 230.455H111.173L113.568 237.085L113.41 237.52C113.086 238.389 112.63 238.462 111.931 238.27L111.625 239.314C111.778 239.382 112.11 239.455 112.494 239.455ZM121.007 239.591C122.673 239.591 123.96 238.828 123.96 237.145L123.96 230.455H122.712V231.516H122.618C122.392 231.111 121.94 230.369 120.722 230.369C119.141 230.369 117.977 231.618 117.977 233.702C117.977 235.79 119.166 236.902 120.713 236.902C121.915 236.902 122.379 236.224 122.609 235.807H122.69L122.69 237.094C122.69 238.121 121.987 238.564 121.02 238.564C119.959 238.564 119.545 238.031 119.32 237.656L118.224 238.108C118.57 238.909 119.443 239.591 121.007 239.591ZM120.994 235.845C119.857 235.845 119.264 234.972 119.264 233.685C119.264 232.428 119.844 231.452 120.994 231.452C122.107 231.452 122.703 232.359 122.703 233.685C122.703 235.036 122.094 235.845 120.994 235.845ZM128.49 237.132C129.918 237.132 130.928 236.429 131.217 235.364L130.011 235.146C129.781 235.764 129.227 236.08 128.503 236.08C127.412 236.08 126.679 235.372 126.645 234.111H131.298V233.659C131.298 231.294 129.884 230.369 128.401 230.369C126.577 230.369 125.375 231.759 125.375 233.77C125.375 235.803 126.56 237.132 128.49 237.132ZM126.649 233.156C126.7 232.227 127.374 231.422 128.409 231.422C129.398 231.422 130.045 232.155 130.05 233.156H126.649ZM133.986 233.114C133.986 232.07 134.625 231.473 135.512 231.473C136.377 231.473 136.901 232.04 136.901 232.99L136.901 237L138.175 237L138.175 232.837C138.175 231.217 137.284 230.369 135.946 230.369C134.962 230.369 134.319 230.825 134.016 231.52H133.935V230.455H132.712L132.712 237H133.986L133.986 233.114Z" fill="#252321"/>
<circle cx="39" cy="255.5" r="6" fill="#252321"/>
<path d="M57.1506 251.273H55.8679L53.6903 252.696V253.957L55.7784 252.594H55.8295L55.8295 260H57.1506L57.1506 251.273ZM64.0668 258.364C64.071 259.348 64.6889 260.179 65.8437 260.179C66.9858 260.179 67.6122 259.348 67.6122 258.364V257.903C67.6122 256.915 67.0028 256.088 65.8437 256.088C64.706 256.088 64.071 256.919 64.0668 257.903V258.364ZM59.6776 253.369C59.6776 254.354 60.2997 255.185 61.4545 255.185C62.5923 255.185 63.223 254.358 63.2187 253.369V252.909C63.223 251.92 62.6094 251.094 61.4545 251.094C60.321 251.094 59.6776 251.92 59.6776 252.909V253.369ZM60.0355 260H61.054L67.054 251.273H66.0355L60.0355 260ZM65.0597 257.903C65.0639 257.413 65.277 256.94 65.8437 256.94C66.4318 256.94 66.6151 257.413 66.6151 257.903V258.364C66.6151 258.854 66.4148 259.327 65.8437 259.327C65.2642 259.327 65.0639 258.849 65.0597 258.364V257.903ZM60.6747 252.909C60.6747 252.423 60.8878 251.946 61.4545 251.946C62.0426 251.946 62.2259 252.419 62.2259 252.909V253.369C62.2259 253.859 62.0256 254.332 61.4545 254.332C60.875 254.332 60.6747 253.859 60.6747 253.369V252.909Z" fill="#252321"/>
<path d="M115.54 255.636C115.54 252.845 113.869 251.153 111.611 251.153C109.344 251.153 107.678 252.845 107.678 255.636C107.678 258.423 109.344 260.119 111.611 260.119C113.869 260.119 115.54 258.428 115.54 255.636ZM114.236 255.636C114.236 257.763 113.111 258.918 111.611 258.918C110.107 258.918 108.986 257.763 108.986 255.636C108.986 253.51 110.107 252.355 111.611 252.355C113.111 252.355 114.236 253.51 114.236 255.636ZM120.135 253.455H118.792L118.792 251.886H117.518L117.518 253.455H116.559V254.477H117.518V258.342C117.514 259.531 118.422 260.107 119.427 260.085C119.832 260.081 120.105 260.004 120.254 259.949L120.024 258.896C119.939 258.913 119.781 258.952 119.576 258.952C119.163 258.952 118.792 258.815 118.792 258.078V254.477H120.135V253.455ZM122.959 256.114C122.959 255.07 123.619 254.473 124.527 254.473C125.405 254.473 125.929 255.031 125.929 255.99L125.929 260H127.203L127.203 255.837C127.203 254.205 126.308 253.369 124.962 253.369C123.943 253.369 123.33 253.813 123.023 254.52H122.942L122.942 251.273H121.685L121.685 260H122.959L122.959 256.114ZM131.724 260.132C133.152 260.132 134.162 259.429 134.452 258.364L133.246 258.146C133.016 258.764 132.462 259.08 131.737 259.08C130.646 259.08 129.913 258.372 129.879 257.111H134.533V256.659C134.533 254.294 133.118 253.369 131.635 253.369C129.811 253.369 128.609 254.759 128.609 256.77C128.609 258.803 129.794 260.132 131.724 260.132ZM129.884 256.156C129.935 255.227 130.608 254.422 131.643 254.422C132.632 254.422 133.28 255.155 133.284 256.156H129.884ZM135.946 260H137.221L137.221 256.003C137.221 255.146 137.881 254.528 138.784 254.528C139.049 254.528 139.347 254.575 139.449 254.605V253.386C139.321 253.369 139.07 253.357 138.908 253.357C138.141 253.357 137.485 253.791 137.246 254.494H137.178V253.455H135.946L135.946 260Z" fill="#252321"/>
<path d="M197.278 175.364V187H198.949V178.574H199.057L202.489 186.983H203.875L207.307 178.58H207.415V187H209.085V175.364H206.955L203.25 184.409H203.114L199.409 175.364H197.278ZM214.521 187.193C215.964 187.193 216.777 186.46 217.101 185.807H217.169V187H218.828V181.205C218.828 178.665 216.828 178.159 215.442 178.159C213.862 178.159 212.408 178.795 211.839 180.386L213.436 180.75C213.686 180.131 214.322 179.534 215.464 179.534C216.561 179.534 217.123 180.108 217.123 181.097V181.136C217.123 181.756 216.487 181.744 214.919 181.926C213.266 182.119 211.572 182.551 211.572 184.534C211.572 186.25 212.862 187.193 214.521 187.193ZM214.891 185.83C213.93 185.83 213.237 185.398 213.237 184.557C213.237 183.648 214.044 183.324 215.027 183.193C215.578 183.119 216.885 182.972 217.129 182.727V183.852C217.129 184.886 216.305 185.83 214.891 185.83ZM221.571 187H223.27V181.67C223.27 180.528 224.15 179.705 225.355 179.705C225.707 179.705 226.105 179.767 226.241 179.807V178.182C226.071 178.159 225.736 178.142 225.52 178.142C224.497 178.142 223.622 178.722 223.304 179.659H223.213V178.273H221.571V187ZM234.731 180.403C234.379 179.045 233.316 178.159 231.43 178.159C229.458 178.159 228.061 179.199 228.061 180.744C228.061 181.983 228.811 182.807 230.447 183.17L231.924 183.494C232.765 183.682 233.157 184.057 233.157 184.602C233.157 185.278 232.436 185.807 231.322 185.807C230.305 185.807 229.652 185.369 229.447 184.511L227.805 184.761C228.089 186.307 229.373 187.176 231.333 187.176C233.441 187.176 234.902 186.057 234.902 184.477C234.902 183.244 234.118 182.483 232.515 182.114L231.129 181.795C230.169 181.568 229.754 181.244 229.76 180.653C229.754 179.983 230.481 179.506 231.447 179.506C232.504 179.506 232.993 180.091 233.191 180.676L234.731 180.403Z" fill="#252321"/>
<circle cx="202" cy="209.5" r="6" fill="#252321"/>
<path d="M219.741 205.153C217.909 205.136 216.712 206.453 216.712 208.107C216.716 209.773 217.922 210.974 219.435 210.974C220.359 210.974 221.152 210.523 221.599 209.79H221.668C221.663 211.797 220.909 212.969 219.631 212.969C218.795 212.969 218.259 212.457 218.088 211.712H216.788C216.98 213.122 218.071 214.119 219.631 214.119C221.659 214.119 222.929 212.376 222.929 209.321C222.925 206.134 221.297 205.166 219.741 205.153ZM219.746 206.261C220.756 206.261 221.501 207.118 221.501 208.077C221.506 209.048 220.717 209.901 219.72 209.901C218.719 209.901 217.994 209.099 217.99 208.089C217.99 207.075 218.744 206.261 219.746 206.261ZM227.515 214.119C229.339 214.136 230.549 212.824 230.545 211.149C230.549 209.479 229.335 208.281 227.822 208.281C226.902 208.281 226.105 208.724 225.657 209.462H225.593C225.598 207.48 226.348 206.304 227.626 206.304C228.466 206.304 228.994 206.815 229.173 207.54H230.473C230.272 206.159 229.186 205.153 227.626 205.153C225.598 205.153 224.332 206.896 224.332 209.93C224.328 213.143 225.964 214.107 227.515 214.119ZM227.511 213.011C226.497 213.011 225.755 212.159 225.755 211.179C225.76 210.203 226.535 209.351 227.541 209.351C228.538 209.351 229.271 210.156 229.267 211.166C229.271 212.197 228.508 213.011 227.511 213.011ZM236.653 212.364C236.657 213.348 237.275 214.179 238.43 214.179C239.572 214.179 240.198 213.348 240.198 212.364V211.903C240.198 210.915 239.589 210.088 238.43 210.088C237.292 210.088 236.657 210.919 236.653 211.903V212.364ZM232.263 207.369C232.263 208.354 232.886 209.185 234.04 209.185C235.178 209.185 235.809 208.358 235.805 207.369V206.909C235.809 205.92 235.195 205.094 234.04 205.094C232.907 205.094 232.263 205.92 232.263 206.909V207.369ZM232.621 214H233.64L239.64 205.273H238.621L232.621 214ZM237.646 211.903C237.65 211.413 237.863 210.94 238.43 210.94C239.018 210.94 239.201 211.413 239.201 211.903V212.364C239.201 212.854 239.001 213.327 238.43 213.327C237.85 213.327 237.65 212.849 237.646 212.364V211.903ZM233.261 206.909C233.261 206.423 233.474 205.946 234.04 205.946C234.629 205.946 234.812 206.419 234.812 206.909V207.369C234.812 207.859 234.612 208.332 234.04 208.332C233.461 208.332 233.261 207.859 233.261 207.369V206.909Z" fill="#252321"/>
<path d="M273.207 208.111C272.909 206.244 271.447 205.153 269.602 205.153C267.344 205.153 265.678 206.845 265.678 209.636C265.678 212.428 267.335 214.119 269.602 214.119C271.52 214.119 272.922 212.918 273.207 211.192L271.878 211.188C271.652 212.304 270.714 212.918 269.611 212.918C268.115 212.918 266.986 211.771 266.986 209.636C266.986 207.518 268.111 206.355 269.615 206.355C270.727 206.355 271.661 206.982 271.878 208.111H273.207ZM282.364 209.636C282.364 206.845 280.694 205.153 278.435 205.153C276.168 205.153 274.502 206.845 274.502 209.636C274.502 212.423 276.168 214.119 278.435 214.119C280.694 214.119 282.364 212.428 282.364 209.636ZM281.06 209.636C281.06 211.763 279.935 212.918 278.435 212.918C276.931 212.918 275.81 211.763 275.81 209.636C275.81 207.51 276.931 206.355 278.435 206.355C279.935 206.355 281.06 207.51 281.06 209.636ZM287.062 214L292.806 214V212.871L288.877 212.871V212.807L290.612 210.991C292.21 209.376 292.666 208.605 292.666 207.629C292.666 206.227 291.524 205.153 289.879 205.153C288.247 205.153 287.054 206.21 287.054 207.804H288.311C288.306 206.866 288.912 206.253 289.853 206.253C290.74 206.253 291.413 206.798 291.413 207.668C291.413 208.439 290.953 208.993 290.015 209.986L287.062 213.045V214Z" fill="#252321"/>
<circle cx="202" cy="232.5" r="6" fill="#573B2B"/>
<path d="M216.839 237H222.584V235.871H218.655V235.807L220.389 233.991C221.987 232.376 222.443 231.605 222.443 230.629C222.443 229.227 221.301 228.153 219.656 228.153C218.024 228.153 216.831 229.21 216.831 230.804H218.088C218.084 229.866 218.689 229.253 219.631 229.253C220.517 229.253 221.19 229.798 221.19 230.668C221.19 231.439 220.73 231.993 219.793 232.986L216.839 236.045V237ZM227.51 228.273H226.227L224.05 229.696V230.957L226.138 229.594H226.189L226.189 237H227.51L227.51 228.273ZM234.426 235.364C234.43 236.348 235.048 237.179 236.203 237.179C237.345 237.179 237.972 236.348 237.972 235.364V234.903C237.972 233.915 237.362 233.088 236.203 233.088C235.065 233.088 234.43 233.919 234.426 234.903V235.364ZM230.037 230.369C230.037 231.354 230.659 232.185 231.814 232.185C232.952 232.185 233.582 231.358 233.578 230.369V229.909C233.582 228.92 232.969 228.094 231.814 228.094C230.68 228.094 230.037 228.92 230.037 229.909V230.369ZM230.395 237H231.413L237.413 228.273H236.395L230.395 237ZM235.419 234.903C235.423 234.413 235.636 233.94 236.203 233.94C236.791 233.94 236.974 234.413 236.974 234.903V235.364C236.974 235.854 236.774 236.327 236.203 236.327C235.624 236.327 235.423 235.849 235.419 235.364V234.903ZM231.034 229.909C231.034 229.423 231.247 228.946 231.814 228.946C232.402 228.946 232.585 229.419 232.585 229.909V230.369C232.585 230.859 232.385 231.332 231.814 231.332C231.234 231.332 231.034 230.859 231.034 230.369V229.909Z" fill="#252321"/>
<path d="M260.696 237L261.497 234.69H264.906L265.703 237H267.101L263.96 228.273H262.439L259.298 237H260.696ZM261.881 233.582L263.168 229.858H263.236L264.523 233.582H261.881ZM268.259 237H269.533V233.003C269.533 232.146 270.194 231.528 271.097 231.528C271.361 231.528 271.659 231.575 271.762 231.605V230.386C271.634 230.369 271.382 230.357 271.221 230.357C270.453 230.357 269.797 230.791 269.559 231.494H269.49V230.455H268.259V237ZM275.374 239.591C277.04 239.591 278.327 238.828 278.327 237.145V230.455H277.079V231.516H276.985C276.759 231.111 276.308 230.369 275.089 230.369C273.508 230.369 272.344 231.618 272.344 233.702C272.344 235.79 273.533 236.902 275.08 236.902C276.282 236.902 276.746 236.224 276.977 235.807H277.058V237.094C277.058 238.121 276.354 238.564 275.387 238.564C274.326 238.564 273.913 238.031 273.687 237.656L272.592 238.108C272.937 238.909 273.81 239.591 275.374 239.591ZM275.362 235.845C274.224 235.845 273.631 234.972 273.631 233.685C273.631 232.428 274.211 231.452 275.362 231.452C276.474 231.452 277.07 232.359 277.07 233.685C277.07 235.036 276.461 235.845 275.362 235.845ZM282.793 237.132C284.638 237.132 285.844 235.781 285.844 233.757C285.844 231.72 284.638 230.369 282.793 230.369C280.948 230.369 279.742 231.72 279.742 233.757C279.742 235.781 280.948 237.132 282.793 237.132ZM282.798 236.063C281.592 236.063 281.029 235.01 281.029 233.753C281.029 232.5 281.592 231.435 282.798 231.435C283.995 231.435 284.558 232.5 284.558 233.753C284.558 235.01 283.995 236.063 282.798 236.063ZM288.541 233.114C288.541 232.07 289.18 231.473 290.066 231.473C290.931 231.473 291.456 232.04 291.456 232.99V237H292.73V232.837C292.73 231.217 291.839 230.369 290.501 230.369C289.517 230.369 288.873 230.825 288.571 231.52H288.49V230.455H287.267V237H288.541V233.114Z" fill="#252321"/>
<circle cx="202" cy="255.5" r="6" fill="#784B31"/>
<path d="M220.151 251.273H218.868L216.69 252.696V253.957L218.778 252.594H218.83L218.83 260H220.151L220.151 251.273ZM227.067 258.364C227.071 259.348 227.689 260.179 228.844 260.179C229.986 260.179 230.612 259.348 230.612 258.364V257.903C230.612 256.915 230.003 256.088 228.844 256.088C227.706 256.088 227.071 256.919 227.067 257.903V258.364ZM222.678 253.369C222.678 254.354 223.3 255.185 224.455 255.185C225.592 255.185 226.223 254.358 226.219 253.369V252.909C226.223 251.92 225.609 251.094 224.455 251.094C223.321 251.094 222.678 251.92 222.678 252.909V253.369ZM223.036 260H224.054L230.054 251.273H229.036L223.036 260ZM228.06 257.903C228.064 257.413 228.277 256.94 228.844 256.94C229.432 256.94 229.615 257.413 229.615 257.903V258.364C229.615 258.854 229.415 259.327 228.844 259.327C228.264 259.327 228.064 258.849 228.06 258.364V257.903ZM223.675 252.909C223.675 252.423 223.888 251.946 224.455 251.946C225.043 251.946 225.226 252.419 225.226 252.909V253.369C225.226 253.859 225.026 254.332 224.455 254.332C223.875 254.332 223.675 253.859 223.675 253.369V252.909Z" fill="#252321"/>
<path d="M252.003 251.273H250.699L250.699 257.682H250.618L246.178 251.273H244.959L244.959 260H246.276L246.276 253.599H246.357L250.793 260H252.003L252.003 251.273ZM253.821 260H255.096L255.096 253.455H253.821L253.821 260ZM254.465 252.445C254.904 252.445 255.27 252.104 255.27 251.686C255.27 251.268 254.904 250.923 254.465 250.923C254.022 250.923 253.659 251.268 253.659 251.686C253.659 252.104 254.022 252.445 254.465 252.445ZM259.865 253.455H258.523V251.886H257.249V253.455H256.29V254.477H257.249V258.342C257.244 259.531 258.152 260.107 259.158 260.085C259.562 260.081 259.835 260.004 259.984 259.949L259.754 258.896C259.669 258.913 259.511 258.952 259.307 258.952C258.893 258.952 258.523 258.815 258.523 258.078V254.477H259.865V253.455ZM261.275 260H262.549V256.003C262.549 255.146 263.209 254.528 264.113 254.528C264.377 254.528 264.675 254.575 264.777 254.605V253.386C264.65 253.369 264.398 253.357 264.236 253.357C263.469 253.357 262.813 253.791 262.574 254.494H262.506V253.455H261.275V260ZM268.403 260.132C270.248 260.132 271.454 258.781 271.454 256.757C271.454 254.72 270.248 253.369 268.403 253.369C266.558 253.369 265.352 254.72 265.352 256.757C265.352 258.781 266.558 260.132 268.403 260.132ZM268.407 259.063C267.201 259.063 266.638 258.01 266.638 256.753C266.638 255.5 267.201 254.435 268.407 254.435C269.604 254.435 270.167 255.5 270.167 256.753C270.167 258.01 269.604 259.063 268.407 259.063ZM275.62 262.591C277.287 262.591 278.574 261.828 278.574 260.145V253.455H277.325V254.516H277.231C277.005 254.111 276.554 253.369 275.335 253.369C273.754 253.369 272.591 254.618 272.591 256.702C272.591 258.79 273.779 259.902 275.326 259.902C276.528 259.902 276.993 259.224 277.223 258.807H277.304V260.094C277.304 261.121 276.6 261.564 275.633 261.564C274.572 261.564 274.159 261.031 273.933 260.656L272.838 261.108C273.183 261.909 274.056 262.591 275.62 262.591ZM275.608 258.845C274.47 258.845 273.877 257.972 273.877 256.685C273.877 255.428 274.457 254.452 275.608 254.452C276.72 254.452 277.316 255.359 277.316 256.685C277.316 258.036 276.707 258.845 275.608 258.845ZM283.103 260.132C284.531 260.132 285.541 259.429 285.831 258.364L284.625 258.146C284.395 258.764 283.841 259.08 283.116 259.08C282.025 259.08 281.292 258.372 281.258 257.111H285.912V256.659C285.912 254.294 284.497 253.369 283.014 253.369C281.19 253.369 279.988 254.759 279.988 256.77C279.988 258.803 281.173 260.132 283.103 260.132ZM281.262 256.156C281.314 255.227 281.987 254.422 283.022 254.422C284.011 254.422 284.659 255.155 284.663 256.156H281.262ZM288.599 256.114C288.599 255.07 289.239 254.473 290.125 254.473C290.99 254.473 291.514 255.04 291.514 255.99V260H292.788V255.837C292.788 254.217 291.898 253.369 290.56 253.369C289.575 253.369 288.932 253.825 288.629 254.52H288.548V253.455H287.325V260H288.599V256.114Z" fill="#252321"/>
</svg>
