<svg width="279" height="185" viewBox="0 0 279 185" fill="none" xmlns="http://www.w3.org/2000/svg">
<path d="M47.7088 163H53.2315V161.866H49.0256L49.0256 159.195H52.8949V158.065H49.0256L49.0256 155.406H53.1804V154.273H47.7088L47.7088 163ZM56.7418 163.145C57.8242 163.145 58.4336 162.595 58.6765 162.105H58.7276V163H59.9719L59.9719 158.653C59.9719 156.749 58.4719 156.369 57.4322 156.369C56.2475 156.369 55.1566 156.847 54.7305 158.04L55.9279 158.313C56.1154 157.848 56.5927 157.401 57.4492 157.401C58.2717 157.401 58.6935 157.831 58.6935 158.572V158.602C58.6935 159.067 58.2163 159.058 57.0401 159.195C55.8001 159.339 54.5302 159.663 54.5302 161.151C54.5302 162.438 55.4975 163.145 56.7418 163.145ZM57.0188 162.122C56.2987 162.122 55.7788 161.798 55.7788 161.168C55.7788 160.486 56.3839 160.243 57.1211 160.145C57.5344 160.089 58.5146 159.979 58.6978 159.795V160.639C58.6978 161.415 58.0799 162.122 57.0188 162.122ZM61.669 163H62.9432L62.9432 159.003C62.9432 158.146 63.6037 157.528 64.5071 157.528C64.7713 157.528 65.0696 157.575 65.1719 157.605V156.386C65.044 156.369 64.7926 156.357 64.6307 156.357C63.8636 156.357 63.2074 156.791 62.9687 157.494H62.9006V156.455H61.669L61.669 163ZM69.7166 156.455H68.3743L68.3743 154.886H67.1001L67.1001 156.455H66.1413V157.477H67.1001V161.342C67.0959 162.531 68.0036 163.107 69.0092 163.085C69.4141 163.081 69.6868 163.004 69.8359 162.949L69.6058 161.896C69.5206 161.913 69.3629 161.952 69.1584 161.952C68.745 161.952 68.3743 161.815 68.3743 161.078V157.477H69.7166V156.455ZM72.5408 159.114C72.5408 158.07 73.2013 157.473 74.109 157.473C74.9869 157.473 75.511 158.031 75.511 158.99L75.511 163H76.7852L76.7852 158.837C76.7852 157.205 75.8903 156.369 74.5437 156.369C73.5252 156.369 72.9116 156.813 72.6048 157.52H72.5238L72.5238 154.273L71.2667 154.273L71.2667 163H72.5408L72.5408 159.114Z" fill="#252321"/>
<path d="M37.9702 182.119C39.7259 182.119 40.9787 180.879 40.9744 179.179C40.9787 177.491 39.8026 176.264 38.2131 176.264C37.5653 176.264 36.9645 176.511 36.6236 176.844H36.5724L36.8494 174.402H40.5526V173.273H35.7543L35.2642 177.67L36.4702 177.849C36.7983 177.555 37.3864 177.355 37.9148 177.355C38.9503 177.364 39.7003 178.139 39.7003 179.205C39.7003 180.253 38.9716 181.011 37.9702 181.011C37.1264 181.011 36.4574 180.474 36.3892 179.724H35.1108C35.1619 181.114 36.3679 182.119 37.9702 182.119ZM43.0827 182.081C43.5472 182.081 43.935 181.702 43.935 181.229C43.935 180.764 43.5472 180.381 43.0827 180.381C42.614 180.381 42.2305 180.764 42.2305 181.229C42.2305 181.702 42.614 182.081 43.0827 182.081ZM48.3647 182.119C50.1204 182.119 51.3732 180.879 51.369 179.179C51.3732 177.491 50.1971 176.264 48.6076 176.264C47.9599 176.264 47.359 176.511 47.0181 176.844H46.967L47.244 174.402H50.9471V173.273H46.1488L45.6587 177.67L46.8647 177.849C47.1928 177.555 47.7809 177.355 48.3093 177.355C49.3448 177.364 50.0948 178.139 50.0948 179.205C50.0948 180.253 49.3661 181.011 48.3647 181.011C47.521 181.011 46.8519 180.474 46.7837 179.724H45.5053C45.5565 181.114 46.7624 182.119 48.3647 182.119ZM58.8626 184.591C60.5288 184.591 61.8157 183.828 61.8157 182.145L61.8157 175.455H60.5671V176.516H60.4734C60.2475 176.111 59.7958 175.369 58.5771 175.369C56.9961 175.369 55.8327 176.618 55.8327 178.702C55.8327 180.79 57.0217 181.902 58.5685 181.902C59.7702 181.902 60.2347 181.224 60.4648 180.807H60.5458L60.5458 182.094C60.5458 183.121 59.8427 183.564 58.8754 183.564C57.8143 183.564 57.4009 183.031 57.1751 182.656L56.0799 183.108C56.4251 183.909 57.2987 184.591 58.8626 184.591ZM58.8498 180.845C57.712 180.845 57.1197 179.972 57.1197 178.685C57.1197 177.428 57.6992 176.452 58.8498 176.452C59.962 176.452 60.5586 177.359 60.5586 178.685C60.5586 180.036 59.9492 180.845 58.8498 180.845ZM66.8484 172.864H65.7106L62.8981 183.313H64.0359L66.8484 172.864ZM70.6879 182.132C72.2347 182.132 73.2362 181.203 73.3768 179.929H72.1367C71.9748 180.636 71.4251 181.054 70.6964 181.054C69.6183 181.054 68.9237 180.155 68.9237 178.727C68.9237 177.325 69.631 176.443 70.6964 176.443C71.506 176.443 72.0004 176.955 72.1367 177.568H73.3768C73.2404 176.247 72.1623 175.369 70.6751 175.369C68.8299 175.369 67.6367 176.759 67.6367 178.757C67.6367 180.73 68.7873 182.132 70.6879 182.132ZM74.7393 182H76.0135L76.0135 177.964C76.0135 177.082 76.6314 176.469 77.3558 176.469C78.0632 176.469 78.5533 176.938 78.5533 177.649L78.5533 182H79.8232L79.8232 177.828C79.8232 177.04 80.3047 176.469 81.1357 176.469C81.8089 176.469 82.3629 176.844 82.3629 177.73L82.3629 182H83.6371L83.6371 177.611C83.6371 176.115 82.8018 175.369 81.6172 175.369C80.6754 175.369 79.968 175.821 79.6527 176.52H79.5845C79.299 175.804 78.6982 175.369 77.8246 175.369C76.9595 175.369 76.3161 175.8 76.0433 176.52H75.9624L75.9624 175.455L74.7393 175.455L74.7393 182ZM87.0835 177.705C88.3406 177.705 89.2397 177.057 89.2397 176.17C89.2397 175.531 88.7752 175.054 87.94 174.947V174.909C88.5494 174.815 89.0309 174.415 89.0309 173.801C89.0309 172.966 88.2468 172.335 87.1048 172.335C85.9755 172.335 85.0934 172.957 85.0763 173.865H86.0863C86.1033 173.443 86.5508 173.166 87.1005 173.166C87.6374 173.166 88.0039 173.456 88.0039 173.861C88.0039 174.291 87.565 174.577 86.9684 174.577H86.4869V175.352H86.9684C87.6928 175.352 88.1488 175.663 88.1488 176.094C88.1488 176.537 87.6971 176.831 87.0835 176.831C86.4954 176.831 86.0479 176.567 86.0309 176.153H84.957C84.9783 177.07 85.869 177.705 87.0835 177.705Z" fill="#252321"/>
<path d="M202.709 154.273L202.709 163H203.962L203.962 156.68H204.043L206.616 162.987H207.656L210.23 156.685L210.311 156.685L210.311 163L211.564 163L211.564 154.273L209.966 154.273L207.187 161.057H207.085L204.307 154.273H202.709ZM215.281 163.145C216.363 163.145 216.973 162.595 217.216 162.105H217.267V163H218.511L218.511 158.653C218.511 156.749 217.011 156.369 215.971 156.369C214.787 156.369 213.696 156.847 213.27 158.04L214.467 158.313C214.654 157.848 215.132 157.401 215.988 157.401C216.811 157.401 217.233 157.831 217.233 158.572V158.602C217.233 159.067 216.755 159.058 215.579 159.195C214.339 159.339 213.069 159.663 213.069 161.151C213.069 162.438 214.037 163.145 215.281 163.145ZM215.558 162.122C214.838 162.122 214.318 161.798 214.318 161.168C214.318 160.486 214.923 160.243 215.66 160.145C216.074 160.089 217.054 159.979 217.237 159.795L217.237 160.639C217.237 161.415 216.619 162.122 215.558 162.122ZM220.208 163H221.482L221.482 159.003C221.482 158.146 222.143 157.528 223.046 157.528C223.31 157.528 223.609 157.575 223.711 157.605V156.386C223.583 156.369 223.332 156.357 223.17 156.357C222.403 156.357 221.746 156.791 221.508 157.494H221.44V156.455H220.208L220.208 163ZM229.718 158.053C229.454 157.034 228.657 156.369 227.243 156.369C225.764 156.369 224.716 157.149 224.716 158.308C224.716 159.237 225.278 159.855 226.505 160.128L227.613 160.371C228.244 160.511 228.538 160.793 228.538 161.202C228.538 161.709 227.997 162.105 227.162 162.105C226.399 162.105 225.909 161.777 225.755 161.134L224.524 161.321C224.737 162.48 225.7 163.132 227.17 163.132C228.751 163.132 229.846 162.293 229.846 161.108C229.846 160.183 229.258 159.612 228.056 159.335L227.017 159.097C226.297 158.926 225.985 158.683 225.99 158.24C225.985 157.737 226.531 157.379 227.255 157.379C228.048 157.379 228.414 157.818 228.564 158.257L229.718 158.053Z" fill="#252321"/>
<path d="M191.628 182.119C193.409 182.119 194.717 181.054 194.713 179.605C194.717 178.501 194.048 177.709 192.889 177.53V177.462C193.801 177.227 194.393 176.511 194.389 175.531C194.393 174.249 193.341 173.153 191.662 173.153C190.06 173.153 188.773 174.121 188.73 175.54H190.004C190.034 174.739 190.788 174.253 191.645 174.253C192.536 174.253 193.119 174.794 193.115 175.599C193.119 176.443 192.442 176.997 191.474 176.997H190.737V178.071H191.474C192.685 178.071 193.384 178.685 193.384 179.562C193.384 180.411 192.646 180.986 191.619 180.986C190.673 180.986 189.936 180.5 189.885 179.724H188.547C188.602 181.148 189.864 182.119 191.628 182.119ZM196.911 182.081C197.375 182.081 197.763 181.702 197.763 181.229C197.763 180.764 197.375 180.381 196.911 180.381C196.442 180.381 196.059 180.764 196.059 181.229C196.059 181.702 196.442 182.081 196.911 182.081ZM202.249 173.153C200.417 173.136 199.219 174.453 199.219 176.107C199.224 177.773 200.43 178.974 201.942 178.974C202.867 178.974 203.66 178.523 204.107 177.79H204.175C204.171 179.797 203.417 180.969 202.138 180.969C201.303 180.969 200.766 180.457 200.596 179.712H199.296C199.488 181.122 200.579 182.119 202.138 182.119C204.167 182.119 205.437 180.376 205.437 177.321C205.433 174.134 203.805 173.166 202.249 173.153ZM202.254 174.261C203.263 174.261 204.009 175.118 204.009 176.077C204.013 177.048 203.225 177.901 202.228 177.901C201.227 177.901 200.502 177.099 200.498 176.089C200.498 175.075 201.252 174.261 202.254 174.261ZM212.913 184.591C214.58 184.591 215.866 183.828 215.866 182.145L215.866 175.455H214.618V176.516H214.524C214.298 176.111 213.847 175.369 212.628 175.369C211.047 175.369 209.884 176.618 209.884 178.702C209.884 180.79 211.072 181.902 212.619 181.902C213.821 181.902 214.286 181.224 214.516 180.807H214.597V182.094C214.597 183.121 213.893 183.564 212.926 183.564C211.865 183.564 211.452 183.031 211.226 182.656L210.131 183.108C210.476 183.909 211.349 184.591 212.913 184.591ZM212.901 180.845C211.763 180.845 211.17 179.972 211.17 178.685C211.17 177.428 211.75 176.452 212.901 176.452C214.013 176.452 214.609 177.359 214.609 178.685C214.609 180.036 214 180.845 212.901 180.845ZM220.899 172.864H219.761L216.949 183.313H218.087L220.899 172.864ZM224.739 182.132C226.286 182.132 227.287 181.203 227.428 179.929H226.188C226.026 180.636 225.476 181.054 224.747 181.054C223.669 181.054 222.974 180.155 222.974 178.727C222.974 177.325 223.682 176.443 224.747 176.443C225.557 176.443 226.051 176.955 226.188 177.568H227.428C227.291 176.247 226.213 175.369 224.726 175.369C222.881 175.369 221.688 176.759 221.688 178.757C221.687 180.73 222.838 182.132 224.739 182.132ZM228.79 182L230.064 182L230.064 177.964C230.064 177.082 230.682 176.469 231.407 176.469C232.114 176.469 232.604 176.938 232.604 177.649L232.604 182H233.874L233.874 177.828C233.874 177.04 234.355 176.469 235.186 176.469C235.86 176.469 236.414 176.844 236.414 177.73L236.414 182H237.688L237.688 177.611C237.688 176.115 236.853 175.369 235.668 175.369C234.726 175.369 234.019 175.821 233.703 176.52H233.635C233.35 175.804 232.749 175.369 231.875 175.369C231.01 175.369 230.367 175.8 230.094 176.52H230.013V175.455L228.79 175.455L228.79 182ZM241.134 177.705C242.391 177.705 243.29 177.057 243.29 176.17C243.29 175.531 242.826 175.054 241.991 174.947V174.909C242.6 174.815 243.082 174.415 243.082 173.801C243.082 172.966 242.298 172.335 241.156 172.335C240.026 172.335 239.144 172.957 239.127 173.865H240.137C240.154 173.443 240.602 173.166 241.151 173.166C241.688 173.166 242.055 173.456 242.055 173.861C242.055 174.291 241.616 174.577 241.019 174.577H240.538V175.352H241.019C241.744 175.352 242.2 175.663 242.2 176.094C242.2 176.537 241.748 176.831 241.134 176.831C240.546 176.831 240.099 176.567 240.082 176.153H239.008C239.029 177.07 239.92 177.705 241.134 177.705Z" fill="#252321"/>
<circle cx="20.8844" cy="20.8844" r="12.8844" fill="#252321"/>
<circle opacity="0.9" cx="50.6529" cy="20.8844" r="12.8844" fill="#252321"/>
<circle cx="80.422" cy="20.8844" r="12.8844" fill="#252321"/>
<circle opacity="0.9" cx="110.191" cy="20.8844" r="12.8844" fill="#252321"/>
<circle cx="20.8844" cy="50.6532" r="12.8844" fill="#252321"/>
<circle cx="50.6529" cy="50.6532" r="12.8844" fill="#252321"/>
<circle opacity="0.9" cx="80.422" cy="50.6532" r="12.8844" fill="#252321"/>
<circle opacity="0.5" cx="110.191" cy="50.6532" r="12.8844" fill="#252321"/>
<circle opacity="0.8" cx="20.8844" cy="80.422" r="12.8844" fill="#252321"/>
<circle opacity="0.8" cx="50.6529" cy="80.422" r="12.8844" fill="#252321"/>
<circle cx="80.422" cy="80.422" r="12.8844" fill="#252321"/>
<circle opacity="0.9" cx="110.191" cy="80.422" r="12.8844" fill="#252321"/>
<circle opacity="0.8" cx="20.8844" cy="110.191" r="12.8844" fill="#252321"/>
<circle opacity="0.5" cx="50.6529" cy="110.191" r="12.8844" fill="#252321"/>
<circle opacity="0.9" cx="80.422" cy="110.191" r="12.8844" fill="#252321"/>
<circle cx="110.191" cy="110.191" r="12.8844" fill="#252321"/>
<rect x="0.5" y="0.5" width="130.075" height="130.075" rx="18.5" stroke="#68432E"/>
<circle opacity="0.6" cx="167.96" cy="20.8844" r="12.8844" fill="#252321"/>
<circle cx="197.728" cy="20.8844" r="12.8844" fill="#252321"/>
<circle opacity="0.6" cx="227.497" cy="20.8844" r="12.8844" fill="#252321"/>
<circle cx="257.266" cy="20.8844" r="12.8844" fill="#252321"/>
<circle cx="167.96" cy="50.6532" r="12.8844" fill="#252321"/>
<circle opacity="0.2" cx="197.728" cy="50.6532" r="12.8844" fill="#252321"/>
<circle cx="227.497" cy="50.6532" r="12.8844" fill="#252321"/>
<circle opacity="0.2" cx="257.266" cy="50.6532" r="12.8844" fill="#252321"/>
<circle opacity="0.6" cx="167.96" cy="80.422" r="12.8844" fill="#252321"/>
<circle cx="197.728" cy="80.422" r="12.8844" fill="#252321"/>
<circle opacity="0.6" cx="227.497" cy="80.422" r="12.8844" fill="#252321"/>
<circle cx="257.266" cy="80.422" r="12.8844" fill="#252321"/>
<circle opacity="0.2" cx="167.96" cy="110.191" r="12.8844" fill="#252321"/>
<circle opacity="0.6" cx="197.728" cy="110.191" r="12.8844" fill="#252321"/>
<circle cx="227.497" cy="110.191" r="12.8844" fill="#252321"/>
<circle opacity="0.6" cx="257.266" cy="110.191" r="12.8844" fill="#252321"/>
<rect x="147.575" y="0.5" width="130.075" height="130.075" rx="18.5" stroke="#68432E"/>
</svg>
