<svg width="246" height="151" viewBox="0 0 246 151" fill="none" xmlns="http://www.w3.org/2000/svg">
<g opacity="0.6">
<circle cx="27.4641" cy="27.548" r="26.9641" stroke="#BA6C3F"/>
<circle cx="34.4729" cy="27.548" r="26.9641" stroke="#AA643B"/>
<circle cx="41.4821" cy="27.548" r="26.9641" stroke="#995C38"/>
<circle cx="48.4909" cy="27.548" r="26.9641" stroke="#895335"/>
<circle cx="55.5002" cy="27.548" r="26.9641" stroke="#784B31"/>
<circle cx="62.509" cy="27.548" r="26.9641" stroke="#68432E"/>
<circle cx="69.5178" cy="27.548" r="26.9641" stroke="#573B2B"/>
<circle cx="76.5271" cy="27.548" r="26.9641" stroke="#463327"/>
<circle cx="83.5358" cy="27.548" r="26.9641" stroke="#362B24"/>
</g>
<circle cx="88.4641" cy="27.4641" r="27.4641" fill="#784B31"/>
<circle cx="188.885" cy="27.885" r="12.385" stroke="#BA6C3F"/>
<circle cx="193.664" cy="27.885" r="12.385" stroke="#AA643B"/>
<circle cx="198.443" cy="27.885" r="12.385" stroke="#995C38"/>
<circle cx="203.221" cy="27.885" r="12.385" stroke="#895335"/>
<circle cx="208" cy="27.885" r="12.385" stroke="#784B31"/>
<circle cx="212.779" cy="27.885" r="12.385" stroke="#68432E"/>
<circle cx="217.557" cy="27.885" r="12.385" stroke="#573B2B"/>
<circle cx="222.336" cy="27.885" r="12.385" stroke="#463327"/>
<circle cx="227.115" cy="27.885" r="12.385" stroke="#362B24"/>
<circle cx="232.884" cy="27.8844" r="12.8844" fill="#252321"/>
<path d="M37.7784 105H45.142V103.489H39.5341V99.9261H44.6932V98.4205H39.5341V94.875H45.0739V93.3636H37.7784V105ZM50.3024 105.193C51.7456 105.193 52.5581 104.46 52.882 103.807H52.9502V105H54.6093V99.2045C54.6093 96.6648 52.6093 96.1591 51.2229 96.1591C49.6434 96.1591 48.1888 96.7955 47.6206 98.3864L49.2172 98.75C49.4672 98.1307 50.1036 97.5341 51.2456 97.5341C52.3422 97.5341 52.9047 98.108 52.9047 99.0966V99.1364C52.9047 99.7557 52.2684 99.7443 50.7002 99.9261C49.0468 100.119 47.3536 100.551 47.3536 102.534C47.3536 104.25 48.6434 105.193 50.3024 105.193ZM50.6718 103.83C49.7115 103.83 49.0184 103.398 49.0184 102.557C49.0184 101.648 49.8252 101.324 50.8081 101.193C51.3593 101.119 52.6661 100.972 52.9104 100.727V101.852C52.9104 102.886 52.0865 103.83 50.6718 103.83ZM57.352 105H59.0509V99.6705C59.0509 98.5284 59.9316 97.7045 61.1361 97.7045C61.4884 97.7045 61.8861 97.767 62.0225 97.8068V96.1818C61.852 96.1591 61.5168 96.142 61.3009 96.142C60.2782 96.142 59.4032 96.7216 59.085 97.6591H58.9941V96.2727H57.352V105ZM68.5622 96.2727H66.7724V94.1818H65.0735V96.2727H63.7951V97.6364H65.0735V102.79C65.0678 104.375 66.2781 105.142 67.619 105.114C68.1588 105.108 68.5224 105.006 68.7213 104.932L68.4144 103.528C68.3008 103.551 68.0906 103.602 67.8178 103.602C67.2667 103.602 66.7724 103.42 66.7724 102.438V97.6364H68.5622V96.2727ZM72.8078 99.8182C72.8078 98.4261 73.6885 97.6307 74.8987 97.6307C76.0691 97.6307 76.768 98.375 76.768 99.6534V105H78.4669V99.4489C78.4669 97.2727 77.2737 96.1591 75.4782 96.1591C74.1203 96.1591 73.3021 96.75 72.893 97.6932H72.7851V93.3636H71.1089V105H72.8078V99.8182Z" fill="#252321"/>
<path d="M27.8864 129.119C29.7102 129.136 30.9205 127.824 30.9162 126.149C30.9205 124.479 29.706 123.281 28.1932 123.281C27.2727 123.281 26.4759 123.724 26.0284 124.462H25.9645C25.9687 122.48 26.7187 121.304 27.9972 121.304C28.8366 121.304 29.3651 121.815 29.544 122.54H30.8437C30.6435 121.159 29.5568 120.153 27.9972 120.153C25.9687 120.153 24.7031 121.896 24.7031 124.93C24.6989 128.143 26.3352 129.107 27.8864 129.119ZM27.8821 128.011C26.8679 128.011 26.1264 127.159 26.1264 126.179C26.1307 125.203 26.9062 124.351 27.9119 124.351C28.9091 124.351 29.642 125.156 29.6378 126.166C29.642 127.197 28.8793 128.011 27.8821 128.011ZM35.5153 129.119C37.3391 129.136 38.5494 127.824 38.5451 126.149C38.5494 124.479 37.3349 123.281 35.8221 123.281C34.9016 123.281 34.1048 123.724 33.6573 124.462H33.5934C33.5977 122.48 34.3477 121.304 35.6261 121.304C36.4656 121.304 36.994 121.815 37.1729 122.54H38.4727C38.2724 121.159 37.1857 120.153 35.6261 120.153C33.5977 120.153 32.332 121.896 32.332 124.93C32.3278 128.143 33.9641 129.107 35.5153 129.119ZM35.511 128.011C34.4968 128.011 33.7553 127.159 33.7553 126.179C33.7596 125.203 34.5352 124.351 35.5408 124.351C36.538 124.351 37.271 125.156 37.2667 126.166C37.271 127.197 36.5082 128.011 35.511 128.011ZM41.3853 127.807H40.158L40.1154 128.284C40.0174 129.439 39.7447 130.602 39.6296 131.131H40.533C40.7376 130.572 41.1893 129.294 41.3214 128.271L41.3853 127.807ZM45.8864 129.119C47.7102 129.136 48.9205 127.824 48.9162 126.149C48.9205 124.479 47.706 123.281 46.1932 123.281C45.2727 123.281 44.4759 123.724 44.0284 124.462H43.9645C43.9687 122.48 44.7187 121.304 45.9972 121.304C46.8366 121.304 47.3651 121.815 47.544 122.54H48.8437C48.6435 121.159 47.5568 120.153 45.9972 120.153C43.9687 120.153 42.7031 121.896 42.7031 124.93C42.6989 128.143 44.3352 129.107 45.8864 129.119ZM45.8821 128.011C44.8679 128.011 44.1264 127.159 44.1264 126.179C44.1307 125.203 44.9062 124.351 45.9119 124.351C46.9091 124.351 47.642 125.156 47.6378 126.166C47.642 127.197 46.8793 128.011 45.8821 128.011ZM50.4684 129H56.2127V127.871L52.2837 127.871V127.807L54.0181 125.991C55.6161 124.376 56.0721 123.605 56.0721 122.629C56.0721 121.227 54.93 120.153 53.2852 120.153C51.6531 120.153 50.4599 121.21 50.4599 122.804H51.717C51.7127 121.866 52.3178 121.253 53.2596 121.253C54.146 121.253 54.8192 121.798 54.8192 122.668C54.8192 123.439 54.359 123.993 53.4215 124.986L50.4684 128.045L50.4684 129ZM57.8278 129H63.5721V127.871L59.6431 127.871V127.807L61.3775 125.991C62.9755 124.376 63.4315 123.605 63.4315 122.629C63.4315 121.227 62.2894 120.153 60.6445 120.153C59.0124 120.153 57.8192 121.21 57.8192 122.804H59.0763C59.0721 121.866 59.6772 121.253 60.619 121.253C61.5053 121.253 62.1786 121.798 62.1786 122.668C62.1786 123.439 61.7184 123.993 60.7809 124.986L57.8278 128.045V129ZM68.38 129H69.6541L69.6541 124.964C69.6541 124.082 70.272 123.469 70.9964 123.469C71.7038 123.469 72.1939 123.938 72.1939 124.649L72.1939 129H73.4638L73.4638 124.828C73.4638 124.04 73.9453 123.469 74.7763 123.469C75.4496 123.469 76.0036 123.844 76.0036 124.73L76.0036 129H77.2777L77.2777 124.611C77.2777 123.115 76.4425 122.369 75.2578 122.369C74.3161 122.369 73.6087 122.821 73.2933 123.52H73.2251C72.9396 122.804 72.3388 122.369 71.4652 122.369C70.6001 122.369 69.9567 122.8 69.6839 123.52H69.603L69.603 122.455L68.38 122.455L68.38 129ZM78.9854 131.455H80.2596V127.982H80.3363C80.5664 128.399 81.0352 129.128 82.2283 129.128C83.8136 129.128 84.9641 127.858 84.9641 125.74C84.9641 123.618 83.7965 122.369 82.2156 122.369C81.0011 122.369 80.5621 123.111 80.3363 123.516H80.2298L80.2298 122.455H78.9854L78.9854 131.455ZM80.234 125.727C80.234 124.359 80.8306 123.452 81.9428 123.452C83.0977 123.452 83.6772 124.428 83.6772 125.727C83.6772 127.04 83.0806 128.041 81.9428 128.041C80.8477 128.041 80.234 127.104 80.234 125.727ZM87.6658 125.114C87.6658 124.07 88.3263 123.473 89.234 123.473C90.1119 123.473 90.636 124.031 90.636 124.99V129H91.9102V124.837C91.9102 123.205 91.0153 122.369 89.6687 122.369C88.6502 122.369 88.0366 122.813 87.7298 123.52H87.6488L87.6488 120.273H86.3917L86.3917 129H87.6658L87.6658 125.114Z" fill="#252321"/>
<path d="M28.6506 139.273H27.3679L25.1903 140.696L25.1903 141.957L27.2784 140.594H27.3295L27.3295 148H28.6506L28.6506 139.273ZM34.0497 148.145C36.0653 148.145 37.2457 146.5 37.2457 143.641C37.2457 140.803 36.0483 139.153 34.0497 139.153C32.0469 139.153 30.8537 140.798 30.8494 143.641C30.8494 146.496 32.0298 148.141 34.0497 148.145ZM34.0497 147.007C32.8693 147.007 32.1577 145.822 32.1577 143.641C32.1619 141.467 32.8736 140.27 34.0497 140.27C35.2216 140.27 35.9375 141.467 35.9375 143.641C35.9375 145.822 35.2259 147.007 34.0497 147.007ZM38.8171 148H40.1935L43.9904 140.44V139.273H38.2205V140.402H42.6268V140.466L38.8171 148ZM45.647 146.807H44.4197L44.3771 147.284C44.2791 148.439 44.0064 149.602 43.8913 150.131H44.7947C44.9993 149.572 45.451 148.294 45.5831 147.271L45.647 146.807ZM47.4293 148L53.1737 148L53.1737 146.871H49.2447V146.807L50.979 144.991C52.5771 143.376 53.033 142.605 53.033 141.629C53.033 140.227 51.891 139.153 50.2461 139.153C48.614 139.153 47.4208 140.21 47.4208 141.804H48.6779C48.6737 140.866 49.2788 140.253 50.2205 140.253C51.1069 140.253 51.7802 140.798 51.7802 141.668C51.7802 142.439 51.32 142.993 50.3825 143.986L47.4293 147.045L47.4293 148ZM58.0998 139.273H56.8171L54.6396 140.696L54.6396 141.957L56.7276 140.594H56.7788L56.7788 148H58.0998L58.0998 139.273ZM63.4094 148.119C65.2248 148.119 66.5075 147.088 66.516 145.673C66.5075 144.574 65.7362 143.649 64.7603 143.474V143.423C65.6083 143.219 66.1836 142.422 66.1921 141.48C66.1836 140.146 65.0075 139.153 63.4094 139.153C61.7944 139.153 60.6183 140.146 60.6268 141.48C60.6183 142.418 61.1935 143.219 62.0586 143.423V143.474C61.0657 143.649 60.2944 144.574 60.3029 145.673C60.2944 147.088 61.5771 148.119 63.4094 148.119ZM63.4094 147.041C62.3185 147.041 61.6282 146.462 61.6367 145.588C61.6282 144.68 62.3782 144.033 63.4094 144.033C64.4237 144.033 65.1737 144.68 65.1822 145.588C65.1737 146.462 64.4876 147.041 63.4094 147.041ZM63.4094 142.98C62.5273 142.98 61.9009 142.422 61.9094 141.591C61.9009 140.773 62.506 140.232 63.4094 140.232C64.2958 140.232 64.9009 140.773 64.9094 141.591C64.9009 142.422 64.2788 142.98 63.4094 142.98ZM71.2354 148H72.5096L72.5096 145.678L73.1445 145.043L75.369 148H76.9329L74.1033 144.263L76.7539 141.455H75.2283L72.6204 144.224H72.5096L72.5096 139.273H71.2354L71.2354 148ZM77.9151 150.455H79.1893V146.982H79.266C79.4961 147.399 79.9648 148.128 81.158 148.128C82.7433 148.128 83.8938 146.858 83.8938 144.74C83.8938 142.618 82.7262 141.369 81.1452 141.369C79.9308 141.369 79.4918 142.111 79.266 142.516H79.1594L79.1594 141.455H77.9151L77.9151 150.455ZM79.1637 144.727C79.1637 143.359 79.7603 142.452 80.8725 142.452C82.0273 142.452 82.6069 143.428 82.6069 144.727C82.6069 146.04 82.0103 147.041 80.8725 147.041C79.7773 147.041 79.1637 146.104 79.1637 144.727ZM86.5955 144.114C86.5955 143.07 87.256 142.473 88.1637 142.473C89.0415 142.473 89.5657 143.031 89.5657 143.99V148H90.8398V143.837C90.8398 142.205 89.945 141.369 88.5984 141.369C87.5799 141.369 86.9663 141.813 86.6594 142.52H86.5785L86.5785 139.273H85.3214L85.3214 148H86.5955L86.5955 144.114Z" fill="#68432E"/>
<path d="M192.278 93.3636V105H193.949V96.5739H194.057L197.489 104.983H198.875L202.307 96.5795H202.415V105H204.085V93.3636H201.955L198.25 102.409H198.114L194.409 93.3636H192.278ZM209.521 105.193C210.964 105.193 211.777 104.46 212.101 103.807H212.169V105H213.828V99.2045C213.828 96.6648 211.828 96.1591 210.442 96.1591C208.862 96.1591 207.408 96.7955 206.839 98.3864L208.436 98.75C208.686 98.1307 209.322 97.5341 210.464 97.5341C211.561 97.5341 212.123 98.108 212.123 99.0966V99.1364C212.123 99.7557 211.487 99.7443 209.919 99.9261C208.266 100.119 206.572 100.551 206.572 102.534C206.572 104.25 207.862 105.193 209.521 105.193ZM209.891 103.83C208.93 103.83 208.237 103.398 208.237 102.557C208.237 101.648 209.044 101.324 210.027 101.193C210.578 101.119 211.885 100.972 212.129 100.727V101.852C212.129 102.886 211.305 103.83 209.891 103.83ZM216.571 105H218.27V99.6705C218.27 98.5284 219.15 97.7045 220.355 97.7045C220.707 97.7045 221.105 97.767 221.241 97.8068V96.1818C221.071 96.1591 220.736 96.142 220.52 96.142C219.497 96.142 218.622 96.7216 218.304 97.6591H218.213V96.2727H216.571V105ZM229.731 98.4034C229.379 97.0455 228.316 96.1591 226.43 96.1591C224.458 96.1591 223.061 97.1989 223.061 98.7443C223.061 99.983 223.811 100.807 225.447 101.17L226.924 101.494C227.765 101.682 228.157 102.057 228.157 102.602C228.157 103.278 227.436 103.807 226.322 103.807C225.305 103.807 224.652 103.369 224.447 102.511L222.805 102.761C223.089 104.307 224.373 105.176 226.333 105.176C228.441 105.176 229.902 104.057 229.902 102.477C229.902 101.244 229.118 100.483 227.515 100.114L226.129 99.7955C225.169 99.5682 224.754 99.2443 224.76 98.6534C224.754 97.983 225.481 97.5057 226.447 97.5057C227.504 97.5057 227.993 98.0909 228.191 98.6761L229.731 98.4034Z" fill="#252321"/>
<path d="M179.72 129.119C181.476 129.119 182.729 127.879 182.724 126.179C182.729 124.491 181.553 123.264 179.963 123.264C179.315 123.264 178.714 123.511 178.374 123.844H178.322L178.599 121.402L182.303 121.402V120.273L177.504 120.273L177.014 124.67L178.22 124.849C178.548 124.555 179.136 124.355 179.665 124.355C180.7 124.364 181.45 125.139 181.45 126.205C181.45 127.253 180.722 128.011 179.72 128.011C178.876 128.011 178.207 127.474 178.139 126.724H176.861C176.912 128.114 178.118 129.119 179.72 129.119ZM187.319 129.119C189.1 129.119 190.409 128.054 190.404 126.605C190.409 125.501 189.74 124.709 188.581 124.53V124.462C189.493 124.227 190.085 123.511 190.081 122.531C190.085 121.249 189.032 120.153 187.353 120.153C185.751 120.153 184.464 121.121 184.422 122.54H185.696C185.725 121.739 186.48 121.253 187.336 121.253C188.227 121.253 188.811 121.794 188.806 122.599C188.811 123.443 188.133 123.997 187.166 123.997H186.429V125.071H187.166C188.376 125.071 189.075 125.685 189.075 126.563C189.075 127.411 188.338 127.986 187.311 127.986C186.365 127.986 185.627 127.5 185.576 126.724H184.238C184.294 128.148 185.555 129.119 187.319 129.119ZM193.42 127.807H192.193L192.151 128.284C192.053 129.439 191.78 130.602 191.665 131.131H192.568C192.773 130.572 193.224 129.294 193.357 128.271L193.42 127.807ZM197.859 129.119C199.674 129.119 200.957 128.088 200.965 126.673C200.957 125.574 200.185 124.649 199.21 124.474V124.423C200.058 124.219 200.633 123.422 200.641 122.48C200.633 121.146 199.457 120.153 197.859 120.153C196.244 120.153 195.067 121.146 195.076 122.48C195.067 123.418 195.643 124.219 196.508 124.423V124.474C195.515 124.649 194.744 125.574 194.752 126.673C194.744 128.088 196.026 129.119 197.859 129.119ZM197.859 128.041C196.768 128.041 196.077 127.462 196.086 126.588C196.077 125.68 196.827 125.033 197.859 125.033C198.873 125.033 199.623 125.68 199.631 126.588C199.623 127.462 198.937 128.041 197.859 128.041ZM197.859 123.98C196.977 123.98 196.35 123.422 196.359 122.591C196.35 121.773 196.955 121.232 197.859 121.232C198.745 121.232 199.35 121.773 199.359 122.591C199.35 123.422 198.728 123.98 197.859 123.98ZM205.373 129.119C207.128 129.119 208.381 127.879 208.377 126.179C208.381 124.491 207.205 123.264 205.615 123.264C204.968 123.264 204.367 123.511 204.026 123.844H203.975L204.252 121.402L207.955 121.402V120.273L203.157 120.273L202.667 124.67L203.873 124.849C204.201 124.555 204.789 124.355 205.317 124.355C206.353 124.364 207.103 125.139 207.103 126.205C207.103 127.253 206.374 128.011 205.373 128.011C204.529 128.011 203.86 127.474 203.792 126.724H202.513C202.564 128.114 203.77 129.119 205.373 129.119ZM212.882 129.119C214.697 129.119 215.98 128.088 215.989 126.673C215.98 125.574 215.209 124.649 214.233 124.474V124.423C215.081 124.219 215.656 123.422 215.665 122.48C215.656 121.146 214.48 120.153 212.882 120.153C211.267 120.153 210.091 121.146 210.099 122.48C210.091 123.418 210.666 124.219 211.531 124.423V124.474C210.538 124.649 209.767 125.574 209.776 126.673C209.767 128.088 211.05 129.119 212.882 129.119ZM212.882 128.041C211.791 128.041 211.101 127.462 211.109 126.588C211.101 125.68 211.851 125.033 212.882 125.033C213.896 125.033 214.646 125.68 214.655 126.588C214.646 127.462 213.96 128.041 212.882 128.041ZM212.882 123.98C212 123.98 211.374 123.422 211.382 122.591C211.374 121.773 211.979 121.232 212.882 121.232C213.768 121.232 214.374 121.773 214.382 122.591C214.374 123.422 213.751 123.98 212.882 123.98ZM220.708 129H221.982L221.982 124.964C221.982 124.082 222.6 123.469 223.325 123.469C224.032 123.469 224.522 123.938 224.522 124.649L224.522 129H225.792L225.792 124.828C225.792 124.04 226.273 123.469 227.104 123.469C227.778 123.469 228.332 123.844 228.332 124.73L228.332 129H229.606L229.606 124.611C229.606 123.115 228.771 122.369 227.586 122.369C226.644 122.369 225.937 122.821 225.621 123.52H225.553C225.268 122.804 224.667 122.369 223.793 122.369C222.928 122.369 222.285 122.8 222.012 123.52H221.931V122.455L220.708 122.455L220.708 129ZM231.314 131.455H232.588V127.982H232.664C232.895 128.399 233.363 129.128 234.556 129.128C236.142 129.128 237.292 127.858 237.292 125.74C237.292 123.618 236.125 122.369 234.544 122.369C233.329 122.369 232.89 123.111 232.664 123.516H232.558V122.455H231.314L231.314 131.455ZM232.562 125.727C232.562 124.359 233.159 123.452 234.271 123.452C235.426 123.452 236.005 124.428 236.005 125.727C236.005 127.04 235.409 128.041 234.271 128.041C233.176 128.041 232.562 127.104 232.562 125.727ZM239.994 125.114C239.994 124.07 240.654 123.473 241.562 123.473C242.44 123.473 242.964 124.031 242.964 124.99V129H244.238V124.837C244.238 123.205 243.343 122.369 241.997 122.369C240.978 122.369 240.365 122.813 240.058 123.52H239.977V120.273H238.72L238.72 129H239.994L239.994 125.114Z" fill="#252321"/>
<path d="M182.288 148.119C184.104 148.119 185.386 147.088 185.395 145.673C185.386 144.574 184.615 143.649 183.639 143.474V143.423C184.487 143.219 185.062 142.422 185.071 141.48C185.062 140.146 183.886 139.153 182.288 139.153C180.673 139.153 179.497 140.146 179.506 141.48C179.497 142.418 180.072 143.219 180.938 143.423V143.474C179.945 143.649 179.173 144.574 179.182 145.673C179.173 147.088 180.456 148.119 182.288 148.119ZM182.288 147.041C181.197 147.041 180.507 146.462 180.516 145.588C180.507 144.68 181.257 144.033 182.288 144.033C183.303 144.033 184.053 144.68 184.061 145.588C184.053 146.462 183.366 147.041 182.288 147.041ZM182.288 142.98C181.406 142.98 180.78 142.422 180.788 141.591C180.78 140.773 181.385 140.232 182.288 140.232C183.175 140.232 183.78 140.773 183.788 141.591C183.78 142.422 183.158 142.98 182.288 142.98ZM189.968 148.119C191.792 148.136 193.002 146.824 192.998 145.149C193.002 143.479 191.788 142.281 190.275 142.281C189.355 142.281 188.558 142.724 188.11 143.462H188.047C188.051 141.48 188.801 140.304 190.079 140.304C190.919 140.304 191.447 140.815 191.626 141.54H192.926C192.725 140.159 191.639 139.153 190.079 139.153C188.051 139.153 186.785 140.896 186.785 143.93C186.781 147.143 188.417 148.107 189.968 148.119ZM189.964 147.011C188.95 147.011 188.208 146.159 188.208 145.179C188.213 144.203 188.988 143.351 189.994 143.351C190.991 143.351 191.724 144.156 191.72 145.166C191.724 146.197 190.961 147.011 189.964 147.011ZM195.838 146.807H194.611L194.569 147.284C194.471 148.439 194.198 149.602 194.083 150.131H194.986C195.191 149.572 195.642 148.294 195.775 147.271L195.838 146.807ZM200.339 148.119C202.163 148.136 203.374 146.824 203.369 145.149C203.374 143.479 202.159 142.281 200.646 142.281C199.726 142.281 198.929 142.724 198.482 143.462H198.418C198.422 141.48 199.172 140.304 200.45 140.304C201.29 140.304 201.818 140.815 201.997 141.54L203.297 141.54C203.097 140.159 202.01 139.153 200.45 139.153C198.422 139.153 197.156 140.896 197.156 143.93C197.152 147.143 198.788 148.107 200.339 148.119ZM200.335 147.011C199.321 147.011 198.58 146.159 198.58 145.179C198.584 144.203 199.359 143.351 200.365 143.351C201.362 143.351 202.095 144.156 202.091 145.166C202.095 146.197 201.332 147.011 200.335 147.011ZM205.216 148H206.592L210.389 140.44V139.273H204.619V140.402H209.025V140.466L205.216 148ZM214.73 148.119C216.554 148.136 217.764 146.824 217.76 145.149C217.764 143.479 216.55 142.281 215.037 142.281C214.116 142.281 213.32 142.724 212.872 143.462H212.808C212.812 141.48 213.562 140.304 214.841 140.304C215.68 140.304 216.209 140.815 216.388 141.54H217.688C217.487 140.159 216.401 139.153 214.841 139.153C212.812 139.153 211.547 140.896 211.547 143.93C211.543 147.143 213.179 148.107 214.73 148.119ZM214.726 147.011C213.712 147.011 212.97 146.159 212.97 145.179C212.974 144.203 213.75 143.351 214.756 143.351C215.753 143.351 216.486 144.156 216.482 145.166C216.486 146.197 215.723 147.011 214.726 147.011ZM222.505 148H223.779L223.779 145.678L224.414 145.043L226.638 148H228.202L225.373 144.263L228.023 141.455H226.498L223.89 144.224H223.779V139.273H222.505L222.505 148ZM229.185 150.455H230.459V146.982H230.536C230.766 147.399 231.234 148.128 232.428 148.128C234.013 148.128 235.163 146.858 235.163 144.74C235.163 142.618 233.996 141.369 232.415 141.369C231.2 141.369 230.761 142.111 230.536 142.516H230.429V141.455H229.185L229.185 150.455ZM230.433 144.727C230.433 143.359 231.03 142.452 232.142 142.452C233.297 142.452 233.876 143.428 233.876 144.727C233.876 146.04 233.28 147.041 232.142 147.041C231.047 147.041 230.433 146.104 230.433 144.727ZM237.865 144.114C237.865 143.07 238.526 142.473 239.433 142.473C240.311 142.473 240.835 143.031 240.835 143.99L240.835 148H242.109L242.109 143.837C242.109 142.205 241.214 141.369 239.868 141.369C238.849 141.369 238.236 141.813 237.929 142.52H237.848V139.273H236.591L236.591 148H237.865L237.865 144.114Z" fill="#68432E"/>
</svg>
