<svg width="236" height="207" viewBox="0 0 236 207" fill="none" xmlns="http://www.w3.org/2000/svg">
<line x1="0.5" y1="114" x2="0.500001" y2="131" stroke="#EFDDD2"/>
<line y1="122" x2="91" y2="122" stroke="#EFDDD2"/>
<line x1="91.5" y1="114" x2="91.5" y2="131" stroke="#EFDDD2"/>
<rect width="49" height="23" transform="translate(21 111)" fill="#CF7E50"/>
<path d="M29.3537 118.273H28.071L25.8935 119.696V120.957L27.9815 119.594H28.0327V127H29.3537V118.273ZM34.7528 127.119C36.5341 127.119 37.8423 126.054 37.8381 124.605C37.8423 123.501 37.1733 122.709 36.0142 122.53V122.462C36.9261 122.227 37.5185 121.511 37.5142 120.531C37.5185 119.249 36.4659 118.153 34.7869 118.153C33.1847 118.153 31.8977 119.121 31.8551 120.54H33.1293C33.1591 119.739 33.9134 119.253 34.7699 119.253C35.6605 119.253 36.2443 119.794 36.2401 120.599C36.2443 121.443 35.5668 121.997 34.5994 121.997H33.8622V123.071H34.5994C35.8097 123.071 36.5085 123.685 36.5085 124.562C36.5085 125.411 35.7713 125.986 34.7443 125.986C33.7983 125.986 33.0611 125.5 33.0099 124.724H31.6719C31.7273 126.148 32.9886 127.119 34.7528 127.119ZM40.0359 127.081C40.5004 127.081 40.8881 126.702 40.8881 126.229C40.8881 125.764 40.5004 125.381 40.0359 125.381C39.5671 125.381 39.1836 125.764 39.1836 126.229C39.1836 126.702 39.5671 127.081 40.0359 127.081ZM45.2337 127.119C47.049 127.119 48.3317 126.088 48.3402 124.673C48.3317 123.574 47.5604 122.649 46.5845 122.474V122.423C47.4325 122.219 48.0078 121.422 48.0163 120.48C48.0078 119.146 46.8317 118.153 45.2337 118.153C43.6186 118.153 42.4425 119.146 42.451 120.48C42.4425 121.418 43.0178 122.219 43.8828 122.423V122.474C42.8899 122.649 42.1186 123.574 42.1271 124.673C42.1186 126.088 43.4013 127.119 45.2337 127.119ZM45.2337 126.041C44.1428 126.041 43.4524 125.462 43.4609 124.588C43.4524 123.68 44.2024 123.033 45.2337 123.033C46.2479 123.033 46.9979 123.68 47.0064 124.588C46.9979 125.462 46.3118 126.041 45.2337 126.041ZM45.2337 121.98C44.3516 121.98 43.7251 121.422 43.7337 120.591C43.7251 119.773 44.3303 119.232 45.2337 119.232C46.12 119.232 46.7251 119.773 46.7337 120.591C46.7251 121.422 46.103 121.98 45.2337 121.98ZM53.0597 127H54.3338V122.964C54.3338 122.082 54.9517 121.469 55.6761 121.469C56.3835 121.469 56.8736 121.938 56.8736 122.649V127H58.1435V122.828C58.1435 122.04 58.625 121.469 59.456 121.469C60.1293 121.469 60.6832 121.844 60.6832 122.73V127H61.9574V122.611C61.9574 121.115 61.1222 120.369 59.9375 120.369C58.9957 120.369 58.2884 120.821 57.973 121.52H57.9048C57.6193 120.804 57.0185 120.369 56.1449 120.369C55.2798 120.369 54.6364 120.8 54.3636 121.52H54.2827V120.455H53.0597V127ZM63.6651 127H64.9393V120.455H63.6651V127ZM64.3086 119.445C64.7475 119.445 65.114 119.104 65.114 118.686C65.114 118.268 64.7475 117.923 64.3086 117.923C63.8654 117.923 63.5032 118.268 63.5032 118.686C63.5032 119.104 63.8654 119.445 64.3086 119.445Z" fill="#EFDDD2"/>
<rect width="54" height="23" transform="translate(19 134)" fill="#CF7E50"/>
<path d="M23.8707 150H29.6151V148.871H25.6861V148.807L27.4205 146.991C29.0185 145.376 29.4744 144.605 29.4744 143.629C29.4744 142.227 28.3324 141.153 26.6875 141.153C25.0554 141.153 23.8622 142.21 23.8622 143.804H25.1193C25.1151 142.866 25.7202 142.253 26.6619 142.253C27.5483 142.253 28.2216 142.798 28.2216 143.668C28.2216 144.439 27.7614 144.993 26.8239 145.986L23.8707 149.045V150ZM31.2301 150H36.9744V148.871H33.0455V148.807L34.7798 146.991C36.3778 145.376 36.8338 144.605 36.8338 143.629C36.8338 142.227 35.6918 141.153 34.0469 141.153C32.4148 141.153 31.2216 142.21 31.2216 143.804H32.4787C32.4744 142.866 33.0795 142.253 34.0213 142.253C34.9077 142.253 35.581 142.798 35.581 143.668C35.581 144.439 35.1207 144.993 34.1832 145.986L31.2301 149.045V150ZM39.446 150.081C39.9105 150.081 40.2983 149.702 40.2983 149.229C40.2983 148.764 39.9105 148.381 39.446 148.381C38.9773 148.381 38.5938 148.764 38.5938 149.229C38.5938 149.702 38.9773 150.081 39.446 150.081ZM41.9879 150H47.7322V148.871H43.8033V148.807L45.5376 146.991C47.1357 145.376 47.5916 144.605 47.5916 143.629C47.5916 142.227 46.4496 141.153 44.8047 141.153C43.1726 141.153 41.9794 142.21 41.9794 143.804H43.2365C43.2322 142.866 43.8374 142.253 44.7791 142.253C45.6655 142.253 46.3388 142.798 46.3388 143.668C46.3388 144.439 45.8786 144.993 44.9411 145.986L41.9879 149.045V150ZM52.5401 150H53.8143V147.678L54.4492 147.043L56.6737 150H58.2376L55.408 146.263L58.0586 143.455H56.533L53.9251 146.224H53.8143V141.273H52.5401V150ZM59.2198 150H60.494V145.964C60.494 145.082 61.1119 144.469 61.8363 144.469C62.5437 144.469 63.0337 144.938 63.0337 145.649V150H64.3036V145.828C64.3036 145.04 64.7852 144.469 65.6161 144.469C66.2894 144.469 66.8434 144.844 66.8434 145.73V150H68.1175V145.611C68.1175 144.115 67.2823 143.369 66.0977 143.369C65.1559 143.369 64.4485 143.821 64.1332 144.52H64.065C63.7795 143.804 63.1786 143.369 62.305 143.369C61.44 143.369 60.7965 143.8 60.5238 144.52H60.4428V143.455H59.2198V150Z" fill="#E4BDA7"/>
<line x1="161.5" y1="114" x2="161.5" y2="131" stroke="#EFDDD2"/>
<line x1="161" y1="122" x2="220" y2="122" stroke="#EFDDD2"/>
<line x1="220.5" y1="114" x2="220.5" y2="131" stroke="#EFDDD2"/>
<rect width="41" height="23" transform="translate(170 111)" fill="#CF7E50"/>
<path d="M175.18 127H176.557L180.354 119.44V118.273H174.584V119.402H178.99V119.466L175.18 127ZM181.192 127.081C181.657 127.081 182.044 126.702 182.044 126.229C182.044 125.764 181.657 125.381 181.192 125.381C180.723 125.381 180.34 125.764 180.34 126.229C180.34 126.702 180.723 127.081 181.192 127.081ZM186.39 127.119C188.205 127.119 189.488 126.088 189.496 124.673C189.488 123.574 188.717 122.649 187.741 122.474V122.423C188.589 122.219 189.164 121.422 189.173 120.48C189.164 119.146 187.988 118.153 186.39 118.153C184.775 118.153 183.599 119.146 183.607 120.48C183.599 121.418 184.174 122.219 185.039 122.423V122.474C184.046 122.649 183.275 123.574 183.283 124.673C183.275 126.088 184.558 127.119 186.39 127.119ZM186.39 126.041C185.299 126.041 184.609 125.462 184.617 124.588C184.609 123.68 185.359 123.033 186.39 123.033C187.404 123.033 188.154 123.68 188.163 124.588C188.154 125.462 187.468 126.041 186.39 126.041ZM186.39 121.98C185.508 121.98 184.881 121.422 184.89 120.591C184.881 119.773 185.487 119.232 186.39 119.232C187.276 119.232 187.881 119.773 187.89 120.591C187.881 121.422 187.259 121.98 186.39 121.98ZM194.216 127H195.49V122.964C195.49 122.082 196.108 121.469 196.832 121.469C197.54 121.469 198.03 121.938 198.03 122.649V127H199.3V122.828C199.3 122.04 199.781 121.469 200.612 121.469C201.286 121.469 201.839 121.844 201.839 122.73V127H203.114V122.611C203.114 121.115 202.278 120.369 201.094 120.369C200.152 120.369 199.445 120.821 199.129 121.52H199.061C198.776 120.804 198.175 120.369 197.301 120.369C196.436 120.369 195.793 120.8 195.52 121.52H195.439V120.455H194.216V127ZM204.821 127H206.096V120.455H204.821V127ZM205.465 119.445C205.904 119.445 206.27 119.104 206.27 118.686C206.27 118.268 205.904 117.923 205.465 117.923C205.022 117.923 204.659 118.268 204.659 118.686C204.659 119.104 205.022 119.445 205.465 119.445Z" fill="#EFDDD2"/>
<rect width="53" height="23" transform="translate(164 134)" fill="#CF7E50"/>
<path d="M172.555 141.273H171.272L169.095 142.696V143.957L171.183 142.594H171.234V150H172.555V141.273ZM174.916 150H180.66V148.871H176.731V148.807L178.465 146.991C180.063 145.376 180.519 144.605 180.519 143.629C180.519 142.227 179.377 141.153 177.732 141.153C176.1 141.153 174.907 142.21 174.907 143.804H176.164C176.16 142.866 176.765 142.253 177.707 142.253C178.593 142.253 179.267 142.798 179.267 143.668C179.267 144.439 178.806 144.993 177.869 145.986L174.916 149.045V150ZM183.132 150.081C183.596 150.081 183.984 149.702 183.984 149.229C183.984 148.764 183.596 148.381 183.132 148.381C182.663 148.381 182.279 148.764 182.279 149.229C182.279 149.702 182.663 150.081 183.132 150.081ZM188.392 150.119C190.216 150.136 191.426 148.824 191.422 147.149C191.426 145.479 190.212 144.281 188.699 144.281C187.779 144.281 186.982 144.724 186.534 145.462H186.47C186.475 143.48 187.225 142.304 188.503 142.304C189.343 142.304 189.871 142.815 190.05 143.54H191.35C191.149 142.159 190.063 141.153 188.503 141.153C186.475 141.153 185.209 142.896 185.209 145.93C185.205 149.143 186.841 150.107 188.392 150.119ZM188.388 149.011C187.374 149.011 186.632 148.159 186.632 147.179C186.637 146.203 187.412 145.351 188.418 145.351C189.415 145.351 190.148 146.156 190.144 147.166C190.148 148.197 189.385 149.011 188.388 149.011ZM196.167 150H197.441V147.678L198.076 147.043L200.301 150H201.865L199.035 146.263L201.686 143.455H200.16L197.552 146.224H197.441V141.273H196.167V150ZM202.847 150H204.121V145.964C204.121 145.082 204.739 144.469 205.463 144.469C206.171 144.469 206.661 144.938 206.661 145.649V150H207.931V145.828C207.931 145.04 208.412 144.469 209.243 144.469C209.916 144.469 210.47 144.844 210.47 145.73V150H211.744V145.611C211.744 144.115 210.909 143.369 209.725 143.369C208.783 143.369 208.075 143.821 207.76 144.52H207.692C207.406 143.804 206.806 143.369 205.932 143.369C205.067 143.369 204.423 143.8 204.151 144.52H204.07V143.455H202.847V150Z" fill="#E4BDA7"/>
<ellipse cx="45.5" cy="43.5" rx="45.5" ry="43.5" fill="#EFDDD2"/>
<path d="M16.7112 200H18.4669V195.909H20.8533C23.5521 195.909 24.8874 194.278 24.8874 192.131C24.8874 189.989 23.5635 188.364 20.8589 188.364H16.7112V200ZM18.4669 194.42V189.869H20.6714C22.4101 189.869 23.1203 190.812 23.1203 192.131C23.1203 193.449 22.4101 194.42 20.6942 194.42H18.4669ZM28.9881 194.818C28.9881 193.426 29.8688 192.631 31.079 192.631C32.2495 192.631 32.9483 193.375 32.9483 194.653V200H34.6472V194.449C34.6472 192.273 33.454 191.159 31.6586 191.159C30.3006 191.159 29.4824 191.75 29.0733 192.693H28.9654V188.364H27.2892V200H28.9881V194.818ZM41.0704 200.176C43.5306 200.176 45.1385 198.375 45.1385 195.676C45.1385 192.96 43.5306 191.159 41.0704 191.159C38.6101 191.159 37.0022 192.96 37.0022 195.676C37.0022 198.375 38.6101 200.176 41.0704 200.176ZM41.076 198.75C39.4681 198.75 38.7181 197.347 38.7181 195.67C38.7181 194 39.4681 192.58 41.076 192.58C42.6726 192.58 43.4226 194 43.4226 195.67C43.4226 197.347 42.6726 198.75 41.076 198.75ZM47.6512 200H49.3103V198.642H49.4524C49.7592 199.199 50.3842 200.17 51.9751 200.17C54.0887 200.17 55.6228 198.477 55.6228 195.653C55.6228 192.824 54.066 191.159 51.958 191.159C50.3387 191.159 49.7535 192.148 49.4524 192.688H49.3501V188.364H47.6512V200ZM49.316 195.636C49.316 193.812 50.1114 192.602 51.5944 192.602C53.1342 192.602 53.9069 193.903 53.9069 195.636C53.9069 197.386 53.1114 198.722 51.5944 198.722C50.1342 198.722 49.316 197.472 49.316 195.636ZM61.6866 200.176C64.1468 200.176 65.7548 198.375 65.7548 195.676C65.7548 192.96 64.1468 191.159 61.6866 191.159C59.2264 191.159 57.6184 192.96 57.6184 195.676C57.6184 198.375 59.2264 200.176 61.6866 200.176ZM61.6923 198.75C60.0843 198.75 59.3343 197.347 59.3343 195.67C59.3343 194 60.0843 192.58 61.6923 192.58C63.2889 192.58 64.0389 194 64.0389 195.67C64.0389 197.347 63.2889 198.75 61.6923 198.75ZM74.6709 193.403C74.3186 192.045 73.2561 191.159 71.3697 191.159C69.3982 191.159 68.0004 192.199 68.0004 193.744C68.0004 194.983 68.7504 195.807 70.3868 196.17L71.8641 196.494C72.705 196.682 73.097 197.057 73.097 197.602C73.097 198.278 72.3754 198.807 71.2618 198.807C70.2447 198.807 69.5913 198.369 69.3868 197.511L67.7447 197.761C68.0288 199.307 69.3129 200.176 71.2732 200.176C73.3811 200.176 74.8413 199.057 74.8413 197.477C74.8413 196.244 74.0572 195.483 72.455 195.114L71.0686 194.795C70.1084 194.568 69.6936 194.244 69.6993 193.653C69.6936 192.983 70.4209 192.506 71.3868 192.506C72.4436 192.506 72.9322 193.091 73.1311 193.676L74.6709 193.403Z" fill="#EFDDD2"/>
<path d="M166.045 200C169.591 200 171.642 197.801 171.642 194.165C171.642 190.545 169.591 188.364 166.165 188.364H162.278V200H166.045ZM164.034 198.466V189.898H166.057C168.602 189.898 169.915 191.42 169.915 194.165C169.915 196.92 168.602 198.466 165.949 198.466H164.034ZM177.93 200.176C179.834 200.176 181.18 199.239 181.567 197.818L179.959 197.528C179.652 198.352 178.913 198.773 177.947 198.773C176.493 198.773 175.516 197.83 175.47 196.148H181.675V195.545C181.675 192.392 179.788 191.159 177.811 191.159C175.379 191.159 173.777 193.011 173.777 195.693C173.777 198.403 175.356 200.176 177.93 200.176ZM175.476 194.875C175.544 193.636 176.442 192.562 177.822 192.562C179.141 192.562 180.004 193.54 180.01 194.875H175.476ZM184.04 200H185.738V191.273H184.04V200ZM184.897 189.926C185.483 189.926 185.971 189.472 185.971 188.915C185.971 188.358 185.483 187.898 184.897 187.898C184.307 187.898 183.824 188.358 183.824 188.915C183.824 189.472 184.307 189.926 184.897 189.926ZM188.504 200H190.203V194.619C190.203 193.443 191.027 192.625 191.993 192.625C192.936 192.625 193.589 193.25 193.589 194.199V200H195.282V194.438C195.282 193.386 195.924 192.625 197.032 192.625C197.93 192.625 198.669 193.125 198.669 194.307V200H200.368V194.148C200.368 192.153 199.254 191.159 197.674 191.159C196.419 191.159 195.476 191.761 195.055 192.693H194.964C194.583 191.739 193.782 191.159 192.618 191.159C191.464 191.159 190.606 191.733 190.243 192.693H190.135V191.273H188.504V200ZM206.801 200.176C209.261 200.176 210.869 198.375 210.869 195.676C210.869 192.96 209.261 191.159 206.801 191.159C204.34 191.159 202.732 192.96 202.732 195.676C202.732 198.375 204.34 200.176 206.801 200.176ZM206.806 198.75C205.198 198.75 204.448 197.347 204.448 195.67C204.448 194 205.198 192.58 206.806 192.58C208.403 192.58 209.153 194 209.153 195.67C209.153 197.347 208.403 198.75 206.806 198.75ZM219.785 193.403C219.433 192.045 218.37 191.159 216.484 191.159C214.512 191.159 213.114 192.199 213.114 193.744C213.114 194.983 213.864 195.807 215.501 196.17L216.978 196.494C217.819 196.682 218.211 197.057 218.211 197.602C218.211 198.278 217.489 198.807 216.376 198.807C215.359 198.807 214.705 198.369 214.501 197.511L212.859 197.761C213.143 199.307 214.427 200.176 216.387 200.176C218.495 200.176 219.955 199.057 219.955 197.477C219.955 196.244 219.171 195.483 217.569 195.114L216.183 194.795C215.222 194.568 214.808 194.244 214.813 193.653C214.808 192.983 215.535 192.506 216.501 192.506C217.558 192.506 218.046 193.091 218.245 193.676L219.785 193.403Z" fill="#EFDDD2"/>
<path d="M178.376 28C183.764 18.6667 197.236 18.6667 202.624 28L217.78 54.25C223.168 63.5833 216.433 75.25 205.655 75.25H175.345C164.567 75.25 157.832 63.5833 163.22 54.25L178.376 28Z" fill="#E1B398"/>
</svg>
