<svg width="255" height="137" viewBox="0 0 255 137" fill="none" xmlns="http://www.w3.org/2000/svg">
<path d="M34.2784 130H41.642V128.489H36.0341V124.926H41.1932V123.42H36.0341V119.875H41.5739V118.364H34.2784V130ZM46.8024 130.193C48.2456 130.193 49.0581 129.46 49.382 128.807H49.4502V130H51.1093V124.205C51.1093 121.665 49.1093 121.159 47.7229 121.159C46.1434 121.159 44.6888 121.795 44.1206 123.386L45.7172 123.75C45.9672 123.131 46.6036 122.534 47.7456 122.534C48.8422 122.534 49.4047 123.108 49.4047 124.097V124.136C49.4047 124.756 48.7684 124.744 47.2002 124.926C45.5468 125.119 43.8536 125.551 43.8536 127.534C43.8536 129.25 45.1434 130.193 46.8024 130.193ZM47.1718 128.83C46.2115 128.83 45.5184 128.398 45.5184 127.557C45.5184 126.648 46.3252 126.324 47.3081 126.193C47.8593 126.119 49.1661 125.972 49.4104 125.727V126.852C49.4104 127.886 48.5865 128.83 47.1718 128.83ZM53.852 130H55.5509V124.67C55.5509 123.528 56.4316 122.705 57.6361 122.705C57.9884 122.705 58.3861 122.767 58.5225 122.807V121.182C58.352 121.159 58.0168 121.142 57.8009 121.142C56.7782 121.142 55.9032 121.722 55.585 122.659H55.4941V121.273H53.852V130ZM65.0622 121.273H63.2724V119.182H61.5735V121.273H60.2951V122.636H61.5735V127.79C61.5678 129.375 62.7781 130.142 64.119 130.114C64.6588 130.108 65.0224 130.006 65.2213 129.932L64.9144 128.528C64.8008 128.551 64.5906 128.602 64.3178 128.602C63.7667 128.602 63.2724 128.42 63.2724 127.438V122.636H65.0622V121.273ZM69.3078 124.818C69.3078 123.426 70.1885 122.631 71.3987 122.631C72.5691 122.631 73.268 123.375 73.268 124.653V130H74.9669V124.449C74.9669 122.273 73.7737 121.159 71.9782 121.159C70.6203 121.159 69.8021 121.75 69.393 122.693H69.2851V118.364H67.6089V130H69.3078V124.818Z" fill="#252321"/>
<path d="M189.278 118.364V130H190.949V121.574H191.057L194.489 129.983H195.875L199.307 121.58H199.415V130H201.085V118.364H198.955L195.25 127.409H195.114L191.409 118.364H189.278ZM206.521 130.193C207.964 130.193 208.777 129.46 209.101 128.807H209.169V130H210.828V124.205C210.828 121.665 208.828 121.159 207.442 121.159C205.862 121.159 204.408 121.795 203.839 123.386L205.436 123.75C205.686 123.131 206.322 122.534 207.464 122.534C208.561 122.534 209.123 123.108 209.123 124.097V124.136C209.123 124.756 208.487 124.744 206.919 124.926C205.266 125.119 203.572 125.551 203.572 127.534C203.572 129.25 204.862 130.193 206.521 130.193ZM206.891 128.83C205.93 128.83 205.237 128.398 205.237 127.557C205.237 126.648 206.044 126.324 207.027 126.193C207.578 126.119 208.885 125.972 209.129 125.727V126.852C209.129 127.886 208.305 128.83 206.891 128.83ZM213.571 130H215.27V124.67C215.27 123.528 216.15 122.705 217.355 122.705C217.707 122.705 218.105 122.767 218.241 122.807V121.182C218.071 121.159 217.736 121.142 217.52 121.142C216.497 121.142 215.622 121.722 215.304 122.659H215.213V121.273H213.571V130ZM226.731 123.403C226.379 122.045 225.316 121.159 223.43 121.159C221.458 121.159 220.061 122.199 220.061 123.744C220.061 124.983 220.811 125.807 222.447 126.17L223.924 126.494C224.765 126.682 225.157 127.057 225.157 127.602C225.157 128.278 224.436 128.807 223.322 128.807C222.305 128.807 221.652 128.369 221.447 127.511L219.805 127.761C220.089 129.307 221.373 130.176 223.333 130.176C225.441 130.176 226.902 129.057 226.902 127.477C226.902 126.244 226.118 125.483 224.515 125.114L223.129 124.795C222.169 124.568 221.754 124.244 221.76 123.653C221.754 122.983 222.481 122.506 223.447 122.506C224.504 122.506 224.993 123.091 225.191 123.676L226.731 123.403Z" fill="#252321"/>
<ellipse cx="83.5" cy="42" rx="41.5" ry="42" fill="#995C38"/>
<circle r="2" transform="matrix(-1 0 0 1 253 43)" fill="#252321"/>
<circle r="2" transform="matrix(-1 0 0 1 165 43)" fill="#252321"/>
<ellipse cx="209" cy="42.5" rx="26" ry="25.5" fill="#252321"/>
<ellipse cx="13" cy="42.5" rx="13" ry="12.5" fill="#995C38"/>
</svg>
