<svg width="286" height="304" viewBox="0 0 286 304" fill="none" xmlns="http://www.w3.org/2000/svg">
<circle cx="101" cy="56" r="56" fill="#D6936D"/>
<path d="M185.278 45H192.642V43.4886H187.034V39.9261H192.193V38.4205H187.034V34.875H192.574V33.3636H185.278V45ZM197.802 45.1932C199.246 45.1932 200.058 44.4602 200.382 43.8068H200.45V45H202.109V39.2045C202.109 36.6648 200.109 36.1591 198.723 36.1591C197.143 36.1591 195.689 36.7955 195.121 38.3864L196.717 38.75C196.967 38.1307 197.604 37.5341 198.746 37.5341C199.842 37.5341 200.405 38.108 200.405 39.0966V39.1364C200.405 39.7557 199.768 39.7443 198.2 39.9261C196.547 40.1193 194.854 40.5511 194.854 42.5341C194.854 44.25 196.143 45.1932 197.802 45.1932ZM198.172 43.8295C197.212 43.8295 196.518 43.3977 196.518 42.5568C196.518 41.6477 197.325 41.3239 198.308 41.1932C198.859 41.1193 200.166 40.9716 200.41 40.7273V41.8523C200.41 42.8864 199.587 43.8295 198.172 43.8295ZM204.852 45H206.551V39.6705C206.551 38.5284 207.432 37.7045 208.636 37.7045C208.988 37.7045 209.386 37.767 209.522 37.8068V36.1818C209.352 36.1591 209.017 36.142 208.801 36.142C207.778 36.142 206.903 36.7216 206.585 37.6591H206.494V36.2727H204.852V45ZM216.062 36.2727H214.272V34.1818H212.574V36.2727H211.295V37.6364H212.574V42.7898C212.568 44.375 213.778 45.142 215.119 45.1136C215.659 45.108 216.022 45.0057 216.221 44.9318L215.914 43.5284C215.801 43.5511 215.591 43.6023 215.318 43.6023C214.767 43.6023 214.272 43.4205 214.272 42.4375V37.6364H216.062V36.2727ZM220.308 39.8182C220.308 38.4261 221.188 37.6307 222.399 37.6307C223.569 37.6307 224.268 38.375 224.268 39.6534V45H225.967V39.4489C225.967 37.2727 224.774 36.1591 222.978 36.1591C221.62 36.1591 220.802 36.75 220.393 37.6932H220.285V33.3636H218.609V45H220.308V39.8182Z" fill="#EFDDD2"/>
<path d="M185.134 72H186.51L190.307 64.4403V63.2727L184.537 63.2727V64.402L188.943 64.402V64.4659L185.134 72ZM194.574 63.1534C192.741 63.1364 191.544 64.4531 191.544 66.1065C191.548 67.7727 192.754 68.9744 194.267 68.9744C195.191 68.9744 195.984 68.5227 196.431 67.7898H196.5C196.495 69.7969 195.741 70.9688 194.463 70.9688C193.627 70.9688 193.091 70.4574 192.92 69.7116H191.62C191.812 71.1222 192.903 72.1193 194.463 72.1193C196.491 72.1193 197.761 70.3764 197.761 67.321C197.757 64.1335 196.129 63.1662 194.574 63.1534ZM194.578 64.2614C195.588 64.2614 196.333 65.1179 196.333 66.0767C196.338 67.0483 195.549 67.9006 194.552 67.9006C193.551 67.9006 192.826 67.0994 192.822 66.0895C192.822 65.0753 193.576 64.2614 194.578 64.2614ZM199.3 72H205.045V70.8707H201.116V70.8068L202.85 68.9915C204.448 67.3764 204.904 66.6051 204.904 65.6293C204.904 64.2273 203.762 63.1534 202.117 63.1534C200.485 63.1534 199.292 64.2102 199.292 65.804H200.549C200.545 64.8665 201.15 64.2528 202.092 64.2528C202.978 64.2528 203.651 64.7983 203.651 65.6676C203.651 66.4389 203.191 66.9929 202.254 67.9858L199.3 71.0455V72ZM209.707 72.1193C211.531 72.1364 212.741 70.8239 212.737 69.1491C212.741 67.4787 211.526 66.2813 210.013 66.2813C209.093 66.2813 208.296 66.7244 207.849 67.4616H207.785C207.789 65.4801 208.539 64.304 209.817 64.304C210.657 64.304 211.185 64.8153 211.364 65.5398H212.664C212.464 64.1591 211.377 63.1534 209.817 63.1534C207.789 63.1534 206.523 64.8963 206.523 67.9304C206.519 71.1435 208.156 72.1065 209.707 72.1193ZM209.702 71.0114C208.688 71.0114 207.947 70.1591 207.947 69.179C207.951 68.2031 208.727 67.3509 209.732 67.3509C210.729 67.3509 211.462 68.1563 211.458 69.1662C211.462 70.1974 210.7 71.0114 209.702 71.0114ZM217.482 72H218.756L218.756 67.9645C218.756 67.0824 219.374 66.4688 220.098 66.4688C220.805 66.4688 221.295 66.9375 221.295 67.6491L221.295 72L222.565 72L222.565 67.8281C222.565 67.0398 223.047 66.4688 223.878 66.4688C224.551 66.4688 225.105 66.8438 225.105 67.7301L225.105 72H226.379L226.379 67.6108C226.379 66.1151 225.544 65.3693 224.359 65.3693C223.418 65.3693 222.71 65.821 222.395 66.5199H222.327C222.041 65.804 221.44 65.3693 220.567 65.3693C219.702 65.3693 219.058 65.7997 218.786 66.5199H218.705V65.4545H217.482L217.482 72ZM228.087 72L229.361 72L229.361 65.4545L228.087 65.4545L228.087 72ZM228.73 64.4446C229.169 64.4446 229.536 64.1037 229.536 63.6861C229.536 63.2685 229.169 62.9233 228.73 62.9233C228.287 62.9233 227.925 63.2685 227.925 63.6861C227.925 64.1037 228.287 64.4446 228.73 64.4446ZM232.349 63.2727L231.075 63.2727L231.075 72H232.349L232.349 63.2727ZM236.885 72.1321C238.312 72.1321 239.322 71.429 239.612 70.3636L238.406 70.1463C238.176 70.7642 237.622 71.0795 236.897 71.0795C235.806 71.0795 235.074 70.3722 235.039 69.1108L239.693 69.1108V68.6591C239.693 66.294 238.278 65.3693 236.795 65.3693C234.971 65.3693 233.77 66.7585 233.77 68.7699C233.77 70.8026 234.954 72.1321 236.885 72.1321ZM235.044 68.1563C235.095 67.2273 235.768 66.4219 236.804 66.4219C237.792 66.4219 238.44 67.1548 238.444 68.1563L235.044 68.1563ZM246.011 67.0526C245.747 66.0341 244.95 65.3693 243.536 65.3693C242.057 65.3693 241.009 66.1491 241.009 67.3082C241.009 68.2372 241.571 68.8551 242.798 69.1278L243.906 69.3707C244.537 69.5114 244.831 69.7926 244.831 70.2017C244.831 70.7088 244.29 71.1051 243.455 71.1051C242.692 71.1051 242.202 70.777 242.048 70.1335L240.817 70.321C241.03 71.4801 241.993 72.1321 243.463 72.1321C245.044 72.1321 246.139 71.2926 246.139 70.108C246.139 69.1832 245.551 68.6122 244.349 68.3352L243.31 68.0966C242.589 67.9261 242.278 67.6832 242.283 67.2401C242.278 66.7372 242.824 66.3793 243.548 66.3793C244.341 66.3793 244.707 66.8182 244.857 67.2571L246.011 67.0526Z" fill="#EFDDD2"/>
<path d="M188.151 82.2727H186.868L184.69 83.696V84.9574L186.778 83.5938H186.83L186.83 91H188.151L188.151 82.2727ZM190.511 91L196.256 91V89.8707L192.327 89.8707V89.8068L194.061 87.9915C195.659 86.3764 196.115 85.6051 196.115 84.6293C196.115 83.2273 194.973 82.1534 193.328 82.1534C191.696 82.1534 190.503 83.2102 190.503 84.804H191.76C191.756 83.8665 192.361 83.2528 193.303 83.2528C194.189 83.2528 194.862 83.7983 194.862 84.6676C194.862 85.4389 194.402 85.9929 193.464 86.9858L190.511 90.0455V91ZM198.165 91H199.541L203.338 83.4403V82.2727H197.568V83.402H201.974V83.4659L198.165 91ZM207.583 91.1193C209.339 91.1193 210.592 89.8793 210.588 88.179C210.592 86.4915 209.416 85.2642 207.826 85.2642C207.179 85.2642 206.578 85.5114 206.237 85.8438H206.186L206.463 83.402H210.166V82.2727H205.368L204.877 86.6705L206.083 86.8494C206.412 86.5554 207 86.3551 207.528 86.3551C208.564 86.3636 209.314 87.1392 209.314 88.2045C209.314 89.2528 208.585 90.0114 207.583 90.0114C206.74 90.0114 206.071 89.4744 206.002 88.7244L204.724 88.7244C204.775 90.1136 205.981 91.1193 207.583 91.1193ZM215.191 91.1193C217.015 91.1364 218.225 89.8239 218.221 88.1491C218.225 86.4787 217.011 85.2813 215.498 85.2813C214.577 85.2813 213.781 85.7244 213.333 86.4616H213.269C213.273 84.4801 214.023 83.304 215.302 83.304C216.141 83.304 216.67 83.8153 216.849 84.5398H218.148C217.948 83.1591 216.862 82.1534 215.302 82.1534C213.273 82.1534 212.008 83.8963 212.008 86.9304C212.004 90.1435 213.64 91.1065 215.191 91.1193ZM215.187 90.0114C214.173 90.0114 213.431 89.1591 213.431 88.179C213.435 87.2031 214.211 86.3509 215.217 86.3509C216.214 86.3509 216.947 87.1563 216.942 88.1662C216.947 89.1974 216.184 90.0114 215.187 90.0114ZM222.966 91H224.24L224.24 88.6776L224.875 88.0426L227.099 91H228.663L225.834 87.2628L228.484 84.4545H226.959L224.351 87.2244H224.24V82.2727H222.966L222.966 91ZM229.646 91H230.92L230.92 86.9645C230.92 86.0824 231.538 85.4688 232.262 85.4688C232.969 85.4688 233.46 85.9375 233.46 86.6491L233.46 91H234.729L234.729 86.8281C234.729 86.0398 235.211 85.4688 236.042 85.4688C236.715 85.4688 237.269 85.8438 237.269 86.7301L237.269 91L238.543 91L238.543 86.6108C238.543 85.1151 237.708 84.3693 236.523 84.3693C235.582 84.3693 234.874 84.821 234.559 85.5199H234.491C234.205 84.804 233.604 84.3693 232.731 84.3693C231.866 84.3693 231.222 84.7997 230.95 85.5199H230.869V84.4545H229.646L229.646 91ZM245.156 86.0526C244.892 85.0341 244.095 84.3693 242.68 84.3693C241.201 84.3693 240.153 85.1491 240.153 86.3082C240.153 87.2372 240.716 87.8551 241.943 88.1278L243.051 88.3707C243.681 88.5114 243.975 88.7926 243.975 89.2017C243.975 89.7088 243.434 90.1051 242.599 90.1051C241.836 90.1051 241.346 89.777 241.193 89.1335L239.961 89.321C240.174 90.4801 241.137 91.1321 242.608 91.1321C244.189 91.1321 245.284 90.2926 245.284 89.108C245.284 88.1832 244.696 87.6122 243.494 87.3352L242.454 87.0966C241.734 86.9261 241.423 86.6832 241.427 86.2401C241.423 85.7372 241.968 85.3793 242.693 85.3793C243.485 85.3793 243.852 85.8182 244.001 86.2571L245.156 86.0526Z" fill="#E1B398"/>
<path d="M185.278 157.364V169H186.949V160.574H187.057L190.489 168.983H191.875L195.307 160.58H195.415V169H197.085V157.364H194.955L191.25 166.409H191.114L187.409 157.364H185.278ZM202.521 169.193C203.964 169.193 204.777 168.46 205.101 167.807H205.169V169H206.828V163.205C206.828 160.665 204.828 160.159 203.442 160.159C201.862 160.159 200.408 160.795 199.839 162.386L201.436 162.75C201.686 162.131 202.322 161.534 203.464 161.534C204.561 161.534 205.123 162.108 205.123 163.097V163.136C205.123 163.756 204.487 163.744 202.919 163.926C201.266 164.119 199.572 164.551 199.572 166.534C199.572 168.25 200.862 169.193 202.521 169.193ZM202.891 167.83C201.93 167.83 201.237 167.398 201.237 166.557C201.237 165.648 202.044 165.324 203.027 165.193C203.578 165.119 204.885 164.972 205.129 164.727V165.852C205.129 166.886 204.305 167.83 202.891 167.83ZM209.571 169H211.27V163.67C211.27 162.528 212.15 161.705 213.355 161.705C213.707 161.705 214.105 161.767 214.241 161.807V160.182C214.071 160.159 213.736 160.142 213.52 160.142C212.497 160.142 211.622 160.722 211.304 161.659H211.213V160.273H209.571V169ZM222.731 162.403C222.379 161.045 221.316 160.159 219.43 160.159C217.458 160.159 216.061 161.199 216.061 162.744C216.061 163.983 216.811 164.807 218.447 165.17L219.924 165.494C220.765 165.682 221.157 166.057 221.157 166.602C221.157 167.278 220.436 167.807 219.322 167.807C218.305 167.807 217.652 167.369 217.447 166.511L215.805 166.761C216.089 168.307 217.373 169.176 219.333 169.176C221.441 169.176 222.902 168.057 222.902 166.477C222.902 165.244 222.118 164.483 220.515 164.114L219.129 163.795C218.169 163.568 217.754 163.244 217.76 162.653C217.754 161.983 218.481 161.506 219.447 161.506C220.504 161.506 220.993 162.091 221.191 162.676L222.731 162.403Z" fill="#EFDDD2"/>
<path d="M184.656 194.295H188.794V196H190.051V194.295H191.206V193.179H190.051L190.051 187.273H188.428L184.656 193.23V194.295ZM188.803 193.179H186.037V193.111L188.734 188.841H188.803L188.803 193.179ZM192.691 196L198.435 196V194.871H194.506V194.807L196.241 192.991C197.839 191.376 198.295 190.605 198.295 189.629C198.295 188.227 197.153 187.153 195.508 187.153C193.876 187.153 192.683 188.21 192.683 189.804H193.94C193.935 188.866 194.54 188.253 195.482 188.253C196.369 188.253 197.042 188.798 197.042 189.668C197.042 190.439 196.582 190.993 195.644 191.986L192.691 195.045V196ZM200.05 196H205.795V194.871H201.866V194.807L203.6 192.991C205.198 191.376 205.654 190.605 205.654 189.629C205.654 188.227 204.512 187.153 202.867 187.153C201.235 187.153 200.042 188.21 200.042 189.804H201.299C201.295 188.866 201.9 188.253 202.842 188.253C203.728 188.253 204.401 188.798 204.401 189.668C204.401 190.439 203.941 190.993 203.004 191.986L200.05 195.045V196ZM210.448 196.145C212.464 196.145 213.644 194.5 213.644 191.641C213.644 188.803 212.447 187.153 210.448 187.153C208.445 187.153 207.252 188.798 207.248 191.641C207.248 194.496 208.428 196.141 210.448 196.145ZM210.448 195.007C209.268 195.007 208.556 193.822 208.556 191.641C208.56 189.467 209.272 188.27 210.448 188.27C211.62 188.27 212.336 189.467 212.336 191.641C212.336 193.822 211.624 195.007 210.448 195.007ZM218.349 196H219.623L219.623 191.964C219.623 191.082 220.241 190.469 220.965 190.469C221.673 190.469 222.163 190.938 222.163 191.649L222.163 196H223.433L223.433 191.828C223.433 191.04 223.914 190.469 224.745 190.469C225.418 190.469 225.972 190.844 225.972 191.73L225.972 196H227.246L227.246 191.611C227.246 190.115 226.411 189.369 225.227 189.369C224.285 189.369 223.577 189.821 223.262 190.52H223.194C222.908 189.804 222.308 189.369 221.434 189.369C220.569 189.369 219.925 189.8 219.653 190.52H219.572V189.455H218.349L218.349 196ZM228.954 196H230.228L230.228 189.455H228.954L228.954 196ZM229.598 188.445C230.037 188.445 230.403 188.104 230.403 187.686C230.403 187.268 230.037 186.923 229.598 186.923C229.154 186.923 228.792 187.268 228.792 187.686C228.792 188.104 229.154 188.445 229.598 188.445ZM233.217 187.273H231.942L231.942 196H233.217L233.217 187.273ZM237.752 196.132C239.179 196.132 240.189 195.429 240.479 194.364L239.273 194.146C239.043 194.764 238.489 195.08 237.765 195.08C236.674 195.08 235.941 194.372 235.907 193.111H240.56V192.659C240.56 190.294 239.145 189.369 237.662 189.369C235.838 189.369 234.637 190.759 234.637 192.77C234.637 194.803 235.821 196.132 237.752 196.132ZM235.911 192.156C235.962 191.227 236.635 190.422 237.671 190.422C238.659 190.422 239.307 191.155 239.311 192.156H235.911ZM246.879 191.053C246.614 190.034 245.817 189.369 244.403 189.369C242.924 189.369 241.876 190.149 241.876 191.308C241.876 192.237 242.438 192.855 243.665 193.128L244.773 193.371C245.404 193.511 245.698 193.793 245.698 194.202C245.698 194.709 245.157 195.105 244.322 195.105C243.559 195.105 243.069 194.777 242.915 194.134L241.684 194.321C241.897 195.48 242.86 196.132 244.33 196.132C245.911 196.132 247.006 195.293 247.006 194.108C247.006 193.183 246.418 192.612 245.217 192.335L244.177 192.097C243.457 191.926 243.146 191.683 243.15 191.24C243.146 190.737 243.691 190.379 244.415 190.379C245.208 190.379 245.575 190.818 245.724 191.257L246.879 191.053Z" fill="#EFDDD2"/>
<path d="M187.886 215.119C189.71 215.136 190.92 213.824 190.916 212.149C190.92 210.479 189.706 209.281 188.193 209.281C187.273 209.281 186.476 209.724 186.028 210.462H185.964C185.969 208.48 186.719 207.304 187.997 207.304C188.837 207.304 189.365 207.815 189.544 208.54H190.844C190.643 207.159 189.557 206.153 187.997 206.153C185.969 206.153 184.703 207.896 184.703 210.93C184.699 214.143 186.335 215.107 187.886 215.119ZM187.882 214.011C186.868 214.011 186.126 213.159 186.126 212.179C186.131 211.203 186.906 210.351 187.912 210.351C188.909 210.351 189.642 211.156 189.638 212.166C189.642 213.197 188.879 214.011 187.882 214.011ZM192.762 215L194.139 215L197.936 207.44V206.273L192.166 206.273V207.402L196.572 207.402V207.466L192.762 215ZM202.202 206.153C200.37 206.136 199.173 207.453 199.173 209.107C199.177 210.773 200.383 211.974 201.896 211.974C202.82 211.974 203.613 211.523 204.06 210.79H204.129C204.124 212.797 203.37 213.969 202.092 213.969C201.256 213.969 200.719 213.457 200.549 212.712H199.249C199.441 214.122 200.532 215.119 202.092 215.119C204.12 215.119 205.39 213.376 205.39 210.321C205.386 207.134 203.758 206.166 202.202 206.153ZM202.207 207.261C203.217 207.261 203.962 208.118 203.962 209.077C203.967 210.048 203.178 210.901 202.181 210.901C201.18 210.901 200.455 210.099 200.451 209.089C200.451 208.075 201.205 207.261 202.207 207.261ZM206.929 215L212.674 215V213.871H208.745V213.807L210.479 211.991C212.077 210.376 212.533 209.605 212.533 208.629C212.533 207.227 211.391 206.153 209.746 206.153C208.114 206.153 206.921 207.21 206.921 208.804H208.178C208.174 207.866 208.779 207.253 209.721 207.253C210.607 207.253 211.28 207.798 211.28 208.668C211.28 209.439 210.82 209.993 209.882 210.986L206.929 214.045V215ZM217.482 215H218.756L218.756 212.678L219.391 212.043L221.615 215H223.179L220.349 211.263L223 208.455H221.474L218.866 211.224H218.756V206.273H217.482L217.482 215ZM224.161 215H225.435L225.435 210.964C225.435 210.082 226.053 209.469 226.778 209.469C227.485 209.469 227.975 209.938 227.975 210.649L227.975 215H229.245L229.245 210.828C229.245 210.04 229.727 209.469 230.558 209.469C231.231 209.469 231.785 209.844 231.785 210.73L231.785 215H233.059L233.059 210.611C233.059 209.115 232.224 208.369 231.039 208.369C230.097 208.369 229.39 208.821 229.075 209.52H229.006C228.721 208.804 228.12 208.369 227.246 208.369C226.381 208.369 225.738 208.8 225.465 209.52H225.384V208.455H224.161L224.161 215ZM239.672 210.053C239.407 209.034 238.61 208.369 237.196 208.369C235.717 208.369 234.669 209.149 234.669 210.308C234.669 211.237 235.231 211.855 236.458 212.128L237.566 212.371C238.197 212.511 238.491 212.793 238.491 213.202C238.491 213.709 237.95 214.105 237.115 214.105C236.352 214.105 235.862 213.777 235.708 213.134L234.477 213.321C234.69 214.48 235.653 215.132 237.123 215.132C238.704 215.132 239.799 214.293 239.799 213.108C239.799 212.183 239.211 211.612 238.01 211.335L236.97 211.097C236.25 210.926 235.939 210.683 235.943 210.24C235.939 209.737 236.484 209.379 237.208 209.379C238.001 209.379 238.368 209.818 238.517 210.257L239.672 210.053Z" fill="#E1B398"/>
<path d="M185.278 255H192.642V253.489H187.034V249.926H192.193V248.42H187.034V244.875H192.574V243.364H185.278V255ZM197.802 255.193C199.246 255.193 200.058 254.46 200.382 253.807H200.45V255H202.109V249.205C202.109 246.665 200.109 246.159 198.723 246.159C197.143 246.159 195.689 246.795 195.121 248.386L196.717 248.75C196.967 248.131 197.604 247.534 198.746 247.534C199.842 247.534 200.405 248.108 200.405 249.097V249.136C200.405 249.756 199.768 249.744 198.2 249.926C196.547 250.119 194.854 250.551 194.854 252.534C194.854 254.25 196.143 255.193 197.802 255.193ZM198.172 253.83C197.212 253.83 196.518 253.398 196.518 252.557C196.518 251.648 197.325 251.324 198.308 251.193C198.859 251.119 200.166 250.972 200.41 250.727V251.852C200.41 252.886 199.587 253.83 198.172 253.83ZM204.852 255H206.551V249.67C206.551 248.528 207.432 247.705 208.636 247.705C208.988 247.705 209.386 247.767 209.522 247.807V246.182C209.352 246.159 209.017 246.142 208.801 246.142C207.778 246.142 206.903 246.722 206.585 247.659H206.494V246.273H204.852V255ZM216.062 246.273H214.272V244.182H212.574V246.273H211.295V247.636H212.574V252.79C212.568 254.375 213.778 255.142 215.119 255.114C215.659 255.108 216.022 255.006 216.221 254.932L215.914 253.528C215.801 253.551 215.591 253.602 215.318 253.602C214.767 253.602 214.272 253.42 214.272 252.438V247.636H216.062V246.273ZM220.308 249.818C220.308 248.426 221.188 247.631 222.399 247.631C223.569 247.631 224.268 248.375 224.268 249.653V255H225.967V249.449C225.967 247.273 224.774 246.159 222.978 246.159C221.62 246.159 220.802 246.75 220.393 247.693H220.285V243.364H218.609V255H220.308V249.818ZM235.254 248.403C234.901 247.045 233.839 246.159 231.953 246.159C229.981 246.159 228.583 247.199 228.583 248.744C228.583 249.983 229.333 250.807 230.97 251.17L232.447 251.494C233.288 251.682 233.68 252.057 233.68 252.602C233.68 253.278 232.958 253.807 231.845 253.807C230.828 253.807 230.174 253.369 229.97 252.511L228.328 252.761C228.612 254.307 229.896 255.176 231.856 255.176C233.964 255.176 235.424 254.057 235.424 252.477C235.424 251.244 234.64 250.483 233.038 250.114L231.651 249.795C230.691 249.568 230.276 249.244 230.282 248.653C230.276 247.983 231.004 247.506 231.97 247.506C233.026 247.506 233.515 248.091 233.714 248.676L235.254 248.403ZM242.486 255H244.185V249.619C244.185 248.443 245.009 247.625 245.975 247.625C246.918 247.625 247.572 248.25 247.572 249.199V255H249.265V249.438C249.265 248.386 249.907 247.625 251.015 247.625C251.913 247.625 252.651 248.125 252.651 249.307V255H254.35V249.148C254.35 247.153 253.236 246.159 251.657 246.159C250.401 246.159 249.458 246.761 249.038 247.693H248.947C248.566 246.739 247.765 246.159 246.6 246.159C245.447 246.159 244.589 246.733 244.225 247.693H244.117V246.273H242.486V255ZM260.783 255.176C263.243 255.176 264.851 253.375 264.851 250.676C264.851 247.96 263.243 246.159 260.783 246.159C258.323 246.159 256.715 247.96 256.715 250.676C256.715 253.375 258.323 255.176 260.783 255.176ZM260.789 253.75C259.181 253.75 258.431 252.347 258.431 250.67C258.431 249 259.181 247.58 260.789 247.58C262.385 247.58 263.135 249 263.135 250.67C263.135 252.347 262.385 253.75 260.789 253.75ZM270.904 255.176C273.364 255.176 274.972 253.375 274.972 250.676C274.972 247.96 273.364 246.159 270.904 246.159C268.444 246.159 266.836 247.96 266.836 250.676C266.836 253.375 268.444 255.176 270.904 255.176ZM270.909 253.75C269.302 253.75 268.552 252.347 268.552 250.67C268.552 249 269.302 247.58 270.909 247.58C272.506 247.58 273.256 249 273.256 250.67C273.256 252.347 272.506 253.75 270.909 253.75ZM279.047 249.818C279.047 248.426 279.899 247.631 281.081 247.631C282.235 247.631 282.934 248.386 282.934 249.653V255H284.632V249.449C284.632 247.29 283.445 246.159 281.661 246.159C280.348 246.159 279.49 246.767 279.087 247.693H278.979V246.273H277.348V255H279.047V249.818Z" fill="#EFDDD2"/>
<path d="M184.839 282H190.584V280.871H186.655V280.807L188.389 278.991C189.987 277.376 190.443 276.605 190.443 275.629C190.443 274.227 189.301 273.153 187.656 273.153C186.024 273.153 184.831 274.21 184.831 275.804H186.088C186.084 274.866 186.689 274.253 187.631 274.253C188.517 274.253 189.19 274.798 189.19 275.668C189.19 276.439 188.73 276.993 187.793 277.986L184.839 281.045V282ZM195.51 273.273H194.227L192.05 274.696V275.957L194.138 274.594H194.189L194.189 282H195.51L195.51 273.273ZM200.751 282.119C202.507 282.119 203.76 280.879 203.756 279.179C203.76 277.491 202.584 276.264 200.994 276.264C200.347 276.264 199.746 276.511 199.405 276.844H199.354L199.631 274.402L203.334 274.402V273.273L198.536 273.273L198.045 277.67L199.251 277.849C199.58 277.555 200.168 277.355 200.696 277.355C201.732 277.364 202.482 278.139 202.482 279.205C202.482 280.253 201.753 281.011 200.751 281.011C199.908 281.011 199.239 280.474 199.17 279.724H197.892C197.943 281.114 199.149 282.119 200.751 282.119ZM208.214 273.153C206.382 273.136 205.184 274.453 205.184 276.107C205.189 277.773 206.395 278.974 207.907 278.974C208.832 278.974 209.625 278.523 210.072 277.79H210.14C210.136 279.797 209.382 280.969 208.103 280.969C207.268 280.969 206.731 280.457 206.561 279.712H205.261C205.453 281.122 206.544 282.119 208.103 282.119C210.132 282.119 211.402 280.376 211.402 277.321C211.397 274.134 209.77 273.166 208.214 273.153ZM208.218 274.261C209.228 274.261 209.974 275.118 209.974 276.077C209.978 277.048 209.19 277.901 208.193 277.901C207.191 277.901 206.467 277.099 206.463 276.089C206.463 275.075 207.217 274.261 208.218 274.261ZM216.134 282H217.408L217.408 277.964C217.408 277.082 218.026 276.469 218.75 276.469C219.458 276.469 219.948 276.938 219.948 277.649L219.948 282H221.218L221.218 277.828C221.218 277.04 221.699 276.469 222.53 276.469C223.203 276.469 223.757 276.844 223.757 277.73L223.757 282H225.032L225.032 277.611C225.032 276.115 224.196 275.369 223.012 275.369C222.07 275.369 221.363 275.821 221.047 276.52H220.979C220.694 275.804 220.093 275.369 219.219 275.369C218.354 275.369 217.711 275.8 217.438 276.52H217.357V275.455H216.134L216.134 282ZM226.739 282H228.013L228.013 275.455H226.739L226.739 282ZM227.383 274.445C227.822 274.445 228.188 274.104 228.188 273.686C228.188 273.268 227.822 272.923 227.383 272.923C226.94 272.923 226.577 273.268 226.577 273.686C226.577 274.104 226.94 274.445 227.383 274.445ZM231.002 273.273H229.728L229.728 282H231.002L231.002 273.273ZM235.537 282.132C236.964 282.132 237.974 281.429 238.264 280.364L237.058 280.146C236.828 280.764 236.274 281.08 235.55 281.08C234.459 281.08 233.726 280.372 233.692 279.111H238.345V278.659C238.345 276.294 236.93 275.369 235.447 275.369C233.624 275.369 232.422 276.759 232.422 278.77C232.422 280.803 233.607 282.132 235.537 282.132ZM233.696 278.156C233.747 277.227 234.42 276.422 235.456 276.422C236.445 276.422 237.092 277.155 237.097 278.156H233.696ZM244.664 277.053C244.4 276.034 243.603 275.369 242.188 275.369C240.709 275.369 239.661 276.149 239.661 277.308C239.661 278.237 240.223 278.855 241.451 279.128L242.559 279.371C243.189 279.511 243.483 279.793 243.483 280.202C243.483 280.709 242.942 281.105 242.107 281.105C241.344 281.105 240.854 280.777 240.701 280.134L239.469 280.321C239.682 281.48 240.645 282.132 242.115 282.132C243.696 282.132 244.792 281.293 244.792 280.108C244.792 279.183 244.203 278.612 243.002 278.335L241.962 278.097C241.242 277.926 240.931 277.683 240.935 277.24C240.931 276.737 241.476 276.379 242.201 276.379C242.993 276.379 243.36 276.818 243.509 277.257L244.664 277.053Z" fill="#EFDDD2"/>
<path d="M187.878 301.119C189.659 301.119 190.967 300.054 190.963 298.605C190.967 297.501 190.298 296.709 189.139 296.53V296.462C190.051 296.227 190.643 295.511 190.639 294.531C190.643 293.249 189.591 292.153 187.912 292.153C186.31 292.153 185.023 293.121 184.98 294.54H186.254C186.284 293.739 187.038 293.253 187.895 293.253C188.786 293.253 189.369 293.794 189.365 294.599C189.369 295.443 188.692 295.997 187.724 295.997H186.987V297.071H187.724C188.935 297.071 189.634 297.685 189.634 298.562C189.634 299.411 188.896 299.986 187.869 299.986C186.923 299.986 186.186 299.5 186.135 298.724H184.797C184.852 300.148 186.114 301.119 187.878 301.119ZM192.391 299.295H196.528V301H197.786V299.295H198.94V298.179H197.786L197.786 292.273H196.162L192.391 298.23V299.295ZM196.537 298.179H193.771V298.111L196.469 293.841H196.537L196.537 298.179ZM200.719 301L202.096 301L205.893 293.44V292.273L200.123 292.273V293.402L204.529 293.402V293.466L200.719 301ZM210.138 301.119C211.894 301.119 213.147 299.879 213.142 298.179C213.147 296.491 211.971 295.264 210.381 295.264C209.733 295.264 209.132 295.511 208.792 295.844H208.74L209.017 293.402H212.721V292.273H207.922L207.432 296.67L208.638 296.849C208.966 296.555 209.554 296.355 210.083 296.355C211.118 296.364 211.868 297.139 211.868 298.205C211.868 299.253 211.14 300.011 210.138 300.011C209.294 300.011 208.625 299.474 208.557 298.724H207.279C207.33 300.114 208.536 301.119 210.138 301.119ZM217.892 301H219.166L219.166 298.678L219.801 298.043L222.025 301H223.589L220.76 297.263L223.41 294.455H221.885L219.277 297.224H219.166V292.273H217.892L217.892 301ZM224.571 301H225.846L225.846 296.964C225.846 296.082 226.463 295.469 227.188 295.469C227.895 295.469 228.385 295.938 228.385 296.649L228.385 301H229.655L229.655 296.828C229.655 296.04 230.137 295.469 230.968 295.469C231.641 295.469 232.195 295.844 232.195 296.73L232.195 301L233.469 301L233.469 296.611C233.469 295.115 232.634 294.369 231.449 294.369C230.507 294.369 229.8 294.821 229.485 295.52H229.417C229.131 294.804 228.53 294.369 227.657 294.369C226.792 294.369 226.148 294.8 225.875 295.52H225.794V294.455H224.571L224.571 301ZM240.082 296.053C239.817 295.034 239.021 294.369 237.606 294.369C236.127 294.369 235.079 295.149 235.079 296.308C235.079 297.237 235.641 297.855 236.869 298.128L237.977 298.371C238.607 298.511 238.901 298.793 238.901 299.202C238.901 299.709 238.36 300.105 237.525 300.105C236.762 300.105 236.272 299.777 236.119 299.134L234.887 299.321C235.1 300.48 236.063 301.132 237.533 301.132C239.114 301.132 240.21 300.293 240.21 299.108C240.21 298.183 239.621 297.612 238.42 297.335L237.38 297.097C236.66 296.926 236.349 296.683 236.353 296.24C236.349 295.737 236.894 295.379 237.619 295.379C238.411 295.379 238.778 295.818 238.927 296.257L240.082 296.053Z" fill="#E1B398"/>
<circle cx="101" cy="181" r="28" fill="#EFDDD2"/>
<circle cx="101" cy="267" r="14" fill="#D6936D"/>
<line x1="20" y1="0.5" x2="3" y2="0.5" stroke="#EFDDD2"/>
<line x1="12" y1="2.18557e-08" x2="12" y2="112" stroke="#EFDDD2"/>
<line x1="20" y1="112.5" x2="3" y2="112.5" stroke="#EFDDD2"/>
<line x1="20" y1="155.5" x2="3" y2="155.5" stroke="#EFDDD2"/>
<line x1="12" y1="155" x2="12" y2="207" stroke="#EFDDD2"/>
<line x1="20" y1="207.5" x2="3" y2="207.5" stroke="#EFDDD2"/>
<line x1="20" y1="253.5" x2="3" y2="253.5" stroke="#EFDDD2"/>
<line x1="12" y1="253" x2="12" y2="281" stroke="#EFDDD2"/>
<line x1="20" y1="281.5" x2="3" y2="281.5" stroke="#EFDDD2"/>
<rect width="14" height="23" transform="translate(5 41)" fill="#CF7E50"/>
<path d="M13.3146 48.2727H12.032L9.8544 49.696V50.9574L11.9425 49.5938H11.9936V57H13.3146V48.2727Z" fill="#EFDDD2"/>
<rect width="26" height="23" transform="translate(0 171)" fill="#CF7E50"/>
<path d="M8.43182 178.273H7.14915L4.97159 179.696V180.957L7.05966 179.594H7.1108V187H8.43182V178.273ZM14.1335 177.864H12.9957L10.1832 188.312H11.321L14.1335 177.864ZM15.1989 187H20.9432V185.871H17.0142V185.807L18.7486 183.991C20.3466 182.376 20.8026 181.605 20.8026 180.629C20.8026 179.227 19.6605 178.153 18.0156 178.153C16.3835 178.153 15.1903 179.21 15.1903 180.804H16.4474C16.4432 179.866 17.0483 179.253 17.9901 179.253C18.8764 179.253 19.5497 179.798 19.5497 180.668C19.5497 181.439 19.0895 181.993 18.152 182.986L15.1989 186.045V187Z" fill="#EFDDD2"/>
<rect width="26" height="23" transform="translate(1 256)" fill="#CF7E50"/>
<path d="M9.18572 263.273H7.90305L5.7255 264.696V265.957L7.81357 264.594H7.8647V272H9.18572V263.273ZM14.8874 262.864H13.7496L10.9371 273.312H12.0749L14.8874 262.864ZM15.7695 270.295H19.9073V272H21.1644V270.295H22.3192V269.179H21.1644V263.273H19.5408L15.7695 269.23V270.295ZM19.9158 269.179H17.1502V269.111L19.8477 264.841H19.9158V269.179Z" fill="#EFDDD2"/>
</svg>
