<svg width="287" height="301" viewBox="0 0 287 301" fill="none" xmlns="http://www.w3.org/2000/svg">
<circle cx="102" cy="56" r="56" fill="#995C38"/>
<path d="M186.278 37H193.642V35.4886H188.034V31.9261H193.193V30.4205H188.034V26.875H193.574V25.3636H186.278V37ZM198.802 37.1932C200.246 37.1932 201.058 36.4602 201.382 35.8068H201.45V37H203.109V31.2045C203.109 28.6648 201.109 28.1591 199.723 28.1591C198.143 28.1591 196.689 28.7955 196.121 30.3864L197.717 30.75C197.967 30.1307 198.604 29.5341 199.746 29.5341C200.842 29.5341 201.405 30.108 201.405 31.0966V31.1364C201.405 31.7557 200.768 31.7443 199.2 31.9261C197.547 32.1193 195.854 32.5511 195.854 34.5341C195.854 36.25 197.143 37.1932 198.802 37.1932ZM199.172 35.8295C198.212 35.8295 197.518 35.3977 197.518 34.5568C197.518 33.6477 198.325 33.3239 199.308 33.1932C199.859 33.1193 201.166 32.9716 201.41 32.7273V33.8523C201.41 34.8864 200.587 35.8295 199.172 35.8295ZM205.852 37H207.551V31.6705C207.551 30.5284 208.432 29.7045 209.636 29.7045C209.988 29.7045 210.386 29.767 210.522 29.8068V28.1818C210.352 28.1591 210.017 28.142 209.801 28.142C208.778 28.142 207.903 28.7216 207.585 29.6591H207.494V28.2727H205.852V37ZM217.062 28.2727H215.272V26.1818H213.574V28.2727H212.295V29.6364H213.574V34.7898C213.568 36.375 214.778 37.142 216.119 37.1136C216.659 37.108 217.022 37.0057 217.221 36.9318L216.914 35.5284C216.801 35.5511 216.591 35.6023 216.318 35.6023C215.767 35.6023 215.272 35.4205 215.272 34.4375V29.6364H217.062V28.2727ZM221.308 31.8182C221.308 30.4261 222.188 29.6307 223.399 29.6307C224.569 29.6307 225.268 30.375 225.268 31.6534V37H226.967V31.4489C226.967 29.2727 225.774 28.1591 223.978 28.1591C222.62 28.1591 221.802 28.75 221.393 29.6932H221.285V25.3636H219.609V37H221.308V31.8182Z" fill="#252321"/>
<path d="M186.134 64H187.51L191.307 56.4403V55.2727L185.537 55.2727V56.402L189.943 56.402V56.4659L186.134 64ZM195.574 55.1534C193.741 55.1364 192.544 56.4531 192.544 58.1065C192.548 59.7727 193.754 60.9744 195.267 60.9744C196.191 60.9744 196.984 60.5227 197.431 59.7898H197.5C197.495 61.7969 196.741 62.9688 195.463 62.9688C194.627 62.9688 194.091 62.4574 193.92 61.7116H192.62C192.812 63.1222 193.903 64.1193 195.463 64.1193C197.491 64.1193 198.761 62.3764 198.761 59.321C198.757 56.1335 197.129 55.1662 195.574 55.1534ZM195.578 56.2614C196.588 56.2614 197.333 57.1179 197.333 58.0767C197.338 59.0483 196.549 59.9006 195.552 59.9006C194.551 59.9006 193.826 59.0994 193.822 58.0895C193.822 57.0753 194.576 56.2614 195.578 56.2614ZM200.3 64H206.045V62.8707L202.116 62.8707V62.8068L203.85 60.9915C205.448 59.3764 205.904 58.6051 205.904 57.6293C205.904 56.2273 204.762 55.1534 203.117 55.1534C201.485 55.1534 200.292 56.2102 200.292 57.804H201.549C201.545 56.8665 202.15 56.2528 203.092 56.2528C203.978 56.2528 204.651 56.7983 204.651 57.6676C204.651 58.4389 204.191 58.9929 203.254 59.9858L200.3 63.0455V64ZM210.707 64.1193C212.531 64.1364 213.741 62.8239 213.737 61.1491C213.741 59.4787 212.526 58.2813 211.013 58.2813C210.093 58.2813 209.296 58.7244 208.849 59.4616H208.785C208.789 57.4801 209.539 56.304 210.817 56.304C211.657 56.304 212.185 56.8153 212.364 57.5398H213.664C213.464 56.1591 212.377 55.1534 210.817 55.1534C208.789 55.1534 207.523 56.8963 207.523 59.9304C207.519 63.1435 209.156 64.1065 210.707 64.1193ZM210.702 63.0114C209.688 63.0114 208.947 62.1591 208.947 61.179C208.951 60.2031 209.727 59.3509 210.732 59.3509C211.729 59.3509 212.462 60.1563 212.458 61.1662C212.462 62.1974 211.7 63.0114 210.702 63.0114ZM218.482 64H219.756L219.756 59.9645C219.756 59.0824 220.374 58.4688 221.098 58.4688C221.805 58.4688 222.295 58.9375 222.295 59.6491L222.295 64L223.565 64L223.565 59.8281C223.565 59.0398 224.047 58.4688 224.878 58.4688C225.551 58.4688 226.105 58.8438 226.105 59.7301L226.105 64H227.379L227.379 59.6108C227.379 58.1151 226.544 57.3693 225.359 57.3693C224.418 57.3693 223.71 57.821 223.395 58.5199H223.327C223.041 57.804 222.44 57.3693 221.567 57.3693C220.702 57.3693 220.058 57.7997 219.786 58.5199H219.705V57.4545H218.482L218.482 64ZM229.087 64L230.361 64L230.361 57.4545H229.087L229.087 64ZM229.73 56.4446C230.169 56.4446 230.536 56.1037 230.536 55.6861C230.536 55.2685 230.169 54.9233 229.73 54.9233C229.287 54.9233 228.925 55.2685 228.925 55.6861C228.925 56.1037 229.287 56.4446 229.73 56.4446ZM233.349 55.2727L232.075 55.2727L232.075 64H233.349L233.349 55.2727ZM237.885 64.1321C239.312 64.1321 240.322 63.429 240.612 62.3636L239.406 62.1463C239.176 62.7642 238.622 63.0795 237.897 63.0795C236.806 63.0795 236.074 62.3722 236.039 61.1108L240.693 61.1108V60.6591C240.693 58.294 239.278 57.3693 237.795 57.3693C235.971 57.3693 234.77 58.7585 234.77 60.7699C234.77 62.8026 235.954 64.1321 237.885 64.1321ZM236.044 60.1563C236.095 59.2273 236.768 58.4219 237.804 58.4219C238.792 58.4219 239.44 59.1548 239.444 60.1563L236.044 60.1563ZM247.011 59.0526C246.747 58.0341 245.95 57.3693 244.536 57.3693C243.057 57.3693 242.009 58.1491 242.009 59.3082C242.009 60.2372 242.571 60.8551 243.798 61.1278L244.906 61.3707C245.537 61.5114 245.831 61.7926 245.831 62.2017C245.831 62.7088 245.29 63.1051 244.455 63.1051C243.692 63.1051 243.202 62.777 243.048 62.1335L241.817 62.321C242.03 63.4801 242.993 64.1321 244.463 64.1321C246.044 64.1321 247.139 63.2926 247.139 62.108C247.139 61.1832 246.551 60.6122 245.349 60.3352L244.31 60.0966C243.589 59.9261 243.278 59.6832 243.283 59.2401C243.278 58.7372 243.824 58.3793 244.548 58.3793C245.341 58.3793 245.707 58.8182 245.857 59.2571L247.011 59.0526Z" fill="#252321"/>
<path d="M189.151 74.2727H187.868L185.69 75.696V76.9574L187.778 75.5938H187.83L187.83 83H189.151L189.151 74.2727ZM191.511 83L197.256 83V81.8707L193.327 81.8707V81.8068L195.061 79.9915C196.659 78.3764 197.115 77.6051 197.115 76.6293C197.115 75.2273 195.973 74.1534 194.328 74.1534C192.696 74.1534 191.503 75.2102 191.503 76.804H192.76C192.756 75.8665 193.361 75.2528 194.303 75.2528C195.189 75.2528 195.862 75.7983 195.862 76.6676C195.862 77.4389 195.402 77.9929 194.464 78.9858L191.511 82.0455V83ZM199.165 83H200.541L204.338 75.4403V74.2727H198.568V75.402H202.974V75.4659L199.165 83ZM208.583 83.1193C210.339 83.1193 211.592 81.8793 211.588 80.179C211.592 78.4915 210.416 77.2642 208.826 77.2642C208.179 77.2642 207.578 77.5114 207.237 77.8438H207.186L207.463 75.402H211.166V74.2727H206.368L205.877 78.6705L207.083 78.8494C207.412 78.5554 208 78.3551 208.528 78.3551C209.564 78.3636 210.314 79.1392 210.314 80.2045C210.314 81.2528 209.585 82.0114 208.583 82.0114C207.74 82.0114 207.071 81.4744 207.002 80.7244L205.724 80.7244C205.775 82.1136 206.981 83.1193 208.583 83.1193ZM216.191 83.1193C218.015 83.1364 219.225 81.8239 219.221 80.1491C219.225 78.4787 218.011 77.2813 216.498 77.2813C215.577 77.2813 214.781 77.7244 214.333 78.4616H214.269C214.273 76.4801 215.023 75.304 216.302 75.304C217.141 75.304 217.67 75.8153 217.849 76.5398H219.148C218.948 75.1591 217.862 74.1534 216.302 74.1534C214.273 74.1534 213.008 75.8963 213.008 78.9304C213.004 82.1435 214.64 83.1065 216.191 83.1193ZM216.187 82.0114C215.173 82.0114 214.431 81.1591 214.431 80.179C214.435 79.2031 215.211 78.3509 216.217 78.3509C217.214 78.3509 217.947 79.1563 217.942 80.1662C217.947 81.1974 217.184 82.0114 216.187 82.0114ZM223.966 83H225.24L225.24 80.6776L225.875 80.0426L228.099 83H229.663L226.834 79.2628L229.484 76.4545H227.959L225.351 79.2244H225.24V74.2727H223.966L223.966 83ZM230.646 83H231.92L231.92 78.9645C231.92 78.0824 232.538 77.4688 233.262 77.4688C233.969 77.4688 234.46 77.9375 234.46 78.6491L234.46 83H235.729L235.729 78.8281C235.729 78.0398 236.211 77.4688 237.042 77.4688C237.715 77.4688 238.269 77.8438 238.269 78.7301L238.269 83L239.543 83L239.543 78.6108C239.543 77.1151 238.708 76.3693 237.523 76.3693C236.582 76.3693 235.874 76.821 235.559 77.5199H235.491C235.205 76.804 234.604 76.3693 233.731 76.3693C232.866 76.3693 232.222 76.7997 231.95 77.5199H231.869V76.4545H230.646L230.646 83ZM246.156 78.0526C245.892 77.0341 245.095 76.3693 243.68 76.3693C242.201 76.3693 241.153 77.1491 241.153 78.3082C241.153 79.2372 241.716 79.8551 242.943 80.1278L244.051 80.3707C244.681 80.5114 244.975 80.7926 244.975 81.2017C244.975 81.7088 244.434 82.1051 243.599 82.1051C242.836 82.1051 242.346 81.777 242.193 81.1335L240.961 81.321C241.174 82.4801 242.137 83.1321 243.608 83.1321C245.189 83.1321 246.284 82.2926 246.284 81.108C246.284 80.1832 245.696 79.6122 244.494 79.3352L243.454 79.0966C242.734 78.9261 242.423 78.6832 242.427 78.2401C242.423 77.7372 242.968 77.3793 243.693 77.3793C244.485 77.3793 244.852 77.8182 245.001 78.2571L246.156 78.0526Z" fill="#68432E"/>
<path d="M186.278 154.364V166H187.949V157.574H188.057L191.489 165.983H192.875L196.307 157.58H196.415V166H198.085V154.364H195.955L192.25 163.409H192.114L188.409 154.364H186.278ZM203.521 166.193C204.964 166.193 205.777 165.46 206.101 164.807H206.169V166H207.828V160.205C207.828 157.665 205.828 157.159 204.442 157.159C202.862 157.159 201.408 157.795 200.839 159.386L202.436 159.75C202.686 159.131 203.322 158.534 204.464 158.534C205.561 158.534 206.123 159.108 206.123 160.097V160.136C206.123 160.756 205.487 160.744 203.919 160.926C202.266 161.119 200.572 161.551 200.572 163.534C200.572 165.25 201.862 166.193 203.521 166.193ZM203.891 164.83C202.93 164.83 202.237 164.398 202.237 163.557C202.237 162.648 203.044 162.324 204.027 162.193C204.578 162.119 205.885 161.972 206.129 161.727V162.852C206.129 163.886 205.305 164.83 203.891 164.83ZM210.571 166H212.27V160.67C212.27 159.528 213.15 158.705 214.355 158.705C214.707 158.705 215.105 158.767 215.241 158.807V157.182C215.071 157.159 214.736 157.142 214.52 157.142C213.497 157.142 212.622 157.722 212.304 158.659H212.213V157.273H210.571V166ZM223.731 159.403C223.379 158.045 222.316 157.159 220.43 157.159C218.458 157.159 217.061 158.199 217.061 159.744C217.061 160.983 217.811 161.807 219.447 162.17L220.924 162.494C221.765 162.682 222.157 163.057 222.157 163.602C222.157 164.278 221.436 164.807 220.322 164.807C219.305 164.807 218.652 164.369 218.447 163.511L216.805 163.761C217.089 165.307 218.373 166.176 220.333 166.176C222.441 166.176 223.902 165.057 223.902 163.477C223.902 162.244 223.118 161.483 221.515 161.114L220.129 160.795C219.169 160.568 218.754 160.244 218.76 159.653C218.754 158.983 219.481 158.506 220.447 158.506C221.504 158.506 221.993 159.091 222.191 159.676L223.731 159.403Z" fill="#252321"/>
<path d="M185.656 191.295H189.794V193H191.051V191.295H192.206V190.179H191.051L191.051 184.273H189.428L185.656 190.23V191.295ZM189.803 190.179H187.037V190.111L189.734 185.841H189.803L189.803 190.179ZM193.691 193L199.435 193V191.871H195.506V191.807L197.241 189.991C198.839 188.376 199.295 187.605 199.295 186.629C199.295 185.227 198.153 184.153 196.508 184.153C194.876 184.153 193.683 185.21 193.683 186.804H194.94C194.935 185.866 195.54 185.253 196.482 185.253C197.369 185.253 198.042 185.798 198.042 186.668C198.042 187.439 197.582 187.993 196.644 188.986L193.691 192.045V193ZM201.05 193H206.795V191.871H202.866V191.807L204.6 189.991C206.198 188.376 206.654 187.605 206.654 186.629C206.654 185.227 205.512 184.153 203.867 184.153C202.235 184.153 201.042 185.21 201.042 186.804H202.299C202.295 185.866 202.9 185.253 203.842 185.253C204.728 185.253 205.401 185.798 205.401 186.668C205.401 187.439 204.941 187.993 204.004 188.986L201.05 192.045V193ZM211.448 193.145C213.464 193.145 214.644 191.5 214.644 188.641C214.644 185.803 213.447 184.153 211.448 184.153C209.445 184.153 208.252 185.798 208.248 188.641C208.248 191.496 209.428 193.141 211.448 193.145ZM211.448 192.007C210.268 192.007 209.556 190.822 209.556 188.641C209.56 186.467 210.272 185.27 211.448 185.27C212.62 185.27 213.336 186.467 213.336 188.641C213.336 190.822 212.624 192.007 211.448 192.007ZM219.349 193H220.623L220.623 188.964C220.623 188.082 221.241 187.469 221.965 187.469C222.673 187.469 223.163 187.938 223.163 188.649L223.163 193H224.433L224.433 188.828C224.433 188.04 224.914 187.469 225.745 187.469C226.418 187.469 226.972 187.844 226.972 188.73L226.972 193H228.246L228.246 188.611C228.246 187.115 227.411 186.369 226.227 186.369C225.285 186.369 224.577 186.821 224.262 187.52H224.194C223.908 186.804 223.308 186.369 222.434 186.369C221.569 186.369 220.925 186.8 220.653 187.52H220.572V186.455H219.349L219.349 193ZM229.954 193H231.228L231.228 186.455H229.954L229.954 193ZM230.598 185.445C231.037 185.445 231.403 185.104 231.403 184.686C231.403 184.268 231.037 183.923 230.598 183.923C230.154 183.923 229.792 184.268 229.792 184.686C229.792 185.104 230.154 185.445 230.598 185.445ZM234.217 184.273H232.942L232.942 193H234.217L234.217 184.273ZM238.752 193.132C240.179 193.132 241.189 192.429 241.479 191.364L240.273 191.146C240.043 191.764 239.489 192.08 238.765 192.08C237.674 192.08 236.941 191.372 236.907 190.111H241.56V189.659C241.56 187.294 240.145 186.369 238.662 186.369C236.838 186.369 235.637 187.759 235.637 189.77C235.637 191.803 236.821 193.132 238.752 193.132ZM236.911 189.156C236.962 188.227 237.635 187.422 238.671 187.422C239.659 187.422 240.307 188.155 240.311 189.156H236.911ZM247.879 188.053C247.614 187.034 246.817 186.369 245.403 186.369C243.924 186.369 242.876 187.149 242.876 188.308C242.876 189.237 243.438 189.855 244.665 190.128L245.773 190.371C246.404 190.511 246.698 190.793 246.698 191.202C246.698 191.709 246.157 192.105 245.322 192.105C244.559 192.105 244.069 191.777 243.915 191.134L242.684 191.321C242.897 192.48 243.86 193.132 245.33 193.132C246.911 193.132 248.006 192.293 248.006 191.108C248.006 190.183 247.418 189.612 246.217 189.335L245.177 189.097C244.457 188.926 244.146 188.683 244.15 188.24C244.146 187.737 244.691 187.379 245.415 187.379C246.208 187.379 246.575 187.818 246.724 188.257L247.879 188.053Z" fill="#252321"/>
<path d="M188.886 212.119C190.71 212.136 191.92 210.824 191.916 209.149C191.92 207.479 190.706 206.281 189.193 206.281C188.273 206.281 187.476 206.724 187.028 207.462H186.964C186.969 205.48 187.719 204.304 188.997 204.304C189.837 204.304 190.365 204.815 190.544 205.54H191.844C191.643 204.159 190.557 203.153 188.997 203.153C186.969 203.153 185.703 204.896 185.703 207.93C185.699 211.143 187.335 212.107 188.886 212.119ZM188.882 211.011C187.868 211.011 187.126 210.159 187.126 209.179C187.131 208.203 187.906 207.351 188.912 207.351C189.909 207.351 190.642 208.156 190.638 209.166C190.642 210.197 189.879 211.011 188.882 211.011ZM193.762 212L195.139 212L198.936 204.44V203.273L193.166 203.273V204.402L197.572 204.402V204.466L193.762 212ZM203.202 203.153C201.37 203.136 200.173 204.453 200.173 206.107C200.177 207.773 201.383 208.974 202.896 208.974C203.82 208.974 204.613 208.523 205.06 207.79H205.129C205.124 209.797 204.37 210.969 203.092 210.969C202.256 210.969 201.719 210.457 201.549 209.712H200.249C200.441 211.122 201.532 212.119 203.092 212.119C205.12 212.119 206.39 210.376 206.39 207.321C206.386 204.134 204.758 203.166 203.202 203.153ZM203.207 204.261C204.217 204.261 204.962 205.118 204.962 206.077C204.967 207.048 204.178 207.901 203.181 207.901C202.18 207.901 201.455 207.099 201.451 206.089C201.451 205.075 202.205 204.261 203.207 204.261ZM207.929 212L213.674 212V210.871H209.745V210.807L211.479 208.991C213.077 207.376 213.533 206.605 213.533 205.629C213.533 204.227 212.391 203.153 210.746 203.153C209.114 203.153 207.921 204.21 207.921 205.804H209.178C209.174 204.866 209.779 204.253 210.721 204.253C211.607 204.253 212.28 204.798 212.28 205.668C212.28 206.439 211.82 206.993 210.882 207.986L207.929 211.045V212ZM218.482 212H219.756L219.756 209.678L220.391 209.043L222.615 212H224.179L221.349 208.263L224 205.455H222.474L219.866 208.224H219.756V203.273H218.482L218.482 212ZM225.161 212H226.435L226.435 207.964C226.435 207.082 227.053 206.469 227.778 206.469C228.485 206.469 228.975 206.938 228.975 207.649L228.975 212H230.245L230.245 207.828C230.245 207.04 230.727 206.469 231.558 206.469C232.231 206.469 232.785 206.844 232.785 207.73L232.785 212H234.059L234.059 207.611C234.059 206.115 233.224 205.369 232.039 205.369C231.097 205.369 230.39 205.821 230.075 206.52H230.006C229.721 205.804 229.12 205.369 228.246 205.369C227.381 205.369 226.738 205.8 226.465 206.52H226.384V205.455H225.161L225.161 212ZM240.672 207.053C240.407 206.034 239.61 205.369 238.196 205.369C236.717 205.369 235.669 206.149 235.669 207.308C235.669 208.237 236.231 208.855 237.458 209.128L238.566 209.371C239.197 209.511 239.491 209.793 239.491 210.202C239.491 210.709 238.95 211.105 238.115 211.105C237.352 211.105 236.862 210.777 236.708 210.134L235.477 210.321C235.69 211.48 236.653 212.132 238.123 212.132C239.704 212.132 240.799 211.293 240.799 210.108C240.799 209.183 240.211 208.612 239.01 208.335L237.97 208.097C237.25 207.926 236.939 207.683 236.943 207.24C236.939 206.737 237.484 206.379 238.208 206.379C239.001 206.379 239.368 206.818 239.517 207.257L240.672 207.053Z" fill="#68432E"/>
<path d="M186.278 252H193.642V250.489H188.034V246.926H193.193V245.42H188.034V241.875H193.574V240.364H186.278V252ZM198.802 252.193C200.246 252.193 201.058 251.46 201.382 250.807H201.45V252H203.109V246.205C203.109 243.665 201.109 243.159 199.723 243.159C198.143 243.159 196.689 243.795 196.121 245.386L197.717 245.75C197.967 245.131 198.604 244.534 199.746 244.534C200.842 244.534 201.405 245.108 201.405 246.097V246.136C201.405 246.756 200.768 246.744 199.2 246.926C197.547 247.119 195.854 247.551 195.854 249.534C195.854 251.25 197.143 252.193 198.802 252.193ZM199.172 250.83C198.212 250.83 197.518 250.398 197.518 249.557C197.518 248.648 198.325 248.324 199.308 248.193C199.859 248.119 201.166 247.972 201.41 247.727V248.852C201.41 249.886 200.587 250.83 199.172 250.83ZM205.852 252H207.551V246.67C207.551 245.528 208.432 244.705 209.636 244.705C209.988 244.705 210.386 244.767 210.522 244.807V243.182C210.352 243.159 210.017 243.142 209.801 243.142C208.778 243.142 207.903 243.722 207.585 244.659H207.494V243.273H205.852V252ZM217.062 243.273H215.272V241.182H213.574V243.273H212.295V244.636H213.574V249.79C213.568 251.375 214.778 252.142 216.119 252.114C216.659 252.108 217.022 252.006 217.221 251.932L216.914 250.528C216.801 250.551 216.591 250.602 216.318 250.602C215.767 250.602 215.272 250.42 215.272 249.438V244.636H217.062V243.273ZM221.308 246.818C221.308 245.426 222.188 244.631 223.399 244.631C224.569 244.631 225.268 245.375 225.268 246.653V252H226.967V246.449C226.967 244.273 225.774 243.159 223.978 243.159C222.62 243.159 221.802 243.75 221.393 244.693H221.285V240.364H219.609V252H221.308V246.818ZM236.254 245.403C235.901 244.045 234.839 243.159 232.953 243.159C230.981 243.159 229.583 244.199 229.583 245.744C229.583 246.983 230.333 247.807 231.97 248.17L233.447 248.494C234.288 248.682 234.68 249.057 234.68 249.602C234.68 250.278 233.958 250.807 232.845 250.807C231.828 250.807 231.174 250.369 230.97 249.511L229.328 249.761C229.612 251.307 230.896 252.176 232.856 252.176C234.964 252.176 236.424 251.057 236.424 249.477C236.424 248.244 235.64 247.483 234.038 247.114L232.651 246.795C231.691 246.568 231.276 246.244 231.282 245.653C231.276 244.983 232.004 244.506 232.97 244.506C234.026 244.506 234.515 245.091 234.714 245.676L236.254 245.403ZM243.486 252H245.185V246.619C245.185 245.443 246.009 244.625 246.975 244.625C247.918 244.625 248.572 245.25 248.572 246.199V252H250.265V246.438C250.265 245.386 250.907 244.625 252.015 244.625C252.913 244.625 253.651 245.125 253.651 246.307V252H255.35V246.148C255.35 244.153 254.236 243.159 252.657 243.159C251.401 243.159 250.458 243.761 250.038 244.693H249.947C249.566 243.739 248.765 243.159 247.6 243.159C246.447 243.159 245.589 243.733 245.225 244.693H245.117V243.273H243.486V252ZM261.783 252.176C264.243 252.176 265.851 250.375 265.851 247.676C265.851 244.96 264.243 243.159 261.783 243.159C259.323 243.159 257.715 244.96 257.715 247.676C257.715 250.375 259.323 252.176 261.783 252.176ZM261.789 250.75C260.181 250.75 259.431 249.347 259.431 247.67C259.431 246 260.181 244.58 261.789 244.58C263.385 244.58 264.135 246 264.135 247.67C264.135 249.347 263.385 250.75 261.789 250.75ZM271.904 252.176C274.364 252.176 275.972 250.375 275.972 247.676C275.972 244.96 274.364 243.159 271.904 243.159C269.444 243.159 267.836 244.96 267.836 247.676C267.836 250.375 269.444 252.176 271.904 252.176ZM271.909 250.75C270.302 250.75 269.552 249.347 269.552 247.67C269.552 246 270.302 244.58 271.909 244.58C273.506 244.58 274.256 246 274.256 247.67C274.256 249.347 273.506 250.75 271.909 250.75ZM280.047 246.818C280.047 245.426 280.899 244.631 282.081 244.631C283.235 244.631 283.934 245.386 283.934 246.653V252H285.632V246.449C285.632 244.29 284.445 243.159 282.661 243.159C281.348 243.159 280.49 243.767 280.087 244.693H279.979V243.273H278.348V252H280.047V246.818Z" fill="#252321"/>
<path d="M185.839 279H191.584V277.871H187.655V277.807L189.389 275.991C190.987 274.376 191.443 273.605 191.443 272.629C191.443 271.227 190.301 270.153 188.656 270.153C187.024 270.153 185.831 271.21 185.831 272.804H187.088C187.084 271.866 187.689 271.253 188.631 271.253C189.517 271.253 190.19 271.798 190.19 272.668C190.19 273.439 189.73 273.993 188.793 274.986L185.839 278.045V279ZM196.51 270.273H195.227L193.05 271.696V272.957L195.138 271.594H195.189L195.189 279H196.51L196.51 270.273ZM201.751 279.119C203.507 279.119 204.76 277.879 204.756 276.179C204.76 274.491 203.584 273.264 201.994 273.264C201.347 273.264 200.746 273.511 200.405 273.844H200.354L200.631 271.402L204.334 271.402V270.273L199.536 270.273L199.045 274.67L200.251 274.849C200.58 274.555 201.168 274.355 201.696 274.355C202.732 274.364 203.482 275.139 203.482 276.205C203.482 277.253 202.753 278.011 201.751 278.011C200.908 278.011 200.239 277.474 200.17 276.724H198.892C198.943 278.114 200.149 279.119 201.751 279.119ZM209.214 270.153C207.382 270.136 206.184 271.453 206.184 273.107C206.189 274.773 207.395 275.974 208.907 275.974C209.832 275.974 210.625 275.523 211.072 274.79H211.14C211.136 276.797 210.382 277.969 209.103 277.969C208.268 277.969 207.731 277.457 207.561 276.712H206.261C206.453 278.122 207.544 279.119 209.103 279.119C211.132 279.119 212.402 277.376 212.402 274.321C212.397 271.134 210.77 270.166 209.214 270.153ZM209.218 271.261C210.228 271.261 210.974 272.118 210.974 273.077C210.978 274.048 210.19 274.901 209.193 274.901C208.191 274.901 207.467 274.099 207.463 273.089C207.463 272.075 208.217 271.261 209.218 271.261ZM217.134 279H218.408L218.408 274.964C218.408 274.082 219.026 273.469 219.75 273.469C220.458 273.469 220.948 273.938 220.948 274.649L220.948 279H222.218L222.218 274.828C222.218 274.04 222.699 273.469 223.53 273.469C224.203 273.469 224.757 273.844 224.757 274.73L224.757 279H226.032L226.032 274.611C226.032 273.115 225.196 272.369 224.012 272.369C223.07 272.369 222.363 272.821 222.047 273.52H221.979C221.694 272.804 221.093 272.369 220.219 272.369C219.354 272.369 218.711 272.8 218.438 273.52H218.357V272.455H217.134L217.134 279ZM227.739 279H229.013L229.013 272.455H227.739L227.739 279ZM228.383 271.445C228.822 271.445 229.188 271.104 229.188 270.686C229.188 270.268 228.822 269.923 228.383 269.923C227.94 269.923 227.577 270.268 227.577 270.686C227.577 271.104 227.94 271.445 228.383 271.445ZM232.002 270.273H230.728L230.728 279H232.002L232.002 270.273ZM236.537 279.132C237.964 279.132 238.974 278.429 239.264 277.364L238.058 277.146C237.828 277.764 237.274 278.08 236.55 278.08C235.459 278.08 234.726 277.372 234.692 276.111H239.345V275.659C239.345 273.294 237.93 272.369 236.447 272.369C234.624 272.369 233.422 273.759 233.422 275.77C233.422 277.803 234.607 279.132 236.537 279.132ZM234.696 275.156C234.747 274.227 235.42 273.422 236.456 273.422C237.445 273.422 238.092 274.155 238.097 275.156H234.696ZM245.664 274.053C245.4 273.034 244.603 272.369 243.188 272.369C241.709 272.369 240.661 273.149 240.661 274.308C240.661 275.237 241.223 275.855 242.451 276.128L243.559 276.371C244.189 276.511 244.483 276.793 244.483 277.202C244.483 277.709 243.942 278.105 243.107 278.105C242.344 278.105 241.854 277.777 241.701 277.134L240.469 277.321C240.682 278.48 241.645 279.132 243.115 279.132C244.696 279.132 245.792 278.293 245.792 277.108C245.792 276.183 245.203 275.612 244.002 275.335L242.962 275.097C242.242 274.926 241.931 274.683 241.935 274.24C241.931 273.737 242.476 273.379 243.201 273.379C243.993 273.379 244.36 273.818 244.509 274.257L245.664 274.053Z" fill="#252321"/>
<path d="M188.878 298.119C190.659 298.119 191.967 297.054 191.963 295.605C191.967 294.501 191.298 293.709 190.139 293.53V293.462C191.051 293.227 191.643 292.511 191.639 291.531C191.643 290.249 190.591 289.153 188.912 289.153C187.31 289.153 186.023 290.121 185.98 291.54H187.254C187.284 290.739 188.038 290.253 188.895 290.253C189.786 290.253 190.369 290.794 190.365 291.599C190.369 292.443 189.692 292.997 188.724 292.997H187.987V294.071H188.724C189.935 294.071 190.634 294.685 190.634 295.562C190.634 296.411 189.896 296.986 188.869 296.986C187.923 296.986 187.186 296.5 187.135 295.724H185.797C185.852 297.148 187.114 298.119 188.878 298.119ZM193.391 296.295H197.528V298H198.786V296.295H199.94V295.179H198.786L198.786 289.273H197.162L193.391 295.23V296.295ZM197.537 295.179H194.771V295.111L197.469 290.841H197.537L197.537 295.179ZM201.719 298L203.096 298L206.893 290.44V289.273L201.123 289.273V290.402L205.529 290.402V290.466L201.719 298ZM211.138 298.119C212.894 298.119 214.147 296.879 214.142 295.179C214.147 293.491 212.971 292.264 211.381 292.264C210.733 292.264 210.132 292.511 209.792 292.844H209.74L210.017 290.402H213.721V289.273H208.922L208.432 293.67L209.638 293.849C209.966 293.555 210.554 293.355 211.083 293.355C212.118 293.364 212.868 294.139 212.868 295.205C212.868 296.253 212.14 297.011 211.138 297.011C210.294 297.011 209.625 296.474 209.557 295.724H208.279C208.33 297.114 209.536 298.119 211.138 298.119ZM218.892 298H220.166L220.166 295.678L220.801 295.043L223.025 298H224.589L221.76 294.263L224.41 291.455H222.885L220.277 294.224H220.166V289.273H218.892L218.892 298ZM225.571 298H226.846L226.846 293.964C226.846 293.082 227.463 292.469 228.188 292.469C228.895 292.469 229.385 292.938 229.385 293.649L229.385 298H230.655L230.655 293.828C230.655 293.04 231.137 292.469 231.968 292.469C232.641 292.469 233.195 292.844 233.195 293.73L233.195 298L234.469 298L234.469 293.611C234.469 292.115 233.634 291.369 232.449 291.369C231.507 291.369 230.8 291.821 230.485 292.52H230.417C230.131 291.804 229.53 291.369 228.657 291.369C227.792 291.369 227.148 291.8 226.875 292.52H226.794V291.455H225.571L225.571 298ZM241.082 293.053C240.817 292.034 240.021 291.369 238.606 291.369C237.127 291.369 236.079 292.149 236.079 293.308C236.079 294.237 236.641 294.855 237.869 295.128L238.977 295.371C239.607 295.511 239.901 295.793 239.901 296.202C239.901 296.709 239.36 297.105 238.525 297.105C237.762 297.105 237.272 296.777 237.119 296.134L235.887 296.321C236.1 297.48 237.063 298.132 238.533 298.132C240.114 298.132 241.21 297.293 241.21 296.108C241.21 295.183 240.621 294.612 239.42 294.335L238.38 294.097C237.66 293.926 237.349 293.683 237.353 293.24C237.349 292.737 237.894 292.379 238.619 292.379C239.411 292.379 239.778 292.818 239.927 293.257L241.082 293.053Z" fill="#68432E"/>
<circle cx="102" cy="181" r="28" fill="#252321"/>
<circle cx="102" cy="267" r="14" fill="#995C38"/>
<line x1="21" y1="0.5" x2="4" y2="0.5" stroke="#252321"/>
<line x1="13" y1="2.18557e-08" x2="13" y2="112" stroke="#252321"/>
<line x1="21" y1="112.5" x2="4" y2="112.5" stroke="#252321"/>
<line x1="21" y1="155.5" x2="4" y2="155.5" stroke="#252321"/>
<line x1="13" y1="155" x2="13" y2="207" stroke="#252321"/>
<line x1="21" y1="207.5" x2="4" y2="207.5" stroke="#252321"/>
<line x1="21" y1="253.5" x2="4" y2="253.5" stroke="#252321"/>
<line x1="13" y1="253" x2="13" y2="281" stroke="#252321"/>
<line x1="21" y1="281.5" x2="4" y2="281.5" stroke="#252321"/>
<rect width="14" height="23" transform="translate(5 41)" fill="#BA6C3F"/>
<path d="M13.3146 48.2727H12.032L9.8544 49.696V50.9574L11.9425 49.5938H11.9936V57H13.3146V48.2727Z" fill="#252321"/>
<rect width="26" height="23" transform="translate(0 171)" fill="#BA6C3F"/>
<path d="M8.43182 178.273H7.14915L4.97159 179.696V180.957L7.05966 179.594H7.1108V187H8.43182V178.273ZM14.1335 177.864H12.9957L10.1832 188.312H11.321L14.1335 177.864ZM15.1989 187H20.9432V185.871H17.0142V185.807L18.7486 183.991C20.3466 182.376 20.8026 181.605 20.8026 180.629C20.8026 179.227 19.6605 178.153 18.0156 178.153C16.3835 178.153 15.1903 179.21 15.1903 180.804H16.4474C16.4432 179.866 17.0483 179.253 17.9901 179.253C18.8764 179.253 19.5497 179.798 19.5497 180.668C19.5497 181.439 19.0895 181.993 18.152 182.986L15.1989 186.045V187Z" fill="#252321"/>
<rect width="26" height="23" transform="translate(0 256)" fill="#BA6C3F"/>
<path d="M8.18572 263.273H6.90305L4.7255 264.696V265.957L6.81357 264.594H6.8647V272H8.18572V263.273ZM13.8874 262.864H12.7496L9.93714 273.312H11.0749L13.8874 262.864ZM14.7695 270.295H18.9073V272H20.1644V270.295H21.3192V269.179H20.1644V263.273H18.5408L14.7695 269.23V270.295ZM18.9158 269.179H16.1502V269.111L18.8477 264.841H18.9158V269.179Z" fill="#252321"/>
</svg>
