<svg width="308" height="155" viewBox="0 0 308 155" fill="none" xmlns="http://www.w3.org/2000/svg">
<line x1="277" y1="50.5" x2="29" y2="50.5" stroke="#784B31" stroke-dasharray="5 5"/>
<circle cx="152.5" cy="49.5" r="40.5" fill="#AA643B"/>
<circle cx="152.5" cy="49.5" r="45" stroke="#573B2B" stroke-width="9" stroke-dasharray="2 2"/>
<path d="M18.2784 109H25.642V107.489H20.0341V103.926H25.1932V102.42H20.0341V98.875H25.5739V97.3636H18.2784V109ZM30.8024 109.193C32.2456 109.193 33.0581 108.46 33.382 107.807H33.4502V109H35.1093V103.205C35.1093 100.665 33.1093 100.159 31.7229 100.159C30.1434 100.159 28.6888 100.795 28.1206 102.386L29.7172 102.75C29.9672 102.131 30.6036 101.534 31.7456 101.534C32.8422 101.534 33.4047 102.108 33.4047 103.097V103.136C33.4047 103.756 32.7684 103.744 31.2002 103.926C29.5468 104.119 27.8536 104.551 27.8536 106.534C27.8536 108.25 29.1434 109.193 30.8024 109.193ZM31.1718 107.83C30.2115 107.83 29.5184 107.398 29.5184 106.557C29.5184 105.648 30.3252 105.324 31.3081 105.193C31.8593 105.119 33.1661 104.972 33.4104 104.727V105.852C33.4104 106.886 32.5865 107.83 31.1718 107.83ZM37.852 109H39.5509V103.67C39.5509 102.528 40.4316 101.705 41.6361 101.705C41.9884 101.705 42.3861 101.767 42.5225 101.807V100.182C42.352 100.159 42.0168 100.142 41.8009 100.142C40.7782 100.142 39.9032 100.722 39.585 101.659H39.4941V100.273H37.852V109ZM49.0622 100.273H47.2724V98.1818H45.5735V100.273H44.2951V101.636H45.5735V106.79C45.5678 108.375 46.7781 109.142 48.119 109.114C48.6588 109.108 49.0224 109.006 49.2213 108.932L48.9144 107.528C48.8008 107.551 48.5906 107.602 48.3178 107.602C47.7667 107.602 47.2724 107.42 47.2724 106.438V101.636H49.0622V100.273ZM53.3078 103.818C53.3078 102.426 54.1885 101.631 55.3987 101.631C56.5691 101.631 57.268 102.375 57.268 103.653V109H58.9669V103.449C58.9669 101.273 57.7737 100.159 55.9782 100.159C54.6203 100.159 53.8021 100.75 53.393 101.693H53.2851V97.3636H51.6089V109H53.3078V103.818Z" fill="#252321"/>
<path d="M3.74148 124.153C1.90909 124.136 0.711648 125.453 0.711648 127.107C0.715909 128.773 1.92187 129.974 3.43466 129.974C4.35937 129.974 5.15199 129.523 5.59943 128.79H5.66761C5.66335 130.797 4.90909 131.969 3.63068 131.969C2.79545 131.969 2.25852 131.457 2.08807 130.712H0.788352C0.980114 132.122 2.07102 133.119 3.63068 133.119C5.65909 133.119 6.92898 131.376 6.92898 128.321C6.92472 125.134 5.29687 124.166 3.74148 124.153ZM3.74574 125.261C4.75568 125.261 5.50142 126.118 5.50142 127.077C5.50568 128.048 4.71733 128.901 3.72017 128.901C2.71875 128.901 1.99432 128.099 1.99006 127.089C1.99006 126.075 2.74432 125.261 3.74574 125.261ZM8.9968 133.081C9.46129 133.081 9.84908 132.702 9.84908 132.229C9.84908 131.764 9.46129 131.381 8.9968 131.381C8.52805 131.381 8.14453 131.764 8.14453 132.229C8.14453 132.702 8.52805 133.081 8.9968 133.081ZM14.2724 133.119C16.0536 133.119 17.3619 132.054 17.3576 130.605C17.3619 129.501 16.6928 128.709 15.5337 128.53V128.462C16.4457 128.227 17.038 127.511 17.0337 126.531C17.038 125.249 15.9854 124.153 14.3065 124.153C12.7042 124.153 11.4173 125.121 11.3746 126.54L12.6488 126.54C12.6786 125.739 13.4329 125.253 14.2894 125.253C15.18 125.253 15.7638 125.794 15.7596 126.599C15.7638 127.443 15.0863 127.997 14.119 127.997H13.3817L13.3817 129.071H14.119C15.3292 129.071 16.0281 129.685 16.0281 130.563C16.0281 131.411 15.2908 131.986 14.2638 131.986C13.3178 131.986 12.5806 131.5 12.5295 130.724H11.1914C11.2468 132.148 12.5082 133.119 14.2724 133.119ZM24.1715 131.551L24.9769 130.746L22.9315 128.7L24.9769 126.655L24.1715 125.845L22.1261 127.891L20.0763 125.845L19.271 126.655L21.3164 128.7L19.271 130.746L20.0763 131.551L22.1261 129.506L24.1715 131.551ZM30.2717 124.273H28.989L26.8114 125.696L26.8114 126.957L28.8995 125.594H28.9506L28.9506 133H30.2717L30.2717 124.273ZM35.6708 133.145C37.6864 133.145 38.8668 131.5 38.8668 128.641C38.8668 125.803 37.6694 124.153 35.6708 124.153C33.668 124.153 32.4748 125.798 32.4705 128.641C32.4705 131.496 33.6509 133.141 35.6708 133.145ZM35.6708 132.007C34.4904 132.007 33.7788 130.822 33.7788 128.641C33.783 126.467 34.4947 125.27 35.6708 125.27C36.8427 125.27 37.5586 126.467 37.5586 128.641C37.5586 130.822 36.8469 132.007 35.6708 132.007ZM40.2678 128.636H41.3714L43.8345 124.277V123.403H39.8757V124.26H42.7479V124.298L40.2678 128.636ZM48.2706 133H49.5447L49.5447 128.964C49.5447 128.082 50.1626 127.469 50.8871 127.469C51.5945 127.469 52.0845 127.938 52.0845 128.649L52.0845 133H53.3544L53.3544 128.828C53.3544 128.04 53.8359 127.469 54.6669 127.469C55.3402 127.469 55.8942 127.844 55.8942 128.73L55.8942 133H57.1683L57.1683 128.611C57.1683 127.115 56.3331 126.369 55.1484 126.369C54.2067 126.369 53.4993 126.821 53.1839 127.52H53.1158C52.8303 126.804 52.2294 126.369 51.3558 126.369C50.4908 126.369 49.8473 126.8 49.5746 127.52H49.4936L49.4936 126.455H48.2706L48.2706 133ZM58.8761 133H60.1502L60.1502 126.455H58.8761L58.8761 133ZM59.5195 125.445C59.9585 125.445 60.3249 125.104 60.3249 124.686C60.3249 124.268 59.9585 123.923 59.5195 123.923C59.0763 123.923 58.7141 124.268 58.7141 124.686C58.7141 125.104 59.0763 125.445 59.5195 125.445ZM63.1385 124.273L61.8643 124.273L61.8643 133H63.1385L63.1385 124.273ZM67.6737 133.132C69.1012 133.132 70.1112 132.429 70.4009 131.364L69.195 131.146C68.9648 131.764 68.4109 132.08 67.6864 132.08C66.5955 132.08 65.8626 131.372 65.8285 130.111H70.4819V129.659C70.4819 127.294 69.0671 126.369 67.5842 126.369C65.7603 126.369 64.5586 127.759 64.5586 129.77C64.5586 131.803 65.7433 133.132 67.6737 133.132ZM65.8327 129.156C65.8839 128.227 66.5572 127.422 67.5927 127.422C68.5813 127.422 69.229 128.155 69.2333 129.156H65.8327ZM76.8004 128.053C76.5362 127.034 75.7393 126.369 74.3246 126.369C72.8459 126.369 71.7976 127.149 71.7976 128.308C71.7976 129.237 72.3601 129.855 73.5874 130.128L74.6953 130.371C75.326 130.511 75.62 130.793 75.62 131.202C75.62 131.709 75.0788 132.105 74.2436 132.105C73.4808 132.105 72.9908 131.777 72.8374 131.134L71.6058 131.321C71.8189 132.48 72.782 133.132 74.2521 133.132C75.8331 133.132 76.9283 132.293 76.9283 131.108C76.9283 130.183 76.3402 129.612 75.1385 129.335L74.0987 129.097C73.3786 128.926 73.0675 128.683 73.0717 128.24C73.0675 127.737 73.6129 127.379 74.3374 127.379C75.13 127.379 75.4964 127.818 75.6456 128.257L76.8004 128.053Z" fill="#252321"/>
<path d="M11.6506 143.273H10.3679L8.19034 144.696L8.19034 145.957L10.2784 144.594H10.3295L10.3295 152H11.6506L11.6506 143.273ZM14.3757 152.081C14.8402 152.081 15.228 151.702 15.228 151.229C15.228 150.764 14.8402 150.381 14.3757 150.381C13.907 150.381 13.5234 150.764 13.5234 151.229C13.5234 151.702 13.907 152.081 14.3757 152.081ZM19.6577 152.119C21.4134 152.119 22.6662 150.879 22.6619 149.179C22.6662 147.491 21.4901 146.264 19.9006 146.264C19.2528 146.264 18.652 146.511 18.3111 146.844H18.2599L18.5369 144.402H22.2401V143.273H17.4418L16.9517 147.67L18.1577 147.849C18.4858 147.555 19.0739 147.355 19.6023 147.355C20.6378 147.364 21.3878 148.139 21.3878 149.205C21.3878 150.253 20.6591 151.011 19.6577 151.011C18.8139 151.011 18.1449 150.474 18.0767 149.724H16.7983C16.8494 151.114 18.0554 152.119 19.6577 152.119ZM29.4215 150.551L30.2269 149.746L28.1815 147.7L30.2269 145.655L29.4215 144.845L27.3761 146.891L25.3263 144.845L24.521 145.655L26.5664 147.7L24.521 149.746L25.3263 150.551L27.3761 148.506L29.4215 150.551ZM35.5217 143.273H34.239L32.0614 144.696L32.0614 145.957L34.1495 144.594H34.2006L34.2006 152H35.5217L35.5217 143.273ZM40.9208 152.145C42.9364 152.145 44.1168 150.5 44.1168 147.641C44.1168 144.803 42.9194 143.153 40.9208 143.153C38.918 143.153 37.7248 144.798 37.7205 147.641C37.7205 150.496 38.9009 152.141 40.9208 152.145ZM40.9208 151.007C39.7404 151.007 39.0288 149.822 39.0288 147.641C39.033 145.467 39.7447 144.27 40.9208 144.27C42.0927 144.27 42.8086 145.467 42.8086 147.641C42.8086 149.822 42.0969 151.007 40.9208 151.007ZM47.3714 147.705C48.62 147.705 49.5575 147.078 49.5575 146.23C49.5575 145.604 49.0078 145.037 48.3132 144.939V144.905C48.9098 144.781 49.3317 144.304 49.3317 143.729C49.3317 142.936 48.5007 142.335 47.3714 142.335C46.2464 142.335 45.4112 142.932 45.4112 143.729C45.4112 144.304 45.8374 144.781 46.451 144.905V144.939C45.6925 145.054 45.2067 145.634 45.2067 146.23C45.2067 147.074 46.1229 147.705 47.3714 147.705ZM47.3714 146.942C46.7322 146.942 46.2976 146.597 46.2976 146.149C46.2976 145.689 46.7536 145.335 47.3714 145.335C47.9936 145.335 48.4666 145.689 48.4666 146.149C48.4666 146.609 48.0021 146.942 47.3714 146.942ZM47.3714 144.577C46.8601 144.577 46.4425 144.27 46.4425 143.844C46.4425 143.418 46.843 143.115 47.3714 143.115C47.9169 143.115 48.3047 143.418 48.3047 143.844C48.3047 144.257 47.9169 144.577 47.3714 144.577ZM54.0128 152H55.2869L55.2869 149.678L55.9219 149.043L58.1463 152H59.7102L56.8807 148.263L59.5312 145.455H58.0057L55.3977 148.224H55.2869L55.2869 143.273H54.0128L54.0128 152ZM60.6925 152H61.9666L61.9666 147.964C61.9666 147.082 62.5845 146.469 63.3089 146.469C64.0163 146.469 64.5064 146.938 64.5064 147.649L64.5064 152L65.7763 152L65.7763 147.828C65.7763 147.04 66.2578 146.469 67.0888 146.469C67.7621 146.469 68.3161 146.844 68.3161 147.73L68.3161 152H69.5902L69.5902 147.611C69.5902 146.115 68.755 145.369 67.5703 145.369C66.6286 145.369 65.9212 145.821 65.6058 146.52H65.5376C65.2521 145.804 64.6513 145.369 63.7777 145.369C62.9126 145.369 62.2692 145.8 61.9964 146.52H61.9155L61.9155 145.455H60.6925L60.6925 152Z" fill="#68432E"/>
<path d="M247.278 97.3636V109H248.949V100.574H249.057L252.489 108.983H253.875L257.307 100.58H257.415V109H259.085V97.3636H256.955L253.25 106.409H253.114L249.409 97.3636H247.278ZM264.521 109.193C265.964 109.193 266.777 108.46 267.101 107.807H267.169V109H268.828V103.205C268.828 100.665 266.828 100.159 265.442 100.159C263.862 100.159 262.408 100.795 261.839 102.386L263.436 102.75C263.686 102.131 264.322 101.534 265.464 101.534C266.561 101.534 267.123 102.108 267.123 103.097V103.136C267.123 103.756 266.487 103.744 264.919 103.926C263.266 104.119 261.572 104.551 261.572 106.534C261.572 108.25 262.862 109.193 264.521 109.193ZM264.891 107.83C263.93 107.83 263.237 107.398 263.237 106.557C263.237 105.648 264.044 105.324 265.027 105.193C265.578 105.119 266.885 104.972 267.129 104.727V105.852C267.129 106.886 266.305 107.83 264.891 107.83ZM271.571 109H273.27V103.67C273.27 102.528 274.15 101.705 275.355 101.705C275.707 101.705 276.105 101.767 276.241 101.807V100.182C276.071 100.159 275.736 100.142 275.52 100.142C274.497 100.142 273.622 100.722 273.304 101.659H273.213V100.273H271.571V109ZM284.731 102.403C284.379 101.045 283.316 100.159 281.43 100.159C279.458 100.159 278.061 101.199 278.061 102.744C278.061 103.983 278.811 104.807 280.447 105.17L281.924 105.494C282.765 105.682 283.157 106.057 283.157 106.602C283.157 107.278 282.436 107.807 281.322 107.807C280.305 107.807 279.652 107.369 279.447 106.511L277.805 106.761C278.089 108.307 279.373 109.176 281.333 109.176C283.441 109.176 284.902 108.057 284.902 106.477C284.902 105.244 284.118 104.483 282.515 104.114L281.129 103.795C280.169 103.568 279.754 103.244 279.76 102.653C279.754 101.983 280.481 101.506 281.447 101.506C282.504 101.506 282.993 102.091 283.191 102.676L284.731 102.403Z" fill="#252321"/>
<path d="M228.151 124.273H226.868L224.69 125.696V126.957L226.778 125.594H226.83L226.83 133H228.151L228.151 124.273ZM230.876 133.081C231.34 133.081 231.728 132.702 231.728 132.229C231.728 131.764 231.34 131.381 230.876 131.381C230.407 131.381 230.023 131.764 230.023 132.229C230.023 132.702 230.407 133.081 230.876 133.081ZM233.234 131.295H237.372V133H238.629V131.295H239.784V130.179H238.629L238.629 124.273H237.006L233.234 130.23V131.295ZM237.381 130.179H234.615V130.111L237.312 125.841H237.381L237.381 130.179ZM241.269 133H247.013V131.871H243.085V131.807L244.819 129.991C246.417 128.376 246.873 127.605 246.873 126.629C246.873 125.227 245.731 124.153 244.086 124.153C242.454 124.153 241.261 125.21 241.261 126.804H242.518C242.513 125.866 243.119 125.253 244.06 125.253C244.947 125.253 245.62 125.798 245.62 126.668C245.62 127.439 245.16 127.993 244.222 128.986L241.269 132.045V133ZM253.832 131.551L254.637 130.746L252.592 128.7L254.637 126.655L253.832 125.845L251.786 127.891L249.737 125.845L248.931 126.655L250.977 128.7L248.931 130.746L249.737 131.551L251.786 129.506L253.832 131.551ZM259.932 124.273H258.649L256.472 125.696V126.957L258.56 125.594H258.611V133H259.932V124.273ZM265.331 133.145C267.347 133.145 268.527 131.5 268.527 128.641C268.527 125.803 267.33 124.153 265.331 124.153C263.328 124.153 262.135 125.798 262.131 128.641C262.131 131.496 263.311 133.141 265.331 133.145ZM265.331 132.007C264.151 132.007 263.439 130.822 263.439 128.641C263.443 126.467 264.155 125.27 265.331 125.27C266.503 125.27 267.219 126.467 267.219 128.641C267.219 130.822 266.507 132.007 265.331 132.007ZM271.782 128.705C273.03 128.705 273.968 128.078 273.968 127.23C273.968 126.604 273.418 126.037 272.723 125.939V125.905C273.32 125.781 273.742 125.304 273.742 124.729C273.742 123.936 272.911 123.335 271.782 123.335C270.657 123.335 269.821 123.932 269.821 124.729C269.821 125.304 270.248 125.781 270.861 125.905V125.939C270.103 126.054 269.617 126.634 269.617 127.23C269.617 128.074 270.533 128.705 271.782 128.705ZM271.782 127.942C271.142 127.942 270.708 127.597 270.708 127.149C270.708 126.689 271.164 126.335 271.782 126.335C272.404 126.335 272.877 126.689 272.877 127.149C272.877 127.609 272.412 127.942 271.782 127.942ZM271.782 125.577C271.27 125.577 270.853 125.27 270.853 124.844C270.853 124.418 271.253 124.115 271.782 124.115C272.327 124.115 272.715 124.418 272.715 124.844C272.715 125.257 272.327 125.577 271.782 125.577ZM278.423 133H279.697V128.964C279.697 128.082 280.315 127.469 281.039 127.469C281.747 127.469 282.237 127.938 282.237 128.649V133H283.507V128.828C283.507 128.04 283.988 127.469 284.819 127.469C285.493 127.469 286.047 127.844 286.047 128.73V133H287.321V128.611C287.321 127.115 286.485 126.369 285.301 126.369C284.359 126.369 283.652 126.821 283.336 127.52H283.268C282.983 126.804 282.382 126.369 281.508 126.369C280.643 126.369 280 126.8 279.727 127.52H279.646V126.455H278.423V133ZM289.028 133H290.303V126.455H289.028V133ZM289.672 125.445C290.111 125.445 290.477 125.104 290.477 124.686C290.477 124.268 290.111 123.923 289.672 123.923C289.229 123.923 288.866 124.268 288.866 124.686C288.866 125.104 289.229 125.445 289.672 125.445ZM293.291 124.273H292.017V133H293.291V124.273ZM297.826 133.132C299.254 133.132 300.263 132.429 300.553 131.364L299.347 131.146C299.117 131.764 298.563 132.08 297.839 132.08C296.748 132.08 296.015 131.372 295.981 130.111L300.634 130.111V129.659C300.634 127.294 299.219 126.369 297.737 126.369C295.913 126.369 294.711 127.759 294.711 129.77C294.711 131.803 295.896 133.132 297.826 133.132ZM295.985 129.156C296.036 128.227 296.71 127.422 297.745 127.422C298.734 127.422 299.381 128.155 299.386 129.156L295.985 129.156ZM306.953 128.053C306.689 127.034 305.892 126.369 304.477 126.369C302.998 126.369 301.95 127.149 301.95 128.308C301.95 129.237 302.512 129.855 303.74 130.128L304.848 130.371C305.478 130.511 305.772 130.793 305.772 131.202C305.772 131.709 305.231 132.105 304.396 132.105C303.633 132.105 303.143 131.777 302.99 131.134L301.758 131.321C301.971 132.48 302.934 133.132 304.404 133.132C305.985 133.132 307.081 132.293 307.081 131.108C307.081 130.183 306.493 129.612 305.291 129.335L304.251 129.097C303.531 128.926 303.22 128.683 303.224 128.24C303.22 127.737 303.765 127.379 304.49 127.379C305.282 127.379 305.649 127.818 305.798 128.257L306.953 128.053Z" fill="#252321"/>
<path d="M230.339 152H236.084V150.871H232.155V150.807L233.889 148.991C235.487 147.376 235.943 146.605 235.943 145.629C235.943 144.227 234.801 143.153 233.156 143.153C231.524 143.153 230.331 144.21 230.331 145.804H231.588C231.584 144.866 232.189 144.253 233.131 144.253C234.017 144.253 234.69 144.798 234.69 145.668C234.69 146.439 234.23 146.993 233.293 147.986L230.339 151.045V152ZM238.555 152.081C239.02 152.081 239.408 151.702 239.408 151.229C239.408 150.764 239.02 150.381 238.555 150.381C238.087 150.381 237.703 150.764 237.703 151.229C237.703 151.702 238.087 152.081 238.555 152.081ZM241.097 152H246.842V150.871H242.913V150.807L244.647 148.991C246.245 147.376 246.701 146.605 246.701 145.629C246.701 144.227 245.559 143.153 243.914 143.153C242.282 143.153 241.089 144.21 241.089 145.804H242.346C242.342 144.866 242.947 144.253 243.888 144.253C244.775 144.253 245.448 144.798 245.448 145.668C245.448 146.439 244.988 146.993 244.05 147.986L241.097 151.045V152ZM251.359 143.153C249.526 143.136 248.329 144.453 248.329 146.107C248.333 147.773 249.539 148.974 251.052 148.974C251.977 148.974 252.769 148.523 253.217 147.79H253.285C253.281 149.797 252.526 150.969 251.248 150.969C250.413 150.969 249.876 150.457 249.705 149.712H248.406C248.597 151.122 249.688 152.119 251.248 152.119C253.276 152.119 254.546 150.376 254.546 147.321C254.542 144.134 252.914 143.166 251.359 143.153ZM251.363 144.261C252.373 144.261 253.119 145.118 253.119 146.077C253.123 147.048 252.335 147.901 251.337 147.901C250.336 147.901 249.612 147.099 249.607 146.089C249.607 145.075 250.362 144.261 251.363 144.261ZM261.289 150.551L262.094 149.746L260.049 147.7L262.094 145.655L261.289 144.845L259.243 146.891L257.194 144.845L256.388 145.655L258.434 147.7L256.388 149.746L257.194 150.551L259.243 148.506L261.289 150.551ZM267.389 143.273H266.106L263.929 144.696V145.957L266.017 144.594H266.068V152H267.389V143.273ZM272.788 152.145C274.804 152.145 275.984 150.5 275.984 147.641C275.984 144.803 274.787 143.153 272.788 143.153C270.785 143.153 269.592 144.798 269.588 147.641C269.588 150.496 270.768 152.141 272.788 152.145ZM272.788 151.007C271.608 151.007 270.896 149.822 270.896 147.641C270.9 145.467 271.612 144.27 272.788 144.27C273.96 144.27 274.676 145.467 274.676 147.641C274.676 149.822 273.964 151.007 272.788 151.007ZM279.239 147.705C280.487 147.705 281.425 147.078 281.425 146.23C281.425 145.604 280.875 145.037 280.18 144.939V144.905C280.777 144.781 281.199 144.304 281.199 143.729C281.199 142.936 280.368 142.335 279.239 142.335C278.114 142.335 277.278 142.932 277.278 143.729C277.278 144.304 277.705 144.781 278.318 144.905V144.939C277.56 145.054 277.074 145.634 277.074 146.23C277.074 147.074 277.99 147.705 279.239 147.705ZM279.239 146.942C278.599 146.942 278.165 146.597 278.165 146.149C278.165 145.689 278.621 145.335 279.239 145.335C279.861 145.335 280.334 145.689 280.334 146.149C280.334 146.609 279.869 146.942 279.239 146.942ZM279.239 144.577C278.727 144.577 278.31 144.27 278.31 143.844C278.31 143.418 278.71 143.115 279.239 143.115C279.784 143.115 280.172 143.418 280.172 143.844C280.172 144.257 279.784 144.577 279.239 144.577ZM285.88 152L287.154 152V149.678L287.789 149.043L290.013 152H291.577L288.748 148.263L291.398 145.455H289.873L287.265 148.224H287.154V143.273H285.88V152ZM292.56 152H293.834V147.964C293.834 147.082 294.452 146.469 295.176 146.469C295.884 146.469 296.374 146.938 296.374 147.649V152H297.643V147.828C297.643 147.04 298.125 146.469 298.956 146.469C299.629 146.469 300.183 146.844 300.183 147.73V152H301.457V147.611C301.457 146.115 300.622 145.369 299.438 145.369C298.496 145.369 297.788 145.821 297.473 146.52H297.405C297.119 145.804 296.518 145.369 295.645 145.369C294.78 145.369 294.136 145.8 293.864 146.52H293.783V145.455H292.56V152Z" fill="#68432E"/>
<circle cx="276.5" cy="50.5" r="6.5" fill="#252321"/>
<circle cx="36.5" cy="50.5" r="13.5" fill="#895335"/>
</svg>
