<svg width="273" height="328" viewBox="0 0 273 328" fill="none" xmlns="http://www.w3.org/2000/svg">
<mask id="path-1-inside-1" fill="white">
<path fill-rule="evenodd" clip-rule="evenodd" d="M142.5 0C140.567 0 139 1.567 139 3.5V311.752C136.051 313.086 134 316.053 134 319.5C134 324.194 137.806 328 142.5 328C147.194 328 151 324.194 151 319.5C151 316.053 148.949 313.086 146 311.752V3.5C146 1.567 144.433 0 142.5 0Z"/>
</mask>
<path d="M139 311.752L139.412 312.663L140 312.397V311.752H139ZM146 311.752H145V312.397L145.588 312.663L146 311.752ZM140 3.5C140 2.11929 141.119 1 142.5 1V-1C140.015 -1 138 1.01471 138 3.5H140ZM140 311.752V3.5H138V311.752H140ZM135 319.5C135 316.46 136.808 313.841 139.412 312.663L138.588 310.841C135.295 312.331 133 315.646 133 319.5H135ZM142.5 327C138.358 327 135 323.642 135 319.5H133C133 324.747 137.253 329 142.5 329V327ZM150 319.5C150 323.642 146.642 327 142.5 327V329C147.747 329 152 324.747 152 319.5H150ZM145.588 312.663C148.192 313.841 150 316.46 150 319.5H152C152 315.646 149.705 312.331 146.412 310.841L145.588 312.663ZM145 3.5V311.752H147V3.5H145ZM142.5 1C143.881 1 145 2.11929 145 3.5H147C147 1.01472 144.985 -1 142.5 -1V1Z" fill="#EFDDD2" mask="url(#path-1-inside-1)"/>
<line x1="96" y1="15.5" x2="79" y2="15.5" stroke="#EFDDD2"/>
<line x1="88" y1="15" x2="88" y2="205" stroke="#EFDDD2"/>
<line x1="96" y1="205.5" x2="79" y2="205.5" stroke="#EFDDD2"/>
<circle cx="87.5" cy="75.5" r="33.5" fill="#D6936D"/>
<path d="M4.15057 3.27273L2.8679 3.27273L0.690341 4.69602L0.690341 5.95739L2.77841 4.59375H2.82955L2.82955 12L4.15057 12L4.15057 3.27273ZM9.54972 12.1193C11.331 12.1193 12.6392 11.054 12.6349 9.60511C12.6392 8.50142 11.9702 7.70881 10.8111 7.52983V7.46165C11.723 7.22727 12.3153 6.51136 12.3111 5.53125C12.3153 4.24858 11.2628 3.15341 9.58381 3.15341C7.98153 3.15341 6.6946 4.12074 6.65199 5.53977L7.92614 5.53977C7.95597 4.73864 8.71023 4.25284 9.56676 4.25284C10.4574 4.25284 11.0412 4.79403 11.0369 5.59943C11.0412 6.44318 10.3636 6.99716 9.39631 6.99716L8.65909 6.99716L8.65909 8.07102L9.39631 8.07102C10.6065 8.07102 11.3054 8.68466 11.3054 9.5625C11.3054 10.4105 10.5682 10.9858 9.54119 10.9858C8.59517 10.9858 7.85795 10.5 7.80682 9.72443L6.46875 9.72443C6.52415 11.1477 7.78551 12.1193 9.54972 12.1193ZM17.2926 12.1193C19.1165 12.1364 20.3267 10.8239 20.3224 9.14915C20.3267 7.47869 19.1122 6.28125 17.5994 6.28125C16.679 6.28125 15.8821 6.72443 15.4347 7.46165H15.3707C15.375 5.48011 16.125 4.30398 17.4034 4.30398C18.2429 4.30398 18.7713 4.81534 18.9503 5.53977L20.25 5.53977C20.0497 4.15909 18.9631 3.15341 17.4034 3.15341C15.375 3.15341 14.1094 4.89631 14.1094 7.9304C14.1051 11.1435 15.7415 12.1065 17.2926 12.1193ZM17.2884 11.0114C16.2741 11.0114 15.5327 10.1591 15.5327 9.17898C15.5369 8.20313 16.3125 7.35085 17.3182 7.35085C18.3153 7.35085 19.0483 8.15625 19.044 9.16619C19.0483 10.1974 18.2855 11.0114 17.2884 11.0114ZM23.771 7.21875C24.8789 7.21875 25.7781 6.3196 25.7781 5.21165C25.7781 4.10369 24.8789 3.20881 23.771 3.20881C22.6673 3.20881 21.7681 4.10369 21.7681 5.21165C21.7681 6.3196 22.6673 7.21875 23.771 7.21875ZM23.771 6.24716C23.1999 6.24716 22.7397 5.78267 22.7397 5.21165C22.7397 4.64063 23.1999 4.1804 23.771 4.1804C24.3462 4.1804 24.8065 4.64063 24.8065 5.21165C24.8065 5.78267 24.3462 6.24716 23.771 6.24716ZM27.4666 12L28.7834 12L28.7834 8.1946L32.4908 8.1946V7.06534L28.7834 7.06534L28.7834 4.40625L32.8786 4.40625V3.27273L27.4666 3.27273L27.4666 12Z" fill="#EFDDD2"/>
<path d="M3.72017 31.1193C5.47585 31.1193 6.72869 29.8793 6.72443 28.179C6.72869 26.4915 5.55256 25.2642 3.96307 25.2642C3.31534 25.2642 2.71449 25.5114 2.37358 25.8438H2.32244L2.59943 23.402L6.30256 23.402L6.30256 22.2727L1.50426 22.2727L1.0142 26.6705L2.22017 26.8494C2.5483 26.5554 3.13636 26.3551 3.66477 26.3551C4.70028 26.3636 5.45028 27.1392 5.45028 28.2045C5.45028 29.2528 4.72159 30.0114 3.72017 30.0114C2.87642 30.0114 2.20739 29.4744 2.1392 28.7244L0.860795 28.7244C0.911932 30.1136 2.1179 31.1193 3.72017 31.1193ZM11.2298 31.1193C13.0451 31.1193 14.3278 30.0881 14.3363 28.6733C14.3278 27.5739 13.5565 26.6491 12.5806 26.4744V26.4233C13.4286 26.2188 14.0039 25.4219 14.0124 24.4801C14.0039 23.1463 12.8278 22.1534 11.2298 22.1534C9.6147 22.1534 8.43857 23.1463 8.44709 24.4801C8.43857 25.4176 9.01385 26.2188 9.87891 26.4233V26.4744C8.88601 26.6491 8.1147 27.5739 8.12322 28.6733C8.1147 30.0881 9.39737 31.1193 11.2298 31.1193ZM11.2298 30.0412C10.1388 30.0412 9.44851 29.4616 9.45703 28.5881C9.44851 27.6804 10.1985 27.0327 11.2298 27.0327C12.244 27.0327 12.994 27.6804 13.0025 28.5881C12.994 29.4616 12.3079 30.0412 11.2298 30.0412ZM11.2298 25.9801C10.3477 25.9801 9.72124 25.4219 9.72976 24.5909C9.72124 23.7727 10.3263 23.2315 11.2298 23.2315C12.1161 23.2315 12.7212 23.7727 12.7298 24.5909C12.7212 25.4219 12.0991 25.9801 11.2298 25.9801ZM17.7592 26.2188C18.8672 26.2188 19.7663 25.3196 19.7663 24.2116C19.7663 23.1037 18.8672 22.2088 17.7592 22.2088C16.6555 22.2088 15.7564 23.1037 15.7564 24.2116C15.7564 25.3196 16.6555 26.2188 17.7592 26.2188ZM17.7592 25.2472C17.1882 25.2472 16.728 24.7827 16.728 24.2116C16.728 23.6406 17.1882 23.1804 17.7592 23.1804C18.3345 23.1804 18.7947 23.6406 18.7947 24.2116C18.7947 24.7827 18.3345 25.2472 17.7592 25.2472ZM28.5394 25.1108C28.2411 23.2443 26.7795 22.1534 24.9343 22.1534C22.6758 22.1534 21.0096 23.8452 21.0096 26.6364C21.0096 29.4276 22.6673 31.1193 24.9343 31.1193C26.8519 31.1193 28.2539 29.9176 28.5394 28.1918L27.2099 28.1875C26.984 29.304 26.0465 29.9176 24.9428 29.9176C23.4471 29.9176 22.3178 28.7713 22.3178 26.6364C22.3178 24.5185 23.4428 23.3551 24.9471 23.3551C26.0593 23.3551 26.9925 23.9815 27.2099 25.1108L28.5394 25.1108Z" fill="#E1B398"/>
<path d="M3.72017 71.1193C5.47585 71.1193 6.72869 69.8793 6.72443 68.179C6.72869 66.4915 5.55256 65.2642 3.96307 65.2642C3.31534 65.2642 2.71449 65.5114 2.37358 65.8438H2.32244L2.59943 63.402L6.30256 63.402L6.30256 62.2727L1.50426 62.2727L1.0142 66.6705L2.22017 66.8494C2.5483 66.5554 3.13636 66.3551 3.66477 66.3551C4.70028 66.3636 5.45028 67.1392 5.45028 68.2045C5.45028 69.2528 4.72159 70.0114 3.72017 70.0114C2.87642 70.0114 2.20739 69.4744 2.1392 68.7244H0.860795C0.911932 70.1136 2.1179 71.1193 3.72017 71.1193ZM8.57493 71H9.95135L13.7482 63.4403L13.7482 62.2727L7.97834 62.2727L7.97834 63.402L12.3846 63.402V63.4659L8.57493 71ZM17.1264 66.2188C18.2344 66.2188 19.1335 65.3196 19.1335 64.2116C19.1335 63.1037 18.2344 62.2088 17.1264 62.2088C16.0227 62.2088 15.1236 63.1037 15.1236 64.2116C15.1236 65.3196 16.0227 66.2188 17.1264 66.2188ZM17.1264 65.2472C16.5554 65.2472 16.0952 64.7827 16.0952 64.2116C16.0952 63.6406 16.5554 63.1804 17.1264 63.1804C17.7017 63.1804 18.1619 63.6406 18.1619 64.2116C18.1619 64.7827 17.7017 65.2472 17.1264 65.2472ZM20.8221 71L22.1388 71L22.1388 67.1946H25.8462L25.8462 66.0653H22.1388L22.1388 63.4063L26.234 63.4063V62.2727L20.8221 62.2727L20.8221 71Z" fill="#EFDDD2"/>
<path d="M4.15057 81.2727H2.8679L0.690341 82.696L0.690341 83.9574L2.77841 82.5938H2.82955L2.82955 90H4.15057L4.15057 81.2727ZM6.32812 88.2955H10.4659L10.4659 90H11.723L11.723 88.2955L12.8778 88.2955L12.8778 87.179L11.723 87.179L11.723 81.2727H10.0994L6.32812 87.2301L6.32812 88.2955ZM10.4744 87.179H7.70881V87.1108L10.4062 82.8409H10.4744L10.4744 87.179ZM16.2592 85.2188C17.3672 85.2188 18.2663 84.3196 18.2663 83.2116C18.2663 82.1037 17.3672 81.2088 16.2592 81.2088C15.1555 81.2088 14.2564 82.1037 14.2564 83.2116C14.2564 84.3196 15.1555 85.2188 16.2592 85.2188ZM16.2592 84.2472C15.6882 84.2472 15.228 83.7827 15.228 83.2116C15.228 82.6406 15.6882 82.1804 16.2592 82.1804C16.8345 82.1804 17.2947 82.6406 17.2947 83.2116C17.2947 83.7827 16.8345 84.2472 16.2592 84.2472ZM27.0394 84.1108C26.7411 82.2443 25.2795 81.1534 23.4343 81.1534C21.1758 81.1534 19.5096 82.8452 19.5096 85.6364C19.5096 88.4276 21.1673 90.1193 23.4343 90.1193C25.3519 90.1193 26.7539 88.9176 27.0394 87.1918L25.7099 87.1875C25.484 88.304 24.5465 88.9176 23.4428 88.9176C21.9471 88.9176 20.8178 87.7713 20.8178 85.6364C20.8178 83.5185 21.9428 82.3551 23.4471 82.3551C24.5593 82.3551 25.4925 82.9815 25.7099 84.1108H27.0394Z" fill="#E1B398"/>
<path d="M4.71307 195.087H0.84375L0.84375 196.19H4.71307L4.71307 195.087ZM9.70526 191.273H8.42259L6.24503 192.696L6.24503 193.957L8.3331 192.594H8.38423L8.38423 200L9.70526 200L9.70526 191.273ZM12.0661 200H17.8104L17.8104 198.871H13.8814V198.807L15.6158 196.991C17.2138 195.376 17.6697 194.605 17.6697 193.629C17.6697 192.227 16.5277 191.153 14.8828 191.153C13.2507 191.153 12.0575 192.21 12.0575 193.804H13.3146C13.3104 192.866 13.9155 192.253 14.8572 192.253C15.7436 192.253 16.4169 192.798 16.4169 193.668C16.4169 194.439 15.9567 194.993 15.0192 195.986L12.0661 199.045L12.0661 200ZM22.4723 200.119C24.2962 200.136 25.5064 198.824 25.5021 197.149C25.5064 195.479 24.2919 194.281 22.7791 194.281C21.8587 194.281 21.0618 194.724 20.6143 195.462H20.5504C20.5547 193.48 21.3047 192.304 22.5831 192.304C23.4226 192.304 23.951 192.815 24.13 193.54L25.4297 193.54C25.2294 192.159 24.1428 191.153 22.5831 191.153C20.5547 191.153 19.2891 192.896 19.2891 195.93C19.2848 199.143 20.9212 200.107 22.4723 200.119ZM22.468 199.011C21.4538 199.011 20.7124 198.159 20.7124 197.179C20.7166 196.203 21.4922 195.351 22.4979 195.351C23.495 195.351 24.228 196.156 24.2237 197.166C24.228 198.197 23.4652 199.011 22.468 199.011ZM28.9506 195.219C30.0586 195.219 30.9577 194.32 30.9577 193.212C30.9577 192.104 30.0586 191.209 28.9506 191.209C27.8469 191.209 26.9478 192.104 26.9478 193.212C26.9478 194.32 27.8469 195.219 28.9506 195.219ZM28.9506 194.247C28.3796 194.247 27.9194 193.783 27.9194 193.212C27.9194 192.641 28.3796 192.18 28.9506 192.18C29.5259 192.18 29.9862 192.641 29.9862 193.212C29.9862 193.783 29.5259 194.247 28.9506 194.247ZM32.6463 200H33.9631L33.9631 196.195H37.6705V195.065H33.9631L33.9631 192.406H38.0582V191.273H32.6463L32.6463 200Z" fill="#EFDDD2"/>
<path d="M4.71307 214.087H0.84375L0.84375 215.19H4.71307L4.71307 214.087ZM9.34304 219.119C11.1584 219.119 12.4411 218.088 12.4496 216.673C12.4411 215.574 11.6697 214.649 10.6939 214.474V214.423C11.5419 214.219 12.1172 213.422 12.1257 212.48C12.1172 211.146 10.9411 210.153 9.34304 210.153C7.72798 210.153 6.55185 211.146 6.56037 212.48C6.55185 213.418 7.12713 214.219 7.99219 214.423V214.474C6.99929 214.649 6.22798 215.574 6.23651 216.673C6.22798 218.088 7.51065 219.119 9.34304 219.119ZM9.34304 218.041C8.25213 218.041 7.56179 217.462 7.57031 216.588C7.56179 215.68 8.31179 215.033 9.34304 215.033C10.3572 215.033 11.1072 215.68 11.1158 216.588C11.1072 217.462 10.4212 218.041 9.34304 218.041ZM9.34304 213.98C8.46094 213.98 7.83452 213.422 7.84304 212.591C7.83452 211.773 8.43963 211.232 9.34304 211.232C10.2294 211.232 10.8345 211.773 10.843 212.591C10.8345 213.422 10.2124 213.98 9.34304 213.98ZM16.9251 219.119C18.7404 219.119 20.0231 218.088 20.0316 216.673C20.0231 215.574 19.2518 214.649 18.2759 214.474V214.423C19.1239 214.219 19.6992 213.422 19.7077 212.48C19.6992 211.146 18.5231 210.153 16.9251 210.153C15.31 210.153 14.1339 211.146 14.1424 212.48C14.1339 213.418 14.7092 214.219 15.5742 214.423V214.474C14.5813 214.649 13.81 215.574 13.8185 216.673C13.81 218.088 15.0927 219.119 16.9251 219.119ZM16.9251 218.041C15.8342 218.041 15.1438 217.462 15.1523 216.588C15.1438 215.68 15.8938 215.033 16.9251 215.033C17.9393 215.033 18.6893 215.68 18.6978 216.588C18.6893 217.462 18.0032 218.041 16.9251 218.041ZM16.9251 213.98C16.043 213.98 15.4165 213.422 15.4251 212.591C15.4165 211.773 16.0217 211.232 16.9251 211.232C17.8114 211.232 18.4165 211.773 18.4251 212.591C18.4165 213.422 17.7944 213.98 16.9251 213.98ZM23.4545 214.219C24.5625 214.219 25.4616 213.32 25.4616 212.212C25.4616 211.104 24.5625 210.209 23.4545 210.209C22.3509 210.209 21.4517 211.104 21.4517 212.212C21.4517 213.32 22.3509 214.219 23.4545 214.219ZM23.4545 213.247C22.8835 213.247 22.4233 212.783 22.4233 212.212C22.4233 211.641 22.8835 211.18 23.4545 211.18C24.0298 211.18 24.4901 211.641 24.4901 212.212C24.4901 212.783 24.0298 213.247 23.4545 213.247ZM34.2347 213.111C33.9364 211.244 32.4748 210.153 30.6296 210.153C28.3711 210.153 26.7049 211.845 26.7049 214.636C26.7049 217.428 28.3626 219.119 30.6296 219.119C32.5472 219.119 33.9492 217.918 34.2347 216.192L32.9052 216.188C32.6793 217.304 31.7418 217.918 30.6381 217.918C29.1424 217.918 28.0131 216.771 28.0131 214.636C28.0131 212.518 29.1381 211.355 30.6424 211.355C31.7546 211.355 32.6879 211.982 32.9052 213.111H34.2347Z" fill="#E1B398"/>
<line x1="204" y1="33.5" x2="187" y2="33.5" stroke="#EFDDD2"/>
<line x1="196" y1="33" x2="196" y2="301" stroke="#EFDDD2"/>
<line x1="204" y1="301.5" x2="187" y2="301.5" stroke="#EFDDD2"/>
<ellipse cx="196" cy="145.5" rx="16" ry="15.5" fill="#EFDDD2"/>
<path d="M235.788 27.1193C237.604 27.1193 238.886 26.0881 238.895 24.6733C238.886 23.5739 238.115 22.6491 237.139 22.4744V22.4233C237.987 22.2188 238.562 21.4219 238.571 20.4801C238.562 19.1463 237.386 18.1534 235.788 18.1534C234.173 18.1534 232.997 19.1463 233.006 20.4801C232.997 21.4176 233.572 22.2188 234.438 22.4233V22.4744C233.445 22.6491 232.673 23.5739 232.682 24.6733C232.673 26.0881 233.956 27.1193 235.788 27.1193ZM235.788 26.0412C234.697 26.0412 234.007 25.4616 234.016 24.5881C234.007 23.6804 234.757 23.0327 235.788 23.0327C236.803 23.0327 237.553 23.6804 237.561 24.5881C237.553 25.4616 236.866 26.0412 235.788 26.0412ZM235.788 21.9801C234.906 21.9801 234.28 21.4219 234.288 20.5909C234.28 19.7727 234.885 19.2315 235.788 19.2315C236.675 19.2315 237.28 19.7727 237.288 20.5909C237.28 21.4219 236.658 21.9801 235.788 21.9801ZM243.468 27.1193C245.292 27.1364 246.502 25.8239 246.498 24.1491C246.502 22.4787 245.288 21.2813 243.775 21.2813C242.855 21.2813 242.058 21.7244 241.61 22.4616L241.547 22.4616C241.551 20.4801 242.301 19.304 243.579 19.304C244.419 19.304 244.947 19.8153 245.126 20.5398L246.426 20.5398C246.225 19.1591 245.139 18.1534 243.579 18.1534C241.551 18.1534 240.285 19.8963 240.285 22.9304C240.281 26.1435 241.917 27.1065 243.468 27.1193ZM243.464 26.0114C242.45 26.0114 241.708 25.1591 241.708 24.179C241.713 23.2031 242.488 22.3509 243.494 22.3509C244.491 22.3509 245.224 23.1563 245.22 24.1662C245.224 25.1974 244.461 26.0114 243.464 26.0114ZM249.947 22.2188C251.055 22.2188 251.954 21.3196 251.954 20.2116C251.954 19.1037 251.055 18.2088 249.947 18.2088C248.843 18.2088 247.944 19.1037 247.944 20.2116C247.944 21.3196 248.843 22.2188 249.947 22.2188ZM249.947 21.2472C249.376 21.2472 248.915 20.7827 248.915 20.2116C248.915 19.6406 249.376 19.1804 249.947 19.1804C250.522 19.1804 250.982 19.6406 250.982 20.2116C250.982 20.7827 250.522 21.2472 249.947 21.2472ZM253.642 27L254.959 27L254.959 23.1946L258.667 23.1946V22.0653L254.959 22.0653V19.4063L259.054 19.4063V18.2727L253.642 18.2727L253.642 27Z" fill="#EFDDD2"/>
<path d="M235.878 46.1193C237.659 46.1193 238.967 45.054 238.963 43.6051C238.967 42.5014 238.298 41.7088 237.139 41.5298V41.4616C238.051 41.2273 238.643 40.5114 238.639 39.5313C238.643 38.2486 237.591 37.1534 235.912 37.1534C234.31 37.1534 233.023 38.1207 232.98 39.5398H234.254C234.284 38.7386 235.038 38.2528 235.895 38.2528C236.786 38.2528 237.369 38.794 237.365 39.5994C237.369 40.4432 236.692 40.9972 235.724 40.9972H234.987V42.071H235.724C236.935 42.071 237.634 42.6847 237.634 43.5625C237.634 44.4105 236.896 44.9858 235.869 44.9858C234.923 44.9858 234.186 44.5 234.135 43.7244H232.797C232.852 45.1477 234.114 46.1193 235.878 46.1193ZM243.612 46.1449C245.628 46.1449 246.808 44.5 246.808 41.6406C246.808 38.8026 245.611 37.1534 243.612 37.1534C241.609 37.1534 240.416 38.7983 240.412 41.6406C240.412 44.4957 241.592 46.1406 243.612 46.1449ZM243.612 45.0071C242.432 45.0071 241.72 43.8224 241.72 41.6406C241.724 39.4673 242.436 38.2699 243.612 38.2699C244.784 38.2699 245.5 39.4673 245.5 41.6406C245.5 43.8224 244.788 45.0071 243.612 45.0071ZM250.216 41.2188C251.324 41.2188 252.223 40.3196 252.223 39.2116C252.223 38.1037 251.324 37.2088 250.216 37.2088C249.113 37.2088 248.213 38.1037 248.213 39.2116C248.213 40.3196 249.113 41.2188 250.216 41.2188ZM250.216 40.2472C249.645 40.2472 249.185 39.7827 249.185 39.2116C249.185 38.6406 249.645 38.1804 250.216 38.1804C250.792 38.1804 251.252 38.6406 251.252 39.2116C251.252 39.7827 250.792 40.2472 250.216 40.2472ZM260.996 40.1108C260.698 38.2443 259.237 37.1534 257.391 37.1534C255.133 37.1534 253.467 38.8452 253.467 41.6364C253.467 44.4276 255.124 46.1193 257.391 46.1193C259.309 46.1193 260.711 44.9176 260.996 43.1918L259.667 43.1875C259.441 44.304 258.504 44.9176 257.4 44.9176C255.904 44.9176 254.775 43.7713 254.775 41.6364C254.775 39.5185 255.9 38.3551 257.404 38.3551C258.516 38.3551 259.45 38.9815 259.667 40.1108H260.996Z" fill="#E1B398"/>
<path d="M236.713 137.087H232.844V138.19H236.713V137.087ZM241.343 142.119C243.158 142.119 244.441 141.088 244.45 139.673C244.441 138.574 243.67 137.649 242.694 137.474V137.423C243.542 137.219 244.117 136.422 244.126 135.48C244.117 134.146 242.941 133.153 241.343 133.153C239.728 133.153 238.552 134.146 238.56 135.48C238.552 136.418 239.127 137.219 239.992 137.423V137.474C238.999 137.649 238.228 138.574 238.237 139.673C238.228 141.088 239.511 142.119 241.343 142.119ZM241.343 141.041C240.252 141.041 239.562 140.462 239.57 139.588C239.562 138.68 240.312 138.033 241.343 138.033C242.357 138.033 243.107 138.68 243.116 139.588C243.107 140.462 242.421 141.041 241.343 141.041ZM241.343 136.98C240.461 136.98 239.835 136.422 239.843 135.591C239.835 134.773 240.44 134.232 241.343 134.232C242.229 134.232 242.835 134.773 242.843 135.591C242.835 136.422 242.212 136.98 241.343 136.98ZM249.287 133.273H248.005L245.827 134.696V135.957L247.915 134.594H247.966L247.966 142H249.287L249.287 133.273ZM253.544 137.219C254.652 137.219 255.551 136.32 255.551 135.212C255.551 134.104 254.652 133.209 253.544 133.209C252.441 133.209 251.542 134.104 251.542 135.212C251.542 136.32 252.441 137.219 253.544 137.219ZM253.544 136.247C252.973 136.247 252.513 135.783 252.513 135.212C252.513 134.641 252.973 134.18 253.544 134.18C254.12 134.18 254.58 134.641 254.58 135.212C254.58 135.783 254.12 136.247 253.544 136.247ZM257.24 142H258.557V138.195H262.264V137.065H258.557V134.406H262.652V133.273H257.24V142Z" fill="#EFDDD2"/>
<path d="M236.713 156.087H232.844V157.19H236.713V156.087ZM241.441 161.119C243.265 161.136 244.475 159.824 244.471 158.149C244.475 156.479 243.261 155.281 241.748 155.281C240.827 155.281 240.031 155.724 239.583 156.462H239.519C239.523 154.48 240.273 153.304 241.552 153.304C242.391 153.304 242.92 153.815 243.099 154.54H244.398C244.198 153.159 243.112 152.153 241.552 152.153C239.523 152.153 238.258 153.896 238.258 156.93C238.254 160.143 239.89 161.107 241.441 161.119ZM241.437 160.011C240.423 160.011 239.681 159.159 239.681 158.179C239.685 157.203 240.461 156.351 241.467 156.351C242.464 156.351 243.197 157.156 243.192 158.166C243.197 159.197 242.434 160.011 241.437 160.011ZM249.061 161.119C250.843 161.119 252.151 160.054 252.147 158.605C252.151 157.501 251.482 156.709 250.323 156.53V156.462C251.235 156.227 251.827 155.511 251.823 154.531C251.827 153.249 250.775 152.153 249.096 152.153C247.493 152.153 246.206 153.121 246.164 154.54H247.438C247.468 153.739 248.222 153.253 249.078 153.253C249.969 153.253 250.553 153.794 250.549 154.599C250.553 155.443 249.875 155.997 248.908 155.997H248.171V157.071H248.908C250.118 157.071 250.817 157.685 250.817 158.563C250.817 159.411 250.08 159.986 249.053 159.986C248.107 159.986 247.37 159.5 247.319 158.724H245.98C246.036 160.148 247.297 161.119 249.061 161.119ZM255.654 156.219C256.762 156.219 257.661 155.32 257.661 154.212C257.661 153.104 256.762 152.209 255.654 152.209C254.55 152.209 253.651 153.104 253.651 154.212C253.651 155.32 254.55 156.219 255.654 156.219ZM255.654 155.247C255.083 155.247 254.623 154.783 254.623 154.212C254.623 153.641 255.083 153.18 255.654 153.18C256.229 153.18 256.689 153.641 256.689 154.212C256.689 154.783 256.229 155.247 255.654 155.247ZM266.434 155.111C266.136 153.244 264.674 152.153 262.829 152.153C260.57 152.153 258.904 153.845 258.904 156.636C258.904 159.428 260.562 161.119 262.829 161.119C264.746 161.119 266.148 159.918 266.434 158.192L265.104 158.188C264.879 159.304 263.941 159.918 262.837 159.918C261.342 159.918 260.212 158.771 260.212 156.636C260.212 154.518 261.337 153.355 262.842 153.355C263.954 153.355 264.887 153.982 265.104 155.111H266.434Z" fill="#E1B398"/>
<path d="M236.713 291.087H232.844V292.19H236.713V291.087ZM238.043 296H243.787V294.871H239.858V294.807L241.592 292.991C243.19 291.376 243.646 290.605 243.646 289.629C243.646 288.227 242.504 287.153 240.859 287.153C239.227 287.153 238.034 288.21 238.034 289.804H239.291C239.287 288.866 239.892 288.253 240.834 288.253C241.72 288.253 242.393 288.798 242.393 289.668C242.393 290.439 241.933 290.993 240.996 291.986L238.043 295.045V296ZM248.351 296.119C250.166 296.119 251.449 295.088 251.457 293.673C251.449 292.574 250.678 291.649 249.702 291.474V291.423C250.55 291.219 251.125 290.422 251.134 289.48C251.125 288.146 249.949 287.153 248.351 287.153C246.736 287.153 245.56 288.146 245.568 289.48C245.56 290.418 246.135 291.219 247 291.423V291.474C246.007 291.649 245.236 292.574 245.244 293.673C245.236 295.088 246.518 296.119 248.351 296.119ZM248.351 295.041C247.26 295.041 246.57 294.462 246.578 293.588C246.57 292.68 247.32 292.033 248.351 292.033C249.365 292.033 250.115 292.68 250.124 293.588C250.115 294.462 249.429 295.041 248.351 295.041ZM248.351 290.98C247.469 290.98 246.842 290.422 246.851 289.591C246.842 288.773 247.447 288.232 248.351 288.232C249.237 288.232 249.842 288.773 249.851 289.591C249.842 290.422 249.22 290.98 248.351 290.98ZM252.801 294.295H256.939V296H258.196V294.295H259.35V293.179H258.196V287.273H256.572L252.801 293.23L252.801 294.295ZM256.947 293.179H254.181V293.111L256.879 288.841H256.947V293.179ZM262.732 291.219C263.84 291.219 264.739 290.32 264.739 289.212C264.739 288.104 263.84 287.209 262.732 287.209C261.628 287.209 260.729 288.104 260.729 289.212C260.729 290.32 261.628 291.219 262.732 291.219ZM262.732 290.247C262.161 290.247 261.701 289.783 261.701 289.212C261.701 288.641 262.161 288.18 262.732 288.18C263.307 288.18 263.767 288.641 263.767 289.212C263.767 289.783 263.307 290.247 262.732 290.247ZM266.428 296H267.744V292.195H271.452V291.065H267.744V288.406H271.839V287.273H266.428V296Z" fill="#EFDDD2"/>
<path d="M236.713 310.087H232.844V311.19H236.713V310.087ZM241.705 306.273H240.423L238.245 307.696V308.957L240.333 307.594H240.384L240.384 315H241.705L241.705 306.273ZM243.883 313.295H248.021V315L249.278 315V313.295H250.433L250.433 312.179H249.278V306.273L247.654 306.273L243.883 312.23V313.295ZM248.029 312.179H245.263V312.111L247.961 307.841H248.029V312.179ZM254.956 315.145C256.972 315.145 258.152 313.5 258.152 310.641C258.152 307.803 256.955 306.153 254.956 306.153C252.953 306.153 251.76 307.798 251.756 310.641C251.756 313.496 252.936 315.141 254.956 315.145ZM254.956 314.007C253.776 314.007 253.064 312.822 253.064 310.641C253.068 308.467 253.78 307.27 254.956 307.27C256.128 307.27 256.844 308.467 256.844 310.641C256.844 312.822 256.132 314.007 254.956 314.007ZM261.56 310.219C262.668 310.219 263.567 309.32 263.567 308.212C263.567 307.104 262.668 306.209 261.56 306.209C260.456 306.209 259.557 307.104 259.557 308.212C259.557 309.32 260.456 310.219 261.56 310.219ZM261.56 309.247C260.989 309.247 260.529 308.783 260.529 308.212C260.529 307.641 260.989 307.18 261.56 307.18C262.135 307.18 262.596 307.641 262.596 308.212C262.596 308.783 262.135 309.247 261.56 309.247ZM272.34 309.111C272.042 307.244 270.58 306.153 268.735 306.153C266.477 306.153 264.81 307.845 264.81 310.636C264.81 313.428 266.468 315.119 268.735 315.119C270.653 315.119 272.055 313.918 272.34 312.192L271.011 312.188C270.785 313.304 269.847 313.918 268.744 313.918C267.248 313.918 266.119 312.771 266.119 310.636C266.119 308.518 267.244 307.355 268.748 307.355C269.86 307.355 270.793 307.982 271.011 309.111H272.34Z" fill="#E1B398"/>
</svg>
